<svg width="194" height="163" viewBox="0 0 194 163" fill="none" xmlns="http://www.w3.org/2000/svg">
<path d="M77.2723 60.2266C76.8902 60.1846 76.7411 60.1158 76.6341 60.1617C64.4528 65.2474 51.8358 69.0837 39.3334 73.2448C39.2112 73.2868 39.1233 73.4206 38.9513 73.5735C38.8429 75.4085 38.8736 77.2491 39.043 79.0795C39.1252 79.4097 39.2364 79.7319 39.3755 80.0424C39.4978 80.4318 39.5723 80.8347 39.5971 81.2422C39.6315 83.2368 39.215 83.8519 37.2587 84.299C34.2095 85.0302 31.0011 84.6818 28.1799 83.3132C27.6668 83.0991 27.2179 82.7556 26.877 82.3163C26.5362 81.877 26.315 81.3569 26.235 80.8066C26.0784 79.7902 25.853 78.7815 25.6581 77.6504C25.234 77.723 24.8403 77.7498 24.4697 77.853C19.7571 79.2031 15.0446 80.5595 10.332 81.9223C8.53862 82.4471 6.6683 82.6591 4.80299 82.549C3.01821 82.5413 1.3024 81.8588 0 80.6385C0.324786 80.2564 0.52346 79.8743 0.840603 79.7061C1.52131 79.374 2.22801 79.0979 2.95363 78.8808C9.59455 76.7589 16.238 74.6459 22.884 72.5418C23.6024 72.3125 24.3054 72.0488 25.127 71.7775C25.127 71.2311 25.127 70.7612 25.127 70.2912C24.955 66.2868 24.699 62.2671 24.6226 58.2818C24.5691 55.4542 24.7716 52.6229 24.8174 49.7915C24.8174 49.119 24.5767 48.435 24.6455 47.774C24.7143 47.113 25.1117 46.4825 25.2148 45.8176C25.746 42.2679 26.235 38.7105 26.7432 35.1532C26.7634 34.83 26.7634 34.5058 26.7432 34.1826C26.3303 34.2622 25.9241 34.3733 25.5281 34.5151C23.7705 35.3213 22.0205 36.139 20.2819 36.9873C19.1662 37.5299 18.1001 38.1794 16.9691 38.6953C13.9123 40.0861 11.0618 39.5474 8.31834 37.8394C8.14418 37.7319 7.98378 37.6036 7.84072 37.4573C7.62102 37.2772 7.46969 37.0273 7.41197 36.7491C7.35426 36.471 7.39363 36.1815 7.52354 35.9289C7.76907 35.4362 8.05267 34.9635 8.3718 34.5151C9.51111 33.0321 10.9092 31.7675 12.4985 30.782C17.0107 27.8344 21.778 25.2973 26.7432 23.2011C33.1541 20.4223 39.9624 18.67 46.9181 18.0083C52.3798 17.486 57.8845 18.3685 62.9091 20.5722C63.98 21.0526 64.9875 21.6635 65.9086 22.391C67.8497 23.885 68.2279 25.3829 67.3873 27.6907C66.5649 29.8989 65.3246 31.9279 63.7344 33.6668C61.9806 35.6193 60.1274 37.4878 58.3162 39.3983L56.9674 40.8045C59.8484 40.7051 62.3168 40.2007 64.8234 39.9638C67.33 39.7269 69.7907 39.5206 72.2553 39.3448C74.7962 39.1652 77.3372 39.0392 79.9317 38.8863C80.5201 37.526 80.6653 36.0779 81.013 34.6832C81.7543 31.7372 82.4268 28.7721 83.1833 25.8299C83.9667 22.7731 85.4759 21.7682 88.6168 22.1197C88.7544 22.1197 88.8881 22.177 89.0219 22.2C92.2506 22.754 93.0415 23.438 93.4504 26.682C93.8325 29.693 93.9815 32.7345 94.1917 35.7645C94.2987 37.2929 94.3063 38.7908 94.3598 40.3765C94.9291 40.5905 95.445 40.7586 95.934 40.9764C96.9495 41.4045 97.9395 41.8906 98.8992 42.4322C99.4734 42.8109 99.9712 43.2944 100.366 43.8575C100.676 44.2386 100.855 44.709 100.877 45.1995C100.899 45.6899 100.763 46.1745 100.489 46.5818C100.052 47.2867 99.5229 47.9294 98.9145 48.4923C98.0609 49.1996 97.1679 49.8579 96.2397 50.464C95.6742 50.8461 95.0934 51.2052 94.44 51.6103C94.398 51.9389 94.3407 52.2713 94.3101 52.6076C93.9739 56.4592 93.7217 60.3222 93.2899 64.1623C92.7283 69.1716 92.0443 74.1695 91.3794 79.1636C91.196 80.5315 90.8598 81.8765 90.642 83.2368C90.3898 84.8225 89.3887 85.6516 87.9138 85.965C85.1779 86.5534 82.4383 86.6031 79.7483 85.709C78.9104 85.4062 78.0901 85.0566 77.2913 84.662C76.8697 84.4994 76.516 84.1983 76.2882 83.808C76.0605 83.4178 75.9723 82.9616 76.0381 82.5146C76.1412 80.9862 76.1336 79.4578 76.2138 77.96C76.438 73.818 76.6736 69.6786 76.9207 65.5417C77.0353 63.7764 77.1538 62.0569 77.2723 60.2266ZM38.7718 67.1694C39.7041 66.8905 40.3575 66.7224 40.9994 66.5008C43.9989 65.4767 47.006 64.4603 49.9941 63.3943C58.8358 60.2622 67.5085 56.6719 75.9769 52.6381C76.6494 52.3172 77.4098 52.1147 77.9333 51.4116C78.1358 50.0322 78.3727 48.6031 78.5446 47.1702C78.7166 45.7374 79.2324 44.3962 79.0796 42.8182C78.2925 42.8182 77.6123 42.7761 76.936 42.8182C74.1123 43.013 71.2924 43.2002 68.4725 43.4562C62.9014 43.9377 57.3915 44.828 51.8854 45.81C50.4545 46.0317 49.1001 46.6026 47.9422 47.4721C45.9475 48.9957 43.4592 49.7267 40.9574 49.524C40.0059 49.4705 39.0469 49.524 38.1069 49.524C38.0381 49.673 37.9235 49.8029 37.9349 49.9061C38.5848 55.6366 38.8643 61.403 38.7718 67.1694ZM35.1685 36.2193C36.5708 34.9048 37.87 33.7738 39.066 32.5435C40.262 31.3131 41.6299 30.3655 42.4361 28.7224C40.1932 28.8906 34.5954 30.7285 32.9486 31.7793L35.1685 36.2193Z" fill="#FBEA54"/>
<path d="M92.0674 105.12C93.5958 110.336 95.0439 115.379 96.6029 120.404C97.8791 124.504 99.4687 128.478 101.895 132.062C102.51 132.971 103.179 133.839 103.763 134.641C104.474 134.687 104.57 134.202 104.745 133.877C106.348 130.959 107.235 127.702 107.332 124.374C107.48 119.376 106.345 114.423 104.035 109.988C102.38 106.605 99.6414 103.872 96.2552 102.224C92.4093 100.336 88.3901 98.8249 84.2534 97.7109C83.708 97.5263 83.1272 97.4703 82.5565 97.5472C81.9859 97.6241 81.4407 97.8318 80.9635 98.1541C79.2517 99.2317 77.2418 99.0674 75.3466 98.5057C74.5098 98.2611 73.7494 97.7415 72.9012 97.325C73.2336 95.8195 74.2424 95.0629 75.4078 94.6503C76.7127 94.2096 78.0641 93.9211 79.4351 93.7905C81.9211 93.5971 84.4219 93.7748 86.8555 94.3178C94.2759 95.7966 101.352 98.349 108.253 101.41C113.176 103.553 117.314 107.169 120.098 111.761C120.675 112.697 121.268 113.625 121.841 114.542C122.41 114.416 122.269 114.011 122.261 113.709C122.168 109.839 121.697 105.987 120.855 102.208C120.736 101.669 120.599 101.131 120.534 100.584C120.423 99.6596 120.641 99.2508 121.485 99.0062C123.606 98.4025 125.65 98.5744 127.267 100.191C128.284 101.233 129.181 102.387 129.941 103.63C131.295 105.883 132.35 108.303 133.078 110.828C134.305 114.795 135.107 118.853 135.948 122.918C136.116 123.728 136.254 124.546 136.441 125.356C136.568 125.672 136.731 125.974 136.926 126.254C137.362 125.371 137.69 124.703 138.019 124.03C140.518 118.791 142.986 113.541 145.519 108.322C146.364 106.583 147.346 104.914 148.271 103.213C149.436 101.062 151.327 100.133 153.693 99.992C155.352 99.9078 157.013 100.098 158.61 100.554C159.424 100.746 160.158 101.188 160.708 101.818C161.205 102.418 161.205 103.087 160.54 103.377C159.527 103.817 159.141 104.646 158.767 105.544C156.413 111.222 154.021 116.885 151.713 122.582C149.455 128.149 147.296 133.758 145.065 139.337C144.243 141.385 143.303 143.391 142.455 145.432C142.127 146.274 141.582 147.016 140.876 147.58C140.169 148.144 139.326 148.512 138.431 148.645C134.473 149.409 130.602 149.168 126.884 147.499C125.322 146.788 124.301 145.68 124.126 143.911C124.045 143.089 123.954 142.264 123.866 141.442C123.774 140.556 123.682 139.669 123.591 138.768C122.796 138.791 122.62 139.391 122.318 139.784C120.216 142.566 117.241 144.563 113.87 145.454C112.198 145.894 110.479 146.127 108.75 146.15C104.526 146.357 100.308 145.625 96.4004 144.006C92.7758 142.54 89.8075 139.806 88.0477 136.315C86.2171 132.815 85.1369 128.972 84.8762 125.031C84.5991 120.473 84.8969 115.897 85.7627 111.413C85.9986 109.837 86.5441 108.323 87.3676 106.958C87.849 106.109 88.6049 105.448 89.5111 105.085C90.3365 104.738 91.2229 104.6 92.0674 105.12Z" fill="#FBEA54"/>
<path d="M64.8578 155.385C65.0756 155.492 65.1941 155.599 65.3202 155.603C71.2555 155.858 77.1882 156.101 83.1184 156.333C83.2369 156.333 83.3592 156.237 83.5808 156.145C83.5025 155.754 83.3887 155.37 83.2407 154.999C82.5262 153.582 81.8231 152.156 81.036 150.796C77.7728 145.095 74.6664 139.314 72.3432 133.158C71.514 130.965 70.918 128.688 70.1958 126.456C69.8443 125.375 70.0812 124.672 71.4071 124.263C73.542 123.596 75.85 123.762 77.8684 124.725C78.1285 124.822 78.361 124.981 78.5456 125.188C78.7301 125.395 78.861 125.644 78.9268 125.914C79.3395 127.694 80.3024 129.23 81.3455 130.678C83.9744 134.327 86.3586 138.129 88.6627 141.985C90.7125 145.429 92.9538 148.756 95.3762 151.95C96.3812 153.268 97.3593 154.625 98.2687 155.996C98.8028 156.801 99.2438 157.664 99.5832 158.568C100.145 160.115 99.7322 161.105 98.2649 161.789C97.4499 162.159 96.5965 162.437 95.7201 162.618C93.1945 163.161 90.6344 163 88.0781 162.886C83.3172 162.664 78.5562 162.423 73.7914 162.286C71.4988 162.217 69.2329 162.355 66.9556 162.412C63.2257 162.551 59.491 162.334 55.802 161.766C53.8899 161.46 52.026 160.905 50.2577 160.115C49.4445 159.739 48.6648 159.294 47.9269 158.786C47.3108 158.394 46.7988 157.859 46.4348 157.226C46.0708 156.593 45.8656 155.882 45.8369 155.152C45.7681 153.841 45.6382 152.527 45.6535 151.216C45.8139 139.058 45.8101 126.888 46.4177 114.737C46.7195 108.876 47.0443 103.003 47.9804 97.1949C48.3969 94.6119 48.9281 92.0365 49.5356 89.4879C50.0744 87.2259 50.636 86.5152 53.7081 86.3738C54.6733 86.3842 55.6305 86.5493 56.5433 86.8629C56.9769 86.9991 57.3686 87.2436 57.6815 87.5732C57.9944 87.9028 58.218 88.3066 58.3315 88.7467C58.7945 90.1244 59.1773 91.5278 59.4778 92.9498C60.3055 97.5005 60.8884 102.092 61.2241 106.705C61.9883 116.487 62.6913 126.273 63.3982 136.062C63.8338 142.126 64.235 148.194 64.6591 154.258C64.7126 154.648 64.8044 155.045 64.8578 155.385Z" fill="#FBEA54"/>
<path d="M135.963 28.7415C135.149 29.2816 134.426 29.947 133.819 30.7131C127.95 37.2088 124.183 44.8088 122.062 53.2571C121.149 56.8947 120.553 60.5781 120.855 64.338C121.042 66.2656 121.348 68.1798 121.772 70.0695C121.947 70.9216 122.414 71.7126 122.754 72.5455C124.385 72.5455 125.665 71.8196 127.018 71.3687C128.365 70.948 129.679 70.4282 130.95 69.8135C130.487 69.0226 130.094 68.3883 129.731 67.7349C128.818 66.111 127.855 64.5099 127.056 62.8402C126.649 61.9661 126.379 61.0342 126.258 60.0776C126.07 58.7058 126.64 57.8423 127.966 57.3608C128.747 57.0877 129.56 56.9144 130.384 56.845C134.366 56.4858 137.881 57.7085 140.984 60.1616C141.91 60.8852 142.791 61.6636 143.624 62.4925C146.891 65.7747 150.12 69.0913 153.364 72.3927C154.347 73.4673 155.108 74.7256 155.603 76.0953C156.13 77.3982 155.817 78.151 154.491 78.77C153.748 79.132 152.959 79.3892 152.145 79.5342C146.864 80.3251 141.828 79.729 137.182 76.8595C136.994 76.7713 136.8 76.696 136.601 76.634C136.047 76.8289 135.332 77.062 134.629 77.3333C128.848 79.5838 122.907 79.7214 116.885 78.6401C114.978 78.3005 113.129 77.6906 111.394 76.8289C110.463 76.37 109.569 75.8399 108.719 75.2432C107.113 74.1316 105.945 72.4955 105.414 70.616C104.082 66.305 103.748 61.7472 104.44 57.2883C105.25 52.3756 106.683 47.5863 108.704 43.0359C111.421 36.7847 115.444 31.4926 120.358 26.8233C124.106 23.2621 128.588 21.6459 133.709 21.5694C136.199 21.5417 138.681 21.8619 141.083 22.5209C142.208 22.8498 143.3 23.2848 144.342 23.82C146.673 24.9546 148.468 26.9552 149.344 29.3949C150.681 32.8338 150.991 36.3721 149.841 39.9447C149.012 42.5162 147.434 44.4459 144.786 45.2941C142.613 46.0661 140.227 45.9772 138.118 45.0457C137.037 44.5605 136.792 44.1057 136.937 42.9174C137.002 42.3748 137.189 41.8437 137.281 41.3011C137.533 39.8033 137.873 38.3131 137.984 36.8076C138.17 33.9737 137.463 31.1528 135.963 28.7415Z" fill="#FBEA54"/>
<path d="M169.763 136.639C169.11 139.314 167.887 149.172 167.998 150.976C168.382 150.977 168.765 150.95 169.144 150.895C173.26 149.955 177.455 149.52 181.624 148.916C183.057 148.706 184.493 148.5 185.915 148.224C187.894 147.859 189.932 147.978 191.856 148.568C192.609 148.75 193.278 149.177 193.759 149.783C193.836 149.878 193.892 149.988 193.925 150.105C193.959 150.222 193.968 150.344 193.953 150.465C193.938 150.586 193.899 150.702 193.838 150.808C193.777 150.913 193.696 151.005 193.599 151.079C193.08 151.412 192.517 151.669 191.925 151.843C190.527 152.225 189.102 152.493 187.684 152.794C182.487 153.91 177.295 155.053 172.087 156.111C170.058 156.524 167.998 156.807 165.942 157.032C163.666 157.272 161.364 157.012 159.198 156.268C158.74 156.114 158.296 155.924 157.869 155.698C156.39 154.907 156.195 154.384 156.577 152.68C157.425 148.905 158.258 145.127 159.076 141.347C159.179 140.881 159.202 140.395 159.279 139.795C158.868 139.759 158.456 139.746 158.044 139.757C156.394 139.95 154.727 139.95 153.077 139.757C151.287 139.548 149.574 138.911 148.083 137.9C147.231 137.285 147.135 136.517 147.961 135.856C148.853 135.095 149.841 134.453 150.899 133.945C153.612 132.749 156.39 131.691 159.145 130.583C159.974 130.25 160.818 129.945 161.728 129.601C163.119 124.775 164.513 119.945 165.931 115.081C165.041 114.615 163.852 114.76 163.103 113.667C163.317 113.327 163.485 112.831 163.814 112.578C164.637 111.951 165.519 111.405 166.447 110.947C167.383 110.5 168.059 109.934 168.308 108.895C168.43 108.502 168.582 108.119 168.762 107.749C168.889 107.348 169.151 107.005 169.504 106.778C169.858 106.551 170.279 106.455 170.696 106.507C171.106 106.56 171.512 106.641 171.911 106.751C172.171 107.267 172.415 107.749 172.675 108.28C173.164 108.188 173.634 108.123 174.093 108.012C177.987 107.082 181.881 106.149 185.773 105.211C187.535 104.815 189.37 104.885 191.096 105.414C191.684 105.602 192.241 105.877 192.747 106.232C192.865 106.307 192.96 106.413 193.022 106.539C193.084 106.665 193.11 106.805 193.098 106.945C193.085 107.085 193.034 107.218 192.951 107.331C192.867 107.444 192.754 107.531 192.625 107.584C191.748 107.989 190.846 108.333 189.923 108.616C184.833 110.144 179.717 111.6 174.521 112.75C173.856 112.895 173.202 113.09 172.43 113.293C171.926 117.576 171.406 121.802 171.013 126.143C171.777 126.357 172.35 126.066 172.923 125.929C175.996 125.118 179.125 124.539 182.285 124.198C185.093 123.934 187.787 124.496 190.427 125.344C191.209 125.623 191.932 126.044 192.56 126.586C193.572 127.427 193.465 128.638 192.338 129.345C191.578 129.825 190.766 130.22 189.919 130.522C187.772 131.286 185.613 132.008 183.423 132.646C179.381 133.827 175.315 134.939 171.265 136.085C170.734 136.269 170.226 136.475 169.763 136.639Z" fill="#FBEA54"/>
<path d="M81.4599 2.50662C82.2737 1.48641 83.4774 1.18837 84.681 0.978212C87.1685 0.51587 89.6101 0.863561 92.002 1.57809C92.5855 1.78035 93.1383 2.0619 93.6451 2.41487C93.9125 2.59063 94.2449 2.92306 94.2526 3.17907C94.2832 4.10758 94.6767 4.87562 95.0436 5.68567C95.0624 5.84552 95.0404 6.00752 94.9796 6.15654C94.9188 6.30556 94.8211 6.43673 94.6958 6.53775C94.1801 6.87508 93.6061 7.11348 93.0032 7.2408C89.1325 7.91712 85.6133 7.21406 82.6864 4.42472C82.1438 3.91271 81.5554 3.40837 81.4599 2.50662Z" fill="#FBEA54"/>
</svg>
