<svg width="167" height="192" viewBox="0 0 167 192" fill="none" xmlns="http://www.w3.org/2000/svg">
<path d="M122.539 91.199C126.006 91.4764 127.878 93.4316 128.883 96.7945C130.159 101.059 131.879 105.191 133.612 109.969C134.558 109.209 135.44 108.371 136.247 107.465C139.894 102.452 143.472 97.3769 147.077 92.3291C148.776 89.9509 150.482 87.5518 154.101 87.6697L157.159 94.0071C151.91 101.357 146.627 108.991 141.08 116.431C138.674 119.655 136.878 122.539 139.083 126.707C139.776 128.093 139.194 130.173 139.194 132.378C138.145 132.265 137.103 132.094 136.074 131.865C132.357 130.763 129.452 131.622 127.358 135.062C126.228 136.934 124.813 138.626 122.927 141.219C126.304 140.934 128.738 140.484 131.158 140.525C137.842 140.761 144.567 140.865 151.189 141.697C155.698 142.21 159.866 144.347 162.914 147.709C166.61 151.8 167.074 156.348 163.94 160.883C161.644 164.163 158.374 166.637 154.594 167.955C145.693 171.177 136.492 173.5 127.129 174.889C120.528 175.901 114.073 177.815 107.5 179.049C84.1886 183.417 60.859 187.712 37.5109 191.932C36.4728 192.023 35.4288 192.023 34.3907 191.932C33.3576 189.748 32.3106 187.619 30.9932 184.783C32.6365 184.09 34.1896 183.133 35.8468 182.821C47.6826 180.623 59.5531 178.619 71.389 176.435C87.9398 173.377 104.497 170.375 120.993 167.033C130.194 165.168 139.312 162.817 148.381 160.37C153.408 158.983 154.268 158.068 156.563 154.497C154.004 151.356 150.26 150.642 146.599 149.99C139.665 148.763 132.732 149.206 125.798 150.323C122.234 150.898 118.725 151.772 115.182 152.479C112.7 152.978 110.634 152.916 108.942 150.302C107.25 147.688 107.708 145.753 109.261 143.687C114.232 137.079 119.148 130.43 124.349 124.009C126.568 121.277 127.122 118.844 125.735 115.536C123.808 110.939 122.269 106.169 120.646 101.454C118.871 96.1011 118.899 96.0873 122.539 91.199Z" fill="#FAE35B"/>
<path d="M9.85904 72.6721C3.03627 73.837 -0.832745 70.9318 0.151842 64.6637C1.00525 59.9338 2.53723 55.3519 4.70036 51.0598C7.00928 46.2478 10.1711 41.838 13.215 36.8526L8.9646 30.8827L11.3498 24.781C15.1425 24.5799 15.1425 24.5799 19.6009 29.1284C22.1525 26.7086 24.7388 24.2749 27.2696 21.8273C31.1005 18.1104 35.6108 15.1655 40.5546 13.1532C46.1362 10.8512 54.3596 14.2903 53.4027 22.2433C53.1115 24.6146 52.8896 27.0969 52.016 29.2879C49.5961 35.5283 46.8781 41.6646 44.2572 47.8287C43.5638 49.4858 42.7456 51.1083 41.6917 53.3756C45.2626 52.3772 47.9944 51.462 50.7957 50.8795C57.036 49.5621 63.1446 49.9088 68.6153 53.7293C75.1191 58.2708 77.2409 64.8232 74.4327 72.2422C71.6245 79.6613 66.3064 84.9032 59.9759 89.32C58.4505 90.3808 56.8974 91.4001 55.0322 92.6759C58.0969 95.7891 55.6631 98.9787 55.9543 102.099C51.1007 104.491 49.1801 101.073 46.9891 97.7514C44.2156 99.4918 41.4421 100.899 39.1124 102.785C33.1355 107.542 31.097 105.482 28.2264 100.053C31.9152 95.5464 37.6008 93.4247 42.2325 89.313C40.6101 86.7614 40.9221 83.5372 38.5646 80.8886C36.3389 78.3924 35.6663 74.4957 33.4198 72.0273C31.3397 69.7531 28.0947 68.5605 24.9676 66.6468C25.5153 64.5181 26.0492 62.4241 26.701 59.8795L18.4499 44.972C15.6764 50.2416 13.6449 54.6029 11.1279 58.6522C8.31977 63.2492 11.1487 68.1514 9.85904 72.6721ZM50.449 84.3C56.6893 80.9302 61.8133 76.9294 65.0098 71.0288C68.3171 64.8994 65.5368 60.039 58.5892 59.6299C52.0773 59.1356 45.5937 60.8985 40.2287 64.6221L50.449 84.3ZM32.4213 51.1152C37.3373 41.2208 42.2603 32.519 44.3681 21.5499C35.5346 25.1207 30.57 31.6246 24.8358 37.2478L32.4213 51.1152Z" fill="#FAE35B"/>
<path d="M120.347 51.5445C114.536 50.1578 113.67 49.1524 114.585 43.9729C115.673 37.8227 115.486 31.7973 113.066 25.7164C112.283 32.144 110.917 38.5715 110.855 45.006C110.855 53.0506 111.369 61.087 112.394 69.066C113.455 77.9412 117.206 79.7994 125.45 75.9997C129.125 74.3079 132.772 72.3872 135.199 68.4142C130.109 67.9011 125.942 72.5745 120.929 69.7386C120.929 68.9828 120.929 68.1508 120.929 67.3187C120.888 61.64 121.151 61.2379 126.608 59.553C127.889 59.0449 129.246 58.7543 130.623 58.6932C137.515 59.0191 143.797 56.4883 150.259 54.7826C152.339 54.2418 154.523 54.0892 157.193 53.7078V62.1115C154.62 62.6939 151.93 63.1723 149.33 63.9351C147.943 64.3441 146.556 64.781 146.154 66.7848C144.407 74.9319 138.298 79.4735 131.593 83.2385C127.371 85.6098 122.815 87.0867 117.788 86.8717C111.076 86.5875 106.951 84.0983 105.141 77.5668C103.46 71.6173 102.373 65.5158 101.896 59.3519C101.036 46.1125 102.087 32.8182 105.016 19.8783C105.481 17.8715 106.179 15.9261 107.096 14.0817C108.4 11.4192 110.563 9.70652 113.677 9.92147C116.596 10.1364 119.022 11.5786 120.125 14.3451C121.465 17.4702 122.487 20.7223 123.176 24.0523C124.313 30.4799 125.055 36.9352 124.001 43.536C123.638 46.5186 122.362 49.316 120.347 51.5445Z" fill="#FAE35B"/>
<path d="M47.9585 130.194L45.0533 136.039C42.3908 136.733 40.3522 135.623 39.222 133.266C36.7259 128.003 32.011 125.555 27.0673 123.482C24.2201 122.291 21.2608 121.387 18.2337 120.785C13.9417 119.925 12.555 121.659 13.7337 125.902C15.6336 132.746 19.8354 138.168 24.6266 143.146C27.9548 146.613 31.5603 149.851 35.1658 153.02C39.4259 156.88 44.8588 159.197 50.5933 159.6C50.2813 156.646 49.9 153.817 49.7405 150.981C49.6447 149.881 49.8534 148.775 50.3437 147.785C53.1727 142.931 54.3999 143.777 58.0401 146.821C59.1218 152.368 60.1827 157.7 61.2158 163.06C61.7497 165.833 59.7736 167.178 57.8807 168.281C55.2389 169.827 52.3337 169.668 49.3453 169.155C40.4275 167.78 32.1824 163.591 25.8123 157.201C21.0557 152.486 16.4864 147.556 12.1321 142.467C8.14615 137.68 5.41738 131.975 4.19294 125.867C2.41791 117.804 6.9664 111.577 15.169 111.466C26.7552 111.321 36.712 115.439 44.3946 124.307C45.9269 126.048 46.863 128.343 47.9585 130.194Z" fill="#FAE35B"/>
<path d="M113.63 104.935C109.067 110.295 101.517 108.929 95.8794 112.729C96.136 119.864 96.344 127.047 96.6768 134.223C96.9056 139.188 97.2939 144.152 97.6267 149.117C98.0428 155.357 97.3147 156.002 91.1992 154.893C90.5861 154.73 89.9839 154.529 89.3964 154.289C86.4219 141.691 88.3633 128.517 86.4773 115.579L80.4866 117.014L76.7285 110.399C78.0667 109.359 79.2038 107.924 80.653 107.445C88.9734 104.713 97.3286 102.092 105.746 99.6726C110.995 98.1195 112.936 99.5825 113.63 104.935Z" fill="#FAE35B"/>
<path d="M77.1172 21.2172L82.5047 18.1733C84.8483 18.6448 85.7774 20.302 86.1033 22.5416C87.2543 30.3559 88.5648 38.1494 89.5701 45.9844C90.8737 56.177 91.9276 66.4043 93.1202 76.6176C93.3906 78.9196 92.2535 80.4172 89.4037 81.2424C87.3236 81.8456 84.5501 80.3688 83.6903 78.0806C83.4835 77.2458 83.3787 76.389 83.3783 75.529C81.9916 62.9651 80.7227 50.4012 79.2666 37.8512C78.7535 33.4275 77.8105 29.0593 77.1449 24.6772C77.0479 23.5262 77.0386 22.3696 77.1172 21.2172Z" fill="#FAE35B"/>
<path d="M69.7946 159.371C68.81 156.119 67.8809 153.228 67.0627 150.309C64.622 141.538 62.2091 132.753 59.8239 123.961C59.5466 122.962 59.3593 121.943 59.0335 120.965C58.4718 119.28 57.827 117.179 59.5882 116.306C61.1344 115.536 63.2631 115.876 65.1352 115.883C65.9822 116.007 66.8095 116.24 67.5966 116.576L78.4132 156.792L69.7946 159.371Z" fill="#FAE35B"/>
<path d="M73.4904 0H81.2145C82.1921 5.38749 83.6205 10.8096 79.5435 15.7673C73.6082 14.9283 71.4865 9.63093 73.4904 0Z" fill="#FAE35B"/>
<path d="M61.9028 110.031L58.5469 103.95L66.3126 99.6719L69.5229 104.796C68.0322 107.764 65.1963 108.505 61.9028 110.031Z" fill="#FAE35B"/>
</svg>
