<svg width="109" height="124" viewBox="0 0 109 124" fill="none" xmlns="http://www.w3.org/2000/svg">
<path d="M79.9377 58.8992C82.1767 59.0784 83.3857 60.3411 84.0351 62.513C84.859 65.267 85.9696 67.9359 87.0891 71.0212C87.7001 70.5304 88.2693 69.9897 88.7907 69.4047C91.1462 66.167 93.4568 62.8891 95.7854 59.6291C96.8825 58.0931 97.9841 56.5438 100.322 56.6199L102.296 60.7128C98.9066 65.4595 95.4944 70.3898 91.9119 75.1947C90.3581 77.277 89.1983 79.1399 90.6223 81.8312C91.0701 82.7268 90.6939 84.0702 90.6939 85.4942C90.0165 85.4212 89.3438 85.3106 88.6788 85.1628C86.2785 84.4508 84.4023 85.0061 83.0499 87.2272C82.32 88.4362 81.4065 89.5289 80.1884 91.2036C82.3692 91.02 83.941 90.729 85.5039 90.7558C89.8207 90.9081 94.1644 90.9753 98.4409 91.5127C101.353 91.8441 104.044 93.2241 106.013 95.3951C108.4 98.0372 108.7 100.975 106.676 103.903C105.193 106.022 103.081 107.62 100.64 108.471C94.8913 110.552 88.9492 112.052 82.9021 112.949C78.639 113.603 74.47 114.839 70.2248 115.636C55.1697 118.457 40.1027 121.23 25.0237 123.956C24.3533 124.014 23.679 124.014 23.0086 123.956C22.3413 122.545 21.6652 121.171 20.8143 119.339C21.8756 118.891 22.8787 118.273 23.9489 118.072C31.5929 116.652 39.2593 115.358 46.9033 113.948C57.5923 111.973 68.2858 110.034 78.9391 107.875C84.8814 106.671 90.77 105.153 96.6273 103.572C99.8738 102.676 100.429 102.085 101.911 99.7791C100.259 97.7505 97.8408 97.2893 95.4764 96.8684C90.9984 96.0757 86.5204 96.3623 82.0424 97.0833C79.7407 97.455 77.4747 98.0192 75.1865 98.4759C73.5833 98.7984 72.2489 98.7581 71.1563 97.0699C70.0636 95.3817 70.3592 94.1323 71.3623 92.7978C74.573 88.5303 77.7479 84.2359 81.1065 80.0892C82.5394 78.3249 82.8977 76.7531 82.0021 74.6171C80.7572 71.6482 79.763 68.5672 78.7152 65.5222C77.5688 62.0652 77.5867 62.0562 79.9377 58.8992Z" fill="#FAE35B"/>
<path d="M7.16539 46.934C2.75902 47.6863 0.260281 45.8101 0.89616 41.762C1.44732 38.7072 2.43672 35.748 3.83374 32.9761C5.32492 29.8683 7.36691 27.0203 9.33277 23.8006L6.58774 19.945L8.12818 16.0044C10.5777 15.8745 10.5776 15.8745 13.457 18.8121C15.1049 17.2492 16.7752 15.6775 18.4097 14.0967C20.8838 11.6963 23.7968 9.79434 26.9896 8.49471C30.5944 7.008 35.9053 9.2291 35.2874 14.3654C35.0993 15.8969 34.956 17.5 34.3918 18.9151C32.8289 22.9453 31.0735 26.9083 29.3809 30.8893C28.9331 31.9595 28.4046 33.0074 27.724 34.4717C30.0302 33.8269 31.7945 33.2358 33.6036 32.8596C37.6338 32.0088 41.579 32.2327 45.1122 34.7001C49.3125 37.6332 50.6828 41.8649 48.8692 46.6564C47.0556 51.4479 43.621 54.8333 39.5326 57.6858C38.5474 58.3709 37.5443 59.0292 36.3397 59.8531C38.319 61.8638 36.7472 63.9237 36.9353 65.9388C33.8007 67.4837 32.5603 65.276 31.1452 63.1311C29.354 64.255 27.5628 65.1641 26.0582 66.3821C22.1981 69.454 20.8816 68.124 19.0277 64.6177C21.41 61.707 25.082 60.3368 28.0733 57.6813C27.0254 56.0334 27.2269 53.9511 25.7044 52.2405C24.267 50.6284 23.8326 48.1118 22.3817 46.5176C21.0383 45.0488 18.9426 44.2786 16.923 43.0427C17.2768 41.6679 17.6216 40.3155 18.0425 38.6721L12.7137 29.0444C10.9225 32.4477 9.6104 35.2643 7.98488 37.8795C6.17128 40.8484 7.9983 44.0144 7.16539 46.934ZM33.3797 54.4437C37.4099 52.2674 40.7192 49.6835 42.7836 45.8727C44.9196 41.9142 43.1239 38.7751 38.6369 38.5109C34.4313 38.1917 30.2441 39.3302 26.7791 41.7351L33.3797 54.4437ZM21.7369 33.0119C24.9118 26.6217 28.0912 21.0018 29.4525 13.9176C23.7475 16.2238 20.5412 20.4242 16.8379 24.0558L21.7369 33.0119Z" fill="#FAE35B"/>
<path d="M78.522 33.2888C74.7694 32.3932 74.2096 31.7438 74.8007 28.3988C75.5038 24.4268 75.3829 20.5354 73.8201 16.6082C73.314 20.7593 72.4318 24.9104 72.3915 29.066C72.3917 34.2614 72.7237 39.4516 73.3857 44.6048C74.0708 50.3366 76.4934 51.5367 81.8178 49.0828C84.1912 47.9901 86.5466 46.7497 88.1139 44.1838C84.827 43.8524 82.1357 46.8706 78.8981 45.0391C78.8981 44.551 78.8981 44.0136 78.8981 43.4763C78.8713 39.8088 79.0414 39.5491 82.5656 38.4609C83.3929 38.1328 84.2692 37.9451 85.1584 37.9057C89.6095 38.1161 93.6667 36.4816 97.8402 35.38C99.1836 35.0308 100.594 34.9322 102.318 34.6859V40.1133C100.657 40.4894 98.9193 40.7984 97.2401 41.291C96.3445 41.5552 95.4489 41.8373 95.1892 43.1315C94.0607 48.3931 90.1156 51.3262 85.7853 53.7578C83.0582 55.2893 80.1161 56.2431 76.8696 56.1043C72.5348 55.9207 69.8704 54.3131 68.7017 50.0948C67.616 46.2525 66.914 42.3119 66.6059 38.331C66.0505 29.7806 66.7292 21.1947 68.6211 12.8377C68.9212 11.5416 69.3721 10.2852 69.9645 9.09404C70.8064 7.37448 72.2035 6.26841 74.2141 6.40723C76.0994 6.54605 77.6667 7.47745 78.3787 9.26418C79.2444 11.2824 79.9045 13.3828 80.349 15.5334C81.0834 19.6845 81.5626 23.8536 80.8819 28.1166C80.6477 30.0429 79.8234 31.8495 78.522 33.2888Z" fill="#FAE35B"/>
<path d="M31.7715 84.0839L29.8952 87.8588C28.1756 88.3066 26.8591 87.5901 26.1292 86.0676C24.5171 82.6688 21.472 81.0881 18.2792 79.7491C16.4404 78.9796 14.5292 78.396 12.5742 78.0072C9.80232 77.4519 8.90672 78.5714 9.66799 81.312C10.895 85.7318 13.6086 89.2336 16.7029 92.4488C18.8524 94.6878 21.181 96.779 23.5095 98.8255C26.2608 101.318 29.7696 102.815 33.4731 103.075C33.2716 101.167 33.0253 99.3405 32.9224 97.509C32.8605 96.7982 32.9953 96.084 33.3119 95.4446C35.139 92.31 35.9316 92.8563 38.2825 94.8222C38.9811 98.4046 39.6662 101.848 40.3335 105.31C40.6783 107.101 39.402 107.97 38.1795 108.682C36.4734 109.68 34.5971 109.577 32.6671 109.246C26.9077 108.358 21.5827 105.653 17.4687 101.526C14.3968 98.4807 11.4458 95.2968 8.63356 92.01C6.05933 88.9186 4.297 85.2339 3.50622 81.2896C2.35985 76.0817 5.29741 72.0604 10.5949 71.9887C18.0777 71.8947 24.5081 74.5547 29.4698 80.282C30.4594 81.406 31.064 82.8882 31.7715 84.0839Z" fill="#FAE35B"/>
<path d="M74.1837 67.7702C71.2372 71.2317 66.3606 70.3496 62.72 72.8035C62.8857 77.4114 63.02 82.0506 63.235 86.6854C63.3827 89.8917 63.6335 93.0979 63.8485 96.3042C64.1171 100.334 63.6469 100.751 59.6973 100.034C59.3013 99.9294 58.9125 99.7993 58.533 99.6448C56.612 91.5083 57.8658 83 56.6478 74.644L52.7788 75.571L50.3517 71.2989C51.2159 70.6272 51.9503 69.7003 52.8862 69.3913C58.2599 67.6269 63.6559 65.9343 69.0922 64.3714C72.4821 63.3684 73.7359 64.3132 74.1837 67.7702Z" fill="#FAE35B"/>
<path d="M50.603 13.7022L54.0825 11.7363C55.596 12.0408 56.1961 13.1111 56.4065 14.5575C57.1499 19.6042 57.9962 24.6375 58.6456 29.6977C59.4874 36.2804 60.1681 42.8855 60.9383 49.4816C61.1129 50.9683 60.3786 51.9355 58.5381 52.4684C57.1947 52.858 55.4035 51.9042 54.8482 50.4265C54.7146 49.8873 54.6469 49.334 54.6467 48.7785C53.7511 40.6643 52.9316 32.5502 51.9912 24.445C51.6598 21.588 51.0508 18.7668 50.6209 15.9367C50.5583 15.1934 50.5523 14.4464 50.603 13.7022Z" fill="#FAE35B"/>
<path d="M45.8739 102.927C45.2381 100.827 44.638 98.9598 44.1096 97.0745C42.5333 91.4098 40.975 85.7362 39.4345 80.058C39.2554 79.4132 39.1345 78.7549 38.924 78.1235C38.5613 77.0353 38.1449 75.6785 39.2823 75.1143C40.2809 74.6172 41.6557 74.8366 42.8647 74.8411C43.4117 74.9211 43.9461 75.0716 44.4544 75.2889L51.4401 101.261L45.8739 102.927Z" fill="#FAE35B"/>
<path d="M48.2604 0H53.2489C53.8803 3.47942 54.8028 6.98123 52.1697 10.183C48.3365 9.64118 46.9662 6.21997 48.2604 0Z" fill="#FAE35B"/>
<path d="M40.777 71.0612L38.6096 67.134L43.625 64.3711L45.6983 67.6804C44.7355 69.597 42.904 70.0761 40.777 71.0612Z" fill="#FAE35B"/>
</svg>
