<svg width="281" height="235" viewBox="0 0 281 235" fill="none" xmlns="http://www.w3.org/2000/svg">
<path d="M111.932 86.1277C111.379 86.0668 111.163 85.9672 111.008 86.0336C93.3628 93.4006 75.0865 98.9576 56.9763 104.985C56.7992 105.046 56.6719 105.24 56.4228 105.461C56.2657 108.119 56.3101 110.785 56.5556 113.437C56.6746 113.915 56.8358 114.382 57.0372 114.832C57.2144 115.396 57.3222 115.979 57.3582 116.57C57.4081 119.459 56.8048 120.35 53.9709 120.998C49.554 122.057 44.9065 121.552 40.8199 119.57C40.0766 119.259 39.4263 118.762 38.9326 118.126C38.4388 117.489 38.1184 116.736 38.0026 115.939C37.7757 114.466 37.4492 113.005 37.1669 111.367C36.5525 111.472 35.9824 111.511 35.4455 111.66C28.6191 113.616 21.7927 115.581 14.9663 117.555C12.3686 118.315 9.65933 118.622 6.95735 118.463C4.37201 118.452 1.88659 117.463 0 115.695C0.470467 115.142 0.758255 114.588 1.21765 114.345C2.20369 113.864 3.22737 113.464 4.27847 113.149C13.8981 110.075 23.5215 107.015 33.1486 103.967C34.1891 103.635 35.2076 103.253 36.3976 102.86C36.3976 102.068 36.3976 101.387 36.3976 100.707C36.1485 94.9061 35.7776 89.0834 35.6669 83.3105C35.5894 79.2146 35.8828 75.1133 35.9492 71.0119C35.9492 70.0378 35.6005 69.047 35.7002 68.0895C35.7998 67.1319 36.3754 66.2187 36.5248 65.2556C37.2942 60.1137 38.0027 54.9607 38.7388 49.8077C38.768 49.3395 38.768 48.8699 38.7388 48.4018C38.1406 48.517 37.5522 48.678 36.9787 48.8833C34.4326 50.0512 31.8976 51.2357 29.3793 52.4644C27.7631 53.2504 26.2188 54.1913 24.5805 54.9385C20.1525 56.9532 16.0236 56.1728 12.0495 53.6987C11.7972 53.5431 11.5649 53.3572 11.3576 53.1452C11.0394 52.8844 10.8202 52.5223 10.7366 52.1195C10.653 51.7166 10.71 51.2972 10.8982 50.9313C11.2539 50.2177 11.6647 49.5329 12.1269 48.8833C13.7773 46.7352 15.8025 44.9033 18.1047 43.4758C24.6407 39.2061 31.5464 35.5309 38.7388 32.4945C48.0252 28.4693 57.8873 25.931 67.9631 24.9725C75.8746 24.2159 83.8483 25.4943 91.1267 28.6864C92.678 29.3823 94.1374 30.2672 95.4716 31.3211C98.2833 33.4852 98.8313 35.6549 97.6136 38.998C96.4223 42.1966 94.6257 45.1357 92.3222 47.6546C89.7817 50.4829 87.0973 53.1895 84.4738 55.9569L82.5199 57.9938C86.6932 57.8499 90.2688 57.1193 93.8997 56.7761C97.5306 56.4329 101.095 56.134 104.665 55.8794C108.346 55.6193 112.026 55.4367 115.785 55.2153C116.637 53.2448 116.847 51.1471 117.351 49.1269C118.425 44.8595 119.399 40.5644 120.495 36.3025C121.63 31.8745 123.816 30.4189 128.366 30.9281C128.565 30.9281 128.759 31.0111 128.952 31.0443C133.629 31.8469 134.775 32.8376 135.367 37.5367C135.921 41.8983 136.137 46.3041 136.441 50.6932C136.596 52.9072 136.607 55.0769 136.685 57.3739C137.509 57.6839 138.256 57.9274 138.965 58.2429C140.436 58.863 141.87 59.5671 143.26 60.3517C144.092 60.9002 144.813 61.6006 145.385 62.4162C145.834 62.9683 146.093 63.6497 146.125 64.3602C146.156 65.0706 145.959 65.7725 145.563 66.3626C144.931 67.3836 144.164 68.3145 143.282 69.13C142.046 70.1546 140.752 71.108 139.408 71.986C138.589 72.5395 137.747 73.0598 136.801 73.6465C136.74 74.1225 136.657 74.6041 136.613 75.0911C136.125 80.6703 135.76 86.2661 135.135 91.8287C134.321 99.085 133.33 106.325 132.367 113.559C132.102 115.54 131.615 117.488 131.299 119.459C130.934 121.756 129.484 122.957 127.347 123.411C123.384 124.263 119.416 124.335 115.519 123.04C114.305 122.601 113.117 122.095 111.96 121.523C111.349 121.288 110.837 120.852 110.507 120.286C110.177 119.721 110.049 119.06 110.145 118.413C110.294 116.199 110.283 113.985 110.399 111.815C110.724 105.815 111.065 99.8193 111.423 93.8268C111.589 91.2697 111.761 88.7789 111.932 86.1277ZM56.1627 96.1847C57.5132 95.7806 58.4597 95.5371 59.3895 95.2161C63.7344 93.7327 68.0904 92.2604 72.4187 90.7162C85.2264 86.1792 97.7892 80.9786 110.056 75.1354C111.03 74.6705 112.132 74.3771 112.89 73.3587C113.183 71.3606 113.526 69.2905 113.776 67.2149C114.025 65.1393 114.772 63.1966 114.55 60.9107C113.41 60.9107 112.425 60.8498 111.445 60.9107C107.355 61.193 103.27 61.4642 99.1855 61.835C91.1156 62.5324 83.1343 63.8221 75.1585 65.2445C73.0856 65.5657 71.1238 66.3927 69.4465 67.6522C66.557 69.8592 62.9527 70.918 59.3286 70.6244C57.9505 70.547 56.5612 70.6244 55.1996 70.6244C55.1 70.8403 54.9339 71.0285 54.9505 71.1779C55.8918 79.4788 56.2967 87.8317 56.1627 96.1847ZM50.9432 51.3519C52.9746 49.4479 54.8565 47.8096 56.5889 46.0273C58.3213 44.2451 60.3028 42.8724 61.4706 40.4924C58.2217 40.736 50.113 43.3983 47.7275 44.9204L50.9432 51.3519Z" fill="#FBEA54"/>
<path d="M133.364 151.157C135.578 158.713 137.675 166.019 139.934 173.297C141.782 179.236 144.085 184.992 147.599 190.184C148.491 191.501 149.459 192.758 150.306 193.92C151.336 193.987 151.474 193.284 151.729 192.813C154.05 188.586 155.335 183.868 155.476 179.048C155.69 171.808 154.046 164.633 150.699 158.209C148.301 153.309 144.335 149.35 139.43 146.962C133.859 144.228 128.037 142.039 122.045 140.425C121.255 140.158 120.413 140.077 119.587 140.188C118.76 140.299 117.97 140.6 117.279 141.067C114.8 142.628 111.888 142.39 109.143 141.577C107.931 141.222 106.829 140.469 105.601 139.866C106.082 137.685 107.543 136.59 109.232 135.992C111.122 135.353 113.079 134.936 115.065 134.746C118.666 134.466 122.289 134.724 125.814 135.51C136.563 137.652 146.814 141.35 156.81 145.783C163.941 148.888 169.935 154.126 173.968 160.777C174.804 162.133 175.661 163.478 176.492 164.807C177.316 164.624 177.112 164.037 177.101 163.6C176.965 157.993 176.283 152.414 175.064 146.94C174.892 146.159 174.693 145.379 174.599 144.587C174.438 143.248 174.754 142.656 175.977 142.302C179.049 141.427 182.01 141.676 184.351 144.017C185.825 145.528 187.125 147.199 188.226 148.999C190.187 152.263 191.714 155.768 192.77 159.427C194.547 165.172 195.709 171.05 196.927 176.939C197.17 178.112 197.369 179.297 197.641 180.47C197.826 180.929 198.061 181.365 198.344 181.771C198.975 180.492 199.451 179.524 199.927 178.55C203.546 170.961 207.122 163.356 210.792 155.796C212.015 153.277 213.437 150.859 214.777 148.396C216.465 145.279 219.205 143.934 222.631 143.73C225.034 143.608 227.44 143.882 229.754 144.543C230.933 144.822 231.996 145.462 232.793 146.375C233.512 147.244 233.512 148.213 232.549 148.634C231.083 149.27 230.524 150.471 229.981 151.772C226.572 159.997 223.107 168.199 219.764 176.452C216.492 184.516 213.365 192.642 210.133 200.722C208.943 203.689 207.581 206.595 206.353 209.551C205.878 210.772 205.089 211.845 204.065 212.663C203.041 213.48 201.82 214.013 200.524 214.206C194.79 215.313 189.183 214.964 183.798 212.545C181.534 211.516 180.056 209.91 179.802 207.348C179.685 206.158 179.552 204.962 179.425 203.772C179.292 202.488 179.16 201.204 179.027 199.898C177.875 199.931 177.621 200.8 177.184 201.37C174.138 205.4 169.829 208.292 164.946 209.584C162.524 210.221 160.033 210.559 157.529 210.591C151.41 210.891 145.3 209.83 139.64 207.486C134.39 205.362 130.09 201.402 127.541 196.344C124.889 191.275 123.325 185.708 122.947 180C122.546 173.397 122.977 166.769 124.231 160.273C124.573 157.99 125.363 155.797 126.556 153.82C127.253 152.59 128.348 151.633 129.661 151.108C130.856 150.604 132.14 150.405 133.364 151.157Z" fill="#FBEA54"/>
<path d="M93.9492 223.969C94.2646 224.124 94.4362 224.279 94.6189 224.285C103.216 224.654 111.81 225.006 120.4 225.342C120.572 225.342 120.749 225.204 121.07 225.071C120.957 224.503 120.792 223.948 120.578 223.41C119.543 221.357 118.524 219.292 117.384 217.322C112.657 209.064 108.157 200.69 104.792 191.773C103.591 188.596 102.728 185.297 101.681 182.065C101.172 180.498 101.515 179.48 103.436 178.888C106.529 177.922 109.872 178.161 112.795 179.557C113.172 179.697 113.509 179.927 113.776 180.227C114.044 180.527 114.233 180.888 114.329 181.279C114.926 183.858 116.321 186.083 117.832 188.181C121.64 193.466 125.094 198.974 128.432 204.558C131.401 209.548 134.647 214.367 138.156 218.993C139.612 220.903 141.029 222.868 142.346 224.855C143.12 226.021 143.759 227.27 144.25 228.58C145.064 230.822 144.466 232.255 142.341 233.246C141.16 233.781 139.924 234.184 138.655 234.447C134.996 235.233 131.288 235 127.585 234.834C120.688 234.513 113.792 234.165 106.89 233.965C103.569 233.866 100.287 234.065 96.9878 234.148C91.5849 234.349 86.175 234.036 80.8314 233.213C78.0616 232.769 75.3617 231.965 72.8002 230.822C71.6222 230.276 70.4927 229.632 69.4239 228.895C68.5314 228.328 67.7898 227.553 67.2625 226.636C66.7352 225.719 66.438 224.689 66.3964 223.632C66.2967 221.733 66.1086 219.829 66.1307 217.931C66.3632 200.319 66.3576 182.69 67.2377 165.089C67.6749 156.598 68.1454 148.091 69.5014 139.678C70.1047 135.937 70.8741 132.206 71.7542 128.514C72.5346 125.238 73.3482 124.208 77.7983 124.003C79.1963 124.018 80.5829 124.258 81.9052 124.712C82.5332 124.909 83.1006 125.263 83.5538 125.741C84.0071 126.218 84.3311 126.803 84.4955 127.441C85.1661 129.436 85.7206 131.469 86.156 133.529C87.3548 140.121 88.1992 146.772 88.6854 153.455C89.7924 167.624 90.8108 181.799 91.8348 195.979C92.4658 204.763 93.047 213.553 93.6613 222.337C93.7388 222.901 93.8717 223.477 93.9492 223.969Z" fill="#FBEA54"/>
<path d="M196.948 40.5199C195.769 41.3022 194.721 42.2662 193.843 43.3759C185.342 52.7852 179.884 63.7942 176.812 76.0318C175.49 81.3011 174.626 86.6367 175.063 92.0831C175.334 94.8753 175.778 97.6481 176.392 100.385C176.646 101.62 177.322 102.765 177.814 103.972C180.178 103.972 182.032 102.92 183.991 102.267C185.943 101.658 187.846 100.905 189.687 100.015C189.017 98.8689 188.447 97.9501 187.921 97.0036C186.598 94.6513 185.203 92.3321 184.047 89.9134C183.457 88.6472 183.066 87.2973 182.89 85.9116C182.619 83.9246 183.443 82.6737 185.364 81.9763C186.496 81.5806 187.673 81.3296 188.868 81.2291C194.635 80.7089 199.727 82.48 204.221 86.0334C205.562 87.0815 206.84 88.209 208.046 89.4097C212.778 94.1642 217.455 98.9685 222.154 103.751C223.578 105.307 224.681 107.13 225.398 109.114C226.162 111.001 225.708 112.092 223.787 112.988C222.711 113.513 221.567 113.885 220.389 114.095C212.74 115.241 205.445 114.378 198.714 110.221C198.441 110.093 198.16 109.984 197.873 109.894C197.07 110.177 196.035 110.514 195.017 110.907C186.643 114.167 178.036 114.367 169.313 112.8C166.55 112.308 163.872 111.425 161.359 110.177C160.01 109.512 158.715 108.744 157.485 107.88C155.159 106.269 153.466 103.9 152.697 101.177C150.767 94.9323 150.284 88.3302 151.286 81.8712C152.459 74.755 154.535 67.8174 157.462 61.226C161.398 52.1709 167.226 44.505 174.344 37.7413C179.774 32.5828 186.266 30.2415 193.683 30.1308C197.29 30.0906 200.886 30.5545 204.365 31.509C205.995 31.9854 207.576 32.6156 209.087 33.3909C212.463 35.0344 215.063 37.9324 216.332 41.4664C218.269 46.4478 218.717 51.5731 217.051 56.7482C215.85 60.4732 213.564 63.2684 209.729 64.4971C206.581 65.6154 203.126 65.4866 200.07 64.1373C198.504 63.4344 198.15 62.7757 198.36 61.0544C198.454 60.2684 198.725 59.4991 198.858 58.7131C199.223 56.5434 199.716 54.3848 199.876 52.204C200.146 48.099 199.122 44.0127 196.948 40.5199Z" fill="#FBEA54"/>
<path d="M245.911 196.815C244.964 200.69 243.193 214.97 243.353 217.582C243.909 217.584 244.464 217.546 245.014 217.466C250.975 216.104 257.052 215.473 263.091 214.599C265.167 214.294 267.248 213.995 269.307 213.597C272.174 213.068 275.126 213.239 277.913 214.095C279.003 214.358 279.973 214.977 280.67 215.855C280.78 215.993 280.862 216.151 280.91 216.321C280.958 216.49 280.972 216.668 280.95 216.843C280.929 217.018 280.872 217.186 280.784 217.339C280.696 217.492 280.578 217.625 280.437 217.732C279.686 218.214 278.87 218.587 278.013 218.839C275.987 219.392 273.923 219.779 271.869 220.217C264.342 221.833 256.82 223.488 249.276 225.021C246.337 225.619 243.353 226.028 240.376 226.355C237.078 226.703 233.743 226.325 230.607 225.248C229.943 225.026 229.299 224.75 228.68 224.423C226.538 223.278 226.256 222.519 226.81 220.051C228.038 214.582 229.245 209.11 230.429 203.634C230.579 202.959 230.612 202.256 230.723 201.387C230.128 201.334 229.532 201.315 228.935 201.332C226.545 201.612 224.13 201.612 221.74 201.332C219.147 201.029 216.666 200.106 214.506 198.642C213.271 197.751 213.133 196.638 214.328 195.681C215.622 194.578 217.052 193.648 218.585 192.913C222.515 191.181 226.538 189.647 230.529 188.042C231.73 187.561 232.953 187.118 234.271 186.62C236.285 179.629 238.306 172.633 240.359 165.587C239.069 164.912 237.348 165.122 236.263 163.539C236.573 163.047 236.817 162.327 237.293 161.962C238.485 161.054 239.762 160.262 241.106 159.598C242.462 158.951 243.442 158.132 243.802 156.626C243.979 156.057 244.2 155.502 244.46 154.966C244.643 154.386 245.024 153.888 245.535 153.56C246.047 153.231 246.658 153.092 247.261 153.167C247.855 153.243 248.444 153.362 249.021 153.521C249.398 154.268 249.752 154.966 250.128 155.735C250.837 155.602 251.517 155.508 252.182 155.348C257.824 154.001 263.464 152.648 269.102 151.291C271.654 150.717 274.311 150.818 276.812 151.584C277.664 151.856 278.47 152.255 279.203 152.768C279.375 152.877 279.513 153.032 279.602 153.214C279.692 153.396 279.73 153.6 279.711 153.802C279.693 154.004 279.619 154.198 279.499 154.361C279.378 154.524 279.214 154.651 279.026 154.728C277.757 155.314 276.449 155.813 275.113 156.222C267.74 158.436 260.329 160.545 252.802 162.211C251.838 162.421 250.892 162.704 249.774 162.997C249.043 169.202 248.291 175.323 247.72 181.611C248.827 181.921 249.658 181.5 250.488 181.301C254.939 180.126 259.472 179.288 264.048 178.794C268.117 178.412 272.019 179.225 275.843 180.454C276.975 180.857 278.023 181.467 278.932 182.253C280.399 183.471 280.244 185.225 278.611 186.249C277.509 186.945 276.334 187.516 275.107 187.954C271.997 189.061 268.869 190.107 265.698 191.031C259.842 192.741 253.953 194.352 248.086 196.013C247.316 196.278 246.58 196.577 245.911 196.815Z" fill="#FBEA54"/>
<path d="M117.998 2.51766C119.177 1.03984 120.921 0.608118 122.664 0.303698C126.267 -0.366026 129.804 0.137621 133.269 1.17265C134.114 1.46564 134.915 1.87348 135.649 2.38476C136.036 2.63937 136.518 3.1209 136.529 3.49174C136.573 4.83673 137.143 5.94927 137.675 7.12267C137.702 7.35422 137.67 7.58888 137.582 7.80474C137.494 8.02061 137.352 8.21061 137.171 8.35695C136.424 8.84558 135.592 9.19092 134.719 9.37535C129.112 10.355 124.015 9.33661 119.775 5.29613C118.989 4.55445 118.136 3.8239 117.998 2.51766Z" fill="#FBEA54"/>
</svg>
