<svg width="89" height="90" viewBox="0 0 89 90" fill="none" xmlns="http://www.w3.org/2000/svg">
<path d="M33.7185 29.8377C34.8214 29.9823 35.9243 30.1168 37.0238 30.2648C39.2296 30.564 41.4353 30.8397 43.6309 31.1861C45.6685 31.5055 47.6927 31.9291 49.727 32.2654C52.5481 32.7328 55.3725 33.1631 58.2002 33.6103C59.7671 33.8491 61.3441 34.0575 62.9076 34.2828C63.2439 34.3366 63.6036 34.4375 63.9499 34.5249C64.322 34.6016 64.665 34.7817 64.9392 35.0447C65.2134 35.3076 65.4078 35.6426 65.5 36.0111C65.6379 36.5054 65.8699 36.9761 66.0145 37.4704C66.8483 40.3015 68.1261 42.9478 69.3769 45.6108C69.6089 46.1152 69.8342 46.6195 70.0494 47.1373C70.119 47.2814 70.147 47.4421 70.1304 47.6013C70.1138 47.7605 70.0531 47.9118 69.9552 48.0384C69.6526 48.4554 69.3701 48.8891 69.0641 49.3061C65.6479 54.0134 62.1981 58.6569 58.8222 63.3744C55.4016 68.1602 52.0235 72.9729 48.688 77.8126C46.3847 81.1514 43.9605 84.3961 41.4824 87.6039C41.239 87.9173 40.9797 88.218 40.7056 88.505C39.9349 89.2835 38.9316 89.7899 37.8476 89.9476C36.7635 90.1053 35.6576 89.9058 34.697 89.3792C34.3338 89.1424 34.0198 88.8375 33.7723 88.4815C33.446 88.0308 33.1612 87.5513 32.9216 87.0491C31.9398 85.0518 30.9042 83.0747 30.0266 81.0405C28.0966 76.6391 26.2573 72.1973 24.3441 67.7926C23.0765 64.8807 21.7215 62.0059 20.4404 59.0974C19.3006 56.5184 18.201 53.9227 17.1116 51.3235C16.7754 50.5199 16.5333 49.6759 16.2307 48.8588C16.1829 48.7283 16.1668 48.5883 16.1838 48.4504C16.2007 48.3124 16.2503 48.1804 16.3282 48.0653C16.763 47.2635 17.2388 46.4846 17.7538 45.7318C20.316 42.2887 23.0025 38.9397 25.874 35.7455C27.0677 34.4005 28.3186 33.1396 29.5526 31.8484C29.8014 31.5895 30.0939 31.3777 30.3494 31.1289C30.7947 30.6974 31.3229 30.3605 31.9019 30.1386C32.4809 29.9167 33.0989 29.8144 33.7185 29.8377ZM38.1939 80.9463C42.8845 70.6742 47.0841 60.3852 52.1546 50.493C52.1798 50.4196 52.1877 50.3414 52.1781 50.2644C52.1723 50.2161 52.1611 50.1687 52.1445 50.1231C51.6873 50.0626 51.2198 50.0088 50.7525 49.9416C50.394 49.9084 50.0535 49.7695 49.774 49.5427C49.4944 49.3158 49.2885 49.0112 49.1822 48.6672C49.0694 48.1875 48.846 47.7407 48.53 47.3626C46.452 47.3122 44.3605 47.5475 42.2691 47.6988C40.1777 47.8501 38.0023 47.8871 35.9378 48.2032C35.2742 49.318 34.9624 50.607 35.0433 51.9018C35.2383 55.3113 35.4636 58.7174 35.8201 62.1135C35.9983 63.7947 36.1227 65.5129 36.3244 67.2075C36.7615 70.8725 37.2211 74.5353 37.703 78.1958C37.8342 79.06 37.8342 79.9409 38.1939 80.9396V80.9463ZM33.7589 52.117C32.9384 52.1507 32.2693 52.2213 31.6002 52.2011C30.5713 52.1675 29.7912 51.801 29.4819 50.6678C29.2996 49.9531 29.0045 49.2721 28.6077 48.6504C28.5191 48.6161 28.4264 48.5936 28.332 48.5831C25.8404 48.758 23.3455 48.9194 20.854 49.1211C20.3702 49.1803 19.9166 49.3883 19.5561 49.7163C19.8419 50.1904 20.0941 50.6409 20.3732 51.0612C21.5656 52.9373 22.6359 54.8881 23.5776 56.9017C24.1761 58.1526 24.7947 59.3966 25.3966 60.6475C26.8357 63.6535 28.3185 66.6426 29.6971 69.6755C31.4557 73.5389 33.1268 77.4427 34.8484 81.3229C34.9963 81.6591 35.0669 82.0727 35.4973 82.3652C35.5629 81.7989 35.5482 81.2261 35.4535 80.6639C35.0467 76.629 34.7575 72.5941 34.5524 68.5592C34.4314 66.1786 34.2935 63.8014 34.1825 61.4242C34.0514 58.5695 33.9405 55.7081 33.8194 52.8568C33.7993 52.6147 33.7992 52.386 33.7589 52.1103V52.117ZM41.4924 80.3175L41.6841 80.3982C41.8522 80.183 42.0203 79.9779 42.1918 79.756C42.8878 78.7876 43.5671 77.8126 44.2631 76.8476C47.7533 72.0225 51.2165 67.1773 54.747 62.3892C58.3213 57.5305 61.9627 52.7189 65.5706 47.8838C65.7015 47.6695 65.814 47.4446 65.9069 47.2113C64.1214 47.171 62.4604 47.1306 60.7994 47.0969C59.1383 47.0633 57.4067 46.9255 55.7288 47.0768L55.1404 48.1998C54.8479 48.7614 54.5655 49.3195 53.977 49.6658C53.7627 49.8417 53.6029 50.0749 53.5164 50.3383C51.9461 53.9395 50.3692 57.5372 48.8325 61.1518C47.8709 63.4147 46.9799 65.7079 46.0485 67.9842C44.532 71.6829 43.0223 75.4051 41.8119 79.2315C41.7043 79.561 41.6001 79.9376 41.4891 80.3108L41.4924 80.3175ZM34.808 31.3945C33.1268 32.8572 29.2532 37.3057 28.6446 38.4287C29.0717 39.2491 29.5122 40.046 29.9123 40.8631C30.8201 42.7158 31.7044 44.5819 32.6022 46.4379C32.7367 46.7103 32.9048 46.9625 33.0393 47.1945C33.5605 47.1676 33.7118 46.791 33.9102 46.522C35.2384 44.8879 36.5261 43.2235 37.8845 41.6163C40.2147 38.849 42.8341 36.3541 45.4332 33.8424C45.645 33.6373 45.9644 33.5061 45.9678 33.0421C42.2893 32.215 38.5402 31.909 34.808 31.3945ZM61.482 36.3003C61.482 35.7152 61.2062 35.5202 60.6884 35.4395C57.2823 34.915 53.8863 34.3534 50.4802 33.8289C49.9456 33.7448 49.4143 33.5195 48.8494 33.644C48.8419 33.6941 48.8419 33.7451 48.8494 33.7953C49.7808 35.8968 50.4297 38.0992 51.1325 40.2814C51.6671 41.9391 52.2655 43.5765 52.8472 45.2174C52.9556 45.4432 53.0815 45.6602 53.2239 45.8663C53.5601 45.4965 53.8325 45.214 54.0746 44.908C54.6664 44.1649 55.2447 43.4118 55.8264 42.6586C57.3529 40.5833 59.061 38.6479 60.9305 36.8753C61.1289 36.6937 61.3071 36.4785 61.4752 36.3003H61.482ZM46.304 33.9163C45.7938 34.2837 45.3532 34.7392 45.0028 35.2613C43.594 37.0837 42.1649 38.8894 40.7998 40.7454C39.5994 42.3728 38.4461 44.054 37.3197 45.7251C37.0118 46.0739 36.8203 46.5099 36.7716 46.9725C40.4198 46.7035 44.0143 46.4413 47.6053 46.1723C47.766 46.1463 47.9245 46.1081 48.0794 46.058C47.5548 44.0641 46.9866 42.134 46.5427 40.1738C46.0989 38.2135 46.1897 36.1557 46.2973 33.9163H46.304ZM65.4429 46.1589C65.0596 45.0728 64.6123 44.2019 64.2357 43.3008C63.8592 42.3997 63.4288 41.4952 63.0421 40.5873C62.6554 39.6795 62.5142 38.7111 61.9863 37.7696C61.7644 38.0252 61.6064 38.19 61.4719 38.3749C60.9809 39.0474 60.4934 39.7198 60.0193 40.3923C58.9142 41.9861 57.8146 43.5833 56.7207 45.1838C56.593 45.3721 56.4114 45.557 56.6468 45.8865L65.4429 46.1589ZM25.9514 41.8113C24.4114 43.3681 21.6341 47.2247 21.3079 48.2435L27.6965 47.645C27.7747 47.6353 27.8522 47.6207 27.9285 47.6013C27.9682 47.595 28.0061 47.5801 28.0395 47.5576C28.0775 47.4854 28.1089 47.4101 28.1336 47.3323C27.4577 45.5805 26.755 43.7413 25.9446 41.8113H25.9514Z" fill="#54BFFB"/>
<path d="M33.7185 29.8377C34.8214 29.9823 35.9243 30.1168 37.0238 30.2648C39.2296 30.564 41.4353 30.8397 43.6309 31.1861C45.6685 31.5055 47.6927 31.9291 49.727 32.2654C52.5481 32.7328 55.3725 33.1631 58.2002 33.6103C59.7671 33.8491 61.3441 34.0575 62.9076 34.2828C63.2439 34.3366 63.6036 34.4375 63.9499 34.5249C64.322 34.6016 64.665 34.7817 64.9392 35.0447C65.2134 35.3076 65.4078 35.6426 65.5 36.0111C65.6379 36.5054 65.8699 36.9761 66.0145 37.4704C66.8483 40.3015 68.1261 42.9478 69.3769 45.6108C69.6089 46.1152 69.8342 46.6195 70.0494 47.1373C70.119 47.2814 70.147 47.4421 70.1304 47.6013C70.1138 47.7605 70.0531 47.9118 69.9552 48.0384C69.6526 48.4554 69.3701 48.8891 69.0641 49.3061C65.6479 54.0134 62.1981 58.6569 58.8222 63.3744C55.4016 68.1602 52.0235 72.9729 48.688 77.8126C46.3847 81.1514 43.9605 84.3961 41.4824 87.6039C41.239 87.9173 40.9797 88.218 40.7056 88.505C39.9349 89.2835 38.9316 89.7899 37.8476 89.9476C36.7635 90.1053 35.6576 89.9058 34.697 89.3792C34.3338 89.1424 34.0198 88.8375 33.7723 88.4815C33.446 88.0308 33.1612 87.5513 32.9216 87.0491C31.9398 85.0518 30.9042 83.0747 30.0266 81.0405C28.0966 76.6391 26.2573 72.1973 24.3441 67.7926C23.0765 64.8807 21.7215 62.0059 20.4404 59.0974C19.3006 56.5184 18.201 53.9227 17.1116 51.3235C16.7754 50.5199 16.5333 49.6759 16.2307 48.8588C16.1829 48.7283 16.1668 48.5883 16.1838 48.4504C16.2007 48.3124 16.2503 48.1804 16.3282 48.0653C16.763 47.2635 17.2388 46.4846 17.7538 45.7318C20.316 42.2887 23.0025 38.9397 25.874 35.7455C27.0677 34.4005 28.3186 33.1396 29.5526 31.8484C29.8014 31.5895 30.0939 31.3777 30.3494 31.1289C30.7947 30.6974 31.3229 30.3605 31.9019 30.1386C32.4809 29.9167 33.0989 29.8144 33.7185 29.8377ZM38.1939 80.9463C42.8845 70.6742 47.0841 60.3852 52.1546 50.493C52.1798 50.4196 52.1877 50.3414 52.1781 50.2644C52.1723 50.2161 52.1611 50.1687 52.1445 50.1231C51.6873 50.0626 51.2198 50.0088 50.7525 49.9416C50.394 49.9084 50.0535 49.7695 49.774 49.5427C49.4944 49.3158 49.2885 49.0112 49.1822 48.6672C49.0694 48.1875 48.846 47.7407 48.53 47.3626C46.452 47.3122 44.3605 47.5475 42.2691 47.6988C40.1777 47.8501 38.0023 47.8871 35.9378 48.2032C35.2742 49.318 34.9624 50.607 35.0433 51.9018C35.2383 55.3113 35.4636 58.7174 35.8201 62.1135C35.9983 63.7947 36.1227 65.5129 36.3244 67.2075C36.7615 70.8725 37.2211 74.5353 37.703 78.1958C37.8342 79.06 37.8342 79.9409 38.1939 80.9396V80.9463ZM33.7589 52.117C32.9384 52.1507 32.2693 52.2213 31.6002 52.2011C30.5713 52.1675 29.7912 51.801 29.4819 50.6678C29.2996 49.9531 29.0045 49.2721 28.6077 48.6504C28.5191 48.6161 28.4264 48.5936 28.332 48.5831C25.8404 48.758 23.3455 48.9194 20.854 49.1211C20.3702 49.1803 19.9166 49.3883 19.5561 49.7163C19.8419 50.1904 20.0941 50.6409 20.3732 51.0612C21.5656 52.9373 22.6359 54.8881 23.5776 56.9017C24.1761 58.1526 24.7947 59.3966 25.3966 60.6475C26.8357 63.6535 28.3185 66.6426 29.6971 69.6755C31.4557 73.5389 33.1268 77.4427 34.8484 81.3229C34.9963 81.6591 35.0669 82.0727 35.4973 82.3652C35.5629 81.7989 35.5482 81.2261 35.4535 80.6639C35.0467 76.629 34.7575 72.5941 34.5524 68.5592C34.4314 66.1786 34.2935 63.8014 34.1825 61.4242C34.0514 58.5695 33.9405 55.7081 33.8194 52.8568C33.7993 52.6147 33.7992 52.386 33.7589 52.1103V52.117ZM41.4924 80.3175L41.6841 80.3982C41.8522 80.183 42.0203 79.9779 42.1918 79.756C42.8878 78.7876 43.5671 77.8126 44.2631 76.8476C47.7533 72.0225 51.2165 67.1773 54.747 62.3892C58.3213 57.5305 61.9627 52.7189 65.5706 47.8838C65.7015 47.6695 65.814 47.4446 65.9069 47.2113C64.1214 47.171 62.4604 47.1306 60.7994 47.0969C59.1383 47.0633 57.4067 46.9255 55.7288 47.0768L55.1404 48.1998C54.8479 48.7614 54.5655 49.3195 53.977 49.6658C53.7627 49.8417 53.6029 50.0749 53.5164 50.3383C51.9461 53.9395 50.3692 57.5372 48.8325 61.1518C47.8709 63.4147 46.9799 65.7079 46.0485 67.9842C44.532 71.6829 43.0223 75.4051 41.8119 79.2315C41.7043 79.561 41.6001 79.9376 41.4891 80.3108L41.4924 80.3175ZM34.808 31.3945C33.1268 32.8572 29.2532 37.3057 28.6446 38.4287C29.0717 39.2491 29.5122 40.046 29.9123 40.8631C30.8201 42.7158 31.7044 44.5819 32.6022 46.4379C32.7367 46.7103 32.9048 46.9625 33.0393 47.1945C33.5605 47.1676 33.7118 46.791 33.9102 46.522C35.2384 44.8879 36.5261 43.2235 37.8845 41.6163C40.2147 38.849 42.8341 36.3541 45.4332 33.8424C45.645 33.6373 45.9644 33.5061 45.9678 33.0421C42.2893 32.215 38.5402 31.909 34.808 31.3945ZM61.482 36.3003C61.482 35.7152 61.2062 35.5202 60.6884 35.4395C57.2823 34.915 53.8863 34.3534 50.4802 33.8289C49.9456 33.7448 49.4143 33.5195 48.8494 33.644C48.8419 33.6941 48.8419 33.7451 48.8494 33.7953C49.7808 35.8968 50.4297 38.0992 51.1325 40.2814C51.6671 41.9391 52.2655 43.5765 52.8472 45.2174C52.9556 45.4432 53.0815 45.6602 53.2239 45.8663C53.5601 45.4965 53.8325 45.214 54.0746 44.908C54.6664 44.1649 55.2447 43.4118 55.8264 42.6586C57.3529 40.5833 59.061 38.6479 60.9305 36.8753C61.1289 36.6937 61.3071 36.4785 61.4752 36.3003H61.482ZM46.304 33.9163C45.7938 34.2837 45.3532 34.7392 45.0028 35.2613C43.594 37.0837 42.1649 38.8894 40.7998 40.7454C39.5994 42.3728 38.4461 44.054 37.3197 45.7251C37.0118 46.0739 36.8203 46.5099 36.7716 46.9725C40.4198 46.7035 44.0143 46.4413 47.6053 46.1723C47.766 46.1463 47.9245 46.1081 48.0794 46.058C47.5548 44.0641 46.9866 42.134 46.5427 40.1738C46.0989 38.2135 46.1897 36.1557 46.2973 33.9163H46.304ZM65.4429 46.1589C65.0596 45.0728 64.6123 44.2019 64.2357 43.3008C63.8592 42.3997 63.4288 41.4952 63.0421 40.5873C62.6554 39.6795 62.5142 38.7111 61.9863 37.7696C61.7644 38.0252 61.6064 38.19 61.4719 38.3749C60.9809 39.0474 60.4934 39.7198 60.0193 40.3923C58.9142 41.9861 57.8146 43.5833 56.7207 45.1838C56.593 45.3721 56.4114 45.557 56.6468 45.8865L65.4429 46.1589ZM25.9514 41.8113C24.4114 43.3681 21.6341 47.2247 21.3079 48.2435L27.6965 47.645C27.7747 47.6353 27.8522 47.6207 27.9285 47.6013C27.9682 47.595 28.0061 47.5801 28.0395 47.5576C28.0775 47.4854 28.1089 47.4101 28.1336 47.3323C27.4577 45.5805 26.755 43.7413 25.9446 41.8113H25.9514Z" fill="#54BFFB"/>
<path d="M88.9999 15.9638C88.7012 16.4922 88.2932 16.9508 87.803 17.3088C86.8481 18.1494 85.8863 18.99 84.8877 19.7667C81.3036 22.5985 77.8905 25.6401 74.666 28.8755C73.5699 29.9649 72.3796 30.9635 71.2733 32.0462C70.4832 32.8195 69.6796 32.7859 68.7818 32.3051C68.1136 31.9489 67.5493 31.4252 67.1443 30.7853C67.0424 30.6604 66.9888 30.5032 66.9932 30.3421C66.9975 30.1811 67.0594 30.0269 67.1678 29.9077C67.3461 29.6925 67.5041 29.4706 67.7092 29.2756C71.7441 25.2104 75.9774 21.3773 80.8226 18.2839C82.3774 17.2496 84.0174 16.3497 85.7249 15.594C86.1562 15.3929 86.6069 15.2363 87.0699 15.1266C87.4389 15.0313 87.8292 15.062 88.1788 15.2136C88.5284 15.3653 88.8174 15.6293 88.9999 15.9638Z" fill="#54BFFB"/>
<path d="M50.9475 0.991272C51.1702 1.58007 51.2841 2.20442 51.2838 2.83391C51.3914 5.09344 51.4889 7.35295 51.5897 9.61249C51.6906 11.872 51.8117 14.2089 51.9025 16.5088C51.9496 17.7361 51.9428 18.9667 51.9765 20.2074C51.9856 20.566 51.9008 20.9208 51.7303 21.2363C51.5598 21.5519 51.3096 21.8174 51.0047 22.0063C50.3887 22.4447 49.669 22.7148 48.9166 22.7898C48.3652 22.857 48.0929 22.6754 48.0189 22.0937C47.8656 21.0335 47.7657 19.9663 47.7196 18.8961C47.6496 16.3135 47.762 13.7293 48.0558 11.1626C48.2542 9.48135 48.3921 7.76652 48.6241 6.07859C48.7889 4.90511 49.0646 3.72491 49.3437 2.58842C49.4611 2.16919 49.6499 1.77335 49.9018 1.4183C49.9942 1.23202 50.1515 1.08586 50.344 1.00724C50.5365 0.92862 50.7511 0.922935 50.9475 0.991272Z" fill="#54BFFB"/>
<path d="M10.6391 39.3871C10.2726 39.303 9.69088 39.1988 9.12263 39.0306C8.62191 38.8824 8.18963 38.5621 7.90207 38.1262C7.49858 37.5377 7.09175 36.9493 6.70508 36.3474C5.74343 34.8444 4.81203 33.3213 3.83694 31.8217C2.59558 29.8829 1.47273 27.8707 0.47453 25.7962C0.315569 25.4766 0.176332 25.1476 0.0575946 24.811C0.0202257 24.7397 0.000474348 24.6604 8.43441e-06 24.5799C-0.000457479 24.4994 0.0183857 24.4199 0.0549266 24.3481C0.0914675 24.2764 0.144637 24.2144 0.210036 24.1674C0.275434 24.1204 0.351145 24.0898 0.430817 24.078C1.43954 23.8326 2.42807 23.9234 3.18461 24.7303C3.84766 25.4137 4.45908 26.1453 5.01378 26.9192C7.13209 29.9891 9.20668 33.0926 11.2947 36.186C11.4696 36.4483 11.631 36.7207 11.7924 36.9964C12.0052 37.4219 12.304 37.7986 12.67 38.1026C12.7412 38.1567 12.7974 38.2281 12.8335 38.3099C12.8696 38.3918 12.8843 38.4814 12.8762 38.5705C12.8682 38.6595 12.8376 38.7451 12.7874 38.8191C12.7372 38.8931 12.6691 38.9532 12.5893 38.9936C12.3488 39.1294 12.0892 39.228 11.8193 39.2862C11.5066 39.3467 11.1838 39.3434 10.6391 39.3871Z" fill="#54BFFB"/>
<path d="M28.7559 24.6055C28.5784 24.5324 28.4139 24.4314 28.2684 24.3063C28.0272 24.0443 27.812 23.7593 27.6261 23.4556C25.473 20.1718 23.6699 16.6714 22.2462 13.0119C22.1622 12.79 22.0748 12.5681 22.0041 12.3394C21.8024 11.667 21.9437 11.3307 22.5691 10.9676C23.2685 10.5742 23.682 10.6011 24.2839 11.1626C24.6863 11.5443 25.0595 11.9557 25.4002 12.3933C27.5858 15.2244 29.5461 18.1934 30.9684 21.4919C31.1264 21.8551 31.3046 22.2182 31.4122 22.5914C31.4745 22.7633 31.4868 22.9494 31.4475 23.128C31.4082 23.3066 31.319 23.4703 31.1903 23.6001C30.8742 23.9245 30.4953 24.181 30.0767 24.3538C29.6581 24.5267 29.2087 24.6124 28.7559 24.6055Z" fill="#54BFFB"/>
</svg>
