<svg width="132" height="132" viewBox="0 0 132 132" fill="none" xmlns="http://www.w3.org/2000/svg">
<path d="M49.9785 42.8266C51.6132 43.0409 53.2479 43.2403 54.8776 43.4596C58.147 43.9031 61.4163 44.3118 64.6707 44.8251C67.6909 45.2986 70.6912 45.9265 73.7064 46.4249C77.8879 47.1177 82.0742 47.7556 86.2656 48.4184C88.5881 48.7723 90.9255 49.0813 93.2429 49.4152C93.7413 49.4949 94.2745 49.6445 94.7878 49.7741C95.3394 49.8877 95.8477 50.1547 96.2541 50.5444C96.6606 50.9341 96.9487 51.4306 97.0854 51.9769C97.2898 52.7095 97.6337 53.4072 97.848 54.1398C99.0839 58.3362 100.978 62.2585 102.832 66.2057C103.176 66.9532 103.51 67.7008 103.829 68.4683C103.932 68.6819 103.973 68.92 103.949 69.156C103.924 69.3919 103.834 69.6163 103.689 69.804C103.24 70.4219 102.822 71.0649 102.368 71.6829C97.3046 78.6602 92.1913 85.5428 87.1875 92.5351C82.1173 99.6287 77.1103 106.762 72.1664 113.936C68.7525 118.885 65.1592 123.694 61.4861 128.448C61.1254 128.913 60.7411 129.359 60.3348 129.784C59.1925 130.938 57.7054 131.689 56.0986 131.922C54.4918 132.156 52.8526 131.86 51.4287 131.08C50.8903 130.729 50.425 130.277 50.0582 129.749C49.5744 129.081 49.1524 128.371 48.7973 127.626C47.342 124.666 45.807 121.735 44.5063 118.72C41.6456 112.196 38.9194 105.613 36.0836 99.0838C34.2047 94.7678 32.1963 90.5067 30.2974 86.1957C28.6079 82.3731 26.9782 78.5256 25.3635 74.6731C24.8651 73.482 24.5062 72.231 24.0577 71.02C23.9869 70.8265 23.9631 70.619 23.9882 70.4145C24.0134 70.21 24.0867 70.0144 24.2022 69.8438C24.8467 68.6553 25.552 67.5009 26.3154 66.3851C30.113 61.2817 34.0951 56.3177 38.3512 51.5831C40.1205 49.5896 41.9745 47.7207 43.8036 45.8069C44.1724 45.4232 44.6059 45.1092 44.9847 44.7404C45.6448 44.1008 46.4276 43.6015 47.2858 43.2726C48.1441 42.9437 49.06 42.792 49.9785 42.8266ZM56.612 118.58C63.5644 103.355 69.7892 88.1045 77.3047 73.4422C77.3419 73.3333 77.3538 73.2174 77.3395 73.1032C77.331 73.0318 77.3143 72.9615 77.2898 72.8939C76.612 72.8042 75.9191 72.7245 75.2264 72.6248C74.6951 72.5756 74.1903 72.3698 73.776 72.0336C73.3617 71.6973 73.0565 71.2457 72.899 70.7359C72.7317 70.0249 72.4007 69.3627 71.9322 68.8022C68.8522 68.7275 65.7522 69.0763 62.6523 69.3006C59.5523 69.5249 56.3279 69.5797 53.2678 70.0482C52.2843 71.7005 51.8222 73.6112 51.9421 75.5303C52.2311 80.5839 52.5651 85.6325 53.0934 90.6662C53.3575 93.1581 53.5419 95.7048 53.8409 98.2166C54.4888 103.649 55.17 109.078 55.8843 114.504C56.0787 115.785 56.0787 117.09 56.612 118.57V118.58ZM50.0382 75.8493C48.8222 75.8992 47.8304 76.0038 46.8387 75.9739C45.3136 75.9241 44.1573 75.3808 43.6988 73.7013C43.4286 72.642 42.9913 71.6325 42.4031 70.711C42.2718 70.6602 42.1344 70.6268 41.9944 70.6113C38.3014 70.8705 34.6034 71.1097 30.9104 71.4087C30.1933 71.4965 29.5211 71.8047 28.9866 72.2909C29.4103 72.9936 29.7841 73.6614 30.1978 74.2844C31.9651 77.0651 33.5516 79.9567 34.9474 82.9413C35.8345 84.7952 36.7515 86.6393 37.6436 88.4932C39.7766 92.9488 41.9745 97.3793 44.0179 101.875C46.6244 107.601 49.1014 113.387 51.6531 119.139C51.8724 119.637 51.977 120.25 52.6149 120.684C52.7122 119.844 52.6903 118.995 52.5501 118.162C51.947 112.181 51.5185 106.201 51.2145 100.22C51.035 96.6916 50.8307 93.1681 50.6662 89.6445C50.4718 85.4133 50.3074 81.172 50.128 76.9457C50.0981 76.5869 50.098 76.248 50.0382 75.8393V75.8493ZM61.501 117.648L61.7851 117.768C62.0343 117.449 62.2835 117.145 62.5376 116.816C63.5693 115.381 64.5761 113.936 65.6077 112.505C70.7809 105.353 75.9142 98.1718 81.1472 91.0749C86.445 83.8733 91.8424 76.7414 97.1901 69.5747C97.3841 69.2572 97.5508 68.9237 97.6884 68.578C95.042 68.5182 92.5801 68.4583 90.1181 68.4085C87.6561 68.3586 85.0894 68.1543 82.6025 68.3786L81.7303 70.0432C81.2967 70.8755 80.8781 71.7028 80.0059 72.2161C79.6883 72.4768 79.4514 72.8225 79.3231 73.2129C76.9956 78.5505 74.6583 83.8832 72.3807 89.2408C70.9553 92.5949 69.6346 95.9938 68.2541 99.3679C66.0064 104.85 63.7687 110.367 61.9745 116.039C61.8151 116.527 61.6606 117.085 61.4961 117.639L61.501 117.648ZM51.5932 45.1341C49.1013 47.3021 43.3599 53.8957 42.4579 55.5603C43.0908 56.7763 43.7437 57.9575 44.3368 59.1685C45.6824 61.9146 46.9931 64.6806 48.3238 67.4317C48.5232 67.8354 48.7724 68.2091 48.9717 68.553C49.7442 68.5131 49.9685 67.955 50.2626 67.5563C52.2312 65.1341 54.1399 62.6672 56.1534 60.2849C59.6071 56.1832 63.4896 52.4852 67.3421 48.7623C67.6561 48.4583 68.1295 48.264 68.1345 47.5762C62.6822 46.3502 57.1253 45.8966 51.5932 45.1341ZM91.1298 52.4055C91.1298 51.5383 90.7211 51.2493 89.9536 51.1296C84.905 50.3522 79.8714 49.5199 74.8228 48.7424C74.0304 48.6178 73.2429 48.2839 72.4056 48.4683C72.3946 48.5426 72.3946 48.6182 72.4056 48.6926C73.7861 51.8074 74.748 55.0719 75.7896 58.3063C76.5821 60.7634 77.4691 63.1904 78.3313 65.6225C78.4919 65.9573 78.6786 66.2789 78.8895 66.5844C79.3879 66.0362 79.7916 65.6175 80.1505 65.164C81.0276 64.0626 81.8848 62.9462 82.747 61.8299C85.0097 58.7538 87.5414 55.8852 90.3124 53.2577C90.6064 52.9886 90.8706 52.6696 91.1198 52.4055H91.1298ZM68.6328 48.872C67.8765 49.4166 67.2235 50.0916 66.7042 50.8655C64.6159 53.5667 62.4978 56.243 60.4744 58.9941C58.6952 61.4063 56.9857 63.8981 55.3161 66.3751C54.8598 66.8921 54.576 67.5383 54.5038 68.2241C59.9112 67.8254 65.2389 67.4366 70.5616 67.0379C70.7998 66.9995 71.0347 66.9428 71.2643 66.8685C70.4868 63.9131 69.6445 61.0524 68.9867 58.1468C68.3288 55.2413 68.4634 52.1912 68.6229 48.872H68.6328ZM97.0007 67.018C96.4326 65.4083 95.7697 64.1175 95.2115 62.7818C94.6533 61.4461 94.0154 60.1055 93.4422 58.7598C92.8691 57.4142 92.6598 55.9789 91.8774 54.5834C91.5484 54.9622 91.3142 55.2064 91.1148 55.4805C90.3872 56.4773 89.6645 57.474 88.9618 58.4708C87.3238 60.8331 85.6941 63.2004 84.0727 65.5727C83.8833 65.8518 83.6142 66.1259 83.963 66.6143L97.0007 67.018ZM38.4658 60.5739C36.1833 62.8814 32.0667 68.5979 31.5833 70.108L41.0525 69.2208C41.1684 69.2065 41.2832 69.1848 41.3964 69.156C41.4553 69.1467 41.5114 69.1246 41.5609 69.0912C41.6172 68.9843 41.6638 68.8726 41.7003 68.7574C40.6986 66.1608 39.657 63.4346 38.4559 60.5739H38.4658Z" fill="#54BFFB"/>
<path d="M49.9785 42.8266C51.6132 43.0409 53.2479 43.2403 54.8776 43.4596C58.147 43.9031 61.4163 44.3118 64.6707 44.8251C67.6909 45.2986 70.6912 45.9265 73.7064 46.4249C77.8879 47.1177 82.0742 47.7556 86.2656 48.4184C88.5881 48.7723 90.9255 49.0813 93.2429 49.4152C93.7413 49.4949 94.2745 49.6445 94.7878 49.7741C95.3394 49.8877 95.8477 50.1547 96.2541 50.5444C96.6606 50.9341 96.9487 51.4306 97.0854 51.9769C97.2898 52.7095 97.6337 53.4072 97.848 54.1398C99.0839 58.3362 100.978 62.2585 102.832 66.2057C103.176 66.9532 103.51 67.7008 103.829 68.4683C103.932 68.6819 103.973 68.92 103.949 69.156C103.924 69.3919 103.834 69.6163 103.689 69.804C103.24 70.4219 102.822 71.0649 102.368 71.6829C97.3046 78.6602 92.1913 85.5428 87.1875 92.5351C82.1173 99.6287 77.1103 106.762 72.1664 113.936C68.7525 118.885 65.1592 123.694 61.4861 128.448C61.1254 128.913 60.7411 129.359 60.3348 129.784C59.1925 130.938 57.7054 131.689 56.0986 131.922C54.4918 132.156 52.8526 131.86 51.4287 131.08C50.8903 130.729 50.425 130.277 50.0582 129.749C49.5744 129.081 49.1524 128.371 48.7973 127.626C47.342 124.666 45.807 121.735 44.5063 118.72C41.6456 112.196 38.9194 105.613 36.0836 99.0838C34.2047 94.7678 32.1963 90.5067 30.2974 86.1957C28.6079 82.3731 26.9782 78.5256 25.3635 74.6731C24.8651 73.482 24.5062 72.231 24.0577 71.02C23.9869 70.8265 23.9631 70.619 23.9882 70.4145C24.0134 70.21 24.0867 70.0144 24.2022 69.8438C24.8467 68.6553 25.552 67.5009 26.3154 66.3851C30.113 61.2817 34.0951 56.3177 38.3512 51.5831C40.1205 49.5896 41.9745 47.7207 43.8036 45.8069C44.1724 45.4232 44.6059 45.1092 44.9847 44.7404C45.6448 44.1008 46.4276 43.6015 47.2858 43.2726C48.1441 42.9437 49.06 42.792 49.9785 42.8266ZM56.612 118.58C63.5644 103.355 69.7892 88.1045 77.3047 73.4422C77.3419 73.3333 77.3538 73.2174 77.3395 73.1032C77.331 73.0318 77.3143 72.9615 77.2898 72.8939C76.612 72.8042 75.9191 72.7245 75.2264 72.6248C74.6951 72.5756 74.1903 72.3698 73.776 72.0336C73.3617 71.6973 73.0565 71.2457 72.899 70.7359C72.7317 70.0249 72.4007 69.3627 71.9322 68.8022C68.8522 68.7275 65.7522 69.0763 62.6523 69.3006C59.5523 69.5249 56.3279 69.5797 53.2678 70.0482C52.2843 71.7005 51.8222 73.6112 51.9421 75.5303C52.2311 80.5839 52.5651 85.6325 53.0934 90.6662C53.3575 93.1581 53.5419 95.7048 53.8409 98.2166C54.4888 103.649 55.17 109.078 55.8843 114.504C56.0787 115.785 56.0787 117.09 56.612 118.57V118.58ZM50.0382 75.8493C48.8222 75.8992 47.8304 76.0038 46.8387 75.9739C45.3136 75.9241 44.1573 75.3808 43.6988 73.7013C43.4286 72.642 42.9913 71.6325 42.4031 70.711C42.2718 70.6602 42.1344 70.6268 41.9944 70.6113C38.3014 70.8705 34.6034 71.1097 30.9104 71.4087C30.1933 71.4965 29.5211 71.8047 28.9866 72.2909C29.4103 72.9936 29.7841 73.6614 30.1978 74.2844C31.9651 77.0651 33.5516 79.9567 34.9474 82.9413C35.8345 84.7952 36.7515 86.6393 37.6436 88.4932C39.7766 92.9488 41.9745 97.3793 44.0179 101.875C46.6244 107.601 49.1014 113.387 51.6531 119.139C51.8724 119.637 51.977 120.25 52.6149 120.684C52.7122 119.844 52.6903 118.995 52.5501 118.162C51.947 112.181 51.5185 106.201 51.2145 100.22C51.035 96.6916 50.8307 93.1681 50.6662 89.6445C50.4718 85.4133 50.3074 81.172 50.128 76.9457C50.0981 76.5869 50.098 76.248 50.0382 75.8393V75.8493ZM61.501 117.648L61.7851 117.768C62.0343 117.449 62.2835 117.145 62.5376 116.816C63.5693 115.381 64.5761 113.936 65.6077 112.505C70.7809 105.353 75.9142 98.1718 81.1472 91.0749C86.445 83.8733 91.8424 76.7414 97.1901 69.5747C97.3841 69.2572 97.5508 68.9237 97.6884 68.578C95.042 68.5182 92.5801 68.4583 90.1181 68.4085C87.6561 68.3586 85.0894 68.1543 82.6025 68.3786L81.7303 70.0432C81.2967 70.8755 80.8781 71.7028 80.0059 72.2161C79.6883 72.4768 79.4514 72.8225 79.3231 73.2129C76.9956 78.5505 74.6583 83.8832 72.3807 89.2408C70.9553 92.5949 69.6346 95.9938 68.2541 99.3679C66.0064 104.85 63.7687 110.367 61.9745 116.039C61.8151 116.527 61.6606 117.085 61.4961 117.639L61.501 117.648ZM51.5932 45.1341C49.1013 47.3021 43.3599 53.8957 42.4579 55.5603C43.0908 56.7763 43.7437 57.9575 44.3368 59.1685C45.6824 61.9146 46.9931 64.6806 48.3238 67.4317C48.5232 67.8354 48.7724 68.2091 48.9717 68.553C49.7442 68.5131 49.9685 67.955 50.2626 67.5563C52.2312 65.1341 54.1399 62.6672 56.1534 60.2849C59.6071 56.1832 63.4896 52.4852 67.3421 48.7623C67.6561 48.4583 68.1295 48.264 68.1345 47.5762C62.6822 46.3502 57.1253 45.8966 51.5932 45.1341ZM91.1298 52.4055C91.1298 51.5383 90.7211 51.2493 89.9536 51.1296C84.905 50.3522 79.8714 49.5199 74.8228 48.7424C74.0304 48.6178 73.2429 48.2839 72.4056 48.4683C72.3946 48.5426 72.3946 48.6182 72.4056 48.6926C73.7861 51.8074 74.748 55.0719 75.7896 58.3063C76.5821 60.7634 77.4691 63.1904 78.3313 65.6225C78.4919 65.9573 78.6786 66.2789 78.8895 66.5844C79.3879 66.0362 79.7916 65.6175 80.1505 65.164C81.0276 64.0626 81.8848 62.9462 82.747 61.8299C85.0097 58.7538 87.5414 55.8852 90.3124 53.2577C90.6064 52.9886 90.8706 52.6696 91.1198 52.4055H91.1298ZM68.6328 48.872C67.8765 49.4166 67.2235 50.0916 66.7042 50.8655C64.6159 53.5667 62.4978 56.243 60.4744 58.9941C58.6952 61.4063 56.9857 63.8981 55.3161 66.3751C54.8598 66.8921 54.576 67.5383 54.5038 68.2241C59.9112 67.8254 65.2389 67.4366 70.5616 67.0379C70.7998 66.9995 71.0347 66.9428 71.2643 66.8685C70.4868 63.9131 69.6445 61.0524 68.9867 58.1468C68.3288 55.2413 68.4634 52.1912 68.6229 48.872H68.6328ZM97.0007 67.018C96.4326 65.4083 95.7697 64.1175 95.2115 62.7818C94.6533 61.4461 94.0154 60.1055 93.4422 58.7598C92.8691 57.4142 92.6598 55.9789 91.8774 54.5834C91.5484 54.9622 91.3142 55.2064 91.1148 55.4805C90.3872 56.4773 89.6645 57.474 88.9618 58.4708C87.3238 60.8331 85.6941 63.2004 84.0727 65.5727C83.8833 65.8518 83.6142 66.1259 83.963 66.6143L97.0007 67.018ZM38.4658 60.5739C36.1833 62.8814 32.0667 68.5979 31.5833 70.108L41.0525 69.2208C41.1684 69.2065 41.2832 69.1848 41.3964 69.156C41.4553 69.1467 41.5114 69.1246 41.5609 69.0912C41.6172 68.9843 41.6638 68.8726 41.7003 68.7574C40.6986 66.1608 39.657 63.4346 38.4559 60.5739H38.4658Z" fill="#54BFFB"/>
<path d="M131.917 22.2634C131.474 23.0466 130.869 23.7263 130.143 24.2569C128.727 25.5028 127.302 26.7488 125.822 27.9001C120.509 32.0974 115.45 36.6057 110.671 41.4012C109.046 43.0159 107.282 44.4961 105.642 46.1009C104.471 47.2472 103.28 47.1973 101.949 46.4846C100.959 45.9567 100.122 45.1804 99.5222 44.232C99.3712 44.0469 99.2918 43.8138 99.2982 43.5751C99.3046 43.3364 99.3965 43.1079 99.5571 42.9312C99.8213 42.6122 100.056 42.2833 100.36 41.9942C106.34 35.9688 112.615 30.2873 119.796 25.7022C122.101 24.1692 124.532 22.8354 127.063 21.7152C127.702 21.4172 128.37 21.1851 129.056 21.0224C129.603 20.8812 130.182 20.9266 130.7 21.1514C131.218 21.3762 131.646 21.7675 131.917 22.2634Z" fill="#54BFFB"/>
<path d="M75.5155 0.0702936C75.8455 0.943013 76.0144 1.86844 76.0139 2.80147C76.1734 6.15059 76.3179 9.49966 76.4674 12.8488C76.6169 16.1979 76.7964 19.6616 76.931 23.0706C77.0007 24.8897 76.9908 26.7137 77.0406 28.5528C77.0542 29.0843 76.9284 29.6101 76.6757 30.0778C76.423 30.5456 76.0522 30.9391 75.6002 31.2191C74.6872 31.8689 73.6204 32.2692 72.5053 32.3804C71.6879 32.48 71.2843 32.2109 71.1746 31.3487C70.9474 29.7772 70.7993 28.1954 70.731 26.6091C70.6273 22.7812 70.7939 18.9508 71.2294 15.1463C71.5234 12.6544 71.7279 10.1127 72.0718 7.6108C72.316 5.87145 72.7246 4.12213 73.1382 2.4376C73.3122 1.81621 73.5921 1.2295 73.9655 0.703247C74.1025 0.427127 74.3356 0.21049 74.621 0.0939594C74.9063 -0.0225714 75.2244 -0.0309978 75.5155 0.0702936Z" fill="#54BFFB"/>
<path d="M15.7694 56.9805C15.2262 56.8559 14.364 56.7014 13.5217 56.4522C12.7795 56.2324 12.1388 55.7577 11.7126 55.1116C11.1145 54.2394 10.5115 53.3672 9.93836 52.4751C8.51299 50.2474 7.13246 47.9897 5.68716 45.7669C3.84721 42.8932 2.18289 39.9108 0.703355 36.8359C0.467741 36.3622 0.261362 35.8746 0.0853675 35.3757C0.0299789 35.27 0.000703085 35.1525 1.25016e-05 35.0331C-0.000678082 34.9138 0.0272516 34.796 0.081413 34.6896C0.135574 34.5832 0.214383 34.4914 0.311318 34.4217C0.408253 34.3521 0.520472 34.3066 0.638563 34.2892C2.1337 33.9254 3.59891 34.06 4.72027 35.2561C5.70305 36.269 6.60931 37.3534 7.43149 38.5005C10.5713 43.0507 13.6463 47.6508 16.7412 52.2359C17.0004 52.6246 17.2396 53.0283 17.4789 53.437C17.7943 54.0677 18.2372 54.626 18.7796 55.0766C18.8852 55.1569 18.9685 55.2626 19.022 55.3839C19.0755 55.5052 19.0973 55.6381 19.0853 55.7701C19.0734 55.9022 19.0281 56.029 18.9537 56.1387C18.8793 56.2484 18.7782 56.3374 18.66 56.3974C18.3036 56.5986 17.9188 56.7448 17.5187 56.831C17.0552 56.9207 16.5768 56.9157 15.7694 56.9805Z" fill="#54BFFB"/>
<path d="M42.6218 35.0717C42.3588 34.9633 42.1149 34.8136 41.8992 34.6281C41.5417 34.2397 41.2228 33.8174 40.9472 33.3672C37.756 28.4999 35.0833 23.3116 32.9731 17.8875C32.8485 17.5585 32.719 17.2296 32.6143 16.8907C32.3153 15.8939 32.5247 15.3956 33.4517 14.8573C34.4883 14.2742 35.1013 14.3141 35.9934 15.1464C36.5898 15.7121 37.1429 16.3218 37.648 16.9705C40.8875 21.1668 43.7931 25.5675 45.9012 30.4567C46.1355 30.9949 46.3995 31.5331 46.559 32.0863C46.6515 32.3411 46.6697 32.6169 46.6114 32.8816C46.5532 33.1463 46.421 33.389 46.2301 33.5815C45.7617 34.0622 45.2 34.4424 44.5796 34.6986C43.9592 34.9548 43.293 35.0818 42.6218 35.0717Z" fill="#54BFFB"/>
</svg>
