<svg width="101" height="90" viewBox="0 0 101 90" fill="none" xmlns="http://www.w3.org/2000/svg">
<path d="M75.1061 50.8521C75.2356 51.9923 75.3523 52.9641 75.4494 53.9359C75.5466 54.9077 75.592 55.7759 75.6697 56.6958C75.9764 60.2461 76.283 63.7986 76.5897 67.3532C76.81 69.99 77.0497 72.6268 77.2375 75.2636C77.3218 76.4233 77.3477 77.5959 77.3477 78.7621C77.3744 79.2302 77.236 79.6929 76.9566 80.0694C76.6772 80.4459 76.2745 80.7123 75.8187 80.8223C75.0019 81.0942 74.1519 81.2533 73.2921 81.2953C71.7566 81.2953 70.2212 81.2175 68.6857 81.1398C67.5843 81.088 66.4895 81.0102 65.4917 80.9454C64.9087 81.4054 65.0706 81.9366 65.0706 82.4031C65.0706 84.2495 65.0706 86.0895 65.0706 88.0525C64.753 88.2898 64.4014 88.4776 64.0276 88.6097C62.76 88.8984 61.4349 88.799 60.2246 88.3246C59.7542 88.1747 59.3407 87.8847 59.0397 87.4933C58.7387 87.102 58.5644 86.628 58.5402 86.1348C58.43 84.9103 58.3458 83.6794 58.2421 82.455C58.1968 81.9108 58.1385 81.373 58.0866 80.8547C57.0425 80.493 55.9136 80.4547 54.8473 80.7446C54.789 81.4896 54.7372 82.2735 54.6724 83.0574C54.6076 83.8414 54.5493 84.5281 54.491 85.2667C54.4521 85.8174 54.4456 86.3746 54.3744 86.9188C54.2383 87.91 53.9727 88.2145 53.0333 88.4283C52.1602 88.6483 51.2497 88.6759 50.3648 88.5093C49.48 88.3426 48.6419 87.9856 47.9087 87.463C47.3839 85.1047 47.9605 82.6882 47.52 80.2782C46.0687 80.1939 44.6888 79.8635 43.2052 80.2782C42.8748 83.2778 43.3024 86.3097 42.6286 89.3094C41.7065 89.7468 40.6891 89.9453 39.6701 89.8864C38.6512 89.8276 37.6634 89.5132 36.7978 88.9725C36.5327 88.8121 36.3161 88.5828 36.1712 88.3089C36.0262 88.0351 35.9584 87.727 35.975 87.4176C35.9102 85.6942 35.8389 83.9774 35.7806 82.2346C35.7806 81.7552 35.7806 81.2693 35.7806 80.7187C34.9241 80.5388 34.0378 80.5565 33.1892 80.7705C31.1822 81.1036 29.1299 81.0465 27.1446 80.6021C26.3157 80.3809 25.5089 80.0837 24.7345 79.7144C24.3075 79.5299 23.9511 79.2132 23.7179 78.8107C23.4846 78.4083 23.3867 77.9416 23.4388 77.4793C23.4777 76.8703 23.4388 76.2484 23.4971 75.6394C23.7757 72.3288 24.0932 69.0182 24.3458 65.7076C24.6114 62.2739 24.7928 58.8403 25.052 55.4066C25.1557 54.7944 25.0362 54.1652 24.7151 53.6337C24.3941 53.1022 23.8929 52.7036 23.3027 52.5106C21.9357 51.9534 20.5947 51.3315 19.2342 50.7549C16.8565 49.7507 14.4529 48.8113 12.1076 47.7423C10.3195 46.9325 8.55734 46.0449 6.83402 45.099C5.81543 44.541 4.85035 43.8904 3.95101 43.1554C0.821817 40.6158 -0.292512 37.2404 0.0638144 33.3079C0.27926 31.221 0.911545 29.1985 1.92319 27.3605C3.87646 23.7201 6.44792 20.4471 9.52265 17.6878C12.5061 14.9329 15.805 12.5407 19.3508 10.5613C27.8416 5.79541 37.1011 2.55255 46.7101 0.979404C52.9225 -0.000511582 59.2285 -0.246233 65.4982 0.247313C70.908 0.581761 76.2442 1.67212 81.3515 3.48664C85.7264 4.99815 89.7472 7.38551 93.1686 10.503C96.2648 13.3885 98.6204 16.9774 100.036 20.966C101.142 24.0561 101.3 27.4063 100.489 30.5868C99.4373 34.9872 97.0823 38.9679 93.7322 42.0087C91.4979 44.0402 88.9738 45.728 86.2429 47.0167C83.1983 48.4949 79.9942 49.6188 76.6933 50.3662C76.2269 50.4698 75.7734 50.6448 75.1061 50.8521ZM67.3965 50.7096C66.943 50.3144 66.5154 49.9709 66.1331 49.5887C65.9129 49.3749 66.0489 48.9797 66.3081 48.7983C66.5364 48.6338 66.8106 48.5453 67.092 48.5453C67.3733 48.5453 67.6476 48.6338 67.8759 48.7983C68.3771 49.0985 68.9386 49.2839 69.52 49.341C70.1014 49.3981 70.6883 49.3256 71.2383 49.1287C75.73 48.0381 79.985 46.1367 83.7939 43.5182C86.642 41.5542 89.0311 38.9971 90.7974 36.0224C92.2753 33.5279 93.2236 30.7558 93.5832 27.8788C94.0885 23.8491 92.9353 20.2081 90.914 16.7873C87.4673 10.8853 82.3298 7.06932 75.9159 4.92488C72.5775 3.85401 69.1242 3.18206 65.6278 2.923C60.4753 2.46733 55.2854 2.68512 50.1892 3.57087C41.9373 5.02083 33.9862 7.84128 26.6652 11.9154C21.9525 14.4744 17.7037 17.8077 14.0966 21.7759C12.1876 23.8697 10.5746 26.2152 9.30238 28.7469C8.44581 30.3868 7.91763 32.1782 7.74749 34.0205C7.45595 37.8689 8.68042 41.0434 11.9845 43.2397C12.6948 43.7183 13.4349 44.151 14.2002 44.5354C15.6903 45.274 17.1869 45.9866 18.7353 46.6474C21.8969 48.008 25.0844 49.2972 28.2395 50.6771C29.3027 51.1575 30.3253 51.723 31.2974 52.3681C31.7743 52.6591 32.1653 53.0716 32.4306 53.5634C32.6958 54.0551 32.8257 54.6085 32.8069 55.1669C32.8069 55.4714 32.8069 55.8147 32.8069 56.0868C32.5931 59.527 32.4117 62.9607 32.1591 66.3944C31.9064 69.828 31.563 73.1321 31.278 76.501C31.2772 76.9348 31.3096 77.368 31.3751 77.7968C32.9818 77.583 34.5238 77.7968 36.0074 77.1489C36.0074 76.501 36.0398 75.8532 36.0787 75.2507C36.1694 73.5339 36.273 71.8105 36.3637 70.0678C36.4091 69.1737 36.5062 68.772 37.7955 68.4675C38.3938 68.3265 39.0121 68.2915 39.6225 68.3639C42.1038 68.6814 42.35 69.0895 42.661 71.2728C42.661 71.3959 42.661 71.519 42.6934 71.6421C42.8035 73.1127 42.9136 74.5834 43.0367 76.0541C43.0888 76.4086 43.1646 76.7592 43.2635 77.1036C44.7701 77.2635 46.2883 77.283 47.7985 77.1619C47.8698 76.6954 47.9411 76.3455 47.9735 75.9892C48.1938 73.7865 48.3492 71.5708 48.6213 69.381C48.8158 68.0439 49.0818 66.7182 49.4182 65.4096C49.4963 65.0433 49.6903 64.7118 49.9716 64.4644C50.2528 64.2171 50.6063 64.0669 50.9796 64.0361C51.4057 63.9495 51.8422 63.9255 52.2753 63.9649C54.0958 64.2111 54.4521 64.522 54.5234 66.2389C54.5234 66.7313 54.5687 67.2172 54.5817 67.7095C54.6724 70.5407 54.7566 73.3654 54.8538 76.1966C54.8538 76.6112 54.9251 77.0193 54.9639 77.4016C56.7585 77.7385 56.7585 77.7385 58.2033 77.4016C58.3393 75.296 58.4559 73.1516 58.6114 71.0201C58.7216 69.6078 58.8511 68.2019 59.0325 66.796C59.1556 65.8696 59.5508 65.5392 60.4902 65.429C60.8565 65.3934 61.2253 65.3934 61.5916 65.429C62.1219 65.416 62.6398 65.591 63.0536 65.9229C63.4673 66.2549 63.7504 66.7225 63.8526 67.243C64.1352 68.374 64.3515 69.5206 64.5005 70.6767C64.7143 72.6916 64.805 74.7259 64.967 76.7472C65.0256 77.1709 65.11 77.5907 65.2197 78.0041C66.7162 78.0041 68.0832 78.3993 69.5668 78.2244C69.7384 77.171 69.7384 76.0967 69.5668 75.0434C69.3465 72.3482 69.1133 69.6531 68.8866 66.958C68.7311 65.0533 68.6015 63.155 68.4331 61.2568C68.0573 57.8036 67.7269 54.3182 67.3965 50.7096Z" fill="#54BFFB"/>
<path d="M39.0074 13.7682C42.967 13.8132 46.7779 15.2829 49.7425 17.9081C51.9591 19.8108 53.3755 22.4803 53.7082 25.3825C54.041 28.2847 53.2656 31.2055 51.5371 33.5605C49.5168 36.4645 46.5554 38.5815 43.1537 39.5532C39.619 40.6492 35.8799 40.9197 32.2242 40.3437C29.3527 39.8882 26.6747 38.61 24.5146 36.6638C23.5067 35.8009 22.6823 34.7444 22.0903 33.557C21.4982 32.3696 21.1506 31.0753 21.068 29.751C21.008 28.7716 21.0821 27.7886 21.2883 26.8292C21.7086 24.4538 22.8039 22.2496 24.4434 20.4801C25.9841 18.8906 27.6621 17.4402 29.4579 16.1459C30.5122 15.3969 31.6962 14.85 32.9499 14.5327C34.9261 14.0098 36.9632 13.7527 39.0074 13.7682ZM46.0108 26.1554C46.0886 22.4108 44.4689 19.6767 41.6636 17.5388C41.0798 17.0401 40.3679 16.7151 39.6086 16.6006C38.8494 16.4861 38.0733 16.5866 37.3683 16.8909C37.0204 17.011 36.6824 17.1583 36.3576 17.3315C33.6919 18.8642 31.2865 20.8105 29.2311 23.0975C28.4925 23.9397 28.1168 25.0994 27.5726 26.1165C27.1838 30.6516 28.5962 34.325 32.4121 36.9618C33.3786 37.6269 34.5652 37.8917 35.7227 37.7004C41.7284 36.9877 46.2635 30.9172 46.0108 26.1554Z" fill="#54BFFB"/>
<path d="M70.4932 18.433C75.7604 18.3423 78.8636 19.5344 81.5717 21.7371C83.2497 23.1041 83.6967 25.0154 83.457 27.0691C83.3086 28.3603 82.8388 29.5936 82.0907 30.6564C81.3426 31.7191 80.34 32.5773 79.1746 33.1525C76.8249 34.3853 74.1754 34.931 71.5298 34.7269C69.7523 34.6552 67.9999 34.2828 66.3469 33.6255C63.1075 32.3298 61.6045 29.8744 61.8118 26.3889C61.8567 26.0863 61.8827 25.7812 61.8896 25.4753C61.8647 25.0427 61.9334 24.6099 62.091 24.2063C62.2487 23.8026 62.4915 23.4378 62.803 23.1366C65.3427 20.3831 68.2905 18.4395 70.4932 18.433ZM68.4524 28.002C69.1003 29.5763 69.6251 31.0794 71.1605 31.8245C74.5942 30.6583 76.4277 27.3996 75.5206 24.1537C75.4116 23.6085 75.158 23.1025 74.7865 22.6888C74.4149 22.2751 73.9391 21.9688 73.4086 21.802C71.8188 22.6225 70.4073 23.7499 69.2558 25.1191C69.1402 25.3068 69.0508 25.5095 68.9902 25.7215L69.4761 27.1209L68.4524 28.002Z" fill="#54BFFB"/>
</svg>
