<svg width="72" height="65" viewBox="0 0 72 65" fill="none" xmlns="http://www.w3.org/2000/svg">
<path d="M53.541 36.251C53.6333 37.0638 53.7165 37.7566 53.7857 38.4494C53.855 39.1421 53.8874 39.761 53.9428 40.4168C54.1614 42.9477 54.38 45.4802 54.5986 48.0142C54.7556 49.8939 54.9265 51.7736 55.0604 53.6533C55.1205 54.48 55.139 55.3159 55.139 56.1472C55.158 56.4809 55.0594 56.8108 54.8602 57.0792C54.661 57.3476 54.3739 57.5375 54.049 57.6159C53.4667 57.8097 52.8607 57.9232 52.2478 57.9531C51.1532 57.9531 50.0586 57.8976 48.9641 57.8422C48.1789 57.8053 47.3984 57.7498 46.6872 57.7036C46.2715 58.0316 46.387 58.4103 46.387 58.7428C46.387 60.0591 46.387 61.3707 46.387 62.7701C46.1606 62.9392 45.9099 63.0731 45.6434 63.1673C44.7398 63.3731 43.7952 63.3023 42.9324 62.9641C42.597 62.8572 42.3023 62.6505 42.0877 62.3715C41.8731 62.0925 41.7489 61.7546 41.7316 61.403C41.6531 60.5301 41.593 59.6527 41.5191 58.7798C41.4868 58.3918 41.4453 58.0085 41.4083 57.639C40.664 57.3812 39.8592 57.3539 39.0991 57.5605C39.0575 58.0916 39.0206 58.6504 38.9744 59.2093C38.9282 59.7681 38.8866 60.2577 38.8451 60.7842C38.8174 61.1767 38.8127 61.5739 38.7619 61.9619C38.6649 62.6685 38.4756 62.8856 37.8059 63.038C37.1835 63.1948 36.5344 63.2145 35.9036 63.0957C35.2728 62.9769 34.6754 62.7224 34.1527 62.3498C33.7786 60.6687 34.1897 58.9461 33.8756 57.228C32.8411 57.168 31.8574 56.9324 30.7997 57.228C30.5642 59.3663 30.869 61.5277 30.3887 63.6661C29.7313 63.9779 29.0061 64.1194 28.2797 64.0775C27.5533 64.0355 26.8492 63.8114 26.2321 63.4259C26.0431 63.3116 25.8887 63.1481 25.7854 62.9529C25.6821 62.7577 25.6337 62.538 25.6455 62.3175C25.5994 61.089 25.5486 59.8651 25.507 58.6227C25.507 58.2809 25.507 57.9346 25.507 57.542C24.8964 57.4138 24.2646 57.4264 23.6596 57.5789C22.2289 57.8164 20.7658 57.7757 19.3506 57.4589C18.7597 57.3012 18.1846 57.0894 17.6325 56.8261C17.3281 56.6946 17.0741 56.4688 16.9078 56.1819C16.7415 55.895 16.6717 55.5623 16.7088 55.2328C16.7366 54.7987 16.7088 54.3553 16.7504 53.9212C16.949 51.5611 17.1753 49.2011 17.3554 46.8411C17.5448 44.3933 17.6741 41.9455 17.8588 39.4978C17.9328 39.0613 17.8476 38.6128 17.6187 38.234C17.3899 37.8551 17.0326 37.5709 16.6119 37.4333C15.6374 37.0361 14.6813 36.5927 13.7115 36.1817C12.0165 35.4658 10.3031 34.7962 8.63118 34.0341C7.35649 33.4568 6.10028 32.8241 4.87177 32.1498C4.14565 31.752 3.45768 31.2882 2.81656 30.7643C0.58585 28.9538 -0.208523 26.5476 0.0454915 23.7442C0.199077 22.2565 0.649814 20.8148 1.37098 19.5045C2.76341 16.9094 4.59654 14.5761 6.78843 12.6091C8.91522 10.6452 11.267 8.93993 13.7946 7.52883C19.8475 4.13138 26.4483 1.81964 33.2983 0.698189C37.7269 -0.000364692 42.2223 -0.175532 46.6918 0.176302C50.5482 0.414721 54.3523 1.19201 57.9931 2.48553C61.1119 3.56304 63.9782 5.26492 66.4172 7.48728C68.6244 9.54428 70.3036 12.1027 71.3127 14.9461C72.1015 17.1489 72.2141 19.5372 71.636 21.8045C70.886 24.9414 69.2072 27.7791 66.819 29.9468C65.2262 31.395 63.4269 32.5981 61.4801 33.5168C59.3097 34.5706 57.0256 35.3718 54.6725 35.9046C54.34 35.9785 54.0167 36.1032 53.541 36.251ZM48.045 36.1494C47.7217 35.8677 47.4169 35.6228 47.1444 35.3504C46.9874 35.1979 47.0844 34.9162 47.2691 34.7869C47.4319 34.6697 47.6274 34.6066 47.8279 34.6066C48.0285 34.6066 48.224 34.6697 48.3868 34.7869C48.7441 35.0009 49.1444 35.1331 49.5588 35.1738C49.9733 35.2145 50.3916 35.1628 50.7837 35.0225C53.9858 34.245 57.019 32.8895 59.7343 31.0229C61.7646 29.6228 63.4677 27.7999 64.7268 25.6794C65.7804 23.9011 66.4564 21.9249 66.7128 19.874C67.073 17.0013 66.2509 14.4058 64.81 11.9672C62.353 7.75981 58.6905 5.03951 54.1183 3.51081C51.7384 2.74741 49.2766 2.2684 46.7842 2.08372C43.1111 1.75889 39.4114 1.91414 35.7784 2.54557C29.8959 3.57921 24.2278 5.58982 19.0088 8.49413C15.6493 10.3184 12.6205 12.6946 10.049 15.5234C8.68822 17.016 7.53831 18.688 6.6314 20.4928C6.02078 21.6619 5.64425 22.9389 5.52296 24.2523C5.31513 26.9956 6.18802 29.2587 8.54343 30.8243C9.04975 31.1655 9.57733 31.474 10.1229 31.748C11.1852 32.2745 12.2521 32.7825 13.3559 33.2536C15.6097 34.2235 17.8819 35.1425 20.1311 36.1263C20.889 36.4687 21.618 36.8718 22.311 37.3317C22.651 37.5392 22.9297 37.8332 23.1188 38.1838C23.3079 38.5343 23.4005 38.9288 23.3871 39.3269C23.3871 39.544 23.3871 39.7887 23.3871 39.9827C23.2347 42.4351 23.1054 44.8829 22.9253 47.3306C22.7452 49.7784 22.5004 52.1338 22.2972 54.5354C22.2966 54.8446 22.3197 55.1534 22.3664 55.4591C23.5118 55.3067 24.611 55.4591 25.6686 54.9972C25.6686 54.5354 25.6917 54.0736 25.7194 53.6441C25.7841 52.4202 25.858 51.1917 25.9227 49.9493C25.955 49.312 26.0243 49.0256 26.9433 48.8085C27.3698 48.708 27.8106 48.683 28.2457 48.7347C30.0146 48.961 30.1901 49.2519 30.4118 50.8083C30.4118 50.8961 30.4118 50.9838 30.4349 51.0716C30.5134 52.12 30.5919 53.1684 30.6796 54.2168C30.7168 54.4695 30.7708 54.7194 30.8413 54.9649C31.9153 55.079 32.9976 55.0929 34.0742 55.0065C34.125 54.674 34.1758 54.4245 34.1989 54.1705C34.3559 52.6003 34.4668 51.0208 34.6608 49.4597C34.7994 48.5066 34.989 47.5615 35.2288 46.6286C35.2845 46.3675 35.4228 46.1312 35.6233 45.9549C35.8238 45.7785 36.0758 45.6714 36.3419 45.6495C36.6457 45.5877 36.9568 45.5706 37.2656 45.5987C38.5633 45.7742 38.8174 45.9959 38.8682 47.2198C38.8682 47.5708 38.9005 47.9172 38.9097 48.2682C38.9744 50.2865 39.0344 52.3001 39.1037 54.3183C39.1037 54.6139 39.1545 54.9049 39.1822 55.1774C40.4615 55.4175 40.4615 55.4175 41.4914 55.1774C41.5884 53.6764 41.6716 52.1477 41.7824 50.6282C41.8609 49.6214 41.9533 48.6192 42.0826 47.617C42.1703 46.9565 42.4521 46.721 43.1217 46.6425C43.3828 46.6171 43.6458 46.6171 43.9069 46.6425C44.2849 46.6332 44.6541 46.7579 44.9491 46.9946C45.244 47.2312 45.4458 47.5645 45.5187 47.9356C45.7202 48.7419 45.8744 49.5592 45.9806 50.3834C46.133 51.8198 46.1976 53.2699 46.3131 54.7109C46.3549 55.0129 46.415 55.3122 46.4932 55.6069C47.5601 55.6069 48.5346 55.8886 49.5922 55.7639C49.7145 55.013 49.7145 54.2472 49.5922 53.4962C49.4352 51.575 49.2689 49.6537 49.1073 47.7324C48.9964 46.3746 48.904 45.0214 48.784 43.6682C48.5161 41.2065 48.2806 38.7219 48.045 36.1494Z" fill="#54BFFB"/>
<path d="M27.807 9.81493C30.6297 9.84701 33.3464 10.8947 35.4598 12.7661C37.0399 14.1225 38.0496 16.0255 38.2868 18.0944C38.524 20.1633 37.9712 22.2454 36.7391 23.9242C35.2989 25.9945 33.1877 27.5036 30.7628 28.1963C28.243 28.9776 25.5775 29.1704 22.9715 28.7598C20.9244 28.4351 19.0154 27.5239 17.4755 26.1365C16.757 25.5214 16.1693 24.7683 15.7473 23.9218C15.3252 23.0753 15.0774 22.1526 15.0185 21.2086C14.9758 20.5104 15.0286 19.8096 15.1755 19.1257C15.4752 17.4324 16.256 15.8611 17.4247 14.5996C18.5231 13.4665 19.7193 12.4326 20.9994 11.5099C21.751 10.976 22.595 10.5861 23.4888 10.3599C24.8976 9.98711 26.3498 9.80387 27.807 9.81493ZM32.7995 18.6454C32.855 15.9759 31.7003 14.0269 29.7006 12.5028C29.2843 12.1474 28.7768 11.9157 28.2356 11.834C27.6943 11.7524 27.1411 11.8241 26.6385 12.041C26.3905 12.1266 26.1496 12.2316 25.918 12.3551C24.0177 13.4477 22.303 14.8351 20.8378 16.4655C20.3113 17.0659 20.0434 17.8926 19.6554 18.6177C19.3783 21.8506 20.3851 24.4692 23.1054 26.3489C23.7944 26.8231 24.6403 27.0118 25.4654 26.8754C29.7467 26.3674 32.9796 22.04 32.7995 18.6454Z" fill="#54BFFB"/>
<path d="M50.2529 13.1402C54.0077 13.0755 56.22 13.9253 58.1505 15.4956C59.3467 16.47 59.6653 17.8325 59.4944 19.2966C59.3886 20.217 59.0538 21.0962 58.5205 21.8538C57.9871 22.6114 57.2724 23.2232 56.4416 23.6333C54.7666 24.5121 52.8778 24.9011 50.9919 24.7556C49.7248 24.7045 48.4755 24.439 47.2971 23.9704C44.9879 23.0468 43.9164 21.2963 44.0642 18.8116C44.0962 18.5959 44.1147 18.3784 44.1196 18.1604C44.1019 17.852 44.1509 17.5434 44.2633 17.2557C44.3756 16.968 44.5488 16.7079 44.7708 16.4932C46.5813 14.5303 48.6827 13.1448 50.2529 13.1402ZM48.7981 19.9616C49.26 21.0839 49.6341 22.1554 50.7286 22.6865C53.1764 21.8552 54.4834 19.5321 53.8368 17.2183C53.7591 16.8296 53.5783 16.4689 53.3135 16.1739C53.0486 15.879 52.7094 15.6607 52.3312 15.5418C51.1979 16.1267 50.1917 16.9304 49.3708 17.9064C49.2884 18.0403 49.2247 18.1848 49.1814 18.3359L49.5278 19.3335L48.7981 19.9616Z" fill="#54BFFB"/>
</svg>
