<svg width="251" height="141" viewBox="0 0 251 141" fill="none" xmlns="http://www.w3.org/2000/svg">
<path d="M184.297 87.5492C184.075 87.8274 183.893 88.0371 183.72 88.2629C180.055 93.1377 175.124 96.2424 169.507 98.3431C164.963 100.029 160.277 101.145 155.395 101.274C153.055 101.355 150.713 101.181 148.411 100.754C145.992 100.287 143.528 99.8955 140.996 99.456C140.79 99.7145 140.597 99.9837 140.419 100.262C137.242 105.907 132.642 110.149 127.114 113.431C122.378 116.203 117.064 117.837 111.59 118.205C108.743 118.435 105.945 117.996 103.123 117.556C99.8892 117.086 96.7443 116.134 93.7923 114.734C93.5113 114.618 93.2247 114.517 92.9335 114.431C92.6593 114.778 92.3972 115.101 92.1271 115.439C86.079 123.681 78.6841 130.475 69.6199 135.196C58.1527 141.192 46.2096 142.051 34.0005 137.487C30.4205 136.094 27.095 134.12 24.1581 131.644C16.9246 125.741 11.0054 118.741 6.70723 110.431C4.50368 106.137 2.84313 101.584 1.76388 96.8795C1.08893 94.1963 0.583913 91.4733 0.25185 88.7266C-0.338603 83.2096 0.111384 77.6307 1.57842 72.2797C2.9177 67.1164 5.05054 62.1924 7.90074 57.6835C12.8804 49.9701 19.4809 44.172 28.0249 40.6399C31.8433 39.0593 35.7302 37.7489 39.8188 37.0997C45.2339 36.2449 50.6006 36.4707 55.7899 38.2609C60.2695 39.8052 63.7976 42.7567 66.7249 46.438C67.3378 47.2082 67.9345 48.0065 68.5756 48.8573C68.874 48.5428 69.1321 48.3089 69.3458 48.0509C71.8604 44.9529 75.0654 42.4866 78.7042 40.8496C86.6636 37.132 95.006 35.6078 103.764 36.6118C105.941 36.8618 108.122 37.1521 110.28 37.5553C112.663 38.0029 114.864 39.0351 117.086 39.9746L118.864 40.7245C120.924 38.956 123.189 37.4412 125.61 36.2127C133.581 32.3015 141.952 30.2048 150.875 30.5153C153.929 30.6562 156.94 31.2936 159.79 32.4023C160.362 32.6201 160.951 32.8055 161.487 32.9789C161.89 32.4547 161.608 32.0636 161.54 31.6766C161.462 31.3291 161.366 30.9859 161.253 30.6483C160.454 27.9253 159.891 25.1381 159.572 22.3181C159.235 19.0654 159.536 15.7782 160.459 12.641C161.749 8.20574 164.132 4.51235 168.047 1.93585C170.346 0.332275 173.18 -0.311435 175.946 0.141564C177.017 0.286895 178.075 0.513341 179.111 0.818952C183.943 2.34423 188.304 5.08003 191.78 8.76621C195.195 12.4314 197.776 16.657 199.865 21.1971C200.485 22.5479 201.183 23.8704 201.788 25.2292C202.57 26.9751 203.288 28.7533 204.05 30.5072C204.235 30.9467 204.481 31.358 204.751 31.8822C205.856 31.3499 206.86 30.8459 207.88 30.3782C216.166 26.5961 224.702 25.83 233.371 28.713C240.516 31.0879 245.705 35.8578 248.947 42.664C250.375 45.6558 250.79 48.9016 250.963 52.1878C251.27 58.5303 249.645 64.4332 246.734 69.9935C245.173 72.9772 242.883 75.4288 240.335 77.6142C237.129 80.3067 233.635 82.6354 229.916 84.5574C225.678 86.8607 221.221 88.7342 216.61 90.1499C211.34 91.7184 205.961 92.5087 200.425 92.0006C195.345 91.5329 190.567 90.0249 185.909 88.0492C185.506 87.8839 185.127 87.7226 184.732 87.5653C184.588 87.5421 184.442 87.5367 184.297 87.5492ZM68.3095 69.5903C68.134 67.6594 67.7721 65.7501 67.2289 63.8889C66.4829 61.5207 65.5206 59.2262 64.354 57.0343C63.3314 54.9249 62.0836 52.9322 60.6324 51.0911C57.7576 47.5347 54.1811 45.2042 49.5321 44.6397C45.7929 44.1718 42.0001 44.3808 38.3349 45.2566C35.2314 46.0218 32.2164 47.1097 29.3394 48.5025C25.9107 50.0771 22.7748 52.2231 20.0655 54.849C16.0509 58.7948 12.907 63.5375 10.8361 68.7718C8.33619 75.0014 7.12255 81.4446 7.90477 88.15C8.53868 93.8774 10.0765 99.468 12.461 104.714C16.6181 113.717 22.8396 121.072 30.7707 126.999C32.0669 127.994 33.4708 128.839 34.9561 129.519C45.8427 134.33 56.5036 133.596 66.8781 127.983C73.4545 124.423 78.8897 119.459 83.7403 113.826C85.467 111.837 86.928 109.632 88.0869 107.266C89.4135 104.557 90.2804 101.746 90.0748 98.6576C89.8167 94.8191 89.2683 91.037 87.9982 87.3879C86.1394 82.122 82.8815 78.2835 77.2527 76.848C76.2947 76.5802 75.2952 76.4926 74.3052 76.59C70.8941 76.9932 67.616 77.7996 64.5798 79.5012C61.0651 81.4007 58.1095 84.188 56.0076 87.5855C53.5541 91.6058 52.1663 96.1854 51.9755 100.891C51.7295 106.012 52.5118 110.923 55.5399 115.246C54.3545 117.104 51.9997 119.999 50.8747 120.979C50.0441 120.653 49.5119 119.951 49.0401 119.266C48.2458 118.177 47.5559 117.016 46.9798 115.798C44.4931 110.026 43.6799 103.672 44.6331 97.4601C44.9354 94.9209 45.5141 92.4224 46.3588 90.0088C46.4318 89.7225 46.4737 89.4291 46.4838 89.1338C44.6452 87.4404 42.8993 85.6582 40.972 84.1058C37.464 81.2833 34.5206 77.9085 31.4683 74.6586C31.0893 74.2554 30.7869 73.7917 30.3796 73.2635C31.9199 71.316 33.5811 69.5943 35.1052 67.8444C36.0447 67.9815 36.3794 68.6508 36.8592 69.1629C39.4357 71.9007 41.8469 74.8078 44.7419 77.2271C46.2661 78.5052 47.7217 79.86 49.2095 81.1745C49.524 81.4527 49.8466 81.7269 50.153 81.9809C51.9191 80.1544 53.5843 78.3278 55.3584 76.6142C57.1229 74.9684 59.1353 73.6104 61.3219 72.5902C63.5396 71.5015 65.862 70.6265 68.3095 69.5903ZM187.426 80.0979C187.76 80.3544 188.115 80.5836 188.486 80.7834C192.115 82.3962 195.877 83.6986 199.86 84.2066C205.469 84.9203 210.88 84.0413 216.174 82.1906C219.314 81.0694 222.382 79.7551 225.359 78.2552C228.799 76.5588 232.033 74.4755 235 72.0458C238.012 69.5621 240.327 66.5461 241.54 62.772C242.043 61.2957 242.467 59.7936 242.81 58.2722C243.573 54.86 243.515 51.3153 242.641 47.9299C241.234 42.7487 237.758 39.1722 233.049 36.8497C228.089 34.4063 222.787 34.128 217.453 35.2369C211.507 36.4751 206.046 39.4058 201.727 43.676C199.586 45.7485 197.659 48.0549 197.103 51.1515C196.941 52.0668 196.143 52.2523 195.49 52.6112C193.78 52.3289 192.119 52.8894 190.47 52.9378C189.333 51.9257 189.296 50.6556 189.55 49.3734C189.73 48.4709 190.001 47.5889 190.357 46.7404C191.812 43.289 194.066 40.3939 196.715 37.7811C197.119 37.3779 197.49 36.9747 197.893 36.5715C197.586 35.5594 197.308 34.6159 197.014 33.6805C196.062 30.6887 194.466 27.9872 193.216 25.1284C192.148 22.7333 190.893 20.4264 189.462 18.2295C186.639 13.7942 182.849 10.4516 177.918 8.5525C174.414 7.19772 172.483 7.12916 169.519 11.1411C169.36 11.3762 169.215 11.6213 169.088 11.8749C167.705 14.373 167.037 17.2034 167.156 20.0561C167.276 22.6793 167.7 25.2799 168.418 27.8057C169.357 31.1542 170.53 34.4324 171.93 37.6158C172.971 40.1069 174.396 42.4197 176.152 44.4704C179.627 48.5025 182.724 52.8329 184.813 57.7763C187.716 64.6671 188.925 71.7676 187.522 79.2028C187.478 79.4729 187.466 79.7552 187.426 80.0979ZM96.4737 107.448C97.1793 107.782 97.8647 108.137 98.5704 108.435C101.074 109.504 103.735 109.939 106.413 110.286C108.171 110.516 109.937 110.734 111.711 110.52C116.146 109.996 120.323 108.734 124.089 106.298C128.573 103.399 132.436 99.8794 134.52 94.8271C136.49 90.1567 137.223 85.0575 136.649 80.0213C135.993 74.1486 134.213 68.4568 131.408 63.2559C128.351 57.6109 124.218 52.8732 118.723 49.4742C113.783 46.3482 108.141 44.5062 102.308 44.1155C94.9092 43.6357 87.9014 44.8615 81.2686 48.1476C78.3736 49.6072 75.8899 51.6233 74.277 54.4901C73.4706 55.9779 72.9827 57.5021 73.7367 59.3085C74.6954 61.6059 75.337 64.0232 75.6439 66.4936C75.7366 67.2517 75.9503 67.9976 76.1036 68.7395C77.0753 68.9653 77.8978 69.1669 78.7244 69.3443C84.4218 70.5781 88.8046 73.7474 92.0585 78.5133C92.7963 79.5506 93.44 80.6517 93.9818 81.8035C96.1718 86.8236 97.4236 92.2025 97.6752 97.6738C97.9137 100.651 97.5714 103.646 96.6672 106.492C96.5906 106.754 96.5624 107.04 96.4737 107.448ZM143.577 92.0208C144.383 92.2143 145.036 92.424 145.726 92.5329C147.403 92.8232 149.084 93.092 150.77 93.3393C151.54 93.4522 152.318 93.5167 153.096 93.557C157.564 93.799 161.834 92.8353 166.039 91.4361C168.529 90.5937 170.892 89.4163 173.063 87.9363C176.62 85.5453 179.111 82.3881 179.918 78.0738C180.059 77.3077 180.22 76.5376 180.321 75.7634C180.954 69.7153 179.623 63.9937 176.829 58.6956C173.567 52.4331 168.898 47.012 163.189 42.8575C158.681 39.5835 153.649 37.894 148.04 38.1359C141.208 38.4204 134.526 40.2307 128.484 43.4341C127.678 43.8373 126.92 44.3615 126.065 44.8574C126.561 45.7445 127.307 46.188 127.932 46.7404C133.613 51.7238 137.995 58.0147 140.702 65.0703C141.916 68.2542 142.877 71.529 143.577 74.8643C144.423 78.7794 144.786 82.7107 144.266 86.7025C144.032 88.3839 143.823 90.0693 143.577 92.0208Z" fill="#FBEA54"/>
<path d="M115.481 62.6586C114.638 66.3641 113.691 69.7712 113.062 73.2348C113.989 74.1984 115.154 74.6057 116.134 75.279C117.114 75.9524 118.336 75.8919 119.239 76.8919C118.634 79.0813 118.38 81.3998 117.537 83.5852C115.344 83.7384 113.663 82.561 111.719 81.7546C111.611 82.1139 111.522 82.4786 111.453 82.8473C111.235 84.7464 111.05 86.6495 110.82 88.5487C110.745 89.251 110.61 89.9457 110.417 90.6252C110.384 90.7652 110.324 90.8974 110.24 91.0141C110.156 91.1307 110.049 91.2294 109.926 91.3044C109.804 91.3794 109.667 91.4293 109.525 91.4512C109.383 91.473 109.238 91.4663 109.098 91.4316C107.082 91.0606 105.066 90.6816 103.018 90.1453C103.171 85.8754 103.877 81.7747 104.429 77.6459C103.502 76.8394 102.437 76.4363 101.449 75.9C99.3204 74.767 97.1753 73.6622 95.0383 72.5453C94.7228 72.3852 94.4195 72.202 94.1311 71.9969C93.9118 71.8678 93.7511 71.6587 93.6827 71.4136C93.6143 71.1685 93.6435 70.9065 93.7642 70.6825C94.6875 69.1583 95.1754 67.4568 95.8367 65.844C95.971 65.5819 96.1304 65.3334 96.3125 65.102C97.3689 65.0456 98.2317 65.5335 99.1027 66.0012C100.603 66.8076 102.094 67.614 103.602 68.4204C104.28 68.7753 104.998 69.0616 105.788 69.4204C107.131 66.6463 106.824 63.4932 108.252 60.7998C108.989 60.9692 109.61 61.0861 110.219 61.2474C111.917 61.6667 113.61 62.1425 115.481 62.6586Z" fill="#FBEA54"/>
<path d="M143.496 52.4825C144.395 52.1438 145.109 51.8615 145.835 51.6115C146.419 51.4099 146.943 51.672 147.447 51.8978C149.334 52.7042 151.222 53.5106 153.092 54.3171C153.471 54.4783 153.899 54.5832 154.391 54.7566C155.318 52.3978 155.83 49.9866 156.669 47.6843C157.763 47.7763 158.862 47.8019 159.959 47.7609C160.919 47.6722 161.782 46.9988 162.782 47.1238C164.031 48.5471 163.991 50.0955 163.447 51.7285C163.044 53.0066 162.64 54.2929 162.237 55.5831C162.056 56.188 161.923 56.7928 161.741 57.5226C162.143 57.7334 162.558 57.9179 162.983 58.075C165.657 59.0226 168.397 59.7733 171.18 60.3208C171.656 60.4055 172.12 60.5789 172.688 60.7241C172.719 63.0847 172.539 65.4433 172.152 67.7721C170.205 68.0302 169.362 67.9254 165.874 66.9657C163.898 66.4133 161.935 65.8085 159.826 65.1916C159.617 65.6237 159.432 66.0665 159.27 66.5182C158.592 68.756 157.959 71.0059 157.254 73.2397C156.919 74.3082 156.649 75.4331 155.79 76.2355C154.221 76.0178 150.899 74.788 149.129 73.7477C149.242 73.2558 149.335 72.7155 149.492 72.1913C150.355 69.3447 151.242 66.502 152.101 63.6514C152.201 63.2331 152.275 62.8089 152.322 62.3812C149.314 60.8732 146.064 60.0023 143.311 58.208C143.645 57.1436 144.117 56.2807 144.117 55.3856C144.117 54.4904 143.766 53.6397 143.496 52.4825Z" fill="#FBEA54"/>
</svg>
