<svg width="331" height="186" viewBox="0 0 331 186" fill="none" xmlns="http://www.w3.org/2000/svg">
<path d="M243.037 115.453C242.744 115.82 242.505 116.097 242.276 116.394C237.443 122.823 230.94 126.917 223.533 129.688C217.541 131.91 211.362 133.383 204.923 133.553C201.837 133.66 198.749 133.43 195.713 132.867C192.523 132.25 189.274 131.735 185.935 131.155C185.663 131.496 185.409 131.851 185.175 132.219C180.985 139.663 174.918 145.256 167.628 149.585C161.383 153.239 154.376 155.394 147.157 155.88C143.403 156.183 139.712 155.604 135.99 155.024C131.726 154.404 127.579 153.149 123.686 151.302C123.316 151.15 122.938 151.017 122.554 150.903C122.192 151.361 121.847 151.786 121.49 152.233C113.514 163.101 103.763 172.06 91.8095 178.287C76.6874 186.194 60.9378 187.326 44.8372 181.307C40.1163 179.471 35.7309 176.868 31.8579 173.602C22.3188 165.818 14.5131 156.587 8.84499 145.629C5.93911 139.965 3.74931 133.962 2.32608 127.757C1.436 124.219 0.77002 120.628 0.332121 117.006C-0.446524 109.731 0.146885 102.374 2.08151 95.317C3.84764 88.5081 6.66027 82.0146 10.4189 76.0687C16.9857 65.8969 25.6899 58.2507 36.9571 53.5928C41.9925 51.5085 47.1183 49.7804 52.51 48.9243C59.651 47.7971 66.7283 48.0948 73.5715 50.4557C79.479 52.4922 84.1315 56.3844 87.9918 61.239C88.8 62.2546 89.587 63.3074 90.4324 64.4293C90.8259 64.0146 91.1662 63.7062 91.448 63.3659C94.7641 59.2805 98.9906 56.0282 103.789 53.8693C114.285 48.9669 125.287 46.957 136.836 48.2809C139.707 48.6106 142.584 48.9934 145.428 49.5252C148.571 50.1154 151.474 51.4766 154.404 52.7155L156.749 53.7045C159.465 51.3722 162.452 49.3746 165.645 47.7545C176.157 42.5968 187.195 39.8319 198.962 40.2413C202.99 40.4271 206.961 41.2676 210.719 42.7298C211.474 43.0169 212.25 43.2615 212.957 43.4901C213.489 42.7989 213.117 42.2831 213.026 41.7727C212.924 41.3144 212.798 40.8618 212.649 40.4167C211.594 36.8258 210.852 33.1503 210.431 29.4314C209.987 25.142 210.384 20.8071 211.601 16.6701C213.303 10.8211 216.445 5.95056 221.608 2.55285C224.64 0.438179 228.377 -0.410698 232.025 0.186684C233.437 0.378336 234.832 0.676956 236.199 1.07997C242.57 3.09139 248.321 6.69916 252.905 11.5602C257.409 16.3936 260.812 21.966 263.566 27.9532C264.385 29.7345 265.305 31.4785 266.103 33.2704C267.134 35.5728 268.081 37.9177 269.086 40.2307C269.33 40.8102 269.655 41.3526 270.011 42.0438C271.468 41.3419 272.792 40.6773 274.137 40.0605C285.064 35.073 296.32 34.0627 307.752 37.8645C317.175 40.9963 324.018 47.2866 328.293 56.2621C330.175 60.2075 330.723 64.4878 330.951 68.8214C331.356 77.1853 329.213 84.9697 325.374 92.3022C323.316 96.2369 320.296 99.4698 316.935 102.352C312.708 105.902 308.1 108.973 303.196 111.508C297.607 114.545 291.729 117.016 285.649 118.883C278.699 120.951 271.606 121.994 264.305 121.324C257.606 120.707 251.305 118.718 245.163 116.113C244.632 115.895 244.132 115.682 243.611 115.475C243.421 115.444 243.228 115.437 243.037 115.453ZM90.0815 91.7705C89.85 89.2242 89.3728 86.7063 88.6565 84.2519C87.6727 81.1289 86.4036 78.1031 84.8653 75.2126C83.5167 72.4308 81.8712 69.803 79.9575 67.3751C76.1663 62.6853 71.4499 59.6119 65.3192 58.8675C60.3883 58.2505 55.3865 58.5261 50.5533 59.6811C46.4605 60.6901 42.4846 62.1247 38.6905 63.9614C34.1691 66.0379 30.0337 68.868 26.4609 72.3307C21.1668 77.5341 17.0208 83.7885 14.2898 90.6911C10.9931 98.9062 9.39268 107.403 10.4242 116.246C11.2602 123.798 13.2882 131.171 16.4327 138.089C21.9147 149.962 30.1192 159.661 40.5782 167.477C42.2874 168.788 44.1388 169.903 46.0974 170.8C60.4539 177.144 74.5127 176.176 88.1939 168.774C96.8663 164.079 104.034 157.534 110.43 150.106C112.707 147.482 114.634 144.574 116.162 141.455C117.912 137.881 119.055 134.175 118.784 130.102C118.444 125.04 117.72 120.053 116.045 115.241C113.594 108.296 109.298 103.234 101.875 101.341C100.612 100.988 99.2937 100.873 97.9882 101.001C93.4898 101.533 89.1669 102.596 85.163 104.84C80.5281 107.345 76.6305 111.021 73.8586 115.501C70.6231 120.803 68.793 126.842 68.5414 133.048C68.217 139.801 69.2486 146.277 73.2419 151.977C71.6786 154.429 68.5733 158.246 67.0898 159.538C65.9944 159.108 65.2926 158.183 64.6705 157.279C63.6229 155.843 62.7132 154.312 61.9534 152.706C58.6741 145.095 57.6018 136.715 58.8588 128.523C59.2575 125.175 60.0206 121.88 61.1345 118.697C61.2308 118.319 61.2861 117.932 61.2994 117.543C58.8747 115.31 56.5724 112.96 54.0307 110.912C49.4048 107.19 45.5232 102.74 41.4981 98.4542C40.9982 97.9225 40.5994 97.311 40.0624 96.6144C42.0936 94.0462 44.2843 91.7758 46.2942 89.4681C47.5331 89.6489 47.9744 90.5315 48.6072 91.2068C52.0049 94.8172 55.1846 98.6509 59.0023 101.841C61.0122 103.527 62.9318 105.313 64.8938 107.047C65.3086 107.414 65.7339 107.775 66.1381 108.11C68.467 105.702 70.663 103.293 73.0025 101.033C75.3294 98.8627 77.9833 97.0719 80.8667 95.7265C83.7912 94.2908 86.8539 93.137 90.0815 91.7705ZM247.163 105.627C247.604 105.965 248.072 106.268 248.561 106.531C253.347 108.658 258.308 110.375 263.561 111.045C270.957 111.987 278.093 110.827 285.075 108.387C289.215 106.908 293.26 105.175 297.187 103.197C301.723 100.96 305.988 98.2128 309.901 95.0087C313.873 91.7332 316.925 87.756 318.525 82.7791C319.189 80.8322 319.748 78.8514 320.2 76.845C321.206 72.3452 321.13 67.6708 319.977 63.2064C318.121 56.3737 313.538 51.6574 307.327 48.5946C300.787 45.3724 293.795 45.0055 286.76 46.4677C278.919 48.1007 271.718 51.9654 266.023 57.5967C263.199 60.3297 260.658 63.3712 259.924 67.4548C259.711 68.6618 258.659 68.9064 257.797 69.3797C255.543 69.0074 253.352 69.7465 251.177 69.8103C249.678 68.4757 249.63 66.8008 249.965 65.1099C250.202 63.9199 250.559 62.7567 251.028 61.6378C252.948 57.0863 255.92 53.2685 259.414 49.8229C259.945 49.2912 260.435 48.7595 260.966 48.2277C260.562 46.8931 260.195 45.6489 259.807 44.4153C258.552 40.4699 256.447 36.9074 254.798 33.1375C253.391 29.9789 251.736 26.9368 249.848 24.0397C246.126 18.1908 241.128 13.7828 234.625 11.2784C230.004 9.49181 227.457 9.40141 223.549 14.692C223.339 15.0021 223.149 15.3253 222.98 15.6598C221.157 18.954 220.276 22.6866 220.433 26.4484C220.592 29.9078 221.15 33.3372 222.097 36.6681C223.335 41.0839 224.883 45.4069 226.729 49.6049C228.101 52.89 229.98 55.94 232.296 58.6442C236.879 63.9614 240.963 69.6721 243.717 76.191C247.546 85.2781 249.141 94.6418 247.29 104.447C247.232 104.803 247.216 105.175 247.163 105.627ZM127.222 141.694C128.153 142.135 129.057 142.603 129.987 142.997C133.289 144.406 136.799 144.98 140.329 145.437C142.647 145.74 144.976 146.027 147.316 145.746C153.165 145.054 158.674 143.39 163.64 140.178C169.553 136.355 174.647 131.713 177.396 125.051C179.993 118.892 180.96 112.167 180.203 105.526C179.337 97.7816 176.99 90.2757 173.291 83.4171C169.26 75.973 163.81 69.7253 156.563 65.2428C150.049 61.1205 142.608 58.6914 134.916 58.1763C125.159 57.5435 115.918 59.16 107.171 63.4935C103.353 65.4183 100.078 68.0769 97.951 71.8575C96.8875 73.8195 96.2441 75.8294 97.2385 78.2115C98.5027 81.2413 99.3488 84.429 99.7535 87.6868C99.8758 88.6865 100.158 89.6702 100.36 90.6485C101.641 90.9463 102.726 91.2122 103.816 91.4461C111.329 93.0732 117.109 97.2525 121.4 103.537C122.373 104.905 123.222 106.357 123.936 107.876C126.824 114.497 128.475 121.59 128.807 128.805C129.121 132.731 128.67 136.68 127.477 140.434C127.376 140.779 127.339 141.157 127.222 141.694ZM189.338 121.35C190.401 121.605 191.263 121.882 192.172 122.025C194.384 122.408 196.601 122.763 198.824 123.089C199.839 123.238 200.866 123.323 201.892 123.376C207.783 123.695 213.414 122.424 218.96 120.579C222.243 119.468 225.359 117.915 228.223 115.964C232.913 112.811 236.199 108.647 237.262 102.958C237.448 101.948 237.661 100.932 237.794 99.9111C238.629 91.9353 236.874 84.3901 233.189 77.4033C228.887 69.1449 222.73 61.9959 215.201 56.5173C209.256 52.1997 202.62 49.9718 195.224 50.2908C186.214 50.6659 177.403 53.0533 169.436 57.2777C168.372 57.8094 167.373 58.5006 166.245 59.1546C166.899 60.3244 167.883 60.9093 168.707 61.6378C176.199 68.2094 181.978 76.5055 185.547 85.8098C187.148 90.0085 188.416 94.3271 189.338 98.7254C190.455 103.888 190.933 109.073 190.247 114.337C189.939 116.554 189.662 118.777 189.338 121.35Z" fill="#FBEA54"/>
<path d="M152.288 82.6299C151.177 87.5165 149.927 92.0095 149.098 96.577C150.321 97.8478 151.857 98.3849 153.149 99.2728C154.441 100.161 156.053 100.081 157.244 101.4C156.446 104.287 156.111 107.344 155 110.226C152.107 110.428 149.89 108.876 147.327 107.812C147.185 108.286 147.068 108.767 146.976 109.253C146.689 111.758 146.444 114.267 146.141 116.772C146.042 117.698 145.864 118.614 145.609 119.51C145.566 119.695 145.487 119.869 145.376 120.023C145.265 120.177 145.125 120.307 144.963 120.406C144.801 120.505 144.621 120.571 144.434 120.599C144.246 120.628 144.055 120.619 143.871 120.574C141.212 120.084 138.554 119.585 135.852 118.877C136.054 113.246 136.985 107.839 137.713 102.394C136.49 101.331 135.087 100.799 133.784 100.092C130.977 98.5976 128.148 97.1406 125.33 95.6678C124.913 95.4567 124.514 95.215 124.133 94.9446C123.844 94.7744 123.632 94.4987 123.542 94.1755C123.452 93.8522 123.49 93.5066 123.649 93.2112C124.867 91.2013 125.51 88.9574 126.382 86.8306C126.56 86.485 126.77 86.1573 127.01 85.8522C128.403 85.7777 129.541 86.4211 130.689 87.0379C132.667 88.1013 134.635 89.1648 136.623 90.2282C137.517 90.6962 138.463 91.0737 139.505 91.5469C141.276 87.8887 140.872 83.7306 142.754 80.1787C143.727 80.402 144.546 80.5562 145.349 80.7689C147.588 81.3219 149.821 81.9493 152.288 82.6299Z" fill="#FBEA54"/>
<path d="M189.232 69.2095C190.418 68.7628 191.359 68.3906 192.316 68.0609C193.087 67.7951 193.778 68.1407 194.443 68.4385C196.931 69.5019 199.42 70.5654 201.887 71.6288C202.387 71.8415 202.95 71.9797 203.599 72.2084C204.822 69.0978 205.497 65.9181 206.603 62.882C208.046 63.0033 209.495 63.0371 210.942 62.983C212.208 62.866 213.346 61.9781 214.664 62.1429C216.313 64.0199 216.259 66.0617 215.542 68.2151C215.01 69.9007 214.478 71.5969 213.946 73.2984C213.707 74.096 213.532 74.8936 213.292 75.856C213.822 76.134 214.369 76.3773 214.93 76.5844C218.456 77.8341 222.069 78.824 225.74 79.5461C226.367 79.6578 226.979 79.8864 227.729 80.0779C227.769 83.1909 227.532 86.3013 227.021 89.3724C224.453 89.7127 223.342 89.5744 218.743 88.3089C216.137 87.5805 213.548 86.7829 210.767 85.9694C210.492 86.5392 210.247 87.1231 210.033 87.7187C209.14 90.6698 208.305 93.6368 207.374 96.5825C206.933 97.9916 206.577 99.4751 205.444 100.533C203.376 100.246 198.994 98.6243 196.66 97.2525C196.809 96.6038 196.931 95.8913 197.139 95.2C198.277 91.4461 199.446 87.6974 200.579 83.9382C200.712 83.3867 200.81 82.8272 200.871 82.2632C196.905 80.2746 192.619 79.1261 188.987 76.7599C189.429 75.3562 190.051 74.2183 190.051 73.0379C190.051 71.8574 189.588 70.7355 189.232 69.2095Z" fill="#FBEA54"/>
</svg>
