<svg width="111" height="164" viewBox="0 0 111 164" fill="none" xmlns="http://www.w3.org/2000/svg">
<path d="M16.1955 155.651C12.8257 156.456 9.54703 157.214 6.2764 157.981C4.83948 158.319 3.40255 158.665 1.96026 158.984C0.424142 159.321 -0.136175 158.75 0.0273557 157.107C0.0458729 156.682 0.174804 156.27 0.401403 155.91C0.628003 155.551 0.944459 155.256 1.31954 155.056C4.77514 153.118 8.22002 151.161 11.6783 149.228C14.2385 147.794 16.8175 146.397 19.375 144.958C22.2864 143.32 25.0047 141.325 28.4442 140.178C27.9402 140.025 27.6668 139.931 27.3907 139.859C25.5543 139.387 23.7045 138.96 21.8816 138.44C19.6441 137.782 17.5556 136.696 15.7317 135.242C12.3834 132.628 11.2252 129.165 11.8874 124.945C12.2825 122.24 13.7272 119.799 15.9087 118.152C19.4581 115.366 23.4686 113.627 27.7982 112.565C34.1806 111.018 40.7664 110.483 47.3147 110.981C52.4606 111.326 57.5565 112.205 62.5204 113.605C62.9145 113.718 63.3246 113.817 63.8232 113.951L61.7858 107.016C61.5178 106.986 61.1934 106.933 60.8637 106.919C56.0998 106.705 51.3333 106.506 46.5667 106.284C42.8136 106.11 39.0818 105.855 35.3367 105.729C30.2243 105.555 25.112 105.461 19.9996 105.356C17.6861 105.291 15.3748 105.546 13.1313 106.115C11.9919 106.415 11.8928 106.265 11.4853 105.171C11.0295 103.951 11.4343 102.863 11.9088 101.826C12.1045 101.397 12.6541 101.043 13.1179 100.855C15.7264 99.8095 18.3053 98.6326 20.9915 97.8579C26.1602 96.3754 31.4093 95.1234 36.6101 93.783C37.129 93.6746 37.6594 93.6305 38.1891 93.6517C44.9046 93.6517 51.5799 93.0109 58.2418 92.2228C59.1448 92.1207 60.0334 91.9165 60.8904 91.6142C60.0192 91.6142 59.1479 91.5901 58.2793 91.6142C52.8667 91.7885 47.4487 92.2094 42.0388 92.1048C32.5701 91.9252 23.2488 90.6116 14.3886 86.8933C13.3726 86.467 12.386 85.971 11.3887 85.5019C11.0767 85.3486 10.8019 85.1291 10.5833 84.8587C10.3648 84.5883 10.2078 84.2736 10.1234 83.9363C9.51753 81.9578 9.74808 80.0115 10.3915 78.0974C10.5232 77.7146 10.7313 77.3625 11.0032 77.0625C11.2751 76.7625 11.6051 76.5208 11.9732 76.3522C13.3463 75.6938 14.8338 75.307 16.3537 75.2128C19.0694 74.9796 21.7931 74.8 24.5168 74.7035C30.8758 74.481 37.2401 74.2853 43.6044 74.1673C46.2155 74.1137 48.832 74.2317 51.4432 74.3362C52.9042 74.3952 53.1455 74.6954 53.4323 76.186C53.7881 77.9387 53.5807 79.759 52.8399 81.3868C52.7404 81.6349 52.5692 81.8476 52.348 81.9976C52.1268 82.1475 51.8659 82.228 51.5987 82.2286C48.9634 82.5155 46.3362 82.9417 43.6929 83.065C39.7601 83.25 35.8112 83.2902 31.8972 82.6817C30.4388 82.4538 28.9938 82.1455 27.5381 81.8774C27.0778 81.7767 26.5996 81.7923 26.1468 81.923C26.6213 82.0865 27.0878 82.2635 27.5649 82.4082C30.9413 83.4345 34.4414 83.9973 37.9693 84.0811C44.3711 84.2339 50.7703 84.4135 57.1721 84.5797C57.77 84.5797 58.3704 84.5797 59.0916 84.5797C59.0916 84.0087 59.0916 83.5556 59.0916 83.1025C59.0273 80.6898 59.0299 78.277 59.6867 75.9206C59.8587 75.2882 60.1214 74.6841 60.4668 74.1271C60.9681 73.347 61.6384 73.414 61.995 74.2799C62.1924 74.7765 62.2837 75.3089 62.263 75.8428C62.1156 79.3467 62.0217 82.8452 62.4346 86.3383C62.4962 86.8557 62.5231 87.4107 62.9198 87.9468C63.4399 86.8021 63.1584 85.652 63.4078 84.4966C63.6866 84.4374 63.9685 84.3936 64.2522 84.3652C74.3262 83.9212 84.358 82.789 94.2776 80.9767C98.2184 80.2448 102.081 79.0786 105.982 78.1296C106.678 77.9533 107.387 77.8323 108.103 77.7677C109.084 77.6926 109.282 77.8293 109.596 78.8105C110.043 80.1436 110.135 81.5701 109.864 82.9498C109.673 83.8883 109.364 84.7989 108.944 85.6601C108.261 87.0407 106.936 87.6573 105.577 88.0112C102.61 88.7886 99.6044 89.424 96.6233 90.1558C88.9186 92.0324 81.0745 93.1557 73.3 94.5953C71.0642 95.0082 68.8302 95.429 66.5979 95.858C65.6168 96.0483 64.6409 96.2681 63.5632 96.496C63.6141 98.2466 63.9734 99.8578 64.2737 101.614C64.7509 101.614 65.1958 101.614 65.6382 101.614C69.8873 101.691 74.1231 101.901 78.2569 103.024C79.1753 103.264 80.072 103.581 80.9377 103.97C81.868 104.399 82.2084 105.311 81.9806 106.311C81.7661 107.257 81.2916 107.675 80.2756 107.651C78.6483 107.597 77.0237 107.469 75.3965 107.383C72.7156 107.251 70.0348 107.128 67.354 107.016C67.0564 107.016 66.7561 107.016 66.4505 107.016C65.7964 105.836 65.85 104.404 64.842 103.209C64.7836 103.514 64.7532 103.823 64.7509 104.134C64.9787 105.906 65.1074 107.702 65.5041 109.436C65.8634 111.005 65.7963 112.426 65.0243 113.817C64.967 113.973 64.9231 114.133 64.8929 114.297L68.2815 115.165C69.9463 115.592 71.5199 115.109 73.0641 114.576C74.4233 114.104 75.7449 113.503 77.0853 112.967C82.7687 110.6 88.4414 108.206 94.1382 105.868C97.2292 104.6 100.339 103.364 103.478 102.228C104.874 101.752 106.309 101.403 107.768 101.185C108.934 100.989 109.263 101.244 109.561 102.439C110.172 104.879 109.904 107.227 108.572 109.375C108.312 109.75 107.954 110.047 107.537 110.233C106.741 110.592 105.927 110.909 105.097 111.182C100 112.938 94.9067 114.688 89.8167 116.431C89.4912 116.536 89.1732 116.663 88.865 116.811C85.3987 118.583 81.7259 119.827 78.1416 121.288C76.1364 122.093 74.1874 123.066 72.2197 123.969C71.8972 124.132 71.5831 124.311 71.2787 124.505L71.3779 124.757C71.9704 124.572 72.5789 124.425 73.1553 124.194C76.517 122.854 79.9941 121.921 83.4845 121.018C84.9563 120.637 86.412 120.685 87.8811 120.822C90.7469 121.09 93.6154 121.358 96.4598 121.693C98.6044 121.945 98.9583 121.634 99.2773 124.68C99.4435 126.243 99.0092 127.666 98.3337 129.036C98.2383 129.287 98.0649 129.5 97.8391 129.645C97.6132 129.79 97.3468 129.858 97.0791 129.84C94.3526 129.784 91.6262 129.765 88.8998 129.72C87.2699 129.693 85.6399 129.666 84.0127 129.599C79.5491 129.417 75.0882 129.159 70.6219 129.033C67.7829 128.956 64.9412 129.033 62.1022 129.092C60.0594 129.141 58.0112 129.218 55.9764 129.414C52.2849 129.765 48.5961 130.151 44.9207 130.636C40.8994 131.173 36.905 131.8 32.9052 132.449C30.8892 132.778 28.8839 133.253 26.8867 133.636C26.3827 133.736 25.8144 133.988 25.4176 133.427C25.2335 133.149 25.1242 132.829 25.1003 132.496C25.0763 132.164 25.1385 131.831 25.2809 131.529C25.4835 131.165 25.7749 130.858 26.128 130.636C28.8584 128.685 31.8597 127.143 35.0364 126.06C39.7547 124.377 44.5942 123.055 49.513 122.106C50.8024 121.87 52.1348 121.886 53.4726 121.782C53.3546 121.321 52.982 121.262 52.6067 121.211C50.9982 120.996 49.3897 120.739 47.7812 120.578C43.5971 120.114 39.3791 120.039 35.1812 120.353C29.2083 120.862 23.2729 121.664 17.7557 124.307C16.5654 124.881 15.4663 125.647 14.343 126.371C13.8069 126.706 13.7452 127.176 13.9919 127.779C14.5524 129.14 15.414 130.356 16.5119 131.336C17.9197 132.691 19.5525 133.79 21.3374 134.585C26.6508 136.819 32.1304 138.207 37.929 137.802C40.2036 137.663 42.4441 137.181 44.5749 136.373C45.2344 136.119 45.8536 135.749 46.4917 135.433C46.7113 135.923 46.7417 136.477 46.5768 136.988C46.412 137.5 46.0636 137.932 45.5989 138.202C44.7078 138.783 43.7502 139.256 42.7465 139.609C40.5863 140.341 38.3251 140.732 36.0444 140.767C35.023 140.8 34.0016 140.719 32.9775 140.692C32.6853 140.692 32.3931 140.692 32.1036 140.692C32.2349 141.716 32.3717 142.665 32.4762 143.617C32.5191 144.041 32.4762 144.472 32.4762 144.901C32.4762 146.421 31.9025 147.41 30.5085 148.188C27.6862 149.765 24.6928 151.013 21.5867 151.909C21.2945 151.992 21.0049 152.086 20.7208 152.177C20.6645 152.198 20.635 152.295 20.4714 152.528C21.4365 152.528 22.222 152.19 23.0209 152.024C23.8734 151.85 24.7125 151.606 25.557 151.383C26.4015 151.161 27.1655 150.952 27.9698 150.724C28.774 150.496 29.6292 150.231 30.5139 150.065C30.1788 150.601 29.6185 150.85 29.0984 151.137C28.5054 151.441 27.9629 151.834 27.4899 152.303C28.9697 152.523 30.4388 152.82 31.9347 152.944C37.4063 153.399 42.8779 153.949 48.3602 154.172C54.1106 154.407 59.8744 154.44 65.6301 154.316C72.6727 154.161 79.7099 153.732 86.6908 152.708C89.8703 152.239 93.0256 151.563 96.1569 150.831C97.6045 150.491 98.7868 149.491 99.776 148.335C100.007 148.007 100.208 147.659 100.376 147.295L100.197 147.113C99.9495 147.229 99.7134 147.368 99.4918 147.528C98.2854 148.579 96.8646 149.223 95.4089 149.78C94.9853 149.93 94.5307 149.971 94.0873 149.898C86.6506 148.689 79.2086 147.486 71.7854 146.204C67.9089 145.529 64.0618 144.663 60.2014 143.877C59.8717 143.81 59.5553 143.687 59.1988 143.582C59.2497 142.328 59.9763 141.223 59.5634 139.907C59.3838 140.263 59.1854 140.612 59.0273 140.979C58.341 142.588 57.6868 144.196 56.9791 145.789C55.7378 148.512 53.5771 150.311 51.1161 151.786C50.8814 151.913 50.6344 152.016 50.3789 152.094C48.8562 152.63 47.6981 151.971 47.2584 150.373C47.0306 149.466 47.0565 148.515 47.3334 147.622C47.5103 146.984 47.958 146.598 48.4674 146.226C51.1657 144.239 53.5003 141.801 55.3679 139.019C55.9071 138.258 56.1726 137.337 56.1212 136.406C56.0542 134.776 55.9952 133.13 56.5099 131.548C56.6422 131.066 56.8426 130.606 57.1051 130.181C57.5823 129.497 58.2873 129.556 58.6037 130.344C58.9073 131.137 59.1258 131.961 59.2552 132.8C59.4187 133.754 59.4669 134.727 59.5715 135.749C59.6926 135.815 59.8226 135.864 59.9575 135.894C66.2682 136.392 72.5012 137.478 78.7529 138.454C82.6803 139.068 86.6238 139.596 90.5486 140.172C95.0845 140.832 99.6178 141.513 103.996 142.971C105.038 143.314 106.06 143.735 107.068 144.18C108.191 144.676 108.845 145.614 109.103 146.821C109.689 149.342 109.38 151.99 108.229 154.308C107.732 155.271 106.956 156.061 106.004 156.576C103.816 157.811 101.502 158.805 99.1004 159.541C94.2237 161.114 89.1895 162.148 84.0877 162.624C80.1683 162.986 76.2436 163.286 72.3189 163.568C66.5362 163.98 60.7363 164.097 54.9417 163.919C46.8053 163.675 38.6877 163.083 30.6533 161.656C26.9913 161.008 23.3909 160.094 19.9621 158.576C18.4796 157.906 17.1579 157.083 16.1955 155.651ZM38.3124 100.986L38.3392 101.083L60.6894 101.549C60.4695 99.9784 60.2685 98.5469 60.0567 97.0241L38.3124 100.986Z" fill="white"/>
<path d="M36.385 36.4401C36.83 37.1934 37.1731 37.8368 37.5699 38.44C38.9934 40.6114 39.4465 42.9062 38.484 45.4101C38.4696 45.5133 38.4696 45.618 38.484 45.7211C38.7661 45.7547 39.0498 45.7735 39.3339 45.7774C44.9368 45.6139 50.5478 45.5469 56.1454 45.2573C65.1173 44.8004 74.049 43.7481 82.8814 42.1073C85.4121 41.6355 87.9455 41.161 90.4709 40.6543C91.2483 40.4962 92.0043 40.2308 92.7683 40.0109C95.7172 39.1665 98.6661 38.2871 101.615 37.4936C103.583 36.9575 103.862 37.3596 103.963 39.196C104.073 41.1664 104.441 43.1234 104.693 45.0938C104.714 45.2439 104.717 45.3994 104.733 45.6594C104.079 45.8444 103.438 46.0482 102.784 46.1956C99.7191 46.9059 96.6944 47.7793 93.7227 48.8121C87.2145 51.1189 80.4716 52.7003 73.6164 53.5277C67.5577 54.2757 61.491 54.8092 55.3867 54.651C49.2549 54.5302 43.1494 53.8119 37.157 52.5063C36.0207 52.2093 34.9012 51.8514 33.8033 51.434C33.1304 51.2034 32.5942 50.8067 32.4119 50.0292C32.3494 49.814 32.2174 49.6255 32.0366 49.4931C31.1761 48.8711 31.1519 47.6165 31.5005 46.6165C31.6613 46.1554 32.0366 45.9999 32.4951 45.9892C33.3672 45.966 34.2385 45.9356 35.1089 45.898C35.4413 45.8846 35.7737 45.8417 36.2375 45.8015C35.9855 45.4691 35.8193 45.2278 35.6316 44.9973C31.8329 40.5659 29.3183 35.4213 27.6588 29.8077C27.0533 27.6605 27.0822 25.3841 27.7419 23.253C27.8559 22.8835 28.0172 22.5303 28.2218 22.2021C28.758 21.3255 29.3075 21.2906 29.8919 22.1056C30.0796 22.3974 30.2317 22.7106 30.345 23.0385C31.5326 26.1081 32.6961 29.1857 33.8998 32.2499C34.1919 32.9481 34.5711 33.6066 35.0284 34.2096C35.2134 33.1239 34.5754 32.2177 34.5432 31.0703C35.3046 30.9953 36.0767 30.8773 36.8514 30.8478C41.1676 30.6762 45.4837 30.5342 49.7999 30.3706C57.6735 30.0704 65.531 29.5664 73.3564 28.5369C79.777 27.6898 86.2003 26.8587 92.527 25.4245C94.6717 24.9366 96.7654 24.2556 98.8887 23.6873C99.5399 23.4949 100.208 23.3639 100.883 23.2959C102.331 23.1967 103.079 23.7302 103.422 25.1591C103.744 26.4855 103.705 27.874 103.309 29.1803C102.722 31.1588 101.183 32.0435 99.5026 32.6869C95.8867 34.0672 92.1416 35.0821 88.3235 35.7162C83.1691 36.5848 77.9862 37.2291 72.7746 37.6491C66.4273 38.123 60.0584 38.242 53.6978 38.0057C49.5049 37.8743 45.3202 37.4346 41.1354 37.0861C39.854 36.9789 38.5886 36.7108 37.3152 36.5232C37.0632 36.4883 36.8112 36.4776 36.385 36.4401Z" fill="white"/>
<path d="M27.3345 63.5571C28.7928 63.7689 30.2432 64.0933 31.7096 64.171C38.2919 64.5776 44.8922 64.6089 51.4781 64.2649C56.124 64.0236 60.7565 63.4472 65.3943 63.0183C65.5739 63.0022 65.7535 62.9539 65.9921 62.9084C65.9921 62.5196 66.0163 62.1765 65.9921 61.836C65.9 60.3581 66.0724 58.8755 66.5015 57.4582C66.6276 57.0122 66.8298 56.5914 67.0993 56.2143C67.5845 55.5414 68.2521 55.6084 68.5979 56.3698C68.7952 56.8301 68.9278 57.3154 68.992 57.8121C69.1796 59.1177 69.3137 60.4313 69.4933 61.7395C69.564 61.9882 69.6619 62.2282 69.7855 62.4553C71.4235 62.2328 73.032 62.021 74.6351 61.7958C80.0361 61.038 85.4362 60.2776 90.8354 59.5144C93.0498 59.2034 95.2615 58.8952 97.4785 58.6083C98.7198 58.4475 99.02 58.686 99.2184 59.9487C99.5137 61.5636 99.3272 63.2297 98.6822 64.7394C98.2989 65.6133 97.752 66.2567 96.8432 66.498C94.9666 66.9886 93.1115 67.506 91.2135 67.9108C84.9135 69.2673 78.5519 70.2271 72.1634 71.034C71.7908 71.0822 71.4208 71.1734 70.9409 71.2672C70.9785 72.0715 71.0241 72.8757 71.0509 73.68C71.0938 74.8461 71.1715 76.015 71.1447 77.1651C71.1179 78.3151 70.8766 79.4652 70.0295 80.3526C69.3673 80.1059 69.3217 79.5135 69.2091 79.0122C68.74 76.8889 68.311 74.755 67.8499 72.6291C67.48 70.9214 67.0886 69.2191 66.6945 67.5167C66.6355 67.2463 66.4873 67.0037 66.2736 66.8278V71.7256C64.2657 71.8838 62.314 72.0581 60.3597 72.1841C58.3196 72.3154 56.2741 72.4816 54.2339 72.4816C51.4727 72.4816 48.7088 72.3798 45.9502 72.2377C43.8725 72.1278 41.7976 71.924 39.7306 71.7015C36.1919 71.3155 32.6452 70.9696 29.2378 69.8249C28.3406 69.5167 27.4707 69.1337 26.6374 68.6802C24.533 67.5543 23.9754 65.5758 24.2408 63.3507C24.4525 61.5411 25.4391 60.3187 27.0664 59.7396C28.4846 59.2088 29.9481 58.8077 31.4388 58.5413C36.7522 57.6834 42.0871 56.9328 47.4782 56.9864C49.6229 57.0052 51.781 57.2893 53.931 57.4609C54.1558 57.4946 54.3786 57.5402 54.5986 57.5976C55.1347 57.7022 55.5529 57.9247 55.5395 58.5627C55.5531 58.835 55.4781 59.1043 55.3259 59.3305C55.1737 59.5566 54.9524 59.7274 54.6951 59.8174C54.336 59.9356 53.9606 59.9971 53.5825 59.9997C52.5584 60.0184 51.5344 60.0345 50.513 59.9997C46.2236 59.8147 41.9584 60.2677 37.7147 60.8441C35.1652 61.1953 32.6211 61.6618 30.1011 62.1443C29.1038 62.3233 28.1506 62.6939 27.2942 63.2354L27.3345 63.5571Z" fill="white"/>
<path d="M106.945 16.2159C103.339 17.0496 99.8591 17.7895 96.4116 18.6662C90.3906 20.1955 84.2942 21.4106 78.147 22.3068C74.5136 22.8429 70.8677 23.2665 67.2092 23.5775C63.893 23.8724 60.5607 24.0922 57.2338 24.1324C51.4379 24.1968 45.6553 23.9045 39.9183 22.9528C36.5565 22.3952 33.1787 21.8805 29.9456 20.7492C28.6354 20.2433 27.3546 19.6642 26.1093 19.0147C25.8119 18.8704 25.552 18.6593 25.3497 18.398C25.1474 18.1366 25.0083 17.8321 24.9431 17.5081C24.7662 16.7038 24.9887 16.2776 25.7474 15.8996C25.883 15.8464 25.9991 15.7528 26.0798 15.6315C26.4739 14.7388 27.2647 14.7307 28.0207 14.7495C30.4067 14.8111 32.7899 14.9988 35.1732 14.9908C41.0094 14.9693 46.8429 14.8916 52.6764 14.7897C55.2125 14.7441 57.7539 14.6664 60.2819 14.4573C64.3943 14.1168 68.5067 13.7388 72.6003 13.2241C77.1578 12.6504 81.6723 11.9239 86.2002 11.2349C90.546 10.5593 94.8395 9.58197 99.0495 8.31011C100.535 7.86509 102.06 7.53803 103.583 7.23777C104.797 7.00186 104.98 7.22437 105.39 8.40394C106.256 10.9078 106.36 13.5646 106.945 16.2159Z" fill="white"/>
<path d="M13.8634 52.3057C13.2425 52.1447 12.6334 51.9413 12.0404 51.6972C10.3675 50.8742 9.89571 49.2683 9.67052 47.5687C9.44533 45.869 9.72682 44.1667 10.2067 42.5099C11.2415 38.998 15.8365 35.832 20.0293 36.7059C22.1498 37.151 23.7235 38.4431 24.8306 40.3304C25.7167 41.8876 26.2562 43.6177 26.4123 45.4026C26.7768 48.5052 26.3925 51.6501 25.2918 54.5737C24.643 56.2626 23.7476 57.7746 22.2517 58.8416C21.7074 59.2598 21.0627 59.5274 20.3823 59.6178C19.7019 59.7081 19.0097 59.618 18.3752 59.3563C16.0643 58.4931 14.7882 56.7238 14.2092 54.3512C14.0537 53.6783 13.984 52.9813 13.8634 52.3057ZM18.2733 50.6972C20.3885 51.2522 21.8388 50.5793 23.0264 49.1209C23.2326 48.89 23.3727 48.6078 23.4322 48.304C23.4916 48.0002 23.4681 47.686 23.3642 47.3944C22.509 44.6144 20.7638 42.6735 18.1071 41.703C16.9131 41.2958 15.6206 41.2784 14.416 41.6533C13.2115 42.0281 12.1571 42.7759 11.405 43.7887C10.9908 44.352 10.8031 45.0502 10.8791 45.7452C10.955 46.4402 11.2891 47.0814 11.8152 47.5419C12.6945 48.3461 13.7105 48.456 14.7936 48.2496C16.521 47.9518 18.1657 47.2912 19.6191 46.3114C19.8938 46.1448 20.1775 45.9935 20.4689 45.8583C21.3187 48.2228 19.8818 49.4131 18.2733 50.6865V50.6972Z" fill="white"/>
<path d="M17.5304 10.2755C17.5514 13.3408 16.9542 16.3788 15.7745 19.208C15.1553 20.7555 14.1907 22.1411 12.9543 23.2588C10.5174 25.4195 7.50143 25.197 5.41842 22.6878C4.10481 21.1034 3.41582 19.2161 3.09412 17.1894C2.99225 16.5567 2.90111 15.9964 2.39443 15.5407C2.15453 15.2883 1.9982 14.9682 1.94672 14.6238C1.35693 11.1066 1.74029 7.7287 3.45066 4.57603C4.97606 1.7692 7.37275 0.286694 10.4396 0.01861C12.3162 -0.14224 13.8255 0.753159 15.0158 2.17936C16.3498 3.81079 17.1682 5.80225 17.3669 7.90027C17.4688 8.83856 17.4983 9.7715 17.5304 10.2755ZM5.33798 16.0607C7.17167 18.007 10.1099 18.2966 12.0401 16.7175C14.4528 14.7445 16.1552 11.2754 13.4958 7.58661C11.9677 5.46607 10.0509 4.46344 7.5014 5.13901C4.4104 5.96202 2.34615 8.51418 2.64373 12.1628C2.70345 12.4098 2.79349 12.6484 2.91181 12.8732C3.67853 12.8732 4.44795 12.9778 5.17714 12.8437C5.95674 12.7237 6.7048 12.4504 7.3781 12.0395C7.96788 11.6427 8.36999 10.9484 8.87399 10.3586C9.36727 10.9162 9.26271 11.5301 9.14207 12.0663C8.62199 14.085 7.29499 15.3878 5.33798 16.0607Z" fill="white"/>
</svg>
