<svg width="170" height="252" viewBox="0 0 170 252" fill="none" xmlns="http://www.w3.org/2000/svg">
<path d="M24.8858 239.172C19.7078 240.408 14.6698 241.574 9.64423 242.752C7.43626 243.271 5.22831 243.802 3.01211 244.292C0.65173 244.812 -0.209245 243.934 0.0420344 241.409C0.0704876 240.756 0.268601 240.123 0.61679 239.57C0.964979 239.017 1.45124 238.565 2.02758 238.258C7.3374 235.279 12.6308 232.272 17.9447 229.302C21.8787 227.098 25.8414 224.952 29.7713 222.74C34.2449 220.223 38.4219 217.158 43.707 215.395C42.9325 215.161 42.5124 215.016 42.0881 214.905C39.2664 214.18 36.424 213.525 33.6229 212.726C30.1848 211.714 26.9756 210.045 24.1731 207.812C19.0281 203.795 17.2485 198.473 18.266 191.989C18.8732 187.833 21.093 184.083 24.445 181.551C29.899 177.271 36.0615 174.597 42.7143 172.966C52.5213 170.589 62.641 169.768 72.703 170.532C80.6101 171.062 88.4405 172.414 96.0679 174.564C96.6734 174.737 97.3036 174.89 98.0698 175.096L94.9392 164.439C94.5273 164.394 94.0288 164.311 93.5222 164.291C86.2021 163.961 78.8779 163.656 71.5537 163.315C65.7866 163.047 60.0525 162.655 54.2978 162.462C46.4422 162.194 38.5866 162.05 30.7311 161.889C27.1762 161.789 23.6246 162.181 20.1773 163.055C18.4266 163.516 18.2743 163.286 17.6481 161.605C16.9478 159.731 17.5698 158.058 18.299 156.464C18.5997 155.805 19.4441 155.261 20.1568 154.973C24.1649 153.366 28.1277 151.558 32.2553 150.368C40.1973 148.09 48.263 146.166 56.2545 144.106C57.0519 143.94 57.8668 143.872 58.6808 143.904C68.9997 143.904 79.2569 142.92 89.4934 141.709C90.8811 141.552 92.2464 141.238 93.5633 140.774C92.2245 140.774 90.8857 140.737 89.5511 140.774C81.2341 141.041 72.909 141.688 64.5962 141.527C50.0467 141.251 35.7237 139.233 22.1093 133.519C20.5481 132.864 19.0322 132.102 17.4998 131.382C17.0203 131.146 16.598 130.809 16.2622 130.393C15.9264 129.978 15.6852 129.494 15.5555 128.976C14.6245 125.936 14.9788 122.945 15.9674 120.004C16.1698 119.416 16.4895 118.875 16.9073 118.414C17.3251 117.953 17.8322 117.581 18.3978 117.322C20.5078 116.311 22.7933 115.716 25.1288 115.572C29.3017 115.213 33.4869 114.937 37.6722 114.789C47.4433 114.447 57.2225 114.146 67.0018 113.965C71.0141 113.883 75.0345 114.064 79.0468 114.224C81.2918 114.315 81.6625 114.776 82.1033 117.067C82.6499 119.76 82.3313 122.557 81.1929 125.058C81.0402 125.439 80.777 125.766 80.4371 125.997C80.0973 126.227 79.6963 126.351 79.2857 126.352C75.2364 126.793 71.1995 127.448 67.1378 127.637C61.0947 127.921 55.0269 127.983 49.0127 127.048C46.7718 126.698 44.5515 126.224 42.3147 125.812C41.6073 125.657 40.8725 125.681 40.1767 125.882C40.9059 126.133 41.6226 126.405 42.3559 126.628C47.5439 128.205 52.9221 129.07 58.343 129.198C68.18 129.433 78.0129 129.709 87.8498 129.964C88.7684 129.964 89.6911 129.964 90.7992 129.964C90.7992 129.087 90.7992 128.391 90.7992 127.695C90.7004 123.987 90.7045 120.28 91.7137 116.659C91.9779 115.687 92.3817 114.759 92.9124 113.903C93.6827 112.704 94.7126 112.807 95.2605 114.138C95.5639 114.901 95.7042 115.719 95.6724 116.54C95.4459 121.924 95.3017 127.299 95.936 132.667C96.0308 133.462 96.072 134.314 96.6817 135.138C97.4808 133.379 97.0483 131.612 97.4314 129.837C97.8599 129.746 98.2931 129.678 98.729 129.635C114.208 128.953 129.623 127.213 144.865 124.428C150.921 123.304 156.857 121.512 162.85 120.053C163.92 119.782 165.01 119.597 166.109 119.497C167.617 119.382 167.921 119.592 168.403 121.1C169.09 123.148 169.232 125.34 168.815 127.46C168.521 128.902 168.047 130.301 167.402 131.625C166.352 133.746 164.317 134.693 162.228 135.237C157.668 136.432 153.051 137.408 148.47 138.533C136.631 141.416 124.578 143.142 112.632 145.354C109.196 145.989 105.763 146.635 102.333 147.294C100.826 147.587 99.3262 147.925 97.6702 148.275C97.7485 150.965 98.3006 153.441 98.7619 156.139C99.4952 156.139 100.179 156.139 100.859 156.139C107.388 156.258 113.896 156.579 120.248 158.305C121.66 158.675 123.037 159.161 124.368 159.76C125.797 160.419 126.32 161.819 125.97 163.356C125.641 164.81 124.911 165.453 123.35 165.415C120.85 165.333 118.353 165.135 115.853 165.004C111.734 164.8 107.614 164.612 103.495 164.439C103.038 164.439 102.576 164.439 102.107 164.439C101.102 162.627 101.184 160.427 99.6352 158.59C99.5455 159.058 99.4987 159.534 99.4952 160.011C99.8453 162.734 100.043 165.494 100.653 168.159C101.205 170.569 101.102 172.752 99.9153 174.89C99.8273 175.13 99.7598 175.376 99.7134 175.627L104.92 176.962C107.478 177.617 109.896 176.875 112.269 176.056C114.358 175.331 116.388 174.408 118.448 173.584C127.181 169.947 135.898 166.268 144.651 162.676C149.401 160.728 154.179 158.829 159.003 157.082C161.147 156.351 163.353 155.814 165.594 155.48C167.386 155.179 167.893 155.57 168.35 157.407C169.289 161.156 168.877 164.765 166.83 168.064C166.431 168.641 165.881 169.097 165.24 169.382C164.017 169.934 162.766 170.421 161.491 170.841C153.659 173.54 145.832 176.229 138.011 178.906C137.511 179.068 137.022 179.263 136.549 179.491C131.222 182.214 125.579 184.125 120.071 186.37C116.99 187.606 113.995 189.102 110.972 190.49C110.476 190.74 109.994 191.015 109.526 191.314L109.678 191.701C110.589 191.417 111.524 191.19 112.409 190.836C117.575 188.776 122.918 187.343 128.281 185.954C130.543 185.37 132.779 185.444 135.037 185.654C139.44 186.066 143.848 186.478 148.219 186.993C151.514 187.38 152.058 186.902 152.548 191.581C152.803 193.983 152.136 196.17 151.098 198.275C150.952 198.661 150.685 198.989 150.338 199.211C149.991 199.434 149.582 199.539 149.17 199.511C144.981 199.425 140.791 199.396 136.602 199.326C134.098 199.285 131.593 199.243 129.093 199.14C122.234 198.86 115.379 198.465 108.516 198.271C104.154 198.152 99.7876 198.271 95.4252 198.362C92.2863 198.436 89.1391 198.555 86.0125 198.856C80.3402 199.396 74.672 199.989 69.0244 200.735C62.8454 201.558 56.7076 202.522 50.5616 203.519C47.4638 204.026 44.3826 204.755 41.3137 205.344C40.5392 205.497 39.6659 205.884 39.0563 205.023C38.7734 204.596 38.6055 204.103 38.5687 203.592C38.5319 203.081 38.6275 202.57 38.8462 202.106C39.1575 201.547 39.6053 201.075 40.1479 200.735C44.3434 197.736 48.9551 195.367 53.8365 193.703C61.0865 191.117 68.5227 189.085 76.0809 187.627C78.0623 187.264 80.1096 187.289 82.1651 187.128C81.9839 186.42 81.4113 186.329 80.8346 186.251C78.363 185.921 75.8914 185.526 73.4198 185.279C66.9907 184.566 60.5093 184.45 54.0589 184.933C44.881 185.716 35.7608 186.947 27.2832 191.009C25.4542 191.89 23.7653 193.069 22.0393 194.181C21.2154 194.696 21.1207 195.417 21.4997 196.343C22.361 198.435 23.6849 200.303 25.3719 201.81C27.5351 203.892 30.0441 205.581 32.7867 206.802C40.9512 210.234 49.3711 212.368 58.2812 211.746C61.7762 211.532 65.219 210.791 68.4931 209.55C69.5064 209.159 70.458 208.59 71.4384 208.104C71.7759 208.858 71.8225 209.709 71.5692 210.495C71.3159 211.281 70.7806 211.945 70.0666 212.359C68.6973 213.253 67.2258 213.979 65.6837 214.522C62.3643 215.647 58.8898 216.248 55.3853 216.302C53.8159 216.351 52.2464 216.227 50.6728 216.186C50.2238 216.186 49.7748 216.186 49.3299 216.186C49.5317 217.76 49.7418 219.218 49.9025 220.68C49.9684 221.331 49.9025 221.994 49.9025 222.654C49.9025 224.989 49.021 226.509 46.8789 227.704C42.5422 230.126 37.9426 232.045 33.1697 233.422C32.7207 233.549 32.2759 233.693 31.8392 233.833C31.7527 233.866 31.7074 234.015 31.4561 234.373C32.939 234.373 34.146 233.854 35.3736 233.599C36.6835 233.331 37.9729 232.956 39.2705 232.614C40.5681 232.272 41.7421 231.951 42.9779 231.601C44.2137 231.251 45.5278 230.843 46.8871 230.587C46.3722 231.411 45.5113 231.794 44.7121 232.235C43.801 232.702 42.9673 233.306 42.2405 234.027C44.5144 234.365 46.7718 234.822 49.0704 235.012C57.4779 235.712 65.8855 236.556 74.3095 236.898C83.1455 237.261 92.002 237.31 100.846 237.121C111.668 236.882 122.481 236.223 133.208 234.649C138.093 233.928 142.942 232.89 147.753 231.766C149.978 231.242 151.794 229.706 153.314 227.93C153.669 227.426 153.978 226.891 154.237 226.332L153.961 226.052C153.581 226.231 153.218 226.444 152.878 226.691C151.024 228.305 148.841 229.294 146.604 230.151C145.953 230.381 145.254 230.444 144.573 230.332C133.146 228.474 121.711 226.625 110.304 224.656C104.348 223.618 98.4364 222.287 92.5046 221.08C91.9979 220.977 91.5118 220.788 90.964 220.627C91.0422 218.699 92.1586 217.002 91.5242 214.979C91.2482 215.527 90.9434 216.063 90.7004 216.627C89.6458 219.099 88.6406 221.57 87.5531 224.017C85.6459 228.202 82.3258 230.966 78.5442 233.232C78.1835 233.428 77.804 233.586 77.4114 233.706C75.0716 234.53 73.2921 233.516 72.6165 231.061C72.2665 229.668 72.3063 228.206 72.7318 226.835C73.0037 225.854 73.6916 225.261 74.4743 224.689C78.6204 221.636 82.2078 217.89 85.0775 213.616C85.906 212.446 86.3139 211.031 86.235 209.599C86.132 207.095 86.0414 204.566 86.8323 202.135C87.0355 201.395 87.3435 200.688 87.7468 200.034C88.4801 198.984 89.5634 199.075 90.0495 200.286C90.5161 201.504 90.8517 202.769 91.0506 204.059C91.3018 205.525 91.376 207.021 91.5366 208.59C91.7228 208.692 91.9225 208.767 92.1298 208.813C101.827 209.579 111.404 211.247 121.01 212.747C127.045 213.69 133.105 214.501 139.136 215.387C146.105 216.4 153.071 217.447 159.798 219.688C161.401 220.215 162.97 220.862 164.519 221.545C166.245 222.308 167.25 223.749 167.645 225.603C168.547 229.478 168.072 233.545 166.303 237.108C165.539 238.587 164.348 239.802 162.883 240.593C159.523 242.49 155.966 244.018 152.276 245.149C144.783 247.565 137.047 249.154 129.208 249.887C123.185 250.443 117.155 250.904 111.124 251.337C102.238 251.969 93.3264 252.149 84.4225 251.876C71.9203 251.501 59.447 250.591 47.1014 248.399C41.4743 247.403 35.9421 245.998 30.6734 243.666C28.3955 242.636 26.3646 241.372 24.8858 239.172ZM58.8703 155.175L58.9114 155.323L93.2543 156.04C92.9165 153.626 92.6077 151.426 92.2822 149.086L58.8703 155.175Z" fill="white"/>
<path d="M55.9081 55.9941C56.5919 57.1516 57.1192 58.1402 57.7288 59.0671C59.9162 62.4037 60.6124 65.9299 59.1335 69.7773C59.1113 69.9359 59.1113 70.0967 59.1335 70.2552C59.567 70.3068 60.0029 70.3357 60.4394 70.3417C69.0488 70.0904 77.6705 69.9874 86.2717 69.5425C100.058 68.8405 113.782 67.2235 127.354 64.7023C131.242 63.9773 135.135 63.2482 139.016 62.4697C140.21 62.2266 141.372 61.8188 142.546 61.481C147.077 60.1834 151.608 58.8323 156.14 57.613C159.163 56.7891 159.592 57.407 159.748 60.2287C159.917 63.2564 160.482 66.2636 160.869 69.2913C160.902 69.522 160.906 69.7609 160.93 70.1604C159.925 70.4447 158.941 70.7577 157.936 70.9843C153.226 72.0756 148.579 73.4177 144.012 75.0048C134.012 78.5493 123.651 80.9793 113.117 82.2507C103.808 83.4 94.4856 84.2197 85.1059 83.9767C75.6838 83.7911 66.3023 82.6874 57.0944 80.6812C55.3483 80.2249 53.6281 79.6748 51.9412 79.0335C50.9072 78.6792 50.0833 78.0696 49.8032 76.875C49.7071 76.5443 49.5043 76.2546 49.2265 76.0511C47.9042 75.0954 47.8671 73.1676 48.4026 71.631C48.6498 70.9225 49.2265 70.6836 49.9309 70.6671C51.2711 70.6314 52.6099 70.5847 53.9473 70.5271C54.4581 70.5065 54.9689 70.4406 55.6815 70.3788C55.2943 69.868 55.0389 69.4972 54.7505 69.143C48.9135 62.3337 45.0495 54.4287 42.4997 45.8028C41.5693 42.5036 41.6136 39.0056 42.6273 35.7311C42.8025 35.1633 43.0503 34.6205 43.3647 34.1163C44.1886 32.7692 45.033 32.7157 45.931 33.968C46.2194 34.4164 46.4531 34.8976 46.6272 35.4015C48.4521 40.1181 50.2399 44.8471 52.0895 49.5555C52.5382 50.6284 53.1209 51.6402 53.8237 52.5668C54.1079 50.8984 53.1275 49.5061 53.0781 47.743C54.248 47.6277 55.4344 47.4464 56.6249 47.4011C63.257 47.1375 69.8891 46.9192 76.5213 46.6679C88.6198 46.2065 100.693 45.4321 112.718 43.8503C122.584 42.5485 132.454 41.2716 142.175 39.0677C145.471 38.318 148.688 37.2717 151.95 36.3984C152.951 36.1028 153.977 35.9014 155.015 35.797C157.24 35.6445 158.389 36.4643 158.916 38.6599C159.411 40.6981 159.351 42.8316 158.743 44.8389C157.841 47.879 155.476 49.2383 152.894 50.227C147.338 52.348 141.583 53.9074 135.716 54.8818C127.796 56.2165 119.832 57.2065 111.824 57.8519C102.071 58.58 92.2843 58.7629 82.5107 58.3997C76.0681 58.1979 69.6378 57.5223 63.2076 56.9868C61.2385 56.822 59.2942 56.4101 57.3375 56.1218C56.9503 56.0682 56.5631 56.0517 55.9081 55.9941Z" fill="white"/>
<path d="M42.0015 97.6608C44.2424 97.9863 46.4709 98.4847 48.7242 98.6042C58.8386 99.2289 68.9804 99.277 79.1002 98.7483C86.239 98.3776 93.3572 97.4919 100.484 96.8328C100.76 96.8081 101.036 96.734 101.402 96.6639C101.402 96.0666 101.439 95.5394 101.402 95.0162C101.261 92.7452 101.526 90.4672 102.185 88.2893C102.379 87.604 102.689 86.9574 103.103 86.378C103.849 85.344 104.875 85.447 105.406 86.6169C105.709 87.3241 105.913 88.07 106.012 88.8331C106.3 90.8392 106.506 92.8577 106.782 94.8679C106.891 95.25 107.041 95.6189 107.231 95.9678C109.748 95.6259 112.22 95.3004 114.683 94.9544C122.982 93.79 131.28 92.6215 139.576 91.4489C142.979 90.971 146.377 90.4973 149.784 90.0565C151.691 89.8094 152.152 90.176 152.457 92.1162C152.911 94.5976 152.624 97.1577 151.633 99.4775C151.044 100.82 150.204 101.809 148.808 102.18C145.924 102.934 143.073 103.729 140.157 104.351C130.477 106.435 120.701 107.91 110.885 109.15C110.312 109.224 109.744 109.364 109.007 109.508C109.064 110.744 109.134 111.98 109.175 113.215C109.241 115.007 109.361 116.803 109.32 118.571C109.278 120.338 108.908 122.105 107.606 123.468C106.589 123.089 106.518 122.179 106.345 121.409C105.625 118.146 104.965 114.867 104.257 111.601C103.688 108.977 103.087 106.361 102.482 103.745C102.391 103.33 102.163 102.957 101.835 102.686V110.212C98.7494 110.455 95.7505 110.723 92.7475 110.917C89.6127 111.119 86.4696 111.374 83.3348 111.374C79.0919 111.374 74.8449 111.218 70.6061 110.999C67.4136 110.83 64.2253 110.517 61.0492 110.175C55.6117 109.582 50.1618 109.051 44.9262 107.292C43.5475 106.818 42.2108 106.23 40.9304 105.533C37.6967 103.803 36.8399 100.763 37.2477 97.3436C37.5732 94.5631 39.0891 92.6847 41.5895 91.7949C43.7688 90.9793 46.0175 90.3629 48.3081 89.9536C56.4726 88.6354 64.6701 87.4819 72.9541 87.5643C76.2496 87.5932 79.5656 88.0298 82.8694 88.2935C83.2147 88.3452 83.5571 88.4154 83.8951 88.5035C84.7189 88.6642 85.3615 89.0061 85.341 89.9865C85.3617 90.4049 85.2466 90.8187 85.0127 91.1662C84.7788 91.5137 84.4388 91.7761 84.0434 91.9143C83.4916 92.0961 82.9148 92.1906 82.3338 92.1945C80.7602 92.2233 79.1867 92.248 77.6172 92.1945C71.0263 91.9102 64.4724 92.6064 57.9515 93.4921C54.034 94.0317 50.1248 94.7485 46.2526 95.4899C44.7201 95.765 43.2555 96.3343 41.9397 97.1665L42.0015 97.6608Z" fill="white"/>
<path d="M164.33 24.9173C158.789 26.1985 153.442 27.3354 148.145 28.6824C138.893 31.0323 129.525 32.8995 120.08 34.2765C114.497 35.1003 108.894 35.7512 103.273 36.229C98.1772 36.6822 93.0569 37.0199 87.9448 37.0817C79.0388 37.1806 70.1534 36.7316 61.338 35.2692C56.1724 34.4124 50.982 33.6215 46.0141 31.8831C44.0009 31.1057 42.0328 30.2159 40.1193 29.2179C39.6625 28.9962 39.263 28.6719 38.9522 28.2703C38.6414 27.8687 38.4275 27.4007 38.3274 26.9029C38.0555 25.6671 38.3974 25.0121 39.5632 24.4313C39.7717 24.3496 39.95 24.2058 40.074 24.0193C40.6796 22.6476 41.8948 22.6352 43.0564 22.6641C46.7226 22.7588 50.3847 23.0472 54.0468 23.0348C63.0146 23.0019 71.9783 22.8824 80.942 22.7259C84.8388 22.6558 88.7439 22.5364 92.6285 22.2151C98.9475 21.6919 105.267 21.1111 111.557 20.3202C118.56 19.4386 125.497 18.3223 132.454 17.2636C139.132 16.2254 145.729 14.7238 152.198 12.7694C154.48 12.0856 156.824 11.5831 159.164 11.1217C161.03 10.7592 161.31 11.1011 161.94 12.9136C163.271 16.7611 163.432 20.8433 164.33 24.9173Z" fill="white"/>
<path d="M21.3021 80.3718C20.3481 80.1244 19.4122 79.8119 18.5009 79.4368C15.9304 78.1721 15.2055 75.7046 14.8594 73.093C14.5134 70.4813 14.9459 67.8655 15.6833 65.3198C17.2734 59.9235 24.3339 55.0585 30.7765 56.4014C34.0349 57.0852 36.453 59.0708 38.1542 61.9708C39.5157 64.3636 40.3448 67.022 40.5847 69.7646C41.1446 74.5321 40.5542 79.3644 38.8628 83.8568C37.8659 86.452 36.49 88.7753 34.1914 90.4148C33.3551 91.0573 32.3645 91.4686 31.319 91.6074C30.2735 91.7463 29.2099 91.6077 28.2349 91.2057C24.684 89.8793 22.7232 87.1605 21.8334 83.5149C21.5945 82.4809 21.4874 81.4099 21.3021 80.3718ZM28.0784 77.9002C31.3285 78.7529 33.5571 77.719 35.3819 75.4781C35.6987 75.1232 35.914 74.6896 36.0054 74.2228C36.0967 73.756 36.0606 73.2733 35.901 72.8252C34.5869 68.5535 31.9052 65.5711 27.823 64.0799C25.9883 63.4542 24.0022 63.4274 22.1513 64.0034C20.3004 64.5794 18.6803 65.7284 17.5246 67.2847C16.8882 68.1502 16.5998 69.2231 16.7165 70.291C16.8332 71.3589 17.3465 72.3442 18.1549 73.0518C19.506 74.2876 21.0673 74.4565 22.7315 74.1393C25.3858 73.6817 27.9129 72.6666 30.1463 71.161C30.5684 70.905 31.0043 70.6726 31.4521 70.4648C32.7579 74.0981 30.55 75.9271 28.0784 77.8838V77.9002Z" fill="white"/>
<path d="M26.9374 15.7892C26.9696 20.4992 26.0519 25.1674 24.2392 29.5148C23.2878 31.8926 21.8056 34.0216 19.9057 35.7391C16.1612 39.0593 11.527 38.7174 8.32625 34.8617C6.30778 32.4271 5.24909 29.5271 4.75477 26.4129C4.59823 25.4408 4.45818 24.5798 3.67963 23.8795C3.31101 23.4918 3.07079 22.9999 2.99168 22.4707C2.08543 17.0662 2.67449 11.8758 5.30262 7.03146C7.64652 2.71852 11.3292 0.440529 16.0418 0.0285959C18.9253 -0.218564 21.2445 1.15729 23.0734 3.34878C25.1233 5.8556 26.3809 8.91565 26.6861 12.1394C26.8426 13.5812 26.8879 15.0147 26.9374 15.7892ZM8.20265 24.6787C11.0203 27.6693 15.5351 28.1142 18.501 25.6879C22.2084 22.6561 24.8242 17.3257 20.7378 11.6575C18.3898 8.39908 15.4444 6.85845 11.5269 7.89652C6.77734 9.16115 3.60545 13.0828 4.0627 18.6892C4.15446 19.0686 4.29283 19.4353 4.47463 19.7808C5.65276 19.7808 6.83504 19.9414 7.9555 19.7355C9.15342 19.5511 10.3029 19.1311 11.3375 18.4997C12.2437 17.89 12.8616 16.8231 13.636 15.9169C14.394 16.7737 14.2333 17.717 14.048 18.5409C13.2488 21.6427 11.2098 23.6447 8.20265 24.6787Z" fill="white"/>
</svg>
