<svg width="208" height="97" viewBox="0 0 208 97" fill="none" xmlns="http://www.w3.org/2000/svg">
<path d="M142.641 81.0065C139.195 81.8826 135.797 82.9398 132.462 84.1735C130.02 85.0572 127.6 86.0058 125.158 86.8931C124.267 87.2177 123.355 87.4522 122.272 87.7805C122.03 87.3792 121.731 87.0148 121.385 86.6984C121.086 86.4892 120.624 86.5144 120.26 86.4422C119.993 84.5017 120.364 83.7803 121.904 83.1707L123.708 82.4493C123.189 78.8892 122.676 75.3903 122.132 71.6643C121.853 71.8806 121.595 72.1221 121.36 72.3857C118.377 76.7693 114.249 80.2503 109.424 82.4493C106.64 83.7586 103.812 84.9742 100.746 85.5189C100.282 85.6198 99.8353 85.7901 99.4219 86.0239C98.4362 86.52 97.3204 86.6966 96.2297 86.5288C91.1799 85.8579 86.3248 84.4764 81.9026 81.8397C78.3281 79.708 75.41 76.8548 72.8021 73.6338C72.3729 73.1035 71.9472 72.5733 71.5144 72.0466C71.4747 71.9998 71.3954 71.9853 71.2259 71.906C70.6992 72.1945 70.104 72.5155 69.5161 72.8474C66.4365 74.63 63.1979 76.1225 59.8421 77.3057C58.7509 77.7087 57.6001 77.9269 56.4371 77.9513C54.3198 77.9513 52.1988 78.074 50.0815 78.0271C47.9641 77.9802 45.8973 77.3598 43.9207 76.5843C41.944 75.8088 40.3136 74.3948 38.9033 72.6959C38.319 72.6237 37.713 72.5264 37.0998 72.4759C33.9737 72.2186 30.8392 71.9709 27.6963 71.7328C27.3518 71.7335 27.0157 71.6268 26.7345 71.4277C26.4533 71.2287 26.2411 70.947 26.1273 70.6218C25.7366 69.7518 25.6379 68.7788 25.8459 67.8481C27.0038 63.2744 28.0534 58.6754 29.1752 53.9466C28.8614 53.9072 28.5439 53.9072 28.2301 53.9466C26.6322 54.3073 25.0415 54.7149 23.3462 55.1333C23.2617 55.5943 23.2111 56.0609 23.1948 56.5292C23.3066 59.2634 23.4653 61.9939 23.5735 64.728C23.6456 66.5748 23.6709 68.4252 23.6961 70.272C23.725 72.5228 22.9206 73.5183 20.6446 73.879C18.6896 74.1928 16.7129 74.4092 14.7471 74.6654C12.2222 74.99 9.72252 75.2822 7.21925 75.6537C6.3752 75.7763 5.57083 75.9134 4.81696 76.577C3.97652 77.2984 1.97825 76.5771 1.49491 75.4589C1.11925 74.6065 0.86548 73.7056 0.741051 72.7825C0.430847 70.4704 0.163926 68.1655 0.0629294 65.8389C-0.148266 61.3239 0.172569 56.7996 1.0188 52.3595C1.78582 48.0465 2.92507 43.808 4.4238 39.6917C6.86481 33.3583 10.199 27.4066 14.3251 22.0173C17.5341 17.8358 21.0991 13.9401 24.9802 10.3738C25.4465 9.97655 25.9602 9.63854 26.5096 9.36744C27.9776 8.55947 30.0805 9.90128 30.1166 11.5317C30.1377 12.2143 30.0711 12.8968 29.9182 13.5624C29.287 16.1523 28.5909 18.7277 27.9344 21.3103C26.8054 25.7505 25.8134 30.2196 25.3517 34.7897C25.1964 35.8402 25.1468 36.9035 25.2038 37.9639C26.8622 37.8599 28.5064 37.5941 30.113 37.1703C30.2248 36.788 30.3403 36.4706 30.4052 36.1424C31.3334 31.5133 32.2556 26.8855 33.1718 22.2589C33.702 19.5789 34.1998 16.8881 34.7336 14.2044C34.8945 13.2611 35.1272 12.3314 35.4297 11.4235C36.2485 9.17988 38.4055 8.53782 40.4074 9.87241C41.742 10.7597 42.7304 11.997 43.6538 13.2666C46.0796 16.6031 47.7757 20.413 48.6315 24.4484C48.9345 25.8443 49.1148 27.2619 49.3781 28.8273C49.8434 29.069 50.4602 29.3684 51.0409 29.6858C53.1927 30.7884 54.8893 32.6113 55.8347 34.8366C57.0998 37.6626 57.5315 40.7911 57.0791 43.8542C56.8807 45.2068 56.7472 46.5702 56.6246 47.9337C56.5809 48.4084 56.6138 48.887 56.722 49.3513C57.0394 50.6786 58.4209 51.0754 59.4273 50.134C59.7642 49.796 60.0553 49.4152 60.293 49.0014C61.7589 46.6463 62.2469 43.8117 61.6528 41.102C61.3778 39.6927 60.9708 38.3123 60.4372 36.9792C59.4793 34.5527 58.8721 32.0022 58.6337 29.4044C58.1973 24.9353 59.7158 21.0434 62.4391 17.6023C66.0858 13.0177 70.6703 9.6019 75.9366 7.10945C79.7644 5.2633 83.8532 4.01635 88.0598 3.41225C89.3488 3.25274 90.6458 3.16722 91.9446 3.15614C92.4626 3.10796 92.982 3.23211 93.4222 3.50929C93.8624 3.78648 94.1989 4.2012 94.3793 4.68913C94.8338 5.8037 94.6931 6.66579 93.8094 7.47376C93.2034 8.02563 92.5145 8.48371 91.8904 9.01755C88.2438 12.1232 85.7152 15.9394 84.6007 20.6358C84.4311 21.3572 84.2111 22.0786 84.5105 22.8866C86.4366 22.0497 88.2726 21.1299 90.1916 20.4554C92.0492 19.8062 93.9933 19.4094 95.9411 18.8864C96.3523 18.4571 96.1684 17.8944 96.154 17.3606C96.089 15.2397 95.9953 13.1187 95.97 10.9978C95.97 10.4748 95.97 9.76061 96.2946 9.46123C96.8573 8.93461 97.3407 8.22402 98.228 8.08335C100.594 7.72264 102.939 7.1888 105.312 6.92548C110.545 6.34115 115.785 5.82895 121.032 5.38889C124.44 5.10394 127.86 4.95246 131.276 4.819C135.719 4.64586 140.167 4.54125 144.622 4.42582C145.578 4.36544 146.538 4.39564 147.489 4.516C149.293 4.80817 150.393 5.59809 150.674 7.23207C150.746 7.7024 150.74 8.1813 150.656 8.64965C150.4 10.275 149.872 11.8457 149.094 13.2955C147.302 16.6217 145.707 20.0507 144.318 23.5647C144.116 23.989 143.866 24.3884 143.572 24.755C143.211 25.2455 142.85 25.7181 142.49 26.223C143.009 28.1167 143.525 29.9563 144.016 31.8067C145.458 37.2172 147.099 42.5953 149.365 47.7389C151.323 52.19 153.462 56.5509 156.373 60.4861C158.289 62.9882 160.496 65.2526 162.949 67.2313C163.439 67.6027 163.953 67.9401 164.489 68.2412C166.159 69.2692 167.735 69.0276 169.178 67.9022C169.312 67.3287 168.944 67.0726 168.698 66.766C168.273 66.2321 167.84 65.6839 167.396 65.1789C164.921 62.25 162.807 59.0334 161.102 55.5986C157.765 49.0411 155.172 42.2202 153.693 35.0025C152.458 29.2478 151.668 23.4063 151.331 17.5301C151.251 15.8962 151.331 14.2549 151.331 12.5524C152.21 12.0167 153.154 11.5949 154.14 11.2972C156.431 10.6119 158.642 9.67403 160.914 8.92738C169.09 6.24135 177.278 3.57335 185.478 0.923396C186.384 0.627621 187.282 0.306597 188.176 0C188.442 0.0728745 188.682 0.218553 188.869 0.420584C189.057 0.622616 189.184 0.872981 189.237 1.14344C189.475 2.14259 189.749 3.13451 189.958 4.13726C191.08 9.83996 192.18 15.5463 193.295 21.249C193.347 21.7254 193.475 22.1905 193.673 22.6269C194.481 24.0192 194.251 25.4872 194.236 27.0418C192.923 27.4025 191.819 28.0338 190.532 28.2935C189.064 28.5856 187.646 29.1267 186.203 29.5631C186 29.5969 185.807 29.6744 185.637 29.7904C184.346 31.0456 182.777 30.7751 181.211 30.7066L179.768 27.5144C180.179 26.0716 180.176 26.0715 179.693 24.5927C179.119 22.8433 178.549 21.0939 177.947 19.2435C177.533 19.2491 177.121 19.295 176.717 19.3805C173.22 20.5829 169.734 21.7912 166.256 23.0056C166.08 23.0852 165.911 23.1806 165.751 23.2905C165.654 24.8488 165.87 26.003 166.834 29.1808C168.684 29.1808 170.322 28.3512 171.956 27.7957C171.956 26.8543 171.956 26.0499 171.956 25.2455C171.956 25.1265 172.085 25.0147 172.215 24.7983C173.5 24.6226 174.797 24.5526 176.093 24.5891C176.609 26.6306 177.756 28.4161 178.022 30.5587C178.273 32.2494 178.652 33.9184 179.159 35.5508C179.491 36.7195 180.017 37.8304 180.482 39.0316C179.307 40.1353 177.745 40.2183 176.356 40.6872C174.967 41.1561 173.615 41.5168 172.049 41.9857C172.385 42.2959 172.565 42.5701 172.821 42.6891C174.521 43.5134 176.394 43.9187 178.283 43.871C180.172 43.8233 182.022 43.324 183.678 42.415C184.441 42.0178 185.117 41.473 185.668 40.8123C186.218 40.1516 186.632 39.3882 186.885 38.5663C187.246 37.5239 187.134 36.6942 186.095 36.1279C185.987 36.0702 185.929 35.9223 185.85 35.8177C185.738 34.9628 185.68 34.2018 186.845 33.9493C187.181 33.8735 187.394 33.2459 187.632 32.9141C188.494 32.676 189.175 32.979 189.846 33.3433C192.126 34.5805 194.449 35.7203 196.808 36.8096C199.737 38.1626 202.37 40.081 204.556 42.4546C206.103 44.1283 207.279 46.0292 207.752 48.3269C208.318 50.9601 207.909 53.7093 206.601 56.0639C205.502 58.0534 203.901 59.7209 201.959 60.9009C199.622 62.3274 197.141 63.5026 194.557 64.407C193.013 64.9733 191.462 65.4891 189.922 66.0698C189.615 66.1816 189.327 66.3512 188.916 66.5496C189.107 66.9932 189.276 67.3467 189.417 67.7074C190.095 69.3522 190.91 70.9537 191.412 72.649C192.454 76.1803 192.364 79.6863 190.492 82.9759C189.494 84.7867 188.145 86.3807 186.524 87.665C181.143 91.8337 174.751 94.4977 168.002 95.3841C163.457 95.9685 158.878 96.2373 154.296 96.1884C151.891 96.1884 149.495 96.1884 147.107 96.1884C146.631 96.1884 146.147 96.1884 145.664 96.1668C144.849 96.0983 144.492 95.8313 144.65 95.0197C144.827 94.0855 143.979 93.7104 143.828 92.8772C144.013 92.4919 144.306 92.1683 144.67 91.9456C145.035 91.7229 145.457 91.6105 145.884 91.622C146.966 91.5967 148.048 91.622 149.069 91.622C149.121 91.5144 149.162 91.402 149.192 91.2865C149.204 91.2229 149.195 91.157 149.166 91.0989C147.659 88.9058 146.115 86.7344 144.643 84.5161C143.929 83.4196 143.345 82.2545 142.641 81.0065ZM98.1017 44.5756C98.0639 44.7008 98.035 44.8286 98.0152 44.9579C98.0152 44.9796 98.1234 45.012 98.1811 45.0409L98.0729 44.608L97.099 44.37C96.8609 43.7387 96.2261 43.5584 95.75 43.2085C94.4262 42.2382 93.0736 41.3004 92.0275 40.0127C89.9246 37.4373 88.9651 34.5408 89.7623 31.2296C90.6244 27.6622 92.8536 25.3285 96.3848 24.3763C99.9161 23.424 102.852 24.434 105.294 27.0707C106.674 28.5999 107.664 30.44 108.18 32.4343C108.641 34.0755 109.027 35.742 109.486 37.3868C109.634 37.7349 109.822 38.0643 110.048 38.3679C110.532 37.7163 110.869 36.9671 111.035 36.1723C111.201 35.3775 111.191 34.5562 111.008 33.7653C109.807 27.72 105.637 23.2076 98.2388 23.5178C93.9933 23.6945 90.087 25.1121 86.4547 27.2979C84.3376 28.5741 82.544 30.322 81.2137 32.4055C80.6971 33.2094 80.2884 34.0777 79.9981 34.9881C79.3308 37.0802 79.843 38.4256 81.8016 39.4211C83.1441 40.0892 84.5461 40.6302 85.9894 41.0371C89.4593 42.0543 93.0447 42.6819 96.3343 44.2834C96.5931 44.3508 96.862 44.3703 97.1278 44.3411C97.3371 44.9074 97.7374 44.6802 98.1017 44.5611V44.5756ZM100.013 45.9859C99.9465 45.8882 99.8743 45.7943 99.7971 45.7046C99.7971 45.7046 99.696 45.7442 99.6419 45.7659L100.06 45.9354C100.306 46.2348 100.526 46.5594 100.782 46.8336C101.456 47.5081 102.225 48.1177 102.838 48.8318C105.478 51.8076 106.503 55.2127 105.262 59.083C103.999 63.011 101.546 65.6947 97.2541 66.3259C94.0017 66.819 90.6846 66.6769 87.4863 65.9075C82.2166 64.6865 77.1664 62.6608 72.5135 59.9018C71.8895 59.5411 71.2403 59.1804 70.3493 58.6898C70.4271 59.2372 70.5331 59.7802 70.6667 60.3166C71.7424 63.784 73.4214 67.0345 75.6264 69.9185C78.5806 73.76 82.0108 77.0279 86.4475 79.1488C90.8841 81.2698 95.3929 81.9804 100.197 80.974C102.697 80.4474 105.002 79.4302 107.314 78.4094C109.865 77.2354 112.207 75.6514 114.247 73.7203C117.225 71.0474 119.226 67.4579 119.935 63.5196C120.938 58.2029 118.431 53.4489 113.475 51.3568C111.967 50.7183 110.431 50.1484 108.901 49.5533C106.16 48.4964 103.364 47.5766 100.767 46.1735C100.525 46.0752 100.272 46.0074 100.013 45.9715V45.9859ZM43.9062 34.1621C44.321 34.5733 44.6782 34.9593 45.0713 35.3091C47.2356 37.2245 48.0255 39.6664 47.957 42.4799C47.9137 44.5179 47.2608 46.3647 46.4276 48.1826C45.1146 51.0393 43.7367 53.8745 42.5789 56.7925C41.1 60.533 41.0783 64.3853 42.0667 68.2809C42.6294 70.492 44.0361 71.823 46.0885 72.566C49.4575 73.7888 52.9418 73.8718 56.4118 73.2874C60.8015 72.53 64.6574 70.4487 68.4051 68.1583C68.5134 68.0933 68.5675 67.9455 68.6865 67.7976C68.5098 67.1952 68.3835 66.5279 67.6801 66.1131C67.2617 66.3439 66.8505 66.5784 66.4321 66.8056C62.7998 68.7643 59.0341 70.3441 54.8896 70.8924C52.5727 71.2064 50.214 70.9246 48.0363 70.0736C46.8628 69.6644 45.8329 68.924 45.0713 67.9419C44.4149 67.0581 43.9207 66.1095 44.3067 64.8542L45.6016 65.0093C45.8036 67.271 47.3438 68.2268 49.1689 68.8436C50.994 69.4568 52.9387 69.6274 54.8428 69.3414C58.9728 68.7462 62.7205 67.1339 66.2878 65.0418C66.6016 64.8197 66.8917 64.5659 67.1535 64.2843C66.8145 63.2744 66.4934 62.3762 66.2085 61.4636C65.4887 59.3203 65.1113 57.0768 65.0903 54.8159C65.125 54.2007 65.2465 53.5936 65.451 53.0124C65.472 52.8922 65.5194 52.7782 65.5899 52.6787C65.6603 52.5791 65.752 52.4965 65.8584 52.4367C65.9647 52.377 66.0831 52.3417 66.2047 52.3333C66.3264 52.3249 66.4484 52.3438 66.562 52.3884C66.85 52.4958 67.1632 52.5168 67.463 52.4489C67.7629 52.381 68.0364 52.2271 68.2501 52.006C68.4576 51.8826 68.6844 51.7949 68.921 51.7463C72.0194 54.4624 76.1819 57.0414 78.5156 57.6943C79.1794 56.4269 79.628 55.0581 79.843 53.6436C80.2434 51.2161 80.5644 48.7741 80.8385 46.3286C80.9179 45.6072 80.7015 44.8569 80.6221 44.1283C79.9007 43.6882 79.2154 43.3528 78.6202 42.9055C76.153 41.0623 74.7824 38.707 75.2152 35.5003C75.5901 32.9136 76.6724 30.4807 78.3425 28.4702C79.1379 27.5395 79.5595 26.3467 79.5256 25.1229C79.4842 21.7596 80.1722 18.4272 81.5419 15.3551C82.3007 13.5952 83.2697 11.9335 84.4275 10.4063C84.7666 9.97342 85.2824 9.555 85.2607 8.90574C85.0984 8.85524 85.0299 8.80835 84.9758 8.81917C77.466 10.7129 71.0491 14.4209 66.0786 20.4266C63.8098 23.1679 62.7277 26.3168 63.2976 29.9671C63.6149 31.9226 64.1112 33.8448 64.7801 35.7095C65.3138 37.1137 65.7513 38.5526 66.0894 40.0163C66.9082 44.0598 66.3564 47.9265 64.1705 51.4686C63.6289 52.3366 62.9657 53.1225 62.2011 53.8023C58.172 57.3877 52.693 54.163 52.2241 50.4947C52.082 49.4188 52.0325 48.3327 52.0762 47.2484C52.1329 45.9491 52.2752 44.655 52.5018 43.3744C52.7453 41.8127 52.6717 40.2179 52.2854 38.6853C51.6722 35.9656 50.2366 33.9601 47.3401 33.2531C46.0308 32.8852 44.9451 33.0872 43.9062 34.1477V34.1621ZM155.774 91.6075C156.229 91.6075 156.636 91.6075 157.044 91.6075C160.463 91.5307 163.875 91.273 167.266 90.8356C173.525 90.0096 179.17 87.7588 184.035 83.7334C186.813 81.4321 188.075 78.4419 187.202 74.7771C187.076 74.2469 186.925 73.7203 186.748 73.2045C185.522 69.684 183.613 66.5243 181.492 63.4944C180.187 61.5681 178.696 59.7741 177.041 58.138C176.818 57.9215 176.623 57.5681 176.143 57.7556C176.092 57.9289 176.057 58.1063 176.039 58.2859C176.017 59.5159 176.06 60.7494 175.981 61.9722C175.817 64.2275 175.276 66.4393 174.379 68.5154C172.76 72.3857 167.479 74.7555 163.327 72.8005C162.015 72.2141 160.79 71.4507 159.684 70.5317C156.402 67.7074 153.412 64.627 151.082 60.9442C148.083 56.121 145.566 51.014 143.568 45.6973C141.992 41.4674 140.636 37.1585 139.507 32.7878C139.352 32.2143 139.128 31.6588 138.785 30.6597C138.533 31.767 138.363 32.4127 138.244 33.0692C137.723 36.1746 137.482 39.3205 137.523 42.4691C137.457 46.507 137.698 50.5441 138.244 54.5454C138.8 58.2678 139.518 61.9578 140.769 65.5251C143.058 71.9759 146.042 78.1585 149.668 83.9642C151.073 86.2373 152.752 88.3294 154.667 90.1936C155.066 90.6354 155.436 91.1029 155.774 91.5931V91.6075ZM173.517 32.3658C170.686 33.1666 168.06 33.9096 165.438 34.6599C165.314 34.7165 165.193 34.7803 165.077 34.851C163.995 35.3019 163.634 35.154 163.212 34.1008C163.103 33.8497 163.014 33.5904 162.945 33.3253C162.126 29.5848 161.322 25.8443 160.503 22.1038C160.433 21.8015 160.448 21.4856 160.546 21.1913C160.645 20.897 160.824 20.636 161.062 20.4374C161.463 20.0732 161.926 19.7837 162.429 19.5825C165.315 18.5004 168.201 17.4183 171.086 16.3975C172.561 15.8817 174.019 15.2938 175.638 15.2685C176.205 15.2685 176.778 14.8501 177.323 14.5796C178.452 13.9621 179.686 13.5597 180.962 13.3929C181.324 13.7782 181.659 14.188 181.965 14.6193C182.127 14.8754 182.264 15.3407 182.138 15.5499C181.727 16.1883 182.001 16.7582 182.174 17.3245C182.85 19.5513 183.548 21.7684 184.27 23.9759C184.429 24.3449 184.624 24.6976 184.851 25.0291C185.549 24.8876 186.239 24.707 186.917 24.4881C187.599 24.2248 188.436 24.2969 189.017 23.525C188.782 22.396 188.519 21.2021 188.295 20.0045C187.466 15.7122 186.65 11.4126 185.81 7.12387C185.688 6.68322 185.528 6.25367 185.334 5.83977C184.612 6.03094 184.003 6.1572 183.422 6.34837C174.979 9.14261 166.55 11.9465 158.133 14.7599C157.372 15.016 156.64 15.3695 155.875 15.6833C155.875 16.3579 155.829 16.9061 155.875 17.4436C156.2 20.5709 156.546 23.6945 156.889 26.8218C157.001 27.839 157.358 28.8959 157.188 29.8625C156.929 31.3739 157.293 32.7121 157.747 34.0755C158.155 35.3055 158.739 36.4886 159.057 37.7403C160.608 43.8722 163.118 49.6434 166.069 55.2091C167.337 57.5605 168.851 59.7707 170.585 61.8027C170.621 61.872 170.672 61.9322 170.734 61.9786C170.797 62.025 170.869 62.0564 170.946 62.0703C171.023 62.0843 171.102 62.0804 171.177 62.059C171.252 62.0376 171.321 61.9993 171.378 61.947C171.418 61.2905 171.512 60.5547 171.501 59.8188C171.476 58.9982 171.407 58.1795 171.295 57.3661C171.184 56.4859 171.036 55.6059 170.873 54.733C170.774 54.058 170.818 53.3697 171.003 52.713C171.335 51.2486 173.218 50.1015 174.718 50.7652C175.48 51.0587 176.206 51.4375 176.883 51.8942C177.906 52.6959 178.887 53.5495 179.822 54.4516C180.544 55.1009 181.182 55.8006 181.828 56.5076C182.474 57.2146 183.163 58.0442 183.769 58.744C184.883 58.9099 185.788 58.5564 186.712 58.3327C189.57 57.606 192.273 56.3681 194.691 54.6788C197.125 53.034 197.789 50.6534 196.743 47.8868C196.655 47.567 196.597 47.2398 196.57 46.9093L197.627 46.5486C198.198 47.2491 198.59 48.0785 198.769 48.9647C198.947 49.851 198.907 50.7674 198.651 51.6345C198.188 53.5203 196.994 55.1448 195.333 56.1505C192.584 57.8386 189.738 59.3175 186.546 59.9992C186.084 60.0966 185.644 60.2877 185.045 60.4825L186.43 62.452C189.143 61.4637 191.78 60.5547 194.366 59.5339C195.827 58.9604 197.219 58.2209 198.633 57.532C199.728 56.9666 200.707 56.2007 201.519 55.274C203.596 53.0196 204.011 49.9428 202.428 47.3169C201.819 46.3264 201.073 45.4266 200.213 44.6441C198.541 43.1221 196.662 41.8434 194.633 40.8459C193.628 40.2869 192.569 39.8301 191.473 39.4825C191.343 39.771 191.249 39.9514 191.184 40.1389C189.9 43.746 187.386 46.0725 183.862 47.3999C181.216 48.389 178.362 48.6941 175.566 48.2872C171.512 47.7389 168.165 45.9823 165.903 42.4366C164.788 40.6872 165.308 39.0388 167.256 38.4003C168.096 38.1262 168.987 37.9964 169.838 37.7511C171.335 37.3219 172.893 37.0874 174.361 36.3876C174.365 34.9881 173.961 33.7725 173.517 32.3514V32.3658ZM30.7406 48.5361C30.9751 48.1285 31.2204 47.6415 31.5161 47.187C31.8119 46.7326 33.5505 46.1591 34.041 46.2925C34.4738 46.3978 34.8622 46.6374 35.1505 46.9769C35.4389 47.3164 35.6124 47.7385 35.6462 48.1826C35.636 48.6556 35.552 49.1242 35.3973 49.5713C35.1051 50.5524 34.7228 51.5082 34.4631 52.4966C33.3305 56.7913 32.2171 61.0933 31.123 65.4025C30.9751 65.976 30.9354 66.5748 30.8272 67.2962C32.9914 67.4152 34.9608 67.9815 37.1178 67.7074C37.0673 67.0906 37.0132 66.5567 36.9808 66.0229C36.9122 64.9408 36.786 63.8407 36.8076 62.7514C36.9034 59.3215 37.7168 55.9498 39.1955 52.8537C40.2776 50.4947 41.3597 48.1429 42.4418 45.7767C42.7512 45.1689 42.9931 44.529 43.1632 43.8686C43.6538 41.5637 43.2967 39.5077 41.2587 38.0072C40.7025 37.6102 40.1667 37.1852 39.6536 36.7339C38.1567 35.3777 37.915 33.5778 39.1234 31.9618C39.706 31.2065 40.4077 30.5511 41.201 30.0212C42.2073 29.3323 43.3291 28.8165 44.4004 28.2177C44.4581 25.9597 43.5744 22.6521 41.9549 19.4202C41.2659 18.0459 40.6166 16.6103 39.264 15.5246C39.1099 15.948 38.9774 16.379 38.8672 16.8159C38.1458 20.5059 37.4244 24.1959 36.703 27.8823C35.9383 31.6985 34.9645 35.4787 34.5677 39.3634C34.4491 40.0253 34.2778 40.6766 34.0555 41.3112C30.9354 41.8162 27.9235 42.2491 24.8973 42.8045C21.3443 43.4574 17.7049 43.7279 14.3215 45.1635C14.0053 45.3062 13.6572 45.364 13.3119 45.3311C12.9665 45.2982 12.6356 45.1758 12.352 44.9759C12.0164 44.7367 11.7476 44.4156 11.5713 44.043C11.395 43.6705 11.3171 43.259 11.3449 42.8477C11.3728 42.4365 11.5054 42.0393 11.7304 41.6939C11.9553 41.3485 12.2649 41.0665 12.6298 40.8748C13.1768 40.5939 13.7541 40.376 14.3503 40.2255C15.8725 39.8323 17.4091 39.5041 18.9348 39.1434C19.3821 39.0352 19.815 38.8729 20.2262 38.743C20.2803 38.3571 20.3236 38.0902 20.356 37.8196C20.6807 35.2406 20.8863 32.6399 21.3588 30.0898C22.0297 26.4828 22.9026 22.8757 23.6745 19.2687C23.7322 19.0018 24.0568 18.6772 23.5374 18.3778C23.2056 18.6988 22.816 18.9946 22.5311 19.3481C21.1171 21.0217 19.6851 22.681 18.3325 24.3979C15.0295 28.5113 12.2748 33.0363 10.1373 37.8593C6.00367 47.4143 3.98374 57.3877 4.72678 67.8409C4.76219 68.9937 4.96262 70.1355 5.32195 71.2315L17.6255 69.7454C17.8297 69.7316 18.0317 69.6953 18.2279 69.6371C18.4603 69.5456 18.6868 69.4396 18.906 69.3197C19.1873 66.4918 18.823 58.5636 18.3505 56.8899C18.2195 56.8644 18.0848 56.8644 17.9537 56.8899C17.7176 57.0289 17.4486 57.1021 17.1746 57.1021C16.9006 57.1021 16.6317 57.0289 16.3955 56.8899C15.8379 56.6195 15.4035 56.1478 15.18 55.5698C14.8193 54.4083 15.3603 52.9763 16.4713 52.5038C17.2256 52.1822 18.0019 51.9146 18.7942 51.703C22.6897 50.6426 26.5889 49.6218 30.7406 48.5216V48.5361ZM139.5 74.6797C138.908 74.7807 138.5 74.8168 138.111 74.9178C136.668 75.3002 135.225 75.7078 133.757 76.0973C132.765 76.3642 131.777 76.6456 130.778 76.8584C130.085 77.0063 129.717 76.7357 129.605 76.0721C129.443 75.127 129.306 74.182 129.165 73.2333C128.57 69.1754 127.961 65.114 127.394 61.0488C126.734 56.3092 126.114 51.5624 125.472 46.8155C124.83 42.0687 124.206 37.3255 123.513 32.5894C123.217 30.5623 122.756 28.5604 122.395 26.5405C122.24 25.6676 122.467 25.5016 123.683 25.5882C123.849 26.2122 124.069 26.8579 124.184 27.5216C124.765 30.9591 125.385 34.3929 125.872 37.8485C126.529 42.5376 127.048 47.2267 127.676 51.8906C128.433 57.5176 129.23 63.1409 130.031 68.7607C130.327 70.8527 130.68 72.934 131.037 75.192C132.332 74.9459 133.606 74.6048 134.85 74.1712C136.094 73.7023 137.537 73.7852 138.702 72.8762C138.378 72.0502 138.075 71.2928 137.772 70.5317C136.565 67.5541 135.6 64.4842 134.886 61.3518C133.773 56.3467 133.15 51.2452 133.025 46.1194C132.989 44.4854 133.003 42.837 132.303 41.2932C132.171 40.9043 132.078 40.5031 132.026 40.0957C130.965 35.4282 129.663 30.8292 128.17 26.2772C127.575 24.4736 127.167 22.5872 126.68 20.7368C126.503 20.0659 126.384 19.395 126.734 18.7241C127.2 18.468 127.773 18.2984 128.116 17.9197C128.754 17.1983 129.519 17.0973 130.348 17.173C132.596 17.3786 134.843 17.5914 137.083 17.8548C138.497 18.0243 139.9 18.2876 141.411 18.5257C142.854 15.5499 144.236 12.6679 145.606 9.77504C145.675 9.62354 145.567 9.38548 145.523 9.05363C144.899 9.05363 144.293 9.05363 143.691 9.05363C137.122 9.14742 130.565 9.43958 124.015 9.85438C117.94 10.2403 111.873 10.7598 105.835 11.5317C104.158 11.7481 102.445 11.8383 100.749 12.52C100.638 14.6853 100.694 16.8561 100.919 19.0126C104.024 19.2399 106.748 20.4554 109.233 22.0281C111 21.5772 112.764 21.8261 114.351 21.0975C114.571 19.4382 113.507 17.8295 114.373 16.1378C115.704 15.9863 117.031 15.7987 118.323 16.1162C118.402 16.2622 118.467 16.4157 118.518 16.5743C119.176 20.4218 119.83 24.262 120.48 28.0951C121.075 31.6733 121.684 35.2478 122.233 38.8296C123.008 43.9011 123.744 48.9761 124.476 54.0548C125.097 58.3833 125.698 62.7117 126.28 67.0401C126.853 71.2423 127.391 75.4481 127.961 79.6647C128.04 79.99 128.149 80.3075 128.285 80.6133C128.594 80.5808 128.9 80.529 129.201 80.4582C132.708 79.3112 136.212 78.1557 139.716 76.9919C139.976 76.8678 140.218 76.7101 140.437 76.5229L139.5 74.6797ZM82.8008 59.6349C86.0471 60.8613 89.1311 61.745 92.3522 61.9867C93.7857 62.0355 95.2206 61.9474 96.6373 61.7234C100.01 61.3302 102.849 56.4859 100.071 52.6841C99.0527 51.2141 97.6792 50.0255 96.0782 49.2286C94.9059 48.6695 93.7372 48.0924 92.5217 47.6343C90.3575 46.8155 88.0778 46.3394 85.773 45.7298C85.0696 50.4586 84.579 55.0756 82.8008 59.6349ZM118.896 48.8535C118.853 48.2006 118.846 47.793 118.792 47.4107C118.463 44.9146 118.168 42.415 117.771 39.9261C117.082 35.5977 116.328 31.3053 115.607 26.9986C115.518 26.6363 115.397 26.2826 115.246 25.9417C114.416 25.8768 113.756 25.9129 113.143 26.4142C113.269 26.6631 113.37 26.9084 113.504 27.1356C114.456 28.7231 115.115 30.4691 115.448 32.2901C116.068 35.1913 115.613 38.2191 114.167 40.8098C113.219 42.5412 111.852 43.2121 110.016 43.2338C109.259 43.2768 108.505 43.1087 107.838 42.7482C107.171 42.3877 106.618 41.849 106.239 41.1922C105.632 40.2001 105.189 39.1159 104.93 37.9819C104.569 36.4525 104.144 34.9412 103.714 33.4299C103.305 32.0459 102.541 30.7927 101.5 29.794C100.868 29.1605 100.043 28.7556 99.155 28.6432C98.2673 28.5309 97.3674 28.7175 96.5976 29.1736C96.0093 29.5222 95.4986 29.9876 95.0971 30.5412C94.6955 31.0947 94.4116 31.7247 94.2629 32.3922C94.1142 33.0597 94.1038 33.7505 94.2324 34.4222C94.361 35.0939 94.6258 35.7321 95.0105 36.2975C95.5146 37.0261 96.1222 37.6774 96.814 38.2308C99.9514 40.6599 103.44 42.5986 107.159 43.9804C109.644 44.9327 112.155 45.8272 114.622 46.8263C115.989 47.371 117.306 48.0924 118.896 48.8643V48.8535ZM131.723 21.8802C132.275 24.4736 133.14 26.6595 133.887 28.885C134.038 28.8273 134.147 28.8165 134.158 28.7768C134.708 26.8386 135.25 24.9017 135.784 22.9659C135.811 22.7262 135.811 22.4842 135.784 22.2445L131.723 21.8802Z" fill="#FAE35B"/>
<path d="M68.0906 37.7075C67.8749 37.3952 67.7071 37.0523 67.5929 36.6903C67.2718 34.389 66.9075 32.0913 66.7308 29.7792C66.3953 25.4003 67.9283 21.7284 71.2468 18.8392C72.5345 17.7174 73.8366 16.6064 75.2145 15.5928C75.9479 15.1001 76.7328 14.6888 77.5554 14.3664C77.6324 14.3261 77.7177 14.3042 77.8046 14.3024C77.8915 14.3005 77.9776 14.3189 78.0563 14.3559C78.1349 14.393 78.2039 14.4477 78.2578 14.5159C78.3117 14.584 78.3491 14.6637 78.367 14.7488C78.3985 14.905 78.3958 15.0661 78.359 15.2212C78.3223 15.3762 78.2524 15.5214 78.1542 15.6469C77.7394 15.9788 77.1731 16.1195 76.7114 16.4261C74.3121 17.9995 72.1583 19.9187 70.3198 22.1215C69.2138 23.526 68.5396 25.2214 68.3792 27.0018C68.1614 28.9067 68.2148 30.8327 68.5379 32.7226C68.7435 33.9345 68.8986 35.1537 69.1114 36.3657C69.2449 37.1412 68.9275 37.5416 68.0906 37.7075Z" fill="#FAE35B"/>
<path d="M56.8735 59.5989C55.4712 59.5873 54.0929 59.234 52.8578 58.5696C51.6228 57.9053 50.5683 56.9499 49.7857 55.7862C49.3995 55.2213 49.1328 54.5834 49.0019 53.9116C48.871 53.2399 48.8788 52.5485 49.0246 51.8799C49.0942 51.6172 49.217 51.3717 49.3853 51.1585C49.4462 51.1025 49.5191 51.0612 49.5984 51.0378C49.6777 51.0143 49.7613 51.0094 49.8428 51.0234C49.9243 51.0373 50.0015 51.0697 50.0685 51.1181C50.1355 51.1666 50.1906 51.2297 50.2294 51.3027C50.3206 51.5561 50.3669 51.8234 50.3664 52.0927C50.2329 53.1899 50.5289 54.2963 51.1925 55.1803C52.0608 56.329 53.2398 57.2052 54.5902 57.7052C56.3469 58.3184 58.0674 58.1597 59.7844 57.5465C60.2935 57.3667 60.8173 57.2316 61.3498 57.1425C61.4869 57.1208 61.7105 57.312 61.8079 57.4671C61.8426 57.5565 61.858 57.6522 61.8531 57.748C61.8481 57.8437 61.8229 57.9373 61.779 58.0226C61.661 58.263 61.4688 58.459 61.2308 58.5817C59.8276 59.1155 58.4209 59.6602 56.8735 59.5989Z" fill="#FAE35B"/>
<path d="M180.792 67.293C180.98 67.43 181.265 67.5382 181.391 67.7438C183.386 70.9902 184.157 74.4529 182.873 78.1104C181.986 80.6353 180.164 82.4966 177.881 83.8817C174.473 85.9629 170.851 87.5428 166.883 88.138C164.12 88.5528 161.329 88.7908 158.548 89.0794C158.075 89.1068 157.6 89.0618 157.141 88.9459C156.997 88.9171 156.827 88.6646 156.798 88.4914C156.769 88.3183 156.863 88.0189 156.989 87.9612C157.41 87.7511 157.86 87.6075 158.324 87.5356C160.088 87.3516 161.859 87.2326 163.623 87.0631C168.6 86.5869 173.243 85.1008 177.409 82.3054C178.369 81.6565 179.24 80.884 179.999 80.0077C182.008 77.6992 182.296 74.9579 181.571 72.1119C181.246 71.0016 180.822 69.9224 180.305 68.8873C179.995 68.2164 180.089 67.733 180.792 67.293Z" fill="#FAE35B"/>
<path d="M161.347 74.9901C161.048 75.156 160.737 75.4663 160.535 75.4085C159.951 75.2262 159.391 74.9718 158.869 74.6511C156.815 73.4137 154.949 71.8879 153.329 70.1206C148.669 65.0101 144.907 59.1492 142.201 52.7853C141.934 52.1585 141.704 51.5166 141.512 50.8628C141.357 50.3614 141.577 49.9538 141.97 49.8889C142.172 49.8452 142.383 49.8745 142.565 49.9716C142.747 50.0687 142.889 50.2272 142.966 50.4191C143.018 50.5454 143.064 50.6742 143.103 50.8051C145.694 57.4401 149.467 63.5505 154.238 68.8402C155.968 70.7916 158.017 72.4357 160.297 73.7024C160.547 73.807 160.778 73.9534 160.979 74.1353C161.14 74.4023 161.263 74.6899 161.347 74.9901Z" fill="#FAE35B"/>
<path d="M7.77897 66.9033C7.59316 62.8058 7.79122 58.7 8.37052 54.6394L9.73033 54.5601C9.73033 58.6793 8.79615 62.7155 9.4923 66.8239C11.7539 67.0223 13.8929 66.1494 16.1112 66.6075C16.1436 67.0187 16.1725 67.3289 16.205 67.7365C15.8626 67.8406 15.5146 67.9249 15.1625 67.989C12.9262 68.2271 10.6862 68.4254 8.45348 68.6815C7.73207 68.7609 7.24514 68.6202 6.97461 67.8699L7.77897 66.9033Z" fill="#FAE35B"/>
<path d="M140.693 11.9648C140.567 12.4987 140.567 12.863 140.394 13.101C140.297 13.1884 140.182 13.2547 140.058 13.2957C139.934 13.3367 139.803 13.3515 139.672 13.3391C135.514 13.1172 131.346 13.1786 127.196 13.523C126.79 13.5698 126.379 13.5491 125.98 13.4617C125.868 13.3978 125.774 13.3081 125.703 13.2003C125.633 13.0924 125.589 12.9694 125.576 12.8413C125.583 12.7192 125.619 12.6005 125.682 12.4956C125.745 12.3906 125.832 12.3025 125.937 12.2389C126.321 12.1019 126.726 12.0312 127.134 12.0297C129.724 11.9576 132.318 11.8927 134.908 11.8494C136.35 11.8277 137.772 11.8494 139.204 11.8674C139.611 11.871 140.015 11.9179 140.693 11.9648Z" fill="#FAE35B"/>
<path d="M78.3359 69.5722L79.2557 68.8724C79.4933 69.0178 79.7147 69.1883 79.9158 69.381C83.274 73.4389 87.7863 75.3723 92.7965 76.3786C96.2215 77.1228 99.7822 76.9511 103.12 75.8809C104.217 75.5037 105.264 74.9925 106.236 74.3587C110.428 71.7292 113.27 67.949 115.517 63.6422C115.676 63.3429 115.82 63.029 115.986 62.7333C116.077 62.6027 116.181 62.4819 116.296 62.3726L117.479 62.791C117.228 63.5313 116.928 64.2542 116.581 64.9552C114.835 67.9743 112.953 70.8815 110.309 73.2513C106.29 76.8584 101.652 78.6619 96.2628 78.3697C91.5974 78.162 87.0631 76.7611 83.0936 74.301C81.578 73.3639 80.2287 72.1815 79.1006 70.8022C78.8199 70.4088 78.5645 69.998 78.3359 69.5722Z" fill="#FAE35B"/>
</svg>
