<svg width="149" height="70" viewBox="0 0 149 70" fill="none" xmlns="http://www.w3.org/2000/svg">
<path d="M102.181 58.3148C99.7118 58.9424 97.2779 59.6997 94.8888 60.5835C93.1395 61.2165 91.4058 61.8961 89.6565 62.5317C89.0183 62.7642 88.3645 62.9322 87.5894 63.1673C87.4156 62.8799 87.2016 62.6189 86.9537 62.3922C86.7393 62.2423 86.4085 62.2604 86.1476 62.2087C85.9563 60.8186 86.2225 60.3018 87.3258 59.8651L88.6178 59.3484C88.2457 56.7981 87.8787 54.2917 87.4886 51.6226C87.2888 51.7776 87.1038 51.9505 86.9356 52.1393C84.7991 55.2795 81.8416 57.7731 78.3856 59.3484C76.3908 60.2863 74.3651 61.1571 72.1688 61.5472C71.8363 61.6196 71.5167 61.7415 71.2205 61.909C70.5144 62.2644 69.7151 62.3909 68.9338 62.2707C65.3164 61.7901 61.8385 60.8005 58.6706 58.9117C56.11 57.3846 54.0197 55.3408 52.1515 53.0334C51.844 52.6536 51.5391 52.2737 51.2291 51.8965C51.2006 51.8629 51.1438 51.8525 51.0224 51.7957C50.6451 52.0024 50.2188 52.2324 49.7976 52.4701C47.5915 53.7471 45.2716 54.8162 42.8676 55.6638C42.086 55.9525 41.2616 56.1088 40.4285 56.1263C38.9117 56.1263 37.3924 56.2141 35.8757 56.1805C34.3589 56.1469 32.8784 55.7025 31.4624 55.147C30.0464 54.5914 28.8785 53.5786 27.8682 52.3616C27.4496 52.3099 27.0156 52.2401 26.5763 52.2039C24.3369 52.0196 22.0916 51.8422 19.8401 51.6717C19.5934 51.6721 19.3526 51.5957 19.1512 51.4531C18.9497 51.3105 18.7977 51.1088 18.7162 50.8758C18.4363 50.2526 18.3656 49.5556 18.5146 48.8888C19.344 45.6125 20.0959 42.318 20.8995 38.9306C20.6747 38.9024 20.4473 38.9024 20.2226 38.9306C19.0779 39.189 17.9384 39.481 16.724 39.7807C16.6634 40.1109 16.6272 40.4451 16.6155 40.7806C16.6956 42.7392 16.8092 44.6952 16.8868 46.6538C16.9384 47.9767 16.9565 49.3023 16.9746 50.6252C16.9953 52.2375 16.4191 52.9507 14.7887 53.2091C13.3882 53.4339 11.9722 53.5889 10.564 53.7724C8.75531 54.0049 6.96469 54.2142 5.17148 54.4804C4.56685 54.5682 3.99064 54.6664 3.45061 55.1418C2.84857 55.6586 1.41711 55.1418 1.07087 54.3408C0.801769 53.7302 0.619983 53.0848 0.530849 52.4236C0.308636 50.7673 0.117428 49.1162 0.0450792 47.4496C-0.10621 44.2152 0.123619 40.9743 0.729812 37.7937C1.27927 34.704 2.09536 31.6678 3.16898 28.7191C4.91758 24.1822 7.30602 19.9188 10.2617 16.0581C12.5605 13.0628 15.1142 10.2721 17.8945 7.71736C18.2285 7.4328 18.5965 7.19066 18.99 6.99647C20.0417 6.41768 21.5481 7.37888 21.5739 8.54679C21.5891 9.03578 21.5413 9.5247 21.4318 10.0015C20.9796 11.8567 20.481 13.7016 20.0107 15.5517C19.2019 18.7324 18.4914 21.9338 18.1606 25.2076C18.0493 25.9601 18.0138 26.7219 18.0547 27.4814C19.2426 27.4069 20.4204 27.2165 21.5713 26.913C21.6514 26.6391 21.7341 26.4117 21.7806 26.1766C22.4456 22.8606 23.1062 19.5455 23.7625 16.2312C24.1423 14.3114 24.4989 12.3838 24.8813 10.4614C24.9965 9.78564 25.1632 9.11966 25.38 8.46928C25.9665 6.86211 27.5117 6.40217 28.9457 7.3582C29.9018 7.99383 30.6097 8.88011 31.2712 9.78964C33.009 12.1797 34.2239 14.9089 34.837 17.7996C35.054 18.7996 35.1832 19.8151 35.3718 20.9365C35.7051 21.1096 36.147 21.324 36.563 21.5514C38.1044 22.3413 39.3197 23.6471 39.997 25.2412C40.9032 27.2656 41.2125 29.5067 40.8884 31.7009C40.7463 32.6699 40.6507 33.6466 40.5628 34.6233C40.5315 34.9633 40.5551 35.3062 40.6326 35.6387C40.86 36.5896 41.8496 36.8738 42.5705 36.1994C42.8119 35.9573 43.0204 35.6845 43.1906 35.3881C44.2408 33.701 44.5903 31.6705 44.1648 29.7294C43.9677 28.7198 43.6762 27.731 43.294 26.776C42.6078 25.0379 42.1728 23.2108 42.002 21.3499C41.6894 18.1485 42.7772 15.3605 44.728 12.8954C47.3403 9.61134 50.6244 7.16442 54.3969 5.37896C57.1389 4.05648 60.0679 3.16323 63.0813 2.73048C64.0046 2.61622 64.9338 2.55496 65.8641 2.54702C66.2352 2.51251 66.6073 2.60144 66.9226 2.8C67.238 2.99856 67.479 3.29564 67.6082 3.64517C67.9338 4.44359 67.8331 5.06114 67.2 5.63993C66.7659 6.03526 66.2724 6.36341 65.8254 6.74582C63.2131 8.97054 61.4018 11.7043 60.6034 15.0685C60.4819 15.5853 60.3243 16.102 60.5388 16.6808C61.9186 16.0814 63.2338 15.4225 64.6084 14.9393C65.9391 14.4742 67.3318 14.19 68.7271 13.8153C69.0216 13.5078 68.8899 13.1047 68.8795 12.7223C68.833 11.203 68.7658 9.68369 68.7477 8.16437C68.7477 7.78971 68.7478 7.27811 68.9803 7.06365C69.3834 6.6864 69.7296 6.17738 70.3653 6.07661C72.0603 5.81822 73.7398 5.4358 75.44 5.24718C79.1883 4.82859 82.9418 4.46168 86.7005 4.14644C89.1423 3.94232 91.5918 3.83381 94.0387 3.7382C97.2221 3.61418 100.408 3.53924 103.599 3.45655C104.284 3.4133 104.972 3.43493 105.653 3.52115C106.945 3.73044 107.733 4.2963 107.935 5.4668C107.986 5.80372 107.982 6.14677 107.922 6.48228C107.739 7.64662 107.36 8.77174 106.803 9.81031C105.519 12.193 104.377 14.6494 103.382 17.1666C103.237 17.4705 103.058 17.7567 102.847 18.0193C102.589 18.3707 102.33 18.7092 102.072 19.0709C102.444 20.4274 102.814 21.7452 103.165 23.0707C104.199 26.9466 105.374 30.7991 106.997 34.4837C108.4 37.6722 109.932 40.7961 112.017 43.6151C113.39 45.4075 114.971 47.0296 116.728 48.447C117.079 48.713 117.447 48.9547 117.831 49.1705C119.027 49.9069 120.157 49.7338 121.19 48.9276C121.286 48.5168 121.022 48.3333 120.846 48.1137C120.542 47.7313 120.231 47.3385 119.914 46.9768C118.14 44.8787 116.626 42.5745 115.405 40.114C113.015 35.4165 111.157 30.5304 110.097 25.3601C109.212 21.2377 108.647 17.0532 108.405 12.8438C108.348 11.6733 108.405 10.4976 108.405 9.27802C109.035 8.89425 109.712 8.5921 110.418 8.37883C112.059 7.8879 113.643 7.21609 115.27 6.68123C121.127 4.7571 126.993 2.84589 132.867 0.947604C133.515 0.735727 134.159 0.505762 134.799 0.286133C134.99 0.338336 135.162 0.442692 135.296 0.587417C135.43 0.732141 135.521 0.911489 135.559 1.10523C135.73 1.82097 135.926 2.53153 136.076 3.24985C136.879 7.33495 137.667 11.4226 138.466 15.5078C138.503 15.8491 138.595 16.1822 138.737 16.4948C139.316 17.4922 139.151 18.5438 139.14 19.6575C138.2 19.9158 137.409 20.368 136.487 20.5541C135.435 20.7633 134.42 21.1509 133.386 21.4636C133.241 21.4878 133.102 21.5433 132.98 21.6264C132.055 22.5256 130.931 22.3318 129.81 22.2827L128.776 19.9959C129.071 18.9624 129.068 18.9624 128.722 17.903C128.311 16.6498 127.903 15.3966 127.471 14.0711C127.175 14.0752 126.88 14.108 126.59 14.1693C124.086 15.0306 121.588 15.8962 119.097 16.7661C118.971 16.8231 118.85 16.8915 118.735 16.9702C118.666 18.0865 118.821 18.9133 119.511 21.1897C120.836 21.1897 122.009 20.5954 123.18 20.1975C123.18 19.5231 123.18 18.9469 123.18 18.3707C123.18 18.2854 123.273 18.2053 123.366 18.0503C124.286 17.9244 125.215 17.8743 126.143 17.9004C126.513 19.3629 127.334 20.6419 127.526 22.1767C127.705 23.3879 127.977 24.5834 128.34 25.7528C128.577 26.59 128.955 27.3858 129.288 28.2463C128.446 29.0369 127.327 29.0963 126.332 29.4322C125.337 29.7682 124.368 30.0265 123.247 30.3625C123.487 30.5847 123.616 30.781 123.8 30.8663C125.018 31.4568 126.359 31.7471 127.712 31.713C129.065 31.6788 130.391 31.3211 131.577 30.6699C132.124 30.3854 132.608 29.9952 133.002 29.5219C133.397 29.0486 133.693 28.5017 133.874 27.9129C134.133 27.1662 134.053 26.5719 133.308 26.1662C133.231 26.1249 133.19 26.0189 133.133 25.944C133.053 25.3316 133.011 24.7864 133.846 24.6056C134.086 24.5513 134.239 24.1017 134.409 23.864C135.027 23.6935 135.515 23.9105 135.996 24.1715C137.629 25.0577 139.293 25.8743 140.983 26.6546C143.081 27.6237 144.967 28.998 146.533 30.6984C147.641 31.8973 148.484 33.259 148.822 34.9049C149.228 36.7912 148.935 38.7606 147.998 40.4473C147.21 41.8725 146.064 43.067 144.672 43.9123C142.998 44.9341 141.221 45.776 139.37 46.4238C138.264 46.8295 137.153 47.199 136.05 47.615C135.83 47.6951 135.624 47.8165 135.329 47.9587C135.466 48.2765 135.587 48.5297 135.688 48.7881C136.174 49.9663 136.758 51.1135 137.117 52.328C137.864 54.8576 137.799 57.3691 136.458 59.7256C135.743 61.0228 134.777 62.1646 133.616 63.0846C129.761 66.0709 125.182 67.9792 120.348 68.6141C117.092 69.0328 113.811 69.2254 110.529 69.1903C108.806 69.1903 107.09 69.1903 105.379 69.1903C105.038 69.1903 104.692 69.1904 104.346 69.1749C103.762 69.1258 103.506 68.9345 103.62 68.3532C103.746 67.6839 103.139 67.4152 103.031 66.8184C103.163 66.5423 103.373 66.3106 103.634 66.151C103.895 65.9915 104.197 65.9109 104.503 65.9192C105.279 65.9011 106.054 65.9192 106.785 65.9192C106.822 65.8421 106.851 65.7616 106.873 65.6789C106.882 65.6333 106.875 65.5861 106.855 65.5445C105.775 63.9735 104.669 62.418 103.615 60.8289C103.103 60.0434 102.684 59.2088 102.181 58.3148ZM70.2748 32.2177C70.2477 32.3074 70.227 32.3989 70.2128 32.4916C70.2128 32.5071 70.2903 32.5303 70.3317 32.551L70.2541 32.2409L69.5565 32.0704C69.386 31.6182 68.9312 31.489 68.5901 31.2384C67.6419 30.5433 66.6729 29.8715 65.9236 28.9491C64.4172 27.1042 63.7298 25.0293 64.3009 22.6573C64.9184 20.1019 66.5153 18.4301 69.0449 17.748C71.5745 17.0658 73.6778 17.7893 75.4271 19.6781C76.4157 20.7736 77.1248 22.0917 77.4942 23.5204C77.8249 24.696 78.1014 25.8898 78.4295 27.068C78.5356 27.3174 78.6709 27.5533 78.8326 27.7708C79.1795 27.304 79.4207 26.7674 79.5394 26.198C79.6581 25.6287 79.6514 25.0403 79.5199 24.4738C78.6595 20.1432 75.6725 16.9108 70.373 17.133C67.3318 17.2596 64.5334 18.2751 61.9315 19.8409C60.4149 20.7551 59.1301 22.0072 58.1771 23.4997C57.807 24.0755 57.5143 24.6976 57.3063 25.3497C56.8283 26.8484 57.1952 27.8122 58.5983 28.5253C59.56 29.0039 60.5643 29.3914 61.5982 29.6829C64.0838 30.4115 66.6522 30.8611 69.0087 32.0084C69.1941 32.0566 69.3867 32.0707 69.5772 32.0497C69.727 32.4554 70.0138 32.2926 70.2748 32.2073V32.2177ZM71.6443 33.228C71.5963 33.158 71.5445 33.0907 71.4892 33.0264C71.4892 33.0264 71.4169 33.0548 71.3781 33.0703L71.6779 33.1918C71.8536 33.4063 72.0112 33.6388 72.1946 33.8352C72.6778 34.3184 73.2282 34.755 73.6674 35.2666C75.5588 37.3983 76.2927 39.8375 75.4038 42.61C74.4995 45.4239 72.7424 47.3463 69.6676 47.7985C67.3378 48.1517 64.9616 48.0499 62.6705 47.4987C58.8955 46.624 55.2778 45.173 51.9448 43.1966C51.4978 42.9382 51.0327 42.6798 50.3945 42.3284C50.4502 42.7205 50.5261 43.1094 50.6219 43.4937C51.3924 45.9776 52.5951 48.306 54.1747 50.372C56.2909 53.1238 58.7481 55.4648 61.9263 56.9841C65.1045 58.5034 68.3343 59.0125 71.776 58.2916C73.5667 57.9143 75.2178 57.1857 76.874 56.4544C78.7017 55.6134 80.3793 54.4787 81.8402 53.0954C83.9734 51.1807 85.4073 48.6093 85.915 45.7882C86.6333 41.9796 84.8375 38.574 81.2873 37.0754C80.2072 36.618 79.1065 36.2098 78.0109 35.7834C76.0472 35.0263 74.0447 34.3675 72.1843 33.3623C72.0109 33.292 71.8296 33.2434 71.6443 33.2176V33.228ZM31.4521 24.758C31.7492 25.0526 32.005 25.3291 32.2867 25.5797C33.837 26.9517 34.4029 28.701 34.3538 30.7164C34.3228 32.1763 33.8551 33.4993 33.2582 34.8015C32.3177 36.848 31.3306 38.8789 30.5012 40.9693C29.4418 43.6487 29.4263 46.4083 30.1343 49.1989C30.5374 50.7828 31.5451 51.7363 33.0153 52.2685C35.4287 53.1445 37.9247 53.2039 40.4104 52.7853C43.555 52.2427 46.3171 50.7518 49.0018 49.1111C49.0793 49.0645 49.118 48.9586 49.2033 48.8527C49.0767 48.4212 48.9863 47.9431 48.4824 47.646C48.1827 47.8114 47.8881 47.9793 47.5884 48.1421C44.9864 49.5451 42.2889 50.6769 39.32 51.0696C37.6603 51.2946 35.9706 51.0927 34.4106 50.4831C33.57 50.19 32.8322 49.6596 32.2867 48.956C31.8164 48.323 31.4624 47.6434 31.7389 46.7442L32.6665 46.8553C32.8112 48.4754 33.9145 49.1602 35.222 49.602C36.5294 50.0413 37.9225 50.1635 39.2864 49.9586C42.2449 49.5322 44.9296 48.3772 47.485 46.8786C47.7098 46.7195 47.9176 46.5377 48.1052 46.336C47.8623 45.6125 47.6323 44.9691 47.4282 44.3154C46.9126 42.78 46.6422 41.1729 46.6272 39.5533C46.6521 39.1126 46.7391 38.6777 46.8856 38.2614C46.9006 38.1753 46.9346 38.0936 46.9851 38.0223C47.0355 37.951 47.1012 37.8918 47.1774 37.849C47.2536 37.8062 47.3383 37.7809 47.4255 37.7749C47.5127 37.7689 47.6001 37.7824 47.6814 37.8144C47.8878 37.8913 48.1121 37.9064 48.3269 37.8577C48.5417 37.8091 48.7376 37.6988 48.8907 37.5405C49.0394 37.4521 49.2018 37.3892 49.3713 37.3544C51.5908 39.3001 54.5726 41.1475 56.2444 41.6152C56.7199 40.7073 57.0412 39.7268 57.1952 38.7135C57.482 36.9746 57.712 35.2253 57.9084 33.4734C57.9652 32.9567 57.8102 32.4192 57.7533 31.8973C57.2366 31.582 56.7457 31.3417 56.3193 31.0213C54.5519 29.701 53.5701 28.0137 53.8801 25.7166C54.1487 23.8637 54.9239 22.1209 56.1203 20.6807C56.6901 20.014 56.9921 19.1595 56.9678 18.2828C56.9382 15.8735 57.431 13.4864 58.4122 11.2857C58.9558 10.025 59.6499 8.83465 60.4793 7.74062C60.7222 7.43056 61.0917 7.13082 61.0762 6.66572C60.9599 6.62955 60.9109 6.59596 60.8721 6.60371C55.4925 7.96025 50.8958 10.6165 47.3352 14.9186C45.7099 16.8824 44.9347 19.1381 45.343 21.753C45.5703 23.1538 45.9258 24.5307 46.405 25.8665C46.7873 26.8724 47.1007 27.9032 47.3429 28.9516C47.9294 31.8482 47.5341 34.6181 45.9683 37.1555C45.5803 37.7773 45.1052 38.3402 44.5575 38.8272C41.6713 41.3956 37.7464 39.0856 37.4105 36.4578C37.3087 35.6871 37.2733 34.9091 37.3046 34.1323C37.3452 33.2016 37.4471 32.2746 37.6095 31.3572C37.7839 30.2385 37.7312 29.0961 37.4544 27.9982C37.0152 26.05 35.9868 24.6133 33.9119 24.1069C32.974 23.8433 32.1962 23.988 31.4521 24.7477V24.758ZM111.588 65.9088C111.914 65.9088 112.206 65.9088 112.498 65.9088C114.947 65.8538 117.391 65.6692 119.821 65.3559C124.304 64.7642 128.347 63.1518 131.833 60.2682C133.823 58.6197 134.727 56.4777 134.102 53.8525C134.011 53.4726 133.903 53.0954 133.776 52.7259C132.898 50.204 131.531 47.9405 130.011 45.7701C129.076 44.3902 128.008 43.1051 126.823 41.933C126.663 41.778 126.523 41.5248 126.18 41.6592C126.143 41.7833 126.118 41.9104 126.105 42.039C126.089 42.9201 126.12 43.8038 126.063 44.6797C125.946 46.2953 125.558 47.8797 124.916 49.3669C123.756 52.1394 119.973 53.837 116.999 52.4365C116.059 52.0164 115.181 51.4696 114.389 50.8112C112.038 48.7881 109.896 46.5814 108.227 43.9433C106.078 40.4882 104.276 36.8298 102.845 33.0213C101.715 29.9912 100.744 26.9045 99.9351 23.7736C99.824 23.3627 99.6638 22.9648 99.4184 22.2491C99.2375 23.0423 99.1161 23.5048 99.0308 23.9751C98.6576 26.1997 98.4846 28.4532 98.514 30.7087C98.4665 33.6012 98.6392 36.4932 99.0308 39.3595C99.4287 42.0261 99.9429 44.6694 100.839 47.2248C102.479 51.8458 104.617 56.2747 107.214 60.4336C108.221 62.0619 109.423 63.5606 110.795 64.8959C111.081 65.2124 111.346 65.5473 111.588 65.8985V65.9088ZM124.298 23.4713C122.27 24.0449 120.389 24.5772 118.511 25.1146C118.422 25.1552 118.336 25.2009 118.252 25.2515C117.477 25.5745 117.219 25.4686 116.916 24.7141C116.838 24.5343 116.774 24.3485 116.725 24.1586C116.139 21.4791 115.562 18.7996 114.976 16.1201C114.925 15.9036 114.936 15.6773 115.007 15.4664C115.078 15.2556 115.205 15.0686 115.376 14.9264C115.664 14.6655 115.995 14.4581 116.356 14.314C118.423 13.5388 120.49 12.7637 122.557 12.0324C123.614 11.6629 124.658 11.2418 125.818 11.2237C126.223 11.2237 126.634 10.924 127.024 10.7302C127.833 10.2879 128.717 9.9996 129.632 9.88006C129.891 10.1561 130.131 10.4496 130.35 10.7586C130.466 10.942 130.564 11.2754 130.474 11.4252C130.179 11.8826 130.376 12.2908 130.5 12.6965C130.984 14.2916 131.484 15.8798 132.001 17.4612C132.115 17.7255 132.254 17.9782 132.417 18.2156C132.917 18.1143 133.412 17.9849 133.898 17.8281C134.386 17.6394 134.985 17.6911 135.401 17.1382C135.233 16.3294 135.045 15.4742 134.885 14.6163C134.29 11.5415 133.706 8.46152 133.104 5.38929C133.017 5.07363 132.903 4.76592 132.763 4.46943C132.246 4.60637 131.81 4.69682 131.394 4.83376C125.346 6.83541 119.307 8.84394 113.278 10.8594C112.733 11.0428 112.209 11.296 111.661 11.5208C111.661 12.004 111.627 12.3968 111.661 12.7818C111.893 15.022 112.141 17.2596 112.387 19.4998C112.467 20.2285 112.723 20.9856 112.601 21.678C112.415 22.7607 112.676 23.7193 113.002 24.696C113.294 25.5771 113.712 26.4246 113.94 27.3212C115.051 31.7138 116.849 35.848 118.963 39.8349C119.871 41.5194 120.955 43.1027 122.198 44.5583C122.223 44.6079 122.26 44.651 122.305 44.6843C122.35 44.7175 122.402 44.74 122.457 44.75C122.511 44.76 122.568 44.7572 122.622 44.7419C122.675 44.7265 122.725 44.6991 122.766 44.6616C122.795 44.1914 122.862 43.6642 122.854 43.1371C122.836 42.5493 122.787 41.9628 122.707 41.3801C122.627 40.7496 122.521 40.1192 122.405 39.4939C122.333 39.0104 122.365 38.5173 122.497 38.0469C122.735 36.9979 124.084 36.1762 125.159 36.6516C125.705 36.8619 126.225 37.1332 126.709 37.4604C127.442 38.0347 128.145 38.6461 128.815 39.2923C129.332 39.7574 129.789 40.2587 130.252 40.7651C130.714 41.2716 131.208 41.8659 131.642 42.3671C132.44 42.486 133.089 42.2328 133.75 42.0726C135.798 41.552 137.734 40.6652 139.466 39.4551C141.21 38.2769 141.685 36.5715 140.936 34.5897C140.873 34.3606 140.832 34.1262 140.812 33.8894L141.569 33.631C141.978 34.1329 142.259 34.727 142.387 35.3618C142.515 35.9967 142.486 36.6531 142.303 37.2743C141.971 38.6252 141.116 39.7889 139.926 40.5093C137.957 41.7186 135.918 42.778 133.631 43.2663C133.301 43.3361 132.985 43.473 132.557 43.6126L133.549 45.0234C135.492 44.3154 137.381 43.6642 139.233 42.933C140.28 42.5222 141.277 41.9925 142.29 41.499C143.074 41.094 143.775 40.5453 144.357 39.8815C145.845 38.2665 146.143 36.0625 145.008 34.1814C144.572 33.4719 144.038 32.8273 143.422 32.2668C142.224 31.1765 140.878 30.2605 139.424 29.5459C138.705 29.1455 137.946 28.8183 137.161 28.5692C137.068 28.776 137.001 28.9051 136.954 29.0395C136.034 31.6234 134.233 33.29 131.709 34.2409C129.813 34.9494 127.769 35.168 125.766 34.8765C122.862 34.4837 120.464 33.2254 118.844 30.6854C118.046 29.4323 118.418 28.2514 119.813 27.7941C120.415 27.5977 121.053 27.5047 121.663 27.329C122.735 27.0215 123.851 26.8535 124.903 26.3523C124.906 25.3497 124.616 24.479 124.298 23.4609V23.4713ZM22.0209 35.0548C22.1889 34.7628 22.3646 34.414 22.5765 34.0884C22.7883 33.7628 24.0338 33.352 24.3852 33.4476C24.6952 33.523 24.9734 33.6946 25.18 33.9378C25.3865 34.1811 25.5108 34.4834 25.535 34.8015C25.5277 35.1404 25.4676 35.476 25.3567 35.7963C25.1474 36.4991 24.8735 37.1839 24.6875 37.8919C23.8762 40.9684 23.0786 44.0501 22.2948 47.137C22.1889 47.5478 22.1605 47.9767 22.083 48.4935C23.6333 48.5788 25.0441 48.9844 26.5892 48.7881C26.5531 48.3462 26.5143 47.9638 26.491 47.5814C26.4419 46.8062 26.3515 46.0182 26.367 45.2378C26.4356 42.7809 27.0183 40.3656 28.0775 38.1477C28.8527 36.4578 29.6279 34.7731 30.403 33.0781C30.6246 32.6427 30.7979 32.1843 30.9198 31.7112C31.2712 30.0601 31.0154 28.5873 29.5555 27.5124C29.1571 27.228 28.7733 26.9236 28.4057 26.6003C27.3334 25.6288 27.1603 24.3394 28.0259 23.1819C28.4433 22.6408 28.9459 22.1713 29.5142 21.7917C30.2351 21.2982 31.0386 20.9287 31.8061 20.4998C31.8474 18.8823 31.2144 16.5129 30.0542 14.1977C29.5607 13.2133 29.0956 12.1849 28.1266 11.4071C28.0162 11.7104 27.9213 12.0192 27.8424 12.3322C27.3256 14.9755 26.8088 17.6188 26.2921 20.2595C25.7443 22.9932 25.0467 25.7011 24.7624 28.484C24.6775 28.9581 24.5548 29.4247 24.3955 29.8793C22.1605 30.241 20.0029 30.5511 17.8351 30.949C15.2899 31.4167 12.6828 31.6105 10.2591 32.6388C10.0326 32.7411 9.78332 32.7825 9.5359 32.7589C9.28849 32.7353 9.05149 32.6476 8.84833 32.5045C8.60789 32.3331 8.41533 32.1031 8.28904 31.8362C8.16274 31.5693 8.10693 31.2745 8.12688 30.98C8.14683 30.6854 8.24187 30.4008 8.403 30.1534C8.56412 29.906 8.78594 29.704 9.04729 29.5666C9.43918 29.3654 9.85268 29.2094 10.2798 29.1015C11.3702 28.8199 12.4709 28.5847 13.5639 28.3264C13.8843 28.2488 14.1944 28.1326 14.4889 28.0396C14.5277 27.7631 14.5587 27.5719 14.582 27.3781C14.8145 25.5306 14.9618 23.6676 15.3003 21.8408C15.7809 19.257 16.4062 16.6731 16.9591 14.0892C17.0005 13.898 17.233 13.6654 16.8609 13.451C16.6232 13.6809 16.3442 13.8928 16.14 14.146C15.1272 15.345 14.1014 16.5335 13.1324 17.7635C10.7664 20.7101 8.79297 23.9516 7.26183 27.4065C4.3007 34.2512 2.85373 41.3956 3.38601 48.8837C3.41138 49.7095 3.55495 50.5274 3.81236 51.3125L12.626 50.248C12.7722 50.2381 12.9169 50.2121 13.0575 50.1704C13.224 50.1049 13.3862 50.0289 13.5432 49.9431C13.7448 47.9173 13.4838 42.2379 13.1453 41.039C13.0515 41.0207 12.955 41.0207 12.8611 41.039C12.6919 41.1385 12.4992 41.191 12.303 41.191C12.1067 41.191 11.914 41.1385 11.7449 41.039C11.3454 40.8453 11.0343 40.5074 10.8741 40.0933C10.6157 39.2613 11.0033 38.2355 11.7991 37.897C12.3395 37.6667 12.8956 37.475 13.4631 37.3234C16.2537 36.5638 19.0469 35.8325 22.0209 35.0444V35.0548ZM99.93 53.7827C99.5062 53.855 99.2142 53.8809 98.9352 53.9532C97.9016 54.2271 96.868 54.5191 95.8164 54.7982C95.1058 54.9894 94.3978 55.1909 93.6821 55.3434C93.186 55.4493 92.9225 55.2555 92.8424 54.7801C92.7261 54.1031 92.6279 53.4261 92.5271 52.7466C92.1008 49.8397 91.6641 46.9303 91.2585 44.0182C90.7856 40.623 90.3412 37.2226 89.8812 33.8223C89.4213 30.4219 88.9743 27.0241 88.4782 23.6315C88.2663 22.1793 87.9356 20.7453 87.6772 19.2983C87.5661 18.673 87.7289 18.5541 88.5996 18.6161C88.7185 19.0632 88.8761 19.5257 88.9588 20.0011C89.3748 22.4635 89.8193 24.9234 90.1681 27.3987C90.6383 30.7578 91.0104 34.1168 91.46 37.4578C92.0026 41.4886 92.5737 45.5169 93.1473 49.5426C93.3592 51.0412 93.6123 52.5321 93.8681 54.1496C94.7953 53.9734 95.7082 53.729 96.5993 53.4184C97.4908 53.0825 98.5243 53.1419 99.3589 52.4908C99.1263 51.899 98.9093 51.3564 98.6923 50.8112C97.8279 48.6783 97.1367 46.4792 96.6252 44.2353C95.8279 40.6499 95.3813 36.9954 95.2919 33.3236C95.266 32.1531 95.2764 30.9723 94.7751 29.8664C94.6803 29.5878 94.6137 29.3004 94.5762 29.0085C93.8165 25.665 92.8837 22.3705 91.814 19.1097C91.3876 17.8177 91.0957 16.4664 90.7469 15.1408C90.6203 14.6602 90.535 14.1796 90.7856 13.699C91.1189 13.5156 91.5298 13.3941 91.7752 13.1228C92.2326 12.6061 92.7804 12.5337 93.3746 12.588C94.9844 12.7353 96.5941 12.8877 98.1987 13.0763C99.2116 13.1978 100.217 13.3864 101.299 13.5569C102.333 11.4252 103.323 9.36071 104.304 7.28845C104.354 7.17992 104.276 7.00939 104.245 6.77167C103.798 6.77167 103.364 6.77167 102.932 6.77167C98.2272 6.83885 93.5297 7.04814 88.8373 7.34528C84.4861 7.62176 80.14 7.99384 75.8146 8.54679C74.6131 8.70182 73.3858 8.76642 72.1714 9.25477C72.0913 10.8059 72.1319 12.3609 72.2928 13.9057C74.5175 14.0685 76.4684 14.9393 78.2487 16.0659C79.5148 15.7429 80.7783 15.9212 81.9152 15.3992C82.0728 14.2106 81.3106 13.0582 81.9307 11.8464C82.8841 11.7379 83.835 11.6035 84.76 11.8309C84.817 11.9355 84.8637 12.0454 84.8996 12.159C85.3715 14.9152 85.8401 17.6661 86.3052 20.4119C86.7315 22.9751 87.1682 25.5358 87.5609 28.1016C88.1165 31.7345 88.6436 35.37 89.1681 39.0081C89.6125 42.1088 90.0432 45.2094 90.46 48.3101C90.8709 51.3203 91.2559 54.3331 91.6642 57.3536C91.7211 57.5867 91.799 57.8141 91.8967 58.0332C92.1176 58.0099 92.3368 57.9728 92.553 57.9221C95.0645 57.1004 97.5752 56.2727 100.085 55.439C100.271 55.3501 100.445 55.2371 100.602 55.103L99.93 53.7827ZM59.314 43.0054C61.6395 43.8839 63.8487 44.5169 66.1561 44.69C67.183 44.7251 68.2109 44.6619 69.2258 44.5014C71.6417 44.2198 73.6752 40.7496 71.6856 38.0262C70.956 36.9732 69.9721 36.1217 68.8252 35.5509C67.9855 35.1504 67.1483 34.7369 66.2775 34.4088C64.7272 33.8223 63.0942 33.4812 61.4431 33.0445C60.9393 36.432 60.5879 39.7393 59.314 43.0054ZM85.1708 35.2821C85.1398 34.8145 85.1347 34.5225 85.0959 34.2486C84.8608 32.4606 84.6489 30.6699 84.3647 28.8871C83.8712 25.7864 83.3311 22.7116 82.8143 19.6265C82.7508 19.3669 82.6644 19.1136 82.556 18.8694C81.9617 18.8229 81.4888 18.8487 81.0496 19.2079C81.14 19.3862 81.2124 19.5619 81.308 19.7246C81.9901 20.8618 82.4619 22.1126 82.7007 23.417C83.145 25.4953 82.819 27.6642 81.7834 29.5201C81.1038 30.7604 80.1245 31.241 78.8093 31.2565C78.2672 31.2873 77.7271 31.1669 77.2494 30.9087C76.7717 30.6504 76.3752 30.2645 76.104 29.794C75.6688 29.0834 75.352 28.3067 75.1661 27.4943C74.9077 26.3988 74.6028 25.3161 74.2953 24.2335C74.002 23.2421 73.4552 22.3444 72.7088 21.629C72.2562 21.1751 71.6652 20.8851 71.0293 20.8046C70.3934 20.7241 69.7488 20.8578 69.1973 21.1845C68.7759 21.4342 68.41 21.7676 68.1224 22.1642C67.8348 22.5607 67.6314 23.012 67.5249 23.4901C67.4184 23.9683 67.4109 24.4632 67.503 24.9444C67.5951 25.4255 67.7848 25.8827 68.0604 26.2877C68.4215 26.8096 68.8567 27.2762 69.3524 27.6726C71.5998 29.4127 74.0985 30.8015 76.7629 31.7913C78.5432 32.4735 80.3416 33.1143 82.109 33.83C83.0882 34.2202 84.0314 34.737 85.1708 35.2899V35.2821ZM94.3591 15.9599C94.7545 17.8177 95.3746 19.3836 95.9094 20.9778C96.018 20.9365 96.0955 20.9287 96.1032 20.9003C96.4977 19.5119 96.8862 18.1244 97.2686 16.7377C97.2879 16.566 97.2879 16.3926 97.2686 16.2209L94.3591 15.9599Z" fill="#FAE35B"/>
<path d="M48.7768 27.2985C48.6222 27.0748 48.502 26.8291 48.4202 26.5698C48.1902 24.9213 47.9293 23.2754 47.8027 21.6191C47.5624 18.4823 48.6605 15.8519 51.0377 13.7822C51.9601 12.9786 52.8929 12.1828 53.8799 11.4567C54.4053 11.1037 54.9676 10.8092 55.5569 10.5782C55.612 10.5493 55.6731 10.5336 55.7354 10.5323C55.7976 10.531 55.8593 10.5441 55.9156 10.5707C55.9719 10.5972 56.0214 10.6364 56.06 10.6852C56.0986 10.7341 56.1254 10.7912 56.1382 10.8521C56.1608 10.964 56.1588 11.0794 56.1325 11.1905C56.1062 11.3016 56.0562 11.4056 55.9858 11.4955C55.6887 11.7332 55.283 11.834 54.9523 12.0536C53.2335 13.1807 51.6906 14.5555 50.3736 16.1335C49.5814 17.1396 49.0984 18.3541 48.9835 19.6295C48.8275 20.994 48.8658 22.3738 49.0972 23.7276C49.2445 24.5957 49.3556 25.4691 49.508 26.3373C49.6036 26.8928 49.3762 27.1796 48.7768 27.2985Z" fill="#FAE35B"/>
<path d="M40.7409 42.9796C39.7363 42.9713 38.749 42.7182 37.8643 42.2423C36.9795 41.7664 36.2242 41.0821 35.6635 40.2485C35.3869 39.8438 35.1958 39.3868 35.1021 38.9056C35.0083 38.4244 35.0139 37.9291 35.1183 37.4501C35.1682 37.262 35.2561 37.0861 35.3767 36.9334C35.4203 36.8933 35.4725 36.8637 35.5293 36.8469C35.5861 36.8301 35.646 36.8266 35.7044 36.8366C35.7628 36.8466 35.8181 36.8698 35.8661 36.9045C35.9141 36.9392 35.9536 36.9844 35.9814 37.0367C36.0467 37.2182 36.0799 37.4097 36.0795 37.6026C35.9839 38.3886 36.1959 39.1812 36.6713 39.8144C37.2933 40.6373 38.1379 41.2649 39.1052 41.6231C40.3636 42.0624 41.5961 41.9487 42.826 41.5094C43.1908 41.3807 43.566 41.2838 43.9475 41.22C44.0456 41.2045 44.2058 41.3415 44.2756 41.4526C44.3005 41.5166 44.3115 41.5851 44.3079 41.6537C44.3044 41.7223 44.2863 41.7894 44.2549 41.8505C44.1704 42.0227 44.0327 42.1631 43.8622 42.251C42.857 42.6334 41.8493 43.0236 40.7409 42.9796Z" fill="#FAE35B"/>
<path d="M129.51 48.4912C129.644 48.5894 129.849 48.6669 129.939 48.8142C131.368 51.1397 131.921 53.6202 131.001 56.2403C130.365 58.049 129.06 59.3822 127.425 60.3745C124.983 61.8653 122.389 62.9971 119.547 63.4234C117.567 63.7206 115.567 63.8911 113.575 64.0978C113.236 64.1175 112.897 64.0852 112.568 64.0022C112.464 63.9816 112.343 63.8007 112.322 63.6767C112.301 63.5526 112.369 63.3382 112.459 63.2968C112.76 63.1463 113.083 63.0435 113.415 62.9919C114.679 62.8601 115.947 62.7749 117.211 62.6534C120.777 62.3124 124.102 61.2478 127.086 59.2453C127.774 58.7805 128.398 58.2271 128.942 57.5994C130.381 55.9457 130.588 53.9819 130.068 51.9433C129.835 51.1479 129.532 50.3748 129.161 49.6333C128.939 49.1527 129.006 48.8064 129.51 48.4912Z" fill="#FAE35B"/>
<path d="M115.581 54.0051C115.366 54.1239 115.144 54.3462 114.999 54.3048C114.58 54.1742 114.179 53.9919 113.805 53.7622C112.334 52.8758 110.998 51.7829 109.837 50.5169C106.499 46.856 103.804 42.6575 101.865 38.0988C101.674 37.6497 101.509 37.1899 101.372 36.7216C101.261 36.3624 101.418 36.0704 101.7 36.0239C101.845 35.9926 101.996 36.0136 102.126 36.0832C102.257 36.1527 102.358 36.2663 102.413 36.4037C102.45 36.4942 102.483 36.5865 102.511 36.6802C104.368 41.4332 107.07 45.8104 110.488 49.5996C111.728 50.9975 113.195 52.1752 114.829 53.0827C115.008 53.1576 115.173 53.2624 115.317 53.3927C115.432 53.584 115.521 53.79 115.581 54.0051Z" fill="#FAE35B"/>
<path d="M5.57229 48.2121C5.43919 45.2769 5.58107 42.3357 5.99605 39.427L6.97015 39.3701C6.97015 42.3209 6.30095 45.2123 6.79963 48.1553C8.41972 48.2974 9.95196 47.6721 11.541 48.0002C11.5643 48.2948 11.585 48.517 11.6082 48.809C11.363 48.8836 11.1137 48.944 10.8615 48.9899C9.25948 49.1604 7.6549 49.3025 6.05548 49.486C5.5387 49.5428 5.18988 49.442 4.99609 48.9046L5.57229 48.2121Z" fill="#FAE35B"/>
<path d="M100.785 8.85773C100.695 9.24014 100.695 9.5011 100.571 9.67164C100.501 9.73427 100.419 9.78176 100.33 9.81112C100.241 9.84047 100.147 9.85106 100.054 9.84219C97.0754 9.68323 94.0892 9.72725 91.1165 9.97395C90.8258 10.0075 90.5316 9.99263 90.2457 9.93003C90.1657 9.88421 90.0977 9.82001 90.0474 9.74274C89.9971 9.66546 89.9658 9.57733 89.9563 9.48561C89.9611 9.39812 89.9872 9.31311 90.0322 9.23793C90.0772 9.16275 90.1398 9.09966 90.2147 9.05409C90.4901 8.95596 90.7802 8.9053 91.0726 8.90424C92.9278 8.85256 94.7856 8.80605 96.6408 8.77504C97.6744 8.75954 98.6924 8.77504 99.7182 8.78796C100.01 8.79054 100.3 8.82414 100.785 8.85773Z" fill="#FAE35B"/>
<path d="M56.1155 50.1233L56.7743 49.622C56.9446 49.7261 57.1031 49.8483 57.2472 49.9863C59.6528 52.8932 62.8852 54.2781 66.4742 54.999C68.9277 55.5321 71.4784 55.4091 73.8693 54.6425C74.6555 54.3723 75.4053 54.006 76.1017 53.552C79.1042 51.6684 81.1403 48.9605 82.7501 45.8753C82.8637 45.6609 82.9671 45.4361 83.086 45.2242C83.151 45.1307 83.2255 45.0441 83.3082 44.9658L84.1557 45.2656C83.9754 45.7959 83.7605 46.3138 83.5123 46.8159C82.2617 48.9786 80.9129 51.0612 79.019 52.7588C76.1405 55.3427 72.8176 56.6346 68.9573 56.4253C65.6152 56.2765 62.3672 55.273 59.5236 53.5107C58.4379 52.8394 57.4713 51.9924 56.6633 51.0043C56.4622 50.7225 56.2792 50.4283 56.1155 50.1233Z" fill="#FAE35B"/>
</svg>
