<svg width="263" height="149" viewBox="0 0 263 149" fill="none" xmlns="http://www.w3.org/2000/svg">
<path d="M20.5871 16.1436C21.9568 18.1641 23.8471 19.63 25.8224 20.9996C28.9069 23.1333 32.0481 25.2161 35.11 27.3668C39.4963 30.4401 43.8486 33.5642 48.2293 36.6431C50.6403 38.341 53.0909 39.9824 55.6661 41.7369C55.8807 41.2644 56.0696 40.7808 56.2321 40.288C57.115 36.8016 57.93 33.3039 58.8525 29.8175C60.2335 24.486 61.6824 19.1659 63.0577 13.8401C63.3633 12.6798 63.6237 11.5083 64.6877 10.4442C66.6799 10.3424 68.8193 10.2065 70.9644 10.1216C71.8185 10.0027 72.687 10.0391 73.5282 10.2292C74.479 10.5688 74.1451 11.7743 74.5526 12.5383C76.1373 15.504 77.9824 18.2999 79.8388 21.0959C82.5498 25.1765 85.8268 28.7818 89.1434 32.353C90.6149 33.9321 92.143 35.4659 93.2297 37.3562C93.4618 37.7637 93.6485 38.1995 93.841 38.5844C92.9128 39.9201 90.0093 42.4896 87.9379 43.8253C87.1342 43.7687 86.8059 43.0895 86.3362 42.5575C85.0627 41.0237 83.8968 39.3937 82.5272 37.9505C78.3089 33.5795 74.5185 28.815 71.2077 23.722C70.9079 23.2933 70.5848 22.8815 70.2399 22.4881C69.5381 22.641 69.5268 23.1956 69.4136 23.6201C68.3722 27.563 67.3478 31.5097 66.3404 35.4602C65.6442 38.1656 64.9764 40.8822 64.2972 43.5989C64.0482 44.6063 63.7595 45.6081 63.5501 46.6212C63.3407 47.6343 63.2162 48.6587 63.0634 49.6379C62.4634 50.0453 61.9654 50.4472 61.4164 50.7698C58.5865 52.2923 55.8585 52.4111 53.1136 50.4472C48.1047 46.8702 42.9827 43.4518 37.9908 39.8465C34.3007 37.1808 30.5313 34.6452 26.6713 32.2738C26.1054 32.6134 26.3374 33.0209 26.4619 33.3661C27.775 37.0506 29.0824 40.7238 30.4237 44.4139C31.7651 48.1041 33.1857 51.5678 34.5327 55.1674C36.2875 60.0675 38.4731 64.8025 41.064 69.3167C41.5111 70.0695 42.0488 70.7656 42.5186 71.507C42.7676 71.8975 42.9714 72.3164 43.226 72.7748C42.5299 73.5389 41.9017 74.2407 41.2621 74.9368C40.6226 75.633 40.9622 76.6347 40.7301 77.5176C40.5602 77.6655 40.3695 77.7875 40.1641 77.8799C39.0831 78.2704 38.0927 78.7289 36.8023 78.5987C35.076 78.4289 33.3045 78.8307 31.55 78.8873C28.8334 78.9666 26.1223 78.9609 23.4057 79.0005C23.0208 79.0005 22.6359 79.0514 22.2737 79.0741C22.0247 79.7193 22.5058 79.8438 22.7944 80.0249C28.8956 83.8396 35.0025 87.6448 41.115 91.4406C42.1847 92.1028 43.3506 92.6235 44.607 93.28C43.8203 95.7873 43.8996 98.3737 43.2034 100.802C42.6174 101.005 41.994 101.077 41.377 101.013C40.7601 100.95 40.1645 100.752 39.6321 100.434C38.0021 99.5906 36.3834 98.736 34.8214 97.7568C24.9451 91.6783 15.0859 85.5828 5.52661 79.0118C4.69979 78.5406 3.79805 78.2151 2.86087 78.0497C0.155522 77.2969 -0.580225 76.165 0.438526 73.7313C0.850606 72.6206 1.04283 71.4403 1.0045 70.2562C1.52044 69.8785 2.10994 69.6132 2.73489 69.4777C3.35983 69.3422 4.00628 69.3394 4.63237 69.4695C6.33029 69.7921 8.13009 69.7638 9.87895 69.928C16.7329 70.5562 23.6038 70.3581 30.469 70.3015C30.7511 70.2639 31.0281 70.1956 31.2953 70.0978C31.2334 69.712 31.1348 69.3329 31.001 68.9658C27.8486 62.576 25.4884 55.8579 22.9812 49.2077C21.3512 44.8667 19.8117 40.4974 18.2044 36.1507C16.7046 32.104 15.1764 28.0686 13.6766 24.0276C13.5408 23.654 13.388 23.2805 13.2748 22.8956C13.1559 22.5949 13.1374 22.2638 13.2221 21.9517C13.3067 21.6396 13.49 21.3632 13.7445 21.1638C14.6727 20.411 15.6179 19.6753 16.5291 18.8999C17.4403 18.1245 18.6062 17.7057 19.1552 16.5624L20.5871 16.1436Z" fill="#FBEA54"/>
<path d="M178.238 98.9394C179.2 98.3734 179.523 97.4452 179.891 96.5736C180.939 94.0622 181.722 91.4484 182.228 88.7745C183.253 83.4827 183.36 78.1399 183.247 72.7744C183.211 72.5471 183.142 72.3261 183.043 72.1179C181.345 72.1632 180.061 73.3008 178.436 73.7026C176.099 71.6765 175.374 68.9938 175.103 65.9488C176.235 65.4168 177.27 64.8169 178.38 64.415C183.785 62.4341 189.207 60.4985 194.617 58.5402C195.732 58.0801 196.951 57.9314 198.143 58.1101C198.647 58.2063 199.117 58.4667 199.145 58.993C199.264 61.2965 199.332 63.6057 199.394 65.9092C199.394 66.0394 199.247 66.1752 199.111 66.3903C196.679 66.9241 194.305 67.6977 192.025 68.6995C191.986 69.4918 191.929 70.2729 191.918 71.0539C191.839 75.0497 191.918 79.0567 191.669 83.0355C191.25 89.0405 190.101 94.921 187.662 100.479C186.952 102.182 185.927 103.736 184.639 105.058C181.379 108.301 176.014 109.376 171.843 105.058C169.827 103.004 168.112 100.675 166.749 98.1413C166.46 97.5754 166.109 97.0547 165.617 96.1831C165.493 97.0321 165.396 97.5244 165.357 98.0225C165.24 100.745 164.6 103.42 163.472 105.901C162.719 107.501 161.505 108.839 159.986 109.744C158.234 110.751 156.154 111.024 154.201 110.502C152.644 110.143 151.175 109.477 149.877 108.544C146.644 106.312 143.894 103.449 141.795 100.128C140.59 98.2489 139.429 96.3415 138.241 94.4682C137.675 94.5135 137.737 94.9492 137.76 95.3115C138.037 100.405 138.399 105.499 138.586 110.632C138.79 116.292 138.699 121.952 138.411 127.612C138.313 130.412 137.739 133.176 136.713 135.784C136.616 136.131 136.401 136.433 136.106 136.64C135.811 136.846 135.453 136.944 135.094 136.916C133.989 136.794 132.931 136.406 132.01 135.784L130.481 136.062C130.317 136.016 130.204 136.016 130.17 135.965C129.474 134.997 128.642 134.03 128.914 132.739C130.425 125.466 130.142 118.098 129.921 110.768C129.587 99.743 128.755 88.7462 127.657 77.7663C127.352 74.6704 126.944 71.5803 126.61 68.4844C126.531 67.9345 126.531 67.376 126.61 66.8261C126.91 65.1282 127.306 64.8678 129.508 64.8169C129.621 64.3415 129.768 63.7189 129.876 63.2774C131.246 62.8982 132.236 63.334 133.226 63.5265C134.217 63.7189 134.641 64.5565 135.026 65.3376C135.602 66.4794 136.103 67.6572 136.526 68.8636C138.337 74.1667 140.527 79.3171 142.786 84.4392C144.771 88.8136 147.178 92.9838 149.974 96.8906C151.397 98.9775 153.324 100.671 155.577 101.814C156.273 101.005 156.375 99.9864 156.522 98.9846C156.941 96.0246 156.567 93.0985 156.131 90.1668C155.101 83.3298 153.052 76.7702 150.687 70.3068C147.964 62.8756 145.027 55.5123 142.395 48.0584C140.952 43.9947 139.86 39.8066 138.682 35.6523C138.253 34.0314 137.905 32.3899 137.641 30.734C137.381 29.4723 137.448 28.1653 137.833 26.9363C138.057 26.4381 138.328 25.9624 138.643 25.5157L146.363 27.1061C145.87 30.2586 146.929 33.0432 147.693 35.8674C149.539 42.4898 151.767 49 154.366 55.3651C155.305 57.6573 156.063 60.0118 156.946 62.3379C157.252 63.1586 157.609 63.9623 157.92 64.7886C158.191 65.5187 158.435 66.2658 158.763 67.2222C159.329 66.4752 159.137 65.8413 159.137 65.2753C159.097 61.2796 158.882 57.2838 159.006 53.2993C159.287 46.3381 160.505 39.4465 162.629 32.8111C163.462 30.0459 164.78 27.451 166.523 25.1478C167.236 24.1869 168.073 23.3247 169.013 22.584C171.696 20.5352 174.622 20.3937 177.57 21.9501C180.519 23.5065 182.455 26.0194 183.796 29.0078C184.17 29.8921 184.499 30.7951 184.781 31.7131C185.358 33.4563 185.924 35.2071 186.479 36.9654C186.666 37.5596 186.767 38.1822 186.92 38.8444C186.542 39.1747 186.114 39.444 185.652 39.6424C183.496 40.1405 181.657 41.6629 179.325 41.7309C178.68 40.8948 178.222 39.9296 177.984 38.901C177.418 37.2031 176.953 35.5391 176.421 33.8638C176.031 32.3474 175.166 30.9952 173.954 30.0039C173.594 30.324 173.263 30.6743 172.963 31.051C171.921 32.6669 171.131 34.4322 170.62 36.2862C168.786 42.34 167.77 48.6118 167.598 54.935C167.453 61.4877 167.788 68.0421 168.6 74.5459C169.465 80.8122 171.179 86.9317 173.693 92.7363C174.624 94.8673 175.925 96.8162 177.536 98.4922C177.756 98.6633 177.991 98.813 178.238 98.9394Z" fill="#FBEA54"/>
<path d="M115.626 107.599L121.637 107.769C122.768 107.797 123.9 107.769 124.987 107.871C125.921 107.955 126.928 107.961 127.602 108.787C127.545 111.266 126.9 115.013 126.249 116.57L116.837 116.292C116.797 116.952 116.797 117.613 116.837 118.273C117.35 121.918 117.886 125.555 118.444 129.185C118.484 129.817 118.7 130.424 119.067 130.94C120.159 132.072 119.418 133.203 119.322 134.335C119.231 135.36 118.377 135.971 117.658 136.599C117.531 136.692 117.384 136.755 117.229 136.782C117.074 136.81 116.915 136.801 116.764 136.758C115.937 136.424 115.632 137.154 115.156 137.465C114.992 137.465 114.834 137.465 114.675 137.465C112.281 137.177 110.979 135.767 110.543 133.464C110.204 131.658 109.819 129.864 109.542 128.047C109.038 124.731 108.602 121.403 108.127 118.081C108.059 117.617 107.917 117.158 107.815 116.722C105.829 116.287 100.679 116.321 88.4309 116.949C82.0581 117.277 75.7079 117.922 69.3293 118.862C69.4482 120.707 70.1896 122.229 70.6594 123.82C71.1291 125.41 71.6668 127.023 72.1932 128.619C72.7195 130.215 73.2402 131.811 73.8232 133.385C74.4061 134.958 75.023 136.52 75.6965 138.06C76.37 139.599 77.1171 141.071 77.8925 142.689C76.137 144.606 74.2778 146.426 72.3233 148.14C71.0898 147.599 70.1084 146.61 69.5784 145.372C68.3934 143.017 67.3354 140.601 66.4089 138.133C64.3545 132.247 62.4471 126.304 60.5059 120.384C60.2652 119.544 59.9029 118.743 59.4305 118.007C58.9101 117.3 58.6179 116.451 58.5929 115.573C58.6721 113.921 58.1854 112.41 57.8062 110.882C56.8497 106.999 55.7177 103.162 54.7952 99.2734C53.1482 92.3516 51.8351 85.3618 51.5352 78.2249C51.4199 73.7459 51.8417 69.2692 52.7916 64.8906C53.3576 62.123 54.7442 61.0476 57.8118 60.9288C58.0996 61.4441 58.3456 61.9816 58.5476 62.5362C58.6475 62.9652 58.8669 63.3572 59.1804 63.6667C59.4939 63.9763 59.8887 64.1906 60.3191 64.285C60.7831 64.4605 61.2334 64.6705 61.6661 64.9132C61.5472 65.6037 61.4906 66.2263 61.3378 66.8262C59.9682 72.1747 59.9399 77.5797 60.5907 83.013C61.2183 88.0893 62.1634 93.1212 63.4206 98.0792C63.6526 99.0074 63.8677 99.9356 64.1167 100.858C64.1507 100.983 64.3261 101.068 64.5525 101.277C64.96 100.485 65.3959 99.7432 65.7411 98.9622C68.5144 92.7365 71.2253 86.5107 74.0552 80.3473C76.7153 74.5348 79.4999 68.7732 82.2222 62.9889C82.8335 61.6872 83.3938 60.3628 84.022 59.0724C84.8823 57.3066 86.1614 56.1124 88.4535 56.101C88.7949 56.4635 89.0793 56.8757 89.2969 57.3235C89.683 58.553 90.5366 59.5815 91.6739 60.1874C92.0401 60.4367 92.3796 60.7231 92.687 61.042L89.7893 66.9847C88.8215 68.9996 87.8253 71.0031 86.8745 73.0236C85.9237 75.0441 85.0238 77.0986 84.0956 79.1361C83.1674 81.1736 82.2109 83.1998 81.2657 85.243C80.3206 87.2861 79.4773 89.3463 78.5774 91.3951C77.6775 93.4439 76.7832 95.4984 75.8607 97.5359C74.9381 99.5734 73.959 101.588 73.0308 103.631C72.1026 105.675 70.9028 107.525 70.3708 109.948C82.4373 108.204 94.4019 108.029 106.395 107.684C106.723 106.597 106.463 105.663 106.344 104.741C105.884 101.262 105.408 97.7812 104.918 94.2985C103.705 85.3476 102.95 76.3408 102.654 67.313C102.529 64.0416 102.326 60.7703 102.144 57.499C101.994 56.4633 102.079 55.4069 102.393 54.4088C105.223 53.7806 107.946 54.4088 110.832 54.4993C111.262 72.2709 112.524 89.85 115.626 107.599Z" fill="#FBEA54"/>
<path d="M115.625 107.599L121.636 107.769C122.767 107.797 123.899 107.769 124.986 107.871C125.92 107.955 126.927 107.961 127.601 108.787C127.544 111.266 126.899 115.013 126.248 116.57L116.836 116.292C116.796 116.952 116.796 117.613 116.836 118.273C117.349 121.918 117.885 125.555 118.443 129.185C118.484 129.817 118.699 130.424 119.066 130.94C120.158 132.072 119.417 133.203 119.321 134.335C119.23 135.36 118.376 135.971 117.657 136.599C117.53 136.692 117.383 136.755 117.228 136.782C117.073 136.81 116.914 136.801 116.763 136.758C115.936 136.424 115.631 137.154 115.155 137.465C114.991 137.465 114.833 137.465 114.674 137.465C112.28 137.177 110.978 135.767 110.542 133.464C110.203 131.658 109.818 129.864 109.541 128.047C109.037 124.731 108.601 121.403 108.126 118.081C108.058 117.617 107.916 117.158 107.815 116.722C105.828 116.287 100.678 116.321 88.4299 116.949C82.0571 117.277 75.7069 117.922 69.3284 118.862C69.4472 120.707 70.1886 122.229 70.6584 123.82C71.1282 125.41 71.6658 127.023 72.1922 128.619C72.7185 130.215 73.2392 131.811 73.8222 133.385C74.4051 134.958 75.0221 136.52 75.6956 138.06C76.3691 139.599 77.1162 141.071 77.8915 142.689C76.136 144.606 74.2769 146.426 72.3224 148.14C71.0889 147.599 70.1074 146.61 69.5774 145.372C68.3924 143.017 67.3344 140.601 66.408 138.133C64.3535 132.247 62.4462 126.304 60.5049 120.384C60.2643 119.544 59.902 118.743 59.4295 118.007C58.9091 117.3 58.6169 116.451 58.5919 115.573C58.6711 113.921 58.1844 112.41 57.8052 110.882C56.8487 106.999 55.7167 103.162 54.7942 99.2734C53.1472 92.3516 51.8342 85.3618 51.5342 78.2249C51.4189 73.7459 51.8408 69.2692 52.7907 64.8906C53.3566 62.123 54.7433 61.0476 57.8108 60.9288C58.0986 61.4441 58.3446 61.9816 58.5466 62.5362C58.6465 62.9652 58.8659 63.3572 59.1795 63.6667C59.493 63.9763 59.8878 64.1906 60.3181 64.285C60.7821 64.4605 61.2324 64.6705 61.6651 64.9132C61.5463 65.6037 61.4897 66.2263 61.3368 66.8262C59.9672 72.1747 59.9389 77.5797 60.5898 83.013C61.2173 88.0893 62.1624 93.1212 63.4196 98.0792C63.6517 99.0074 63.8667 99.9356 64.1158 100.858C64.1497 100.983 64.3252 101.068 64.5516 101.277C64.9591 100.485 65.3949 99.7432 65.7401 98.9622C68.5134 92.7365 71.2244 86.5107 74.0542 80.3473C76.7143 74.5348 79.4989 68.7732 82.2212 62.9889C82.8325 61.6872 83.3928 60.3628 84.021 59.0724C84.8813 57.3066 86.1604 56.1124 88.4526 56.101C88.7939 56.4635 89.0783 56.8757 89.2959 57.3235C89.682 58.553 90.5357 59.5815 91.673 60.1874C92.0391 60.4367 92.3786 60.7231 92.6861 61.042L89.7883 66.9847C88.8205 68.9996 87.8244 71.0031 86.8735 73.0236C85.9227 75.0441 85.0228 77.0986 84.0946 79.1361C83.1664 81.1736 82.2099 83.1998 81.2647 85.243C80.3196 87.2861 79.4763 89.3463 78.5764 91.3951C77.6765 93.4439 76.7822 95.4984 75.8597 97.5359C74.9371 99.5734 73.958 101.588 73.0298 103.631C72.1016 105.675 70.9018 107.525 70.3698 109.948C82.4363 108.204 94.401 108.029 106.394 107.684C106.722 106.597 106.462 105.663 106.343 104.741C105.883 101.262 105.407 97.7812 104.917 94.2985C103.704 85.3476 102.949 76.3408 102.653 67.313C102.528 64.0416 102.325 60.7703 102.143 57.499C101.993 56.4633 102.078 55.4069 102.392 54.4088C105.222 53.7806 107.945 54.4088 110.831 54.4993C111.261 72.2709 112.523 89.85 115.625 107.599Z" fill="#FBEA54"/>
<path d="M197.239 80.2115C197.529 79.7614 197.911 79.3775 198.36 79.0849C198.808 78.7924 199.313 78.5977 199.842 78.5136C201.676 78.1095 203.552 77.9365 205.428 77.9986C205.817 79.2953 206.107 80.6197 206.294 81.9604C206.583 84.0205 206.86 86.0807 207.166 88.1351C207.591 90.4981 208.294 92.8025 209.26 95.0004C209.421 95.2901 209.611 95.5631 209.826 95.8154C210.845 95.889 211.716 95.4532 212.599 95.1419C216.063 93.9194 219.51 92.6403 222.979 91.4291C226.302 90.2972 229.652 89.2048 232.969 88.0333C237.264 86.5221 241.577 85.0053 245.454 82.566C247.543 81.2529 249.512 79.7361 251.482 78.2363C252.505 77.4599 253.339 76.4614 253.921 75.3159C254.183 74.8625 254.309 74.3429 254.283 73.8198C254.257 73.2966 254.08 72.7922 253.774 72.3672C253.436 71.8254 253.035 71.3258 252.58 70.8787C248.957 67.6017 245.318 64.3303 240.938 62.0891C235.38 59.2592 229.72 56.6388 223.659 55.0144C219.793 53.9844 215.922 52.9826 212.226 51.4262C208.231 49.7671 204.481 47.5738 201.076 44.9062C195.733 40.8333 192.178 34.8457 191.16 28.2043C190.237 22.8281 190.537 17.313 192.038 12.0684C192.739 9.43163 193.982 6.97005 195.688 4.84098C197.346 2.76287 199.596 1.23723 202.14 0.466002C204.379 -0.197036 206.768 -0.151563 208.98 0.596199C211.192 1.34396 213.118 2.75743 214.495 4.64288C216.193 6.90677 217.195 9.53854 218.112 12.176C219.765 16.9358 220.076 21.8598 219.725 26.846C219.68 27.0583 219.617 27.2665 219.538 27.4685C218.406 27.7742 217.195 28.0798 215.995 28.4364C214.795 28.7929 213.731 29.1552 212.679 29.4947C212.229 29.2557 211.854 28.8984 211.592 28.4616C211.331 28.0247 211.194 27.5248 211.196 27.0158C211.122 25.9004 211.111 24.7818 211.162 23.6652C211.377 19.3185 210.245 15.2718 208.473 11.3723C208.206 10.7908 207.862 10.2482 207.449 9.75928C207.056 9.24398 206.487 8.89083 205.851 8.7667C205.214 8.64258 204.555 8.7561 203.997 9.08577C203.118 9.49506 202.394 10.1755 201.931 11.0271C201.296 12.1324 200.772 13.2984 200.369 14.5078C199.011 18.9713 198.88 23.718 199.989 28.2496C201.048 32.7208 203.617 36.1732 207.347 38.8163C211.719 41.9377 216.632 44.2213 221.836 45.5514C223.387 45.9419 224.921 46.389 226.46 46.8248C233.531 48.8839 240.331 51.7795 246.716 55.4502C251.408 58.0933 255.455 61.6193 259.252 65.4227C260.099 66.2653 260.83 67.2169 261.426 68.2525C262.423 69.9075 262.966 71.7966 262.999 73.7287C263.032 75.6608 262.553 77.5672 261.613 79.255C260.234 81.7982 258.332 84.0203 256.032 85.7751C251.081 89.7117 245.502 92.7847 239.528 94.8646C235.465 96.3191 231.356 97.6492 227.281 99.0754C222.679 100.688 218.101 102.347 213.505 103.977C212.831 104.229 212.144 104.441 211.445 104.611C207.443 105.465 204.71 103.965 203.051 101.441C202.261 100.243 201.584 98.9735 201.031 97.6491C199.62 94.1594 198.68 90.4975 198.235 86.7598C197.952 84.6261 197.584 82.5037 197.239 80.2115Z" fill="#FBEA54"/>
<path d="M102.443 24.7634C103.15 24.4299 103.953 24.3597 104.707 24.5653C106.564 24.9502 108.431 25.2841 110.418 25.6633C110.418 25.6633 110.599 25.7765 110.599 25.8954C110.599 30.0609 111.346 34.1529 111.804 38.2675C111.984 39.6076 112.088 40.9568 112.116 42.3086C112.116 43.6612 111.697 44.0065 110.418 44.0404C108.827 44.0857 107.237 44.1367 105.647 44.1593C105.081 44.1593 104.549 44.0857 103.949 44.0404C103.439 42.8406 103.592 41.6237 103.434 40.4692C102.955 37.0016 102.523 33.5209 102.138 30.027C101.951 28.2951 101.815 26.5349 102.443 24.7634Z" fill="#FBEA54"/>
</svg>
