<svg width="186" height="106" viewBox="0 0 186 106" fill="none" xmlns="http://www.w3.org/2000/svg">
<path d="M14.5597 11.7892C15.5284 13.2181 16.8653 14.2548 18.2622 15.2235C20.4437 16.7325 22.6652 18.2055 24.8306 19.7265C27.9327 21.9 31.0108 24.1095 34.1089 26.2869C35.814 27.4877 37.5472 28.6485 39.3684 29.8894C39.5201 29.5552 39.6538 29.2132 39.7687 28.8647C40.3931 26.399 40.9695 23.9253 41.6219 21.4597C42.5986 17.6891 43.6232 13.9266 44.5959 10.1601C44.812 9.33953 44.9962 8.51098 45.7487 7.75847C47.1576 7.68642 48.6707 7.59035 50.1877 7.53031C50.7917 7.44617 51.406 7.47194 52.0009 7.60637C52.6733 7.84653 52.4372 8.6991 52.7254 9.23946C53.8461 11.3369 55.151 13.3142 56.4639 15.2915C58.3812 18.1775 60.6987 20.7272 63.0443 23.2529C64.085 24.3696 65.1657 25.4544 65.9343 26.7913C66.0984 27.0795 66.2305 27.3877 66.3666 27.6599C65.7101 28.6045 63.6567 30.4217 62.1917 31.3663C61.6234 31.3263 61.3912 30.846 61.059 30.4697C60.1584 29.385 59.3338 28.2322 58.3652 27.2116C55.3819 24.1203 52.7012 20.7507 50.3598 17.1488C50.1477 16.8457 49.9192 16.5544 49.6753 16.2762C49.179 16.3843 49.171 16.7765 49.0909 17.0767C48.3544 19.8653 47.63 22.6565 46.9175 25.4504C46.4252 27.3637 45.9528 29.2849 45.4725 31.2062C45.2964 31.9187 45.0922 32.6272 44.9441 33.3437C44.796 34.0602 44.708 34.7847 44.5999 35.4771C44.1756 35.7653 43.8234 36.0495 43.4351 36.2777C41.4338 37.3544 39.5045 37.4384 37.5632 36.0495C34.0208 33.5198 30.3984 31.1022 26.868 28.5524C24.2582 26.6672 21.5924 24.874 18.8626 23.1969C18.4623 23.437 18.6264 23.7252 18.7145 23.9694C19.6431 26.5751 20.5678 29.1729 21.5164 31.7826C22.465 34.3924 23.4697 36.842 24.4224 39.3877C25.6634 42.8532 27.2091 46.2019 29.0414 49.3945C29.3577 49.9268 29.7379 50.4192 30.0701 50.9435C30.2463 51.2197 30.3904 51.5159 30.5705 51.8401C30.0781 52.3805 29.6339 52.8768 29.1816 53.3691C28.7293 53.8615 28.9694 54.57 28.8053 55.1944C28.6852 55.2989 28.5503 55.3852 28.405 55.4505C27.6405 55.7267 26.94 56.051 26.0274 55.9589C24.8066 55.8388 23.5538 56.123 22.3129 56.163C20.3916 56.2191 18.4743 56.2151 16.553 56.2431C16.2809 56.2431 16.0087 56.2791 15.7525 56.2951C15.5764 56.7514 15.9166 56.8395 16.1208 56.9676C20.4357 59.6654 24.7546 62.3565 29.0775 65.041C29.834 65.5093 30.6585 65.8776 31.5471 66.3419C30.9908 68.1151 31.0468 69.9443 30.5545 71.6615C30.14 71.805 29.6991 71.8561 29.2628 71.8111C28.8265 71.7662 28.4053 71.6263 28.0288 71.4013C26.876 70.8049 25.7312 70.2005 24.6265 69.508C17.6418 65.2091 10.6691 60.8982 3.90855 56.2511C3.3238 55.9178 2.68607 55.6876 2.02328 55.5706C0.109989 55.0383 -0.410349 54.2377 0.310136 52.5166C0.601568 51.731 0.737513 50.8963 0.710405 50.0589C1.07529 49.7917 1.4922 49.6042 1.93418 49.5083C2.37615 49.4125 2.83334 49.4105 3.27612 49.5026C4.47693 49.7307 5.74979 49.7107 6.98662 49.8268C11.8339 50.2711 16.6932 50.131 21.5484 50.0909C21.7479 50.0643 21.9438 50.016 22.1328 49.9468C22.089 49.674 22.0193 49.4059 21.9247 49.1463C19.6952 44.6273 18.026 39.8761 16.2528 35.1729C15.1001 32.1028 14.0113 29.0128 12.8746 25.9387C11.8139 23.0768 10.7331 20.2229 9.67241 17.3649C9.57635 17.1008 9.46829 16.8366 9.38824 16.5644C9.30417 16.3517 9.29109 16.1175 9.35096 15.8968C9.41083 15.6761 9.54043 15.4806 9.72045 15.3396C10.3769 14.8072 11.0454 14.2869 11.6898 13.7385C12.3342 13.1901 13.1588 12.8939 13.547 12.0854L14.5597 11.7892Z" fill="#FBEA54"/>
<path d="M126.055 70.3444C126.735 69.9442 126.963 69.2877 127.223 68.6713C127.965 66.8952 128.519 65.0466 128.877 63.1556C129.601 59.4131 129.677 55.6345 129.597 51.84C129.571 51.6792 129.523 51.5228 129.453 51.3757C128.252 51.4077 127.344 52.2122 126.195 52.4964C124.542 51.0634 124.029 49.1662 123.837 47.0127C124.638 46.6365 125.37 46.2122 126.155 45.928C129.977 44.527 133.812 43.1581 137.638 41.7732C138.427 41.4478 139.289 41.3426 140.132 41.469C140.488 41.537 140.821 41.7212 140.841 42.0934C140.925 43.7225 140.973 45.3556 141.017 46.9847C141.017 47.0768 140.913 47.1728 140.817 47.3249C139.096 47.7025 137.418 48.2495 135.805 48.958C135.777 49.5184 135.737 50.0708 135.729 50.6232C135.673 53.4491 135.729 56.283 135.553 59.0968C135.257 63.3437 134.444 67.5025 132.719 71.4331C132.217 72.6377 131.492 73.7364 130.582 74.6713C128.276 76.9649 124.482 77.7254 121.532 74.6713C120.106 73.219 118.893 71.5722 117.929 69.78C117.725 69.3798 117.477 69.0115 117.129 68.3951C117.041 68.9955 116.973 69.3438 116.945 69.696C116.862 71.6216 116.41 73.5133 115.612 75.2677C115.079 76.3994 114.221 77.3459 113.146 77.9855C111.907 78.6979 110.436 78.8908 109.055 78.5219C107.954 78.2676 106.915 77.7968 105.997 77.137C103.71 75.5586 101.766 73.534 100.281 71.185C99.4287 69.8561 98.6082 68.5072 97.7676 67.1823C97.3673 67.2143 97.4114 67.5225 97.4274 67.7787C97.6235 71.3811 97.8797 74.9835 98.0118 78.614C98.1559 82.6167 98.0918 86.6194 97.8877 90.6221C97.8188 92.6029 97.4127 94.5575 96.6869 96.4019C96.6182 96.6472 96.4665 96.8611 96.2578 97.0071C96.049 97.153 95.7961 97.2221 95.5421 97.2025C94.7609 97.1161 94.0123 96.8414 93.3606 96.4019L92.2799 96.5981C92.1638 96.566 92.0838 96.5661 92.0598 96.53C91.5674 95.8456 90.9791 95.1611 91.1712 94.2485C92.2399 89.105 92.0397 83.8935 91.8836 78.71C91.6475 70.9128 91.0591 63.1356 90.2826 55.3703C90.0664 53.1809 89.7782 50.9954 89.5421 48.8059C89.486 48.417 89.486 48.0221 89.5421 47.6331C89.7542 46.4323 90.0344 46.2482 91.5915 46.2122C91.6715 45.876 91.7756 45.4357 91.8516 45.1235C92.8203 44.8553 93.5208 45.1635 94.2212 45.2996C94.9217 45.4357 95.2219 46.0281 95.4941 46.5804C95.901 47.388 96.2553 48.2209 96.5548 49.0741C97.8356 52.8246 99.3847 56.4671 100.982 60.0895C102.386 63.1832 104.088 66.1325 106.065 68.8954C107.072 70.3714 108.435 71.5692 110.028 72.3778C110.52 71.8054 110.592 71.0849 110.696 70.3764C110.993 68.283 110.728 66.2136 110.42 64.1403C109.692 59.305 108.243 54.6659 106.57 50.0948C104.644 44.8393 102.567 39.6318 100.706 34.3602C99.6849 31.4863 98.9124 28.5243 98.0798 25.5863C97.7761 24.44 97.5303 23.279 97.3433 22.108C97.1597 21.2157 97.2065 20.2913 97.4794 19.4222C97.6378 19.0698 97.8295 18.7334 98.0518 18.4175L103.511 19.5422C103.163 21.7717 103.912 23.7411 104.452 25.7384C105.758 30.422 107.334 35.0261 109.171 39.5277C109.836 41.1488 110.372 42.8139 110.996 44.459C111.213 45.0394 111.465 45.6078 111.685 46.1922C111.877 46.7085 112.049 47.2369 112.281 47.9133C112.682 47.385 112.546 46.9367 112.546 46.5364C112.518 43.7105 112.365 40.8846 112.453 38.0667C112.652 33.1435 113.513 28.2696 115.015 23.577C115.604 21.6213 116.537 19.7862 117.769 18.1573C118.273 17.4777 118.866 16.868 119.53 16.3441C121.428 14.8951 123.497 14.795 125.582 15.8958C127.668 16.9965 129.037 18.7737 129.985 20.8871C130.25 21.5126 130.483 22.1512 130.682 22.8004C131.09 24.0333 131.49 25.2714 131.883 26.5149C132.015 26.9352 132.087 27.3755 132.195 27.8438C131.927 28.0775 131.625 28.2679 131.298 28.4082C129.773 28.7604 128.472 29.8372 126.823 29.8852C126.367 29.2939 126.043 28.6113 125.875 27.8839C125.474 26.683 125.146 25.5063 124.77 24.3215C124.493 23.249 123.882 22.2927 123.025 21.5916C122.77 21.818 122.536 22.0657 122.324 22.3321C121.587 23.4749 121.028 24.7234 120.667 26.0346C119.37 30.316 118.651 34.7516 118.53 39.2235C118.427 43.8577 118.664 48.4932 119.238 53.0928C119.85 57.5245 121.062 61.8523 122.84 65.9575C123.498 67.4646 124.419 68.8429 125.558 70.0282C125.713 70.1491 125.88 70.2551 126.055 70.3444Z" fill="#FBEA54"/>
<path d="M81.7731 76.4687L86.024 76.5888C86.8245 76.6088 87.625 76.5888 88.3936 76.6608C89.054 76.7209 89.7665 76.7249 90.2428 77.3093C90.2028 79.0624 89.7465 81.7122 89.2862 82.813L82.6297 82.6168C82.601 83.0834 82.601 83.5512 82.6297 84.0178C82.9926 86.5955 83.3715 89.1679 83.7665 91.735C83.7948 92.1815 83.9473 92.6113 84.2067 92.9758C84.9793 93.7763 84.4549 94.5769 84.3869 95.3774C84.3228 96.1019 83.7184 96.5342 83.2101 96.9785C83.1202 97.0443 83.0165 97.0886 82.9069 97.108C82.7972 97.1274 82.6846 97.1215 82.5776 97.0906C81.9933 96.8544 81.7771 97.3708 81.4409 97.5909C81.3248 97.5909 81.2127 97.5909 81.1006 97.5909C79.4075 97.3868 78.4869 96.3901 78.1787 94.761C77.9385 93.4842 77.6663 92.2153 77.4702 90.9304C77.114 88.5849 76.8058 86.2313 76.4695 83.8817C76.4215 83.5535 76.3214 83.2292 76.2494 82.921C74.8444 82.6128 71.202 82.6369 62.5402 83.0812C58.0331 83.3133 53.5421 83.7696 49.0311 84.434C49.1151 85.7389 49.6395 86.8156 49.9717 87.9404C50.3039 89.0652 50.6842 90.2059 51.0564 91.3347C51.4287 92.4635 51.7969 93.5922 52.2092 94.705C52.6215 95.8177 53.0578 96.9225 53.5341 98.0112C54.0104 99.0999 54.5388 100.141 55.0872 101.285C53.8456 102.641 52.5308 103.928 51.1485 105.14C50.2762 104.758 49.582 104.058 49.2072 103.183C48.3691 101.517 47.6209 99.8085 46.9657 98.0632C45.5127 93.9004 44.1638 89.6976 42.7909 85.5108C42.6207 84.9163 42.3645 84.35 42.0304 83.8297C41.6623 83.3296 41.4557 82.7291 41.438 82.1085C41.494 80.9397 41.1498 79.871 40.8816 78.7903C40.2052 76.0444 39.4046 73.3306 38.7522 70.5807C37.5874 65.6854 36.6588 60.7421 36.4466 55.6947C36.3651 52.5271 36.6634 49.361 37.3352 46.2644C37.7355 44.3071 38.7162 43.5465 40.8856 43.4625C41.0891 43.8269 41.2631 44.2071 41.406 44.5993C41.4766 44.9027 41.6318 45.1799 41.8535 45.3988C42.0753 45.6177 42.3545 45.7693 42.6588 45.8361C42.987 45.9602 43.3054 46.1087 43.6114 46.2804C43.5274 46.7687 43.4874 47.209 43.3793 47.6333C42.4106 51.4158 42.3906 55.2384 42.8509 59.081C43.2947 62.6711 43.9632 66.2298 44.8523 69.7362C45.0164 70.3926 45.1685 71.049 45.3446 71.7015C45.3686 71.7895 45.4927 71.8496 45.6528 71.9977C45.941 71.4373 46.2492 70.913 46.4934 70.3606C48.4547 65.9576 50.372 61.5547 52.3733 57.1957C54.2546 53.085 56.2239 49.0102 58.1492 44.9195C58.5815 43.9989 58.9778 43.0622 59.4221 42.1496C60.0305 40.9008 60.9351 40.0562 62.5562 40.0482C62.7976 40.3045 62.9987 40.5961 63.1526 40.9128C63.4256 41.7823 64.0294 42.5096 64.8337 42.9381C65.0927 43.1145 65.3328 43.317 65.5502 43.5425L63.5008 47.7454C62.8164 49.1703 62.1119 50.5873 61.4394 52.0162C60.767 53.4452 60.1306 54.8982 59.4741 56.3391C58.8177 57.7801 58.1412 59.2131 57.4728 60.6581C56.8043 62.103 56.2079 63.56 55.5715 65.009C54.9351 66.458 54.3026 67.9109 53.6502 69.3519C52.9977 70.7929 52.3053 72.2178 51.6488 73.6628C50.9924 75.1078 50.1438 76.4167 49.7676 78.1298C58.3013 76.897 66.763 76.7729 75.2447 76.5287C75.4769 75.7602 75.2928 75.0998 75.2087 74.4473C74.8831 71.987 74.5469 69.5254 74.2 67.0624C73.3425 60.7321 72.8081 54.3622 72.5989 47.9775C72.5109 45.664 72.3668 43.3504 72.2387 41.0369C72.132 40.3044 72.1922 39.5573 72.4148 38.8514C74.4162 38.4071 76.3415 38.8514 78.3828 38.9154C78.687 51.4839 79.5796 63.9163 81.7731 76.4687Z" fill="#FBEA54"/>
<path d="M81.7731 76.4687L86.024 76.5888C86.8245 76.6088 87.625 76.5888 88.3936 76.6608C89.054 76.7209 89.7665 76.7249 90.2428 77.3093C90.2028 79.0624 89.7465 81.7122 89.2862 82.813L82.6297 82.6168C82.601 83.0834 82.601 83.5512 82.6297 84.0178C82.9926 86.5955 83.3715 89.1679 83.7665 91.735C83.7948 92.1815 83.9473 92.6113 84.2067 92.9758C84.9793 93.7763 84.4549 94.5769 84.3869 95.3774C84.3228 96.1019 83.7184 96.5342 83.2101 96.9785C83.1202 97.0443 83.0165 97.0886 82.9069 97.108C82.7972 97.1274 82.6846 97.1215 82.5776 97.0906C81.9933 96.8544 81.7771 97.3708 81.4409 97.5909C81.3248 97.5909 81.2127 97.5909 81.1006 97.5909C79.4075 97.3868 78.4869 96.3901 78.1787 94.761C77.9385 93.4842 77.6663 92.2153 77.4702 90.9304C77.114 88.5849 76.8058 86.2313 76.4695 83.8817C76.4215 83.5535 76.3214 83.2292 76.2494 82.921C74.8444 82.6128 71.202 82.6369 62.5402 83.0812C58.0331 83.3133 53.5421 83.7696 49.0311 84.434C49.1151 85.7389 49.6395 86.8156 49.9717 87.9404C50.3039 89.0652 50.6842 90.2059 51.0564 91.3347C51.4287 92.4635 51.7969 93.5922 52.2092 94.705C52.6215 95.8177 53.0578 96.9225 53.5341 98.0112C54.0104 99.0999 54.5388 100.141 55.0872 101.285C53.8456 102.641 52.5308 103.928 51.1485 105.14C50.2762 104.758 49.582 104.058 49.2072 103.183C48.3691 101.517 47.6209 99.8085 46.9657 98.0632C45.5127 93.9004 44.1638 89.6976 42.7909 85.5108C42.6207 84.9163 42.3645 84.35 42.0304 83.8297C41.6623 83.3296 41.4557 82.7291 41.438 82.1085C41.494 80.9397 41.1498 79.871 40.8816 78.7903C40.2052 76.0444 39.4046 73.3306 38.7522 70.5807C37.5874 65.6854 36.6588 60.7421 36.4466 55.6947C36.3651 52.5271 36.6634 49.361 37.3352 46.2644C37.7355 44.3071 38.7162 43.5465 40.8856 43.4625C41.0891 43.8269 41.2631 44.2071 41.406 44.5993C41.4766 44.9027 41.6318 45.1799 41.8535 45.3988C42.0753 45.6177 42.3545 45.7693 42.6588 45.8361C42.987 45.9602 43.3054 46.1087 43.6114 46.2804C43.5274 46.7687 43.4874 47.209 43.3793 47.6333C42.4106 51.4158 42.3906 55.2384 42.8509 59.081C43.2947 62.6711 43.9632 66.2298 44.8523 69.7362C45.0164 70.3926 45.1685 71.049 45.3446 71.7015C45.3686 71.7895 45.4927 71.8496 45.6528 71.9977C45.941 71.4373 46.2492 70.913 46.4934 70.3606C48.4547 65.9576 50.372 61.5547 52.3733 57.1957C54.2546 53.085 56.2239 49.0102 58.1492 44.9195C58.5815 43.9989 58.9778 43.0622 59.4221 42.1496C60.0305 40.9008 60.9351 40.0562 62.5562 40.0482C62.7976 40.3045 62.9987 40.5961 63.1526 40.9128C63.4256 41.7823 64.0294 42.5096 64.8337 42.9381C65.0927 43.1145 65.3328 43.317 65.5502 43.5425L63.5008 47.7454C62.8164 49.1703 62.1119 50.5873 61.4394 52.0162C60.767 53.4452 60.1306 54.8982 59.4741 56.3391C58.8177 57.7801 58.1412 59.2131 57.4728 60.6581C56.8043 62.103 56.2079 63.56 55.5715 65.009C54.9351 66.458 54.3026 67.9109 53.6502 69.3519C52.9977 70.7929 52.3053 72.2178 51.6488 73.6628C50.9924 75.1078 50.1438 76.4167 49.7676 78.1298C58.3013 76.897 66.763 76.7729 75.2447 76.5287C75.4769 75.7602 75.2928 75.0998 75.2087 74.4473C74.8831 71.987 74.5469 69.5254 74.2 67.0624C73.3425 60.7321 72.8081 54.3622 72.5989 47.9775C72.5109 45.664 72.3668 43.3504 72.2387 41.0369C72.132 40.3044 72.1922 39.5573 72.4148 38.8514C74.4162 38.4071 76.3415 38.8514 78.3828 38.9154C78.687 51.4839 79.5796 63.9163 81.7731 76.4687Z" fill="#FBEA54"/>
<path d="M139.492 57.0996C139.697 56.7812 139.967 56.5097 140.284 56.3028C140.602 56.0959 140.959 55.9582 141.333 55.8988C142.63 55.6129 143.957 55.4906 145.284 55.5345C145.559 56.4516 145.763 57.3883 145.896 58.3364C146.1 59.7934 146.297 61.2504 146.513 62.7033C146.813 64.3745 147.31 66.0042 147.994 67.5586C148.108 67.7635 148.242 67.9566 148.394 68.135C149.114 68.187 149.731 67.8788 150.355 67.6587C152.805 66.7941 155.242 65.8895 157.696 65.0329C160.046 64.2324 162.415 63.4598 164.761 62.6313C167.799 61.5626 170.849 60.4899 173.591 58.7647C175.068 57.8361 176.461 56.7633 177.854 55.7026C178.578 55.1536 179.168 54.4474 179.579 53.6372C179.764 53.3166 179.853 52.9492 179.835 52.5792C179.816 52.2092 179.691 51.8524 179.475 51.5518C179.236 51.1687 178.952 50.8153 178.63 50.4991C176.069 48.1816 173.495 45.868 170.397 44.2829C166.466 42.2816 162.463 40.4284 158.177 39.2796C155.443 38.5511 152.705 37.8426 150.091 36.7419C147.266 35.5686 144.614 34.0174 142.206 32.1308C138.427 29.2503 135.913 25.0158 135.193 20.3188C134.54 16.5166 134.752 12.6162 135.813 8.90716C136.309 7.04234 137.188 5.30145 138.395 3.79572C139.568 2.32604 141.159 1.24707 142.958 0.701638C144.542 0.232722 146.231 0.264881 147.795 0.793716C149.36 1.32255 150.722 2.32219 151.696 3.65563C152.897 5.2567 153.605 7.11795 154.254 8.98321C155.423 12.3495 155.643 15.8318 155.395 19.3582C155.363 19.5083 155.319 19.6556 155.263 19.7985C154.462 20.0146 153.605 20.2308 152.757 20.4829C151.908 20.7351 151.156 20.9913 150.411 21.2314C150.093 21.0624 149.828 20.8097 149.643 20.5008C149.458 20.1918 149.361 19.8383 149.363 19.4783C149.311 18.6895 149.302 17.8984 149.339 17.1087C149.491 14.0346 148.69 11.1727 147.437 8.41482C147.248 8.00355 147.005 7.61981 146.713 7.27406C146.435 6.90963 146.032 6.65987 145.582 6.57209C145.132 6.48431 144.666 6.56459 144.271 6.79774C143.65 7.0872 143.138 7.56844 142.81 8.17066C142.361 8.9524 141.991 9.77704 141.705 10.6323C140.745 13.789 140.653 17.146 141.437 20.3509C142.186 23.513 144.003 25.9546 146.641 27.8239C149.733 30.0314 153.207 31.6464 156.888 32.5871C157.984 32.8633 159.069 33.1795 160.158 33.4877C165.159 34.9439 169.968 36.9918 174.483 39.5878C177.802 41.457 180.664 43.9507 183.349 46.6405C183.948 47.2364 184.465 47.9095 184.886 48.6419C185.592 49.8123 185.976 51.1483 185.999 52.5147C186.022 53.8811 185.684 55.2294 185.019 56.4231C184.043 58.2217 182.698 59.7932 181.072 61.0342C177.571 63.8183 173.625 65.9916 169.4 67.4625C166.526 68.4912 163.62 69.4319 160.738 70.4405C157.484 71.5813 154.246 72.7541 150.996 73.9069C150.519 74.0853 150.033 74.235 149.539 74.3552C146.709 74.9596 144.775 73.8989 143.603 72.1137C143.044 71.2663 142.565 70.3685 142.174 69.4319C141.176 66.9638 140.511 64.3741 140.196 61.7307C139.996 60.2217 139.736 58.7207 139.492 57.0996Z" fill="#FBEA54"/>
<path d="M72.4505 17.8852C72.9505 17.6494 73.5183 17.5997 74.0516 17.7451C75.3645 18.0173 76.6854 18.2535 78.0903 18.5217C78.0903 18.5217 78.2184 18.6017 78.2184 18.6858C78.2184 21.6318 78.7468 24.5257 79.071 27.4357C79.1982 28.3834 79.2717 29.3376 79.2911 30.2936C79.2911 31.2502 78.9949 31.4944 78.0903 31.5184C76.9656 31.5504 75.8408 31.5865 74.716 31.6025C74.3158 31.6025 73.9395 31.5504 73.5152 31.5184C73.155 30.6698 73.2631 29.8093 73.151 28.9927C72.8121 26.5404 72.5066 24.0788 72.2344 21.6078C72.1023 20.3829 72.0062 19.1381 72.4505 17.8852Z" fill="#FBEA54"/>
</svg>
