<svg width="183" height="161" viewBox="0 0 183 161" fill="none" xmlns="http://www.w3.org/2000/svg">
<path d="M124.376 104.476C124.157 104.488 123.939 104.524 123.728 104.584C119.586 106.37 115.248 106.547 110.851 106.103C106.986 105.726 103.19 104.826 99.5674 103.429C97.2505 102.49 95.0251 101.34 92.9195 99.9925C92.4081 99.6744 91.8705 99.3951 91.3399 99.0804C90.9692 99.8088 91.1725 100.417 91.2576 101.017C91.7782 104.586 92.3373 108.15 92.8251 111.72C93.0136 113.29 93.0768 114.908 93.1447 116.496C93.1531 117.05 93.0969 117.603 92.9773 118.144C92.9453 118.459 92.8243 118.758 92.6283 119.007C92.4323 119.255 92.1695 119.443 91.8707 119.547C91.2421 119.827 90.5934 120.058 89.9299 120.239C87.1367 120.791 84.2526 120.678 81.5113 119.908C80.6691 119.659 79.8951 119.19 79.0605 118.864C77.3421 118.169 76.193 117.019 75.8142 115.144C75.5965 114.057 75.2838 112.99 74.9939 111.918C74.9324 111.671 74.8336 111.434 74.6989 111.037C74.1336 111.417 73.6824 111.709 73.241 112.004C71.3498 113.276 69.2422 114.191 67.0219 114.706C64.783 115.293 62.9253 114.663 61.3288 113.072C60.7364 112.477 60.1691 111.873 59.6018 111.268C56.1379 107.569 52.7231 103.827 49.2128 100.178C46.2769 97.1318 43.2339 94.1917 40.2208 91.2116C40.035 91.0457 39.8391 90.8915 39.6341 90.7499C39.1496 90.8896 39.3032 91.2169 39.326 91.4381C39.8282 96.3369 40.4138 101.228 40.8288 106.136C41.12 109.318 41.1286 112.52 40.8545 115.704C40.7125 117.236 40.02 118.132 38.5573 118.505C36.6833 119.001 34.7362 119.162 32.8063 118.98C30.5882 118.75 28.5709 117.907 26.6233 116.848C26.2484 116.666 25.923 116.397 25.6747 116.063C25.4264 115.729 25.2626 115.34 25.1973 114.929C25.0235 113.903 24.782 112.883 24.7019 111.834C24.5287 109.346 24.3393 106.849 24.3143 104.362C24.2892 98.1852 24.3589 92.0091 24.3872 85.8323C24.3896 85.1499 24.3435 84.4697 24.3156 83.6757C23.7559 83.6183 23.2957 83.5311 22.8306 83.528C20.116 83.5609 17.4219 83.0539 14.905 82.0363C13.1755 81.3439 11.5925 80.3308 10.2394 79.0504C9.94571 78.7679 9.75785 78.3933 9.70716 77.989C9.70016 77.5794 9.56974 77.1813 9.33295 76.8469C8.85147 76.1767 9.01821 75.5056 9.52636 74.9545C10.2604 74.1232 11.0504 73.3431 11.8909 72.6196C15.3337 69.8076 18.7819 67.01 22.5663 64.6629C23.1505 64.3004 23.7111 63.8977 24.3909 63.4413C24.4105 62.5676 24.427 61.6746 24.4484 60.7838C24.5266 57.5889 24.5563 54.396 24.7028 51.2079C24.7831 49.4818 25.0529 47.7573 25.2585 46.0368C25.5109 43.9331 27.2638 43.761 28.4561 44.3036C28.827 44.4739 29.1338 44.758 29.3321 45.1147C29.6285 45.7427 29.8669 46.3965 30.0445 47.0679C30.9835 50.2606 31.9033 53.4565 32.8387 56.6506C32.9468 57.0199 33.1258 57.4031 33.32 57.912C34.0103 57.5049 34.5992 57.1653 35.1721 56.7948C38.8254 54.5347 42.4487 52.1957 46.1569 50.0255C48.8418 48.4551 51.6403 47.0424 54.4259 45.6389C56.1732 44.7941 58.0566 44.2659 59.9884 44.0789C61.998 43.9027 64.0224 44.1404 65.9365 44.7774C67.9404 45.3812 69.0429 46.7395 69.2442 48.8521C69.4276 50.5081 69.4376 52.1787 69.2741 53.8367C68.978 56.8753 68.4256 59.8834 67.6229 62.829C67.3549 63.7625 67.0283 64.6782 66.6451 65.5707C66.4727 66.0341 66.1584 66.4312 65.747 66.7053C65.3356 66.9795 64.8481 67.1168 64.3541 67.0976C63.8993 67.0696 63.4607 66.9177 63.0861 66.6584C62.7114 66.399 62.4149 66.042 62.2286 65.6261C61.8995 65.015 61.6605 64.3596 61.5189 63.6801C61.195 61.8414 60.9312 59.988 60.6903 58.13C60.5431 57.0449 60.4659 55.9495 60.3315 54.5968C59.773 55.048 59.3906 55.3047 59.08 55.6203C57.3966 57.2766 55.7358 58.9489 54.0587 60.611C49.6748 65.0341 44.7675 68.9139 40.0272 72.9517C39.6019 73.311 39.1788 73.6654 38.7725 74.0421C38.685 74.1248 38.6752 74.2927 38.5974 74.5194C39.5725 74.8371 40.5401 75.1781 41.5172 75.458C45.3727 76.6292 49.0339 78.3643 52.3817 80.6068C58.6325 84.6915 64.1587 89.6316 69.3517 94.9574C70.515 96.1556 71.6389 97.3689 72.7842 98.5739C73.0064 98.8012 73.2719 98.9913 73.6183 99.2861C73.7081 99.0514 73.7705 98.8072 73.8045 98.5582C73.7495 96.4774 73.698 94.3951 73.6116 92.318C73.2689 84.0624 73.5923 75.7926 74.5787 67.5889C75.0171 63.3803 75.717 59.203 76.6744 55.0813C77.0583 53.5336 77.5243 52.0074 78.0704 50.5092C78.4221 49.6042 78.8642 48.7369 79.3897 47.9204C80.4407 46.2098 82.5275 46.0951 83.9856 46.8934C84.445 47.1956 84.7941 47.6386 84.9805 48.1559C85.2469 48.8722 85.4217 49.6194 85.5005 50.3795C86.1168 55.3443 86.7096 60.3016 87.2791 65.2513C87.5649 67.7327 87.7686 70.2248 88.0351 72.7093C88.0943 73.241 88.2562 73.7621 88.3922 74.3876C88.9408 74.1577 89.3874 73.9832 89.8065 73.7905C92.1428 72.7267 94.5827 72.4936 97.126 72.6932C100.088 72.9258 102.808 73.9202 105.458 75.1629C106.325 75.5977 107.122 76.1617 107.82 76.8355C109.001 77.9286 108.836 79.0671 107.473 79.8744C107.118 80.0838 106.705 80.1962 106.337 80.3819C105.47 80.8232 104.614 81.2483 103.756 81.7318C102.983 82.1391 102.311 82.7162 101.792 83.4197C101.272 84.1233 100.919 84.9351 100.758 85.7946C99.8732 90.2866 100.959 94.1662 104.345 97.3489C105.268 98.2284 106.199 98.3658 107.375 97.876C109.379 97.0381 111.023 95.5182 112.015 93.5852C112.892 91.9249 113.485 90.1293 113.769 88.273C114.313 84.9767 114.245 81.6083 113.569 78.3365C112.812 74.5448 110.518 71.8568 107.325 69.8896C104.37 68.0736 101.343 66.3797 98.3712 64.5948C95.8665 63.0873 93.4244 61.5067 91.5334 59.2191C88.572 55.6322 87.8671 51.6975 89.6483 47.3602C90.5772 45.1036 92.0549 43.1146 93.9471 41.5737C97.5316 38.5494 102.013 36.7906 106.697 36.5693C112.618 36.1958 118.528 37.452 123.785 40.2014C125.206 40.9313 126.519 41.8548 127.686 42.9457C128.465 43.6447 129.056 44.5294 129.402 45.5176C130.23 48.0218 128.753 50.2071 126.138 50.3383C123.722 50.4599 121.842 49.4283 120.359 47.6173C119.947 47.0588 119.576 46.4723 119.246 45.8622C118.919 45.3298 118.607 44.792 118.281 44.2597C117.697 43.3086 116.887 42.9609 115.806 43.3361C115.613 43.4099 115.388 43.4013 115.198 43.4738C110.999 45.1005 107.745 47.7296 106.177 52.1088C105.719 53.3518 105.557 54.6842 105.703 56.0008C105.849 57.3173 106.3 58.5818 107.019 59.6942C107.459 60.4856 108.087 61.1566 108.848 61.6482C110.689 62.7604 112.511 63.9 114.361 64.9924C116.452 66.2226 118.596 67.3667 120.675 68.6302C123.216 70.2061 125.51 72.1484 127.484 74.3943C129.625 76.7025 131.037 79.591 131.543 82.6979C131.651 83.3792 131.807 84.0549 131.967 84.8844C132.406 84.9615 132.853 84.9839 133.298 84.9513C135.424 84.5658 137.609 84.6455 139.701 85.1849C141.428 85.6689 143.126 86.255 144.784 86.9402C145.22 87.1538 145.621 87.4326 145.974 87.767C147.514 89.0183 147.517 90.1132 145.984 91.3017C145.437 91.7282 144.839 92.0876 144.276 92.4953C142.993 93.336 142.086 94.6416 141.745 96.1375C141.284 98.1566 141.133 100.107 141.776 102.082C142.163 103.269 142.536 104.461 143 105.614C143.532 106.828 144.342 107.9 145.364 108.743C145.671 109.072 146.079 109.289 146.523 109.358C146.967 109.428 147.421 109.346 147.814 109.126C149.42 108.447 150.814 107.348 151.85 105.944C154.1 102.696 155.649 99.1822 155.773 95.1489C155.835 92.8558 155.494 90.5697 154.764 88.3949C154.323 86.9632 153.6 85.6342 152.638 84.4856C151.676 83.337 150.494 82.3921 149.162 81.7063C147.672 80.973 146.132 80.3452 144.554 79.8275C142.009 78.9142 139.407 78.1745 136.886 77.1825C134.63 76.2891 132.431 75.2564 130.304 74.0904C128.742 73.1845 127.253 72.1593 125.849 71.0238C125.095 70.4121 124.409 69.7197 123.805 68.9588C121.715 66.4721 120.977 63.8803 123.107 59.9104C123.59 59.0661 124.18 58.2886 124.865 57.5978C126.921 55.4158 129.497 53.7893 132.351 52.8696C137.992 51.0416 143.692 50.9192 149.445 51.7948C153.373 52.4062 157.158 53.5566 160.504 55.7856C161.434 56.3891 162.311 57.0709 163.125 57.8234C164.913 59.5303 165.514 61.6655 165.161 64.0952C165.028 64.9926 164.653 65.8367 164.077 66.5368C163.676 67.0692 163.108 67.4516 162.464 67.6229C161.82 67.7941 161.137 67.7444 160.525 67.4815C159.42 67.0398 158.489 66.2487 157.875 65.2288C157.213 64.1718 156.543 63.1139 155.934 62.0243C154.29 59.0924 151.633 57.5818 148.519 56.7498C147.845 56.6016 147.146 56.6087 146.475 56.7705C143 57.5298 139.919 60.9552 139.468 64.4768C139.373 65.1335 139.419 65.8028 139.6 66.4408C139.782 67.0789 140.097 67.6713 140.524 68.1793C141.611 69.5448 142.983 70.6576 144.543 71.4405C146.206 72.2826 147.914 73.0315 149.66 73.6836C151.939 74.5136 154.278 75.1772 156.579 75.937C159.028 76.7148 161.393 77.7383 163.636 78.9918C164.415 79.4417 165.191 79.905 165.947 80.4007C172.047 84.4033 174.434 90.217 174.163 97.3195C174.004 101.56 172.342 105.264 170.033 108.711C168.759 110.546 167.061 112.046 165.083 113.083C161.72 114.914 157.992 115.977 154.169 116.197C149.306 116.533 144.458 116.351 139.693 115.172C136.303 114.335 133.077 113.111 130.175 111.131C127.904 109.58 125.992 107.698 124.806 105.171C124.676 104.931 124.533 104.699 124.376 104.476ZM52.7798 49.7276C52.6916 49.8799 52.5538 49.9973 52.3894 50.06C52.225 50.1227 52.044 50.127 51.8768 50.0722C51.4598 50.7978 50.6625 50.946 49.9991 51.273C46.7697 52.8653 43.624 54.6219 40.5742 56.5358C38.8218 57.656 37.0883 58.7936 35.3436 59.9232C32.2629 61.9197 29.169 63.8924 26.1051 65.9113C22.0654 68.5898 18.0501 71.3 14.5026 74.6445C14.2437 74.8911 13.7588 75.0515 13.9597 75.6317C14.1524 75.5786 14.3396 75.5071 14.5187 75.4184C16.8526 73.9285 19.2011 72.4659 21.5037 70.9264C26.8599 67.3515 32.2183 63.7717 37.5341 60.1342C41.995 57.0856 46.4071 53.9736 51.0962 51.2649C51.4008 51.1039 51.6772 50.8944 51.9146 50.6448C52.006 50.5401 51.8854 50.2454 51.8663 50.0556C52.2817 50.2296 52.6406 50.2774 52.7622 49.7138C52.8646 49.7754 52.977 49.8186 53.0943 49.8416C53.154 49.8476 53.2234 49.739 53.2877 49.6816C53.2295 49.6926 53.1706 49.7 53.1114 49.7037L52.7798 49.7276ZM37.3497 77.3067L36.1636 77.2215L36.1747 77.4226L37.3632 77.3098C37.7316 78.1463 38.3637 77.9092 38.9866 77.7126C38.9999 78.4793 39.7018 78.5112 40.175 78.6754C47.0325 81.1658 53.0857 85.0016 58.673 89.6392C63.4799 93.6304 68.0553 97.8536 72.0879 102.645C72.262 102.854 72.3936 103.35 72.8995 103.029C72.7424 102.789 72.6081 102.545 72.4399 102.33C68.3421 97.0668 63.9398 92.092 58.7816 87.8367C53.8182 83.7369 48.3336 80.5626 42.12 78.7379C41.0651 78.4261 40.0215 78.0689 38.9482 77.7519L37.3497 77.3067ZM107.226 38.0095C106.415 38.1753 105.607 38.3604 104.8 38.5248C102.196 38.9869 99.7445 40.0773 97.6577 41.7015C95.4132 43.3779 93.8451 45.8044 93.2387 48.5395C92.938 49.9706 93.0633 51.4585 93.599 52.8192C93.6346 52.9124 93.822 52.9517 93.9801 53.0433C94.0502 52.3556 94.0917 51.6788 94.1907 51.013C94.4565 49.2243 94.7964 47.4361 95.7971 45.8843C97.3729 43.4727 99.3206 41.4118 102.014 40.2283C103.468 39.5955 104.981 39.0962 106.489 38.5946C106.847 38.4579 107.12 38.354 107.205 37.9849C107.576 38.1877 107.994 38.2889 108.416 38.2783C108.839 38.2676 109.251 38.1456 109.612 37.9245C108.821 37.769 108.004 37.7981 107.226 38.0095ZM87.6319 89.7601L87.7367 90.1963C87.7652 90.1526 87.8254 90.0845 87.815 90.0679C87.7417 89.9747 87.6638 89.8852 87.5814 89.7999C87.3759 88.9294 87.2231 88.0473 87.1236 87.1584C86.8959 83.1401 88.8722 80.2719 92.1308 78.2363C93.9993 77.0335 96.0811 76.2002 98.2633 75.7815C98.697 75.7022 99.2288 75.762 99.6438 75.1603C99.1913 75.0411 98.7277 74.9689 98.2603 74.9451C93.7855 75.1706 90.0457 76.9136 87.5228 80.6841C85.7548 83.3128 85.437 86.2132 86.92 89.1532C87.0688 89.4249 87.1868 89.7986 87.6319 89.7601ZM154.354 77.336L153.57 77.3562L153.596 77.4243L154.386 77.3443C154.492 77.5668 154.538 77.8938 154.713 77.9956C155.614 78.5058 156.533 78.9885 157.475 79.4253C159.659 80.4787 161.698 81.8107 163.54 83.3882C166.791 86.0886 169.093 89.3893 169.797 93.6118C170.088 95.4507 170.122 97.3261 170.278 99.1756C170.269 99.3827 170.272 99.59 170.285 99.7969C170.324 99.9955 170.152 100.299 170.519 100.41C171.462 98.4815 171.33 96.4465 171.21 94.4643C170.961 90.3887 169.518 86.8011 166.496 83.927C164.415 81.9871 161.997 80.4444 159.361 79.375C157.664 78.7046 156.008 78.0228 154.354 77.336ZM79.9238 54.4737L79.6421 54.4457C79.1891 57.0242 78.6899 59.5998 78.298 62.1878C77.8602 65.0643 77.3326 67.9421 77.166 70.8301C76.6933 79.2208 76.8329 87.5914 78.3583 95.8929C78.4894 96.2562 78.6594 96.6043 78.8652 96.9311C78.9207 96.6455 78.9586 96.3569 78.9788 96.0667C78.8453 92.7473 78.6826 89.4267 78.5769 86.1049C78.2429 75.9119 78.2519 65.7358 79.8981 55.633C79.9321 55.2476 79.9406 54.8603 79.9238 54.4737ZM138.773 87.8954C133.78 86.5162 129.211 89.6677 127.464 92.8587C125.459 96.5222 125.596 101.228 128.11 104.062C127.557 101.44 126.78 99.0065 127.539 96.5412C128.298 94.0759 129.505 92.0103 131.629 90.465C133.698 88.9102 136.188 88.0147 138.773 87.8954ZM126.819 65.1733C127.172 64.2587 127.371 63.682 127.614 63.1253C128.229 61.7248 128.92 60.3731 130.119 59.3616C132.576 57.291 135.247 55.5865 138.359 54.6946C139.809 54.2769 141.248 53.8305 142.893 53.334C142.662 53.245 142.421 53.1812 142.176 53.1437C141.694 53.1425 141.212 53.1822 140.735 53.2624C139.518 53.5136 138.31 53.8141 137.096 54.0967C133.995 54.8242 131.34 56.4079 128.884 58.3959C127.851 59.2236 127.069 60.3238 126.627 61.5723C126.409 62.1504 126.313 62.7677 126.345 63.3849C126.378 64.0022 126.539 64.6058 126.817 65.1576L126.819 65.1733ZM33.1631 76.7489L33.1612 76.8194L34.0884 76.8392L34.0902 76.7688L33.1631 76.7489Z" fill="#FAE35B"/>
<path d="M79.1204 39.3822C76.4022 39.3536 73.7341 38.6474 71.3577 37.3275C69.284 36.1318 69.0445 35.3858 70.3786 33.3414C74.0793 27.6764 79.2932 24.5786 86.1247 24.5583C87.6129 24.553 89.1123 25.04 90.5841 25.3898C91.1109 25.5598 91.5988 25.8328 92.0194 26.1927C92.5965 26.6294 92.6768 27.1734 92.3435 27.8384C92.2849 27.9644 92.2175 28.0862 92.1418 28.2027C90.1851 31.047 88.4868 34.0843 85.9859 36.5245C85.7682 36.696 85.5772 36.8989 85.4192 37.1266C84.7336 38.4392 83.5362 38.8837 82.1878 39.0616C81.1771 39.1886 80.1357 39.2781 79.1204 39.3822ZM87.3067 27.1288C86.7672 27.0062 86.6281 26.932 86.5039 26.9507C83.4916 27.4267 80.5674 28.3501 77.8281 29.6903C76.0575 30.5145 74.5572 31.8244 73.5016 33.4676C73.3912 33.6411 73.5156 33.9672 73.5351 34.2225C73.7276 34.2106 73.9645 34.2721 74.1071 34.1725C74.6678 33.7698 75.1755 33.2928 75.7375 32.8936C76.8637 32.0904 77.9422 31.1944 79.1583 30.5621C81.299 29.4374 83.4527 28.3037 85.8327 27.7199C86.3342 27.5494 86.8262 27.352 87.3067 27.1288Z" fill="#FAE35B"/>
</svg>
