<svg width="265" height="234" viewBox="0 0 265 234" fill="none" xmlns="http://www.w3.org/2000/svg">
<path d="M180.315 151.881C179.995 151.897 179.678 151.95 179.371 152.038C173.34 154.638 167.024 154.895 160.621 154.248C154.994 153.699 149.468 152.39 144.193 150.355C140.82 148.989 137.58 147.314 134.514 145.352C133.769 144.889 132.987 144.482 132.214 144.024C131.674 145.085 131.97 145.97 132.094 146.843C132.852 152.041 133.666 157.229 134.376 162.427C134.651 164.713 134.743 167.069 134.842 169.38C134.854 170.187 134.772 170.993 134.598 171.78C134.551 172.239 134.375 172.675 134.09 173.037C133.804 173.399 133.422 173.672 132.987 173.824C132.072 174.23 131.127 174.567 130.161 174.83C126.094 175.634 121.895 175.47 117.904 174.349C116.677 173.986 115.55 173.304 114.335 172.829C111.833 171.817 110.16 170.143 109.609 167.412C109.292 165.83 108.836 164.276 108.414 162.716C108.325 162.356 108.181 162.01 107.985 161.433C107.162 161.986 106.505 162.41 105.862 162.841C103.109 164.693 100.04 166.025 96.8072 166.774C93.5473 167.629 90.8426 166.713 88.5182 164.396C87.6556 163.53 86.8297 162.649 86.0037 161.769C80.9602 156.383 75.9883 150.935 70.8773 145.623C66.6027 141.187 62.1721 136.906 57.785 132.567C57.5145 132.325 57.2293 132.101 56.9308 131.895C56.2254 132.098 56.4491 132.575 56.4823 132.897C57.2134 140.029 58.066 147.152 58.6704 154.297C59.0944 158.93 59.1069 163.592 58.7077 168.227C58.5009 170.458 57.4927 171.763 55.363 172.306C52.6345 173.029 49.7996 173.262 46.9896 172.997C43.7601 172.663 40.8229 171.435 37.9872 169.893C37.4415 169.629 36.9676 169.237 36.6061 168.751C36.2446 168.264 36.0061 167.697 35.911 167.099C35.658 165.605 35.3063 164.12 35.1897 162.592C34.9376 158.971 34.6618 155.334 34.6254 151.714C34.5889 142.721 34.6903 133.728 34.7315 124.735C34.735 123.741 34.6679 122.751 34.6273 121.595C33.8124 121.511 33.1424 121.384 32.4652 121.38C28.5127 121.428 24.5901 120.69 20.9256 119.208C18.4075 118.2 16.1026 116.725 14.1324 114.86C13.7049 114.449 13.4313 113.904 13.3575 113.315C13.3473 112.719 13.1575 112.139 12.8127 111.652C12.1117 110.676 12.3544 109.699 13.0943 108.897C14.163 107.687 15.3133 106.551 16.537 105.497C21.5497 101.403 26.5703 97.3298 32.0803 93.9125C32.9309 93.3847 33.7472 92.7983 34.7369 92.1338C34.7655 90.8617 34.7894 89.5615 34.8206 88.2646C34.9344 83.6128 34.9777 78.964 35.191 74.3221C35.308 71.8089 35.7008 69.2981 36.0002 66.793C36.3676 63.73 38.9198 63.4795 40.6558 64.2695C41.1958 64.5175 41.6426 64.9312 41.9312 65.4505C42.3628 66.3649 42.71 67.3168 42.9685 68.2943C44.3357 72.9429 45.6748 77.5961 47.0368 82.2466C47.1942 82.7843 47.4549 83.3423 47.7376 84.0832C48.7427 83.4905 49.6 82.996 50.4342 82.4566C55.7534 79.1659 61.0289 75.7603 66.4279 72.6005C70.3372 70.314 74.4118 68.2572 78.4675 66.2137C81.0117 64.9836 83.7538 64.2146 86.5665 63.9423C89.4925 63.6858 92.44 64.0319 95.2269 64.9594C98.1445 65.8386 99.7498 67.8162 100.043 70.8921C100.31 73.3032 100.324 75.7356 100.086 78.1497C99.6552 82.5738 98.851 86.9536 97.6822 91.2423C97.292 92.6015 96.8165 93.9348 96.2586 95.2342C96.0076 95.9089 95.5499 96.487 94.9509 96.8862C94.3519 97.2854 93.6422 97.4853 92.9229 97.4574C92.2607 97.4166 91.6222 97.1955 91.0767 96.8178C90.5311 96.4402 90.0994 95.9204 89.8282 95.3149C89.349 94.4251 89.001 93.4708 88.7949 92.4815C88.3233 89.8044 87.9392 87.1058 87.5884 84.4006C87.3741 82.8207 87.2617 81.2259 87.0661 79.2563C86.2528 79.9133 85.6961 80.2871 85.2439 80.7466C82.7929 83.1581 80.3747 85.5929 77.933 88.0129C71.5501 94.4529 64.4051 100.102 57.5032 105.981C56.884 106.504 56.268 107.02 55.6763 107.569C55.5489 107.689 55.5346 107.933 55.4215 108.263C56.8412 108.726 58.2499 109.222 59.6726 109.63C65.2862 111.335 70.6168 113.862 75.4913 117.127C84.5923 123.074 92.6384 130.267 100.199 138.021C101.893 139.766 103.529 141.532 105.197 143.287C105.521 143.617 105.907 143.894 106.412 144.323C106.542 143.982 106.633 143.626 106.683 143.264C106.603 140.234 106.528 137.202 106.402 134.178C105.903 122.158 106.374 110.117 107.81 98.1727C108.448 92.045 109.467 85.9629 110.861 79.9618C111.42 77.7084 112.099 75.4862 112.894 73.3048C113.406 71.9871 114.049 70.7243 114.815 69.5355C116.345 67.045 119.383 66.8779 121.506 68.0403C122.175 68.4803 122.683 69.1252 122.955 69.8784C123.343 70.9214 123.597 72.0092 123.712 73.116C124.609 80.3447 125.472 87.5624 126.301 94.7692C126.718 98.382 127.014 102.01 127.402 105.628C127.488 106.402 127.724 107.161 127.922 108.071C128.721 107.737 129.371 107.483 129.981 107.202C133.383 105.653 136.935 105.314 140.638 105.604C144.952 105.943 148.911 107.391 152.769 109.2C154.032 109.833 155.192 110.655 156.209 111.636C157.928 113.227 157.688 114.885 155.703 116.06C155.186 116.365 154.585 116.529 154.049 116.799C152.788 117.442 151.542 118.061 150.292 118.765C149.165 119.358 148.188 120.198 147.432 121.222C146.676 122.247 146.161 123.429 145.926 124.68C144.638 131.22 146.22 136.869 151.15 141.503C152.493 142.783 153.849 142.984 155.561 142.27C158.479 141.05 160.872 138.837 162.316 136.023C163.594 133.606 164.457 130.991 164.87 128.289C165.663 123.489 165.564 118.585 164.58 113.821C163.478 108.3 160.137 104.387 155.488 101.522C151.186 98.8784 146.778 96.4121 142.451 93.8133C138.805 91.6184 135.249 89.3171 132.496 85.9864C128.184 80.7639 127.158 75.0349 129.751 68.7198C131.104 65.4343 133.255 62.5384 136.01 60.2948C141.229 55.8915 147.753 53.3306 154.574 53.0084C163.195 52.4647 171.8 54.2937 179.454 58.2967C181.523 59.3595 183.434 60.7042 185.133 62.2924C186.268 63.3102 187.128 64.5982 187.632 66.037C188.838 69.6832 186.686 72.8649 182.88 73.056C179.361 73.233 176.625 71.731 174.465 69.0943C173.866 68.2811 173.325 67.4272 172.844 66.5388C172.369 65.7637 171.915 64.9807 171.44 64.2056C170.589 62.8209 169.41 62.3146 167.837 62.8608C167.555 62.9683 167.228 62.9558 166.951 63.0614C160.838 65.4298 156.1 69.2577 153.817 75.6338C153.15 77.4436 152.914 79.3836 153.127 81.3005C153.339 83.2174 153.995 85.0584 155.042 86.6781C155.684 87.8303 156.598 88.8073 157.706 89.5231C160.386 91.1424 163.039 92.8018 165.732 94.3923C168.776 96.1834 171.898 97.8492 174.925 99.6888C178.625 101.983 181.966 104.811 184.84 108.081C187.956 111.442 190.012 115.648 190.75 120.171C190.907 121.163 191.133 122.147 191.367 123.355C192.006 123.467 192.657 123.5 193.305 123.452C196.4 122.891 199.581 123.007 202.627 123.792C205.142 124.497 207.614 125.35 210.028 126.348C210.663 126.659 211.247 127.065 211.76 127.552C214.003 129.374 214.008 130.968 211.775 132.698C210.978 133.319 210.108 133.843 209.288 134.436C207.42 135.66 206.099 137.561 205.604 139.739C204.932 142.679 204.713 145.518 205.649 148.395C206.212 150.122 206.755 151.858 207.431 153.536C208.205 155.304 209.384 156.865 210.873 158.093C211.319 158.572 211.913 158.887 212.56 158.988C213.206 159.09 213.868 158.971 214.439 158.651C216.778 157.662 218.808 156.061 220.316 154.017C223.592 149.289 225.848 144.172 226.028 138.3C226.119 134.961 225.622 131.632 224.559 128.466C223.916 126.382 222.864 124.446 221.463 122.774C220.062 121.102 218.342 119.726 216.403 118.727C214.233 117.66 211.99 116.746 209.692 115.992C205.987 114.662 202.199 113.585 198.528 112.141C195.244 110.84 192.043 109.337 188.945 107.639C186.671 106.32 184.503 104.827 182.459 103.174C181.36 102.283 180.362 101.275 179.483 100.167C176.44 96.5466 175.365 92.7729 178.467 86.9929C179.169 85.7635 180.029 84.6315 181.026 83.6258C184.02 80.4487 187.77 78.0806 191.925 76.7416C200.138 74.08 208.438 73.9017 216.814 75.1766C222.533 76.0668 228.044 77.7418 232.916 80.9872C234.27 81.8659 235.547 82.8586 236.732 83.9543C239.336 86.4394 240.211 89.5483 239.696 93.086C239.503 94.3924 238.958 95.6215 238.118 96.6409C237.534 97.4159 236.707 97.9728 235.77 98.2221C234.832 98.4715 233.838 98.3991 232.946 98.0163C231.337 97.3732 229.982 96.2213 229.089 94.7364C228.125 93.1974 227.149 91.6572 226.263 90.0707C223.869 85.8019 219.999 83.6025 215.467 82.3911C214.485 82.1753 213.467 82.1856 212.49 82.4213C207.431 83.5268 202.944 88.5141 202.288 93.6416C202.15 94.5977 202.216 95.5721 202.481 96.5011C202.746 97.4301 203.204 98.2927 203.825 99.0323C205.409 101.02 207.406 102.641 209.677 103.781C212.098 105.007 214.586 106.097 217.128 107.046C220.446 108.255 223.851 109.221 227.202 110.327C230.768 111.46 234.21 112.95 237.476 114.775C238.61 115.43 239.741 116.105 240.841 116.827C249.723 122.654 253.198 131.119 252.804 141.46C252.571 147.634 250.152 153.027 246.79 158.046C244.935 160.718 242.463 162.901 239.583 164.412C234.686 167.078 229.259 168.626 223.692 168.945C216.611 169.435 209.553 169.17 202.616 167.453C197.68 166.234 192.983 164.452 188.758 161.57C185.451 159.311 182.667 156.572 180.94 152.891C180.751 152.543 180.542 152.205 180.315 151.881ZM76.0709 72.1668C75.9425 72.3886 75.7418 72.5594 75.5024 72.6508C75.263 72.7421 74.9995 72.7484 74.756 72.6685C74.149 73.725 72.9881 73.9408 72.0222 74.4169C67.3203 76.7353 62.7401 79.2928 58.2996 82.0795C55.7481 83.7105 53.2242 85.3668 50.6839 87.0115C46.1984 89.9184 41.6938 92.7907 37.2327 95.7301C31.351 99.6299 25.5047 103.576 20.3397 108.446C19.9626 108.805 19.2567 109.038 19.5492 109.883C19.8298 109.806 20.1024 109.702 20.3631 109.572C23.7613 107.403 27.1805 105.274 30.5332 103.032C38.3317 97.8271 46.1335 92.6149 53.8733 87.3187C60.3683 82.8801 66.7922 78.349 73.6195 74.4051C74.063 74.1707 74.4655 73.8657 74.8111 73.5022C74.9443 73.3498 74.7686 72.9207 74.7409 72.6444C75.3456 72.8978 75.8682 72.9674 76.0452 72.1467C76.1943 72.2364 76.3579 72.2994 76.5287 72.3328C76.6157 72.3415 76.7167 72.1834 76.8104 72.0998C76.7256 72.1159 76.6398 72.1267 76.5537 72.132L76.0709 72.1668ZM53.6048 112.322L51.8779 112.198L51.894 112.49L53.6244 112.326C54.1609 113.544 55.0811 113.199 55.988 112.913C56.0075 114.029 57.0294 114.075 57.7183 114.315C67.7028 117.94 76.5162 123.525 84.6512 130.278C91.6501 136.089 98.3117 142.238 104.183 149.214C104.437 149.518 104.628 150.24 105.365 149.773C105.136 149.424 104.941 149.069 104.696 148.756C98.7294 141.092 92.3197 133.849 84.8094 127.653C77.5828 121.684 69.5972 117.062 60.5503 114.406C59.0143 113.952 57.495 113.432 55.9321 112.97L53.6048 112.322ZM155.344 55.1054C154.163 55.3468 152.987 55.6163 151.811 55.8557C148.02 56.5284 144.451 58.1161 141.413 60.4808C138.145 62.9218 135.861 66.4547 134.979 70.437C134.541 72.5207 134.723 74.687 135.503 76.6682C135.555 76.8039 135.828 76.8611 136.058 76.9944C136.16 75.9932 136.22 75.0078 136.365 74.0383C136.752 71.4341 137.247 68.8305 138.704 66.5711C140.998 63.0598 143.834 60.0591 147.755 58.3359C149.872 57.4146 152.075 56.6876 154.271 55.9573C154.792 55.7583 155.189 55.6069 155.313 55.0696C155.853 55.3648 156.462 55.5122 157.077 55.4967C157.692 55.4813 158.293 55.3036 158.818 54.9816C157.666 54.7552 156.477 54.7976 155.344 55.1054ZM126.815 130.454L126.968 131.089C127.009 131.025 127.097 130.926 127.082 130.902C126.975 130.766 126.862 130.636 126.742 130.512C126.442 129.244 126.22 127.96 126.075 126.666C125.743 120.815 128.621 116.639 133.366 113.675C136.086 111.924 139.117 110.711 142.294 110.101C142.926 109.986 143.7 110.073 144.304 109.197C143.645 109.023 142.97 108.918 142.29 108.883C135.775 109.212 130.33 111.749 126.656 117.239C124.082 121.066 123.619 125.29 125.779 129.57C125.995 129.966 126.167 130.51 126.815 130.454ZM223.962 112.364L222.82 112.394L222.858 112.493L224.009 112.377C224.162 112.7 224.23 113.177 224.484 113.325C225.796 114.068 227.134 114.77 228.506 115.406C231.686 116.94 234.654 118.88 237.336 121.176C242.07 125.108 245.422 129.914 246.447 136.062C246.87 138.739 246.92 141.47 247.147 144.163C247.134 144.464 247.138 144.766 247.157 145.067C247.214 145.356 246.964 145.798 247.498 145.959C248.871 143.152 248.679 140.189 248.504 137.303C248.141 131.369 246.04 126.145 241.64 121.961C238.611 119.136 235.09 116.89 231.252 115.333C228.781 114.357 226.37 113.364 223.962 112.364ZM115.592 79.0772L115.182 79.0364C114.523 82.7906 113.796 86.5406 113.225 90.3087C112.588 94.4968 111.819 98.687 111.577 102.892C110.889 115.109 111.092 127.296 113.313 139.383C113.504 139.912 113.751 140.419 114.051 140.895C114.132 140.479 114.187 140.059 114.216 139.636C114.022 134.803 113.785 129.968 113.631 125.132C113.145 110.291 113.158 95.4747 115.555 80.765C115.604 80.2038 115.617 79.64 115.592 79.0772ZM201.276 127.739C194.007 125.731 187.354 130.319 184.811 134.965C181.891 140.299 182.09 147.151 185.751 151.277C184.946 147.46 183.815 143.916 184.92 140.327C186.025 136.737 187.782 133.73 190.875 131.48C193.887 129.216 197.512 127.912 201.276 127.739ZM183.871 94.6556C184.385 93.3239 184.675 92.4843 185.029 91.6737C185.924 89.6346 186.931 87.6666 188.676 86.1938C192.254 83.1791 196.142 80.6973 200.673 79.3987C202.784 78.7905 204.879 78.1406 207.275 77.4177C206.938 77.2881 206.588 77.1952 206.231 77.1406C205.528 77.1389 204.826 77.1967 204.133 77.3134C202.36 77.6792 200.603 78.1167 198.835 78.5282C194.32 79.5874 190.454 81.8933 186.878 84.7878C185.373 85.9929 184.235 87.5948 183.592 89.4126C183.274 90.2543 183.134 91.1531 183.181 92.0518C183.229 92.9504 183.463 93.8294 183.869 94.6328L183.871 94.6556ZM47.5091 111.51L47.5064 111.612L48.8563 111.641L48.859 111.538L47.5091 111.51Z" fill="#FAE35B"/>
<path d="M114.423 57.1035C110.465 57.0618 106.58 56.0336 103.12 54.1119C100.101 52.371 99.7525 51.2847 101.695 48.3081C107.083 40.06 114.675 35.5497 124.621 35.5201C126.788 35.5123 128.971 36.2213 131.114 36.7307C131.881 36.9783 132.591 37.3757 133.204 37.8998C134.044 38.5355 134.161 39.3277 133.676 40.2958C133.59 40.4793 133.492 40.6566 133.382 40.8263C130.533 44.9676 128.06 49.3897 124.419 52.9428C124.102 53.1924 123.824 53.4879 123.594 53.8194C122.596 55.7304 120.852 56.3777 118.889 56.6367C117.417 56.8216 115.901 56.9518 114.423 57.1035ZM126.342 39.2627C125.557 39.0841 125.354 38.9762 125.173 39.0033C120.787 39.6964 116.53 41.0409 112.541 42.9922C109.963 44.1922 107.779 46.0994 106.242 48.4919C106.081 48.7444 106.262 49.2192 106.291 49.591C106.571 49.5737 106.916 49.6632 107.124 49.5182C107.94 48.9318 108.679 48.2374 109.497 47.6562C111.137 46.4866 112.707 45.1822 114.478 44.2615C117.595 42.624 120.731 40.9733 124.196 40.1234C124.926 39.875 125.642 39.5877 126.342 39.2627Z" fill="#FAE35B"/>
</svg>
