<svg width="265" height="303" viewBox="0 0 265 303" fill="none" xmlns="http://www.w3.org/2000/svg">
<path d="M149.988 279.968C150.146 278.769 150.302 277.607 150.454 276.481C150.09 275.883 149.519 276.085 149.067 276.08C141.502 276.278 135.72 272.847 131.154 267.143C129.622 265.236 128.394 263.09 127.027 261.055C126.708 260.578 126.375 260.105 125.998 259.558C124.642 260.062 123.388 260.522 122.133 260.998C119.29 262.081 116.457 263.203 113.599 264.258C107.103 266.713 100.324 268.345 93.4223 269.115C93.0869 269.148 92.7582 269.224 92.3329 269.298C91.5821 270.357 90.8604 271.504 90.0174 272.533C89.1745 273.562 88.2178 274.549 87.3141 275.555C84.6196 278.647 80.9344 280.707 76.8891 281.381C76.1404 281.5 75.3787 281.513 74.6264 281.419C73.572 281.306 73.1726 280.849 73.019 279.778C72.9732 279.27 72.9563 278.76 72.9684 278.25C72.648 278.113 72.3203 277.993 71.9869 277.891C64.2627 275.889 58.6289 271.169 54.6033 264.421C52.2467 260.477 50.6259 256.202 49.3612 251.796C47.5818 245.58 46.2763 239.308 46.4025 232.801C46.5004 227.787 47.0714 222.849 48.6966 218.068C48.9377 217.359 48.966 216.58 49.1586 215.854C49.4205 214.881 49.5906 213.835 50.0764 212.978C51.9228 209.732 54.3115 206.827 57.1389 204.388C60.7034 201.322 64.973 199.846 69.7018 199.559C74.5769 199.266 78.9017 200.537 82.7133 203.584C83.3682 204.104 84.0644 204.581 84.8043 205.147C92.8944 200.171 101.606 198.05 111.207 199.14C111.255 198.353 111.306 197.638 111.342 196.891C111.513 193.768 111.574 190.636 111.891 187.522C112.082 185.684 112.68 183.891 113.096 182.079L113.399 180.683C112.624 180.775 112.066 180.822 111.515 180.909C108.091 181.488 104.605 181.615 101.149 181.286C95.5563 180.697 91.275 178.012 88.343 173.207C86.3935 170.01 85.0359 166.543 83.7927 163.03C83.0894 161.036 82.4471 159.02 81.7744 157.016C81.6604 156.778 81.5214 156.553 81.3597 156.344C81.144 156.596 80.9228 156.75 80.8607 156.95C79.8183 160.255 78.6551 163.534 77.7918 166.892C77.1638 169.335 76.9079 171.88 76.5234 174.382C76.3196 175.643 76.4423 176.936 76.8798 178.137C77.0429 178.617 77.1631 179.111 77.239 179.612C77.3372 180.03 77.2902 180.468 77.1058 180.856C76.9215 181.243 76.6108 181.556 76.2248 181.743C73.494 183.272 70.6846 183.583 67.7806 182.428C65.5441 175.093 63.2386 167.93 61.1843 160.691C57.328 147.098 55.1933 133.262 55.7742 119.079C55.9431 114.767 56.4093 110.472 57.1696 106.224C57.2887 105.58 57.2969 104.921 57.1938 104.275C55.5888 106.567 54.3087 109.071 53.3899 111.714C52.7796 113.562 51.6346 114.457 49.8972 114.984C47.3993 115.74 44.9681 115.981 42.6354 114.805C42.5129 114.623 42.4203 114.422 42.3613 114.21C42.1232 106.511 42.1036 98.8134 43.2867 91.1703C44.6628 82.3019 47.229 73.8308 52.1309 66.2281C58.2166 56.7967 66.3973 49.8253 76.8223 45.5324C90.3116 39.9727 104.199 39.111 118.4 41.8188C118.648 41.8656 118.9 41.9002 119.165 41.9245C119.306 41.9208 119.447 41.9051 119.586 41.8774C119.519 41.4834 119.401 41.0999 119.234 40.7366C116.337 36.2703 113.229 31.9289 109.142 28.4173C107.989 27.4883 106.97 26.4036 106.115 25.1942C106.431 24.7774 106.633 24.2885 107.018 24.0323C109.338 22.4553 111.791 21.8949 114.401 23.343C117.227 24.9048 119.917 26.6694 122.162 29.0154C123.39 30.2974 124.606 31.6046 125.715 32.9895C128.888 37.0607 131.799 41.3293 134.431 45.7696C135.095 46.8602 135.705 47.9678 135.318 49.414L144.047 50.0666C144.542 49.6579 144.366 49.2207 144.297 48.8311C142.967 41.5487 145.324 35.2823 149.783 29.7008C153.257 25.353 157.797 22.4821 163.12 20.8608C170.387 18.6482 177.631 18.5875 184.8 21.2198C191.794 23.7909 197.301 28.1871 201.022 34.7434C203.163 38.5295 204.941 42.437 205.574 46.7788C205.748 47.9491 205.846 49.1294 205.869 50.3124C205.89 51.4155 205.742 52.4932 205.658 53.7253L208.12 54.9175C212.675 57.1332 216.277 60.3198 218.529 64.9431C219.295 66.552 219.79 68.2764 219.994 70.0466C220.283 72.0841 219.836 74.1581 218.732 75.8949C214.962 81.8959 209.42 84.8338 202.463 85.1644C197.131 85.4171 193.459 82.7942 191.17 78.0948C190.689 77.1038 190.291 76.0924 189.798 74.9638C189.099 75.3373 188.503 75.6226 187.947 75.9648C187.533 76.2208 187.166 76.5502 186.737 76.8801C186.831 77.2287 186.948 77.5703 187.089 77.9025C189.86 83.061 191.923 88.5468 193.996 93.9822C197.284 102.598 200.382 111.29 203.561 119.947C204.201 121.693 204.872 123.432 205.449 125.198C205.788 126.224 205.967 127.325 206.225 128.385C206.403 129.118 206.631 129.838 206.909 130.539C207.498 131.943 208.093 133.354 208.794 134.701C209.319 135.704 209.116 136.496 208.396 137.225C206.253 139.391 203.615 140.347 200.602 140.294C199.86 140.279 199.381 139.83 199.05 139.168C198.618 138.272 198.15 137.396 197.618 136.321C195.506 138.04 193.597 139.665 191.616 141.193C189.634 142.72 187.539 144.173 185.526 145.631C185.607 146.313 186.117 146.284 186.447 146.378C192.504 148.014 197.457 151.455 201.929 155.726C207.471 160.965 212.237 166.968 216.081 173.555C216.578 174.413 217.559 175.072 217.821 175.965C218.058 176.854 218.391 177.714 218.815 178.53C221.011 182.734 222.638 187.211 223.652 191.845C225.018 197.711 226.084 203.609 226.361 209.633C226.567 213.185 226.361 216.748 225.748 220.252C225.006 224.262 223.432 228.072 221.127 231.436C217.457 236.833 212.305 239.949 205.934 241.138C204.775 241.354 203.516 241.357 202.486 241.844C201.456 242.332 200.649 243.311 199.724 244.05C197.058 246.132 194.286 248.073 191.417 249.866C186.581 252.972 181.845 256.234 177.098 259.481C173.259 262.104 169.507 264.853 165.641 267.442C164.134 268.392 162.992 269.823 162.401 271.504C161.921 272.858 161.267 274.148 160.736 275.485C159.544 278.494 154.455 281.126 150.944 280.514C150.623 280.437 150.357 280.181 149.988 279.968ZM84.3986 145.217C85.9892 148.154 87.4834 150.786 88.8771 153.491C90.2707 156.196 91.5403 158.967 92.8911 161.694C94.5481 165.025 96.1929 168.367 98.3408 171.423C99.5909 173.241 101.187 174.794 103.037 175.995C104.659 177.106 106.611 177.632 108.572 177.484C110.171 177.363 111.762 177.141 113.334 176.82C115.314 176.397 117.24 175.717 119.22 175.309C125.192 174.076 130.996 172.14 136.512 169.54C136.956 169.332 137.448 169.139 137.534 168.49C136.769 168.639 136.029 168.786 135.284 168.927C130.527 169.806 125.642 169.717 120.92 168.667C118.589 168.194 116.389 167.217 114.475 165.803C108.093 161.029 105.83 154.572 106.719 146.842C107.005 144.393 107.82 142.063 108.755 139.789C111.376 133.425 115.388 128.023 120.226 123.177C121.897 121.499 123.534 119.786 125.194 118.11C125.545 117.744 125.923 117.405 126.325 117.096C131.44 113.265 136.942 110.175 143.129 108.413C147.625 107.194 152.261 106.562 156.919 106.533C161.156 106.458 165.376 107.092 169.404 108.407C172.232 109.302 174.913 110.606 177.364 112.276C180.509 114.355 182.742 117.556 183.607 121.225C184.436 124.434 184.484 127.794 183.747 131.025C182.894 134.57 181.518 137.968 179.663 141.107C179.25 141.824 178.856 142.556 178.425 143.322C178.657 143.365 178.763 143.42 178.811 143.39C179.113 143.248 179.406 143.088 179.688 142.911C185.366 139.134 190.135 134.368 194.586 129.162C194.534 128.844 194.458 128.53 194.358 128.224C192.491 123.591 190.883 118.87 189.437 114.084C188.592 111.248 187.678 108.431 186.697 105.634C184.896 100.531 183.006 95.4501 181.174 90.3549C179.478 85.4757 177.261 80.7939 174.56 76.3907C170.496 69.9255 165.46 64.5171 158.658 60.7206C150.819 56.3492 142.284 54.4337 133.628 52.7769C133.289 52.7704 132.951 52.8117 132.624 52.8995C132.211 53.6909 131.812 54.4345 131.433 55.1844C129.333 59.3491 127.711 63.7188 126.176 68.1117C122.376 79.011 119.512 90.1258 118.291 101.635C117.63 107.861 116.927 114.081 116.184 120.293C115.964 122.135 115.546 123.954 115.161 125.773C114.833 127.308 113.786 128.287 112.392 128.859C110.516 129.656 108.483 130.017 106.447 129.915C104.376 129.799 103.033 128.944 102.157 126.981C100.171 122.399 98.5345 117.675 97.2599 112.847C96.2882 109.341 95.538 105.774 94.6596 102.242C94.5747 101.893 94.618 101.358 93.9211 101.439C93.1215 103.748 92.4754 106.107 91.9868 108.501C90.6323 115.561 89.2673 122.624 87.8198 129.666C86.7404 134.883 85.5289 140.073 84.396 145.206L84.3986 145.217ZM156.306 205.792C161.782 202.021 167.95 199.769 174.296 198.113C174.973 190.974 168.684 164.84 165.006 159.503C164.584 159.713 164.127 159.913 163.686 160.15C159.002 162.683 154.346 165.272 149.628 167.743C145.208 170.057 140.776 172.351 136.095 174.111C132.383 175.539 128.591 176.748 124.739 177.733C123.762 177.971 122.801 178.272 121.95 178.509C121.847 178.719 121.762 178.937 121.695 179.162C120.587 186.583 120.895 194.007 121.722 201.427C121.8 202.124 122.588 202.875 122.438 203.439C122.23 204.155 122.162 204.904 122.236 205.646C122.626 209.278 123.528 212.804 124.442 216.328C124.557 216.582 124.703 216.821 124.877 217.038C125.66 216.478 125.927 215.675 126.379 214.999C130.77 208.559 136.789 204.925 144.631 204.711C148.511 204.594 152.423 204.502 156.303 205.782L156.306 205.792ZM172.088 155.3C173.039 156.735 174.081 158.162 174.965 159.683C177.519 164.175 179.539 168.949 180.985 173.91C183.821 183.282 185.027 192.926 185.646 202.66C185.987 208.063 186.148 213.473 186.977 218.838C187.45 221.889 188.279 224.823 190.066 227.351C193.067 231.592 197.158 234.556 201.774 236.842C201.85 236.879 201.93 236.904 202.008 236.937C202.778 237.299 203.638 237.429 204.481 237.311C205.324 237.193 206.114 236.832 206.756 236.272C208.49 234.909 209.98 233.261 211.162 231.398C213.123 228.322 214.472 224.895 215.133 221.307C216.135 215.655 215.771 210.017 215.106 204.372C214.484 199.053 213.066 193.912 211.767 188.743C211.452 187.449 210.851 186.228 210.334 184.847C208.953 185.667 208.243 186.771 207.478 188.003C208.277 188.732 209.028 189.391 209.744 190.085C210.513 190.832 211.489 191.441 211.625 192.608C209.458 194.783 207.627 195.059 203.281 193.827C202.869 194.592 202.11 195.22 202.208 196.201C203.811 197.536 205.386 198.815 206.921 200.141C207.613 200.74 208.366 201.359 208.256 202.59C207.88 202.896 207.484 203.38 206.973 203.604C204.931 204.5 202.804 204.989 200.56 204.574C199.917 204.45 199.278 204.314 198.562 204.167C197.653 206.122 196.893 208.144 196.288 210.213C196.112 210.865 195.875 211.499 195.582 212.107C195.384 212.431 195.097 212.692 194.755 212.857C194.413 213.023 194.031 213.086 193.654 213.04C193.276 212.994 192.921 212.84 192.629 212.597C192.337 212.354 192.121 212.032 192.007 211.67C191.902 211.176 191.835 210.674 191.808 210.17C191.642 208.364 192.01 206.63 192.392 204.893C192.775 203.156 193.187 201.464 193.608 199.643C192.439 198.787 191.355 197.975 190.271 197.197C189.188 196.42 187.698 195.929 186.863 194.562C187.054 194.276 187.276 194.012 187.524 193.773C188.393 193.074 189.482 192.706 190.597 192.737C192.351 192.812 194.098 192.993 195.979 193.148C196.76 191.802 197.673 190.394 198.206 188.853C197.097 187.527 196.006 186.341 195.064 185.048C194.473 184.227 193.994 183.331 193.639 182.384C193.24 181.351 193.683 180.578 194.728 180.18C195.241 179.973 195.796 179.891 196.347 179.939C196.899 179.988 197.43 180.167 197.899 180.46C198.836 181.03 199.687 181.732 200.579 182.364C201.028 182.691 201.512 182.994 202.02 183.336L206.809 178.199C206.606 177.637 206.371 177.088 206.106 176.553C201.822 168.973 196.335 162.352 189.984 156.433C188.726 155.301 187.405 154.241 186.027 153.259C184.017 151.804 181.791 150.673 179.43 149.907C177.065 151.529 174.679 153.151 172.338 154.781C172.212 154.853 172.19 155.069 172.096 155.287L172.088 155.3ZM74.8964 272.21C76.0992 269.515 76.9526 266.676 77.4355 263.764C78.7822 256.015 79.5359 248.175 79.6901 240.312C79.8302 234.818 79.9214 229.336 78.9626 223.865C78.3493 220.28 77.252 216.794 75.701 213.503C74.9308 211.9 73.899 210.435 72.6477 209.171C72.1845 208.677 71.6757 208.229 71.1281 207.83C69.4508 206.661 67.6893 206.451 65.8985 207.593C63.5371 209.091 61.2913 210.761 59.4415 212.859C58.6586 213.755 57.9279 214.653 56.9391 215.053C56.3104 215.945 56.6877 217.146 55.753 217.677C54.7134 218.262 54.5751 219.241 54.4365 220.25C53.7011 225.364 53.7369 230.559 54.5427 235.662C55.9735 244.45 58.9115 252.924 63.2271 260.711C65.4305 264.734 68.5358 268.192 72.2994 270.814C73.0413 271.358 73.7549 271.967 74.9043 272.197L74.8964 272.21ZM151.504 271.63C151.844 269.992 152.205 268.441 152.527 266.878C152.983 264.551 153.561 262.252 153.827 259.912C154.998 249.231 154.783 238.444 153.187 227.818C152.492 223.115 151.075 218.599 149.409 214.154C148.809 212.553 147.688 211.514 146.264 210.66C145.735 210.31 145.119 210.113 144.485 210.089C143.85 210.066 143.221 210.217 142.667 210.527C140.377 211.621 138.245 213.017 136.327 214.679C134.923 215.952 133.824 217.431 133.394 219.324C132.907 221.463 132.312 223.588 131.982 225.752C131.197 230.874 131.342 236.007 131.848 241.167C132.64 249.899 136.013 258.198 141.539 265.006C143.496 267.46 145.961 269.462 148.764 270.875C149.524 271.237 150.245 271.708 151.512 271.617L151.504 271.63ZM124.214 128.271C124.055 128.357 123.907 128.463 123.774 128.586C123.555 128.843 123.353 129.114 123.17 129.398C120.562 133.267 118.633 137.552 117.463 142.069C117.068 143.625 116.81 145.213 116.694 146.815C116.594 148.317 116.465 149.851 117.16 151.326C119.87 151.834 122.507 151.938 125.11 151.19C125.333 149.89 125.538 148.729 125.742 147.563C125.829 146.884 126.133 146.252 126.609 145.76C127.086 145.269 127.708 144.945 128.384 144.836C131.204 144.205 132.035 144.764 132.581 147.328C132.751 148.025 132.593 148.891 133.394 149.346C136.25 148.559 141.792 146.193 143.66 144.93C143.557 143.883 143.425 142.796 143.348 141.707C143.299 141.035 143.307 140.357 143.325 139.684C143.364 138.33 144.094 137.487 145.345 137.072C145.746 136.941 146.156 136.841 146.572 136.773C147.871 136.553 148.856 136.927 149.545 138.148C149.985 138.924 150.175 139.904 151.101 140.506C152.922 139.423 154.628 138.157 156.192 136.729C155.994 136.083 155.843 135.521 155.657 134.971C155.226 133.687 154.741 132.424 154.352 131.129C153.963 129.835 154.276 129.301 155.595 128.876C157.076 128.405 158.425 128.557 159.62 129.629C160.299 130.232 160.992 130.817 161.76 131.483C162.258 130.967 162.726 130.424 163.163 129.856C165.154 126.909 167.127 123.953 169.08 120.99C169.498 120.357 169.784 119.633 170.23 119.022C170.738 118.368 171.279 117.741 171.852 117.142C170.177 114.816 167.67 113.059 163.838 111.628C158.744 109.705 153.191 109.351 147.894 110.611C149.045 112.459 149.083 112.461 148.735 114.61C148.292 117.452 147.834 120.289 147.334 123.123C147.012 124.952 146.604 126.769 146.224 128.591C145.701 131.086 144.08 132.515 141.723 133.273C138.264 134.389 134.909 134.386 131.681 132.508C131.023 132.125 130.33 131.799 129.672 131.42C127.852 130.378 126.03 129.311 124.222 128.258L124.214 128.271ZM158.87 53.5356C159.009 52.5893 159.052 51.9141 159.207 51.263C160.149 47.3914 162.047 44.1107 165.752 42.3811C167.97 41.297 170.395 40.7001 172.863 40.6307C175.331 40.5612 177.785 41.0206 180.061 41.9782C181.657 42.582 183.072 43.5838 184.172 44.8884C185.272 46.193 186.02 47.7571 186.345 49.4322C187.227 53.5248 186.43 57.3651 183.843 60.699C182.656 62.229 181.214 63.5556 179.899 64.9839L178.842 66.1204C180.603 68.0708 182.032 70.1201 183.73 71.9491C188.76 68.6042 193.697 61.4953 193.969 57.3027C191.921 56.1871 189.455 57.1382 187.215 55.9918C187.511 55.4948 187.669 54.9909 188.006 54.6909C189.26 53.6209 190.781 53.114 192.385 52.8305C193.289 52.6733 194.234 52.6722 195.089 52.1943C195.369 50.9738 195.19 49.8166 195.014 48.6516C194.307 43.9585 192.313 39.7894 189.878 35.7795C186.673 30.5087 182.083 26.9643 176.432 24.6461C174.469 23.8474 172.384 23.3869 170.267 23.284C168.566 23.1944 166.871 23.5387 165.339 24.2844C162.115 25.821 159.323 28.1344 157.215 31.0167C153.978 35.3695 151.745 40.1542 151.349 45.6588C151.258 46.9257 151.08 48.1843 150.97 49.445C150.913 50.0906 150.917 50.7436 150.903 51.4007L158.87 53.5356ZM124.149 255.712C123.959 254.931 123.821 254.366 123.684 253.804C122.773 250.546 121.882 247.283 121.661 243.887C121.48 241.109 121.335 238.329 121.179 235.549C121.133 234.799 121.233 234.058 120.602 233.421C119.428 232.273 118.813 230.776 118.15 229.315C117.333 227.475 116.498 225.654 115.734 223.941C115.364 223.756 114.953 223.668 114.54 223.686C114.127 223.704 113.725 223.827 113.372 224.043C113.548 225.478 113.739 226.824 113.873 228.162C113.963 229.049 113.734 229.4 112.941 229.737C111.14 230.501 109.346 230.613 107.63 229.664C105.842 230.439 104.138 231.105 102.196 230.865C100.746 230.69 99.5768 230.258 99.0411 228.755C98.8541 228.285 98.6207 227.834 98.3443 227.41C98.2693 227.284 98.0817 227.227 97.8267 227.06L96.106 227.715C96.4656 232.652 96.8096 237.433 97.161 242.29L99.0665 243.304C97.1548 250.504 95.4105 257.677 94.0644 265.061C94.4538 265.014 94.84 264.943 95.2209 264.849C98.1151 263.916 101.02 263.013 103.893 262.021C110.201 259.843 116.466 257.523 123.008 256.108C123.398 255.993 123.782 255.857 124.157 255.699L124.149 255.712ZM161.212 208.691C164.659 213.293 165.567 215.321 166.778 221.144C167.433 224.291 168.151 227.422 168.736 230.582C170.382 239.483 170.66 248.392 168.674 257.291C168.641 257.639 168.642 257.988 168.677 258.336C168.961 258.232 169.235 258.104 169.497 257.955C177.375 252.092 185.807 247.076 194.032 241.745C194.304 241.507 194.547 241.237 194.756 240.941C190.715 239.516 187.4 237.191 184.242 234.613C179.538 230.767 176.999 225.83 176.262 219.829C175.707 215.291 175.325 210.748 175.181 206.18C175.14 204.934 174.975 203.696 174.842 202.147C169.731 203.399 165.434 205.746 161.22 208.678L161.212 208.691ZM174.831 126.953C173.248 128.993 171.987 130.792 170.542 132.43C169.052 134.122 167.387 135.658 165.86 137.201C166.167 138.885 167.327 139.932 168.157 141.296C165.207 143.518 162.213 143.113 159.197 142C158.131 142.673 157.108 143.27 156.148 143.951C155.135 144.663 153.851 145.019 153.118 146.118C153.354 146.921 153.582 147.645 153.772 148.378C154.376 150.71 154.574 151.46 151.403 152.306C151.076 152.39 150.741 152.443 150.404 152.464C148.32 152.602 146.508 152.241 145.705 149.962C145.674 149.833 145.438 149.776 145.17 149.601L133.547 153.738C133.573 154.722 133.642 155.643 133.602 156.558C133.549 157.598 133.972 158.485 134.496 159.348C133.016 161.13 131.113 161.387 129.144 161.312C127.176 161.237 126.518 160.629 126.043 158.65C125.768 157.516 125.492 156.386 125.224 155.284C122.257 155.116 119.902 155.35 118.501 155.939C120.024 160.403 125.517 165.756 132.472 165.345C133.653 165.264 134.825 165.082 135.974 164.799C140.421 163.756 144.743 162.238 148.865 160.271C157.866 155.97 165.076 149.653 170.317 141.14C172.253 138.052 173.653 134.659 174.457 131.104C174.756 129.874 175.055 128.645 174.839 126.94L174.831 126.953ZM111.657 205.133C109.54 204.54 107.437 203.944 105.342 203.305C103.553 202.788 101.666 202.707 99.8392 203.068C96.1849 203.775 92.6819 205.114 89.4876 207.025C88.9448 207.382 88.4225 207.77 87.9231 208.186C88.0286 208.468 88.1591 208.74 88.3132 208.999C91.236 212.902 93.18 217.275 94.5355 221.932C94.6763 222.503 94.8804 223.057 95.1442 223.583C95.2432 223.762 95.7104 223.814 95.9909 223.783C96.0977 223.736 96.1906 223.663 96.2604 223.569C96.3303 223.476 96.3747 223.366 96.3894 223.25C96.1509 222.27 95.8696 221.297 95.5891 220.327C95.0914 218.601 95.3382 218.098 97.0274 217.465C97.5798 217.257 98.1522 217.106 98.7356 217.016C100.672 216.729 102.424 216.993 103.76 218.656C104.112 219 104.491 219.315 104.894 219.598C104.841 218.303 104.777 217.388 104.769 216.474C104.749 214.51 105.381 213.739 107.307 213.348C107.639 213.292 107.974 213.254 108.31 213.233C109.559 213.114 110.471 213.63 110.905 214.788C111.399 216.046 111.781 217.342 112.231 218.614C112.364 218.991 112.553 219.344 112.748 219.781L114.168 219.435C113.677 217.117 113.124 214.831 112.716 212.518C112.313 210.09 112.026 207.666 111.662 205.106L111.657 205.133ZM206.264 80.4007C206.78 79.8023 207.224 79.3062 207.654 78.7953C209.59 76.4768 210.022 73.8782 209.312 70.9776C208.463 67.4902 206.573 64.6771 204.037 62.2397C203.693 61.9059 203.372 61.4521 202.647 61.6766C201.173 64.1155 199.616 66.6148 197.468 68.6709C197.249 68.8773 197.112 69.1566 197.084 69.4566C197.055 69.7566 197.137 70.0566 197.315 70.3004C198.462 72.2375 199.581 74.237 200.822 76.1329C202.063 78.0287 203.745 79.5843 206.269 80.3737L206.264 80.4007ZM170.959 44.9551C171.034 44.9686 171.111 44.9723 171.187 44.9661C171.208 44.961 171.209 44.8574 171.217 44.8C171.143 44.7852 171.068 44.7824 170.993 44.7917C170.976 44.8107 170.974 44.9108 170.959 44.9551Z" fill="#54BFFB"/>
<path d="M150.783 84.865C151.739 85.1494 152.451 85.3863 153.172 85.5726C156.043 86.3033 158.931 86.9522 161.779 87.7585C163.728 88.3111 165.64 89.035 167.524 89.7621C168.623 90.1929 168.829 90.7225 168.548 91.7515C168.228 92.9408 167.674 94.0542 166.918 95.0262C166.162 95.9983 165.219 96.8093 164.145 97.4117C163.311 97.8562 162.339 97.9607 161.43 97.7031C159.444 97.2817 157.452 96.8838 155.492 96.3747C153.126 95.7612 150.782 95.0425 148.4 94.3592C147.517 95.6047 147.6 97.0216 147.211 98.2911C146.821 99.5606 146.233 100.831 146.755 102.096C146.493 102.561 146.14 102.969 145.716 103.293C145.292 103.618 144.807 103.854 144.29 103.986C142.501 104.573 140.694 104.953 138.805 104.582C136.916 104.211 136.498 103.696 136.586 101.838C136.619 100.825 136.756 99.8172 136.995 98.8315C137.475 96.9488 138.076 95.0957 138.627 93.2292C138.79 92.6721 138.942 92.1107 139.126 91.4563C135.387 89.7549 131.321 88.9533 128.062 86.5993C128.317 83.2641 129.821 81.6864 132.853 81.7904C135.295 81.8794 137.729 82.2583 140.164 82.5336C140.992 82.6275 141.811 82.8049 142.577 82.9323C143.441 82.2456 143.655 81.2884 144.135 80.514C145.303 78.6521 146.407 76.7507 147.632 74.9267C148.674 73.38 150.287 72.9025 152.075 72.9805C153.214 73.0284 153.77 73.6761 153.606 74.8242C153.46 75.8288 153.238 76.8212 152.944 77.793C152.289 80.0654 151.57 82.3165 150.783 84.865Z" fill="#54BFFB"/>
<path d="M98.1206 137.805C96.568 138.202 94.9501 138.272 93.3688 138.012C91.7808 137.756 90.8211 136.834 90.2397 135.402C90.0833 135.053 90.0204 134.67 90.0574 134.29C90.0944 133.909 90.23 133.545 90.4506 133.234C90.9799 132.365 91.7287 131.652 92.6214 131.165C94.8185 130.056 97.29 129.608 99.7364 129.876C100.755 129.942 101.724 130.335 102.5 130.998C104.049 132.354 104.142 134.222 102.625 135.611C101.927 136.214 101.148 136.717 100.311 137.105C99.6001 137.395 98.8678 137.629 98.1206 137.805Z" fill="#54BFFB"/>
</svg>
