<svg width="179" height="205" viewBox="0 0 179 205" fill="none" xmlns="http://www.w3.org/2000/svg">
<path d="M101.202 189.424C101.31 188.616 101.414 187.833 101.517 187.074C101.272 186.671 100.886 186.807 100.582 186.804C95.4831 186.937 91.5862 184.624 88.509 180.78C87.4766 179.495 86.6489 178.048 85.7273 176.677C85.5122 176.356 85.2877 176.037 85.0336 175.668C84.1203 176.007 83.2746 176.318 82.4289 176.638C80.5129 177.369 78.6031 178.125 76.6772 178.835C72.2987 180.49 67.7302 181.59 63.0783 182.109C62.8523 182.132 62.6307 182.183 62.3441 182.233C61.8381 182.946 61.3516 183.719 60.7835 184.413C60.2154 185.106 59.5706 185.771 58.9615 186.45C57.1454 188.534 54.6617 189.922 51.9352 190.377C51.4306 190.457 50.9172 190.465 50.4102 190.402C49.6995 190.326 49.4303 190.018 49.3268 189.296C49.2959 188.954 49.2845 188.61 49.2927 188.266C49.0767 188.174 48.8559 188.093 48.6311 188.024C43.4252 186.675 39.6281 183.494 36.9149 178.946C35.3265 176.287 34.2342 173.406 33.3818 170.437C32.1825 166.247 31.3026 162.02 31.3877 157.634C31.4537 154.254 31.8385 150.927 32.9338 147.705C33.0964 147.227 33.1154 146.702 33.2452 146.212C33.4217 145.557 33.5364 144.851 33.8638 144.274C35.1082 142.086 36.7182 140.128 38.6238 138.484C41.0263 136.418 43.9039 135.423 47.091 135.23C50.3768 135.032 53.2916 135.889 55.8606 137.942C56.302 138.293 56.7712 138.614 57.2699 138.996C62.7225 135.642 68.594 134.212 75.0646 134.947C75.0972 134.417 75.1319 133.935 75.1561 133.431C75.2711 131.327 75.3123 129.215 75.5259 127.117C75.655 125.878 76.0579 124.669 76.3382 123.448L76.5423 122.507C76.0197 122.57 75.644 122.601 75.2723 122.659C72.9646 123.05 70.6156 123.136 68.2857 122.914C64.5166 122.517 61.6311 120.707 59.6549 117.469C58.341 115.314 57.426 112.977 56.5881 110.609C56.1141 109.266 55.6812 107.907 55.2278 106.556C55.151 106.396 55.0573 106.244 54.9483 106.104C54.8029 106.273 54.6539 106.377 54.612 106.512C53.9094 108.739 53.1254 110.949 52.5436 113.212C52.1204 114.859 51.9479 116.574 51.6887 118.26C51.5514 119.111 51.6341 119.982 51.9289 120.791C52.0388 121.115 52.1198 121.448 52.171 121.786C52.2372 122.067 52.2055 122.363 52.0813 122.624C51.957 122.885 51.7476 123.096 51.4874 123.222C49.647 124.253 47.7534 124.462 45.7962 123.684C44.2888 118.74 42.735 113.912 41.3504 109.033C38.7513 99.8713 37.3125 90.5463 37.7041 80.9873C37.8179 78.081 38.1321 75.186 38.6445 72.323C38.7248 71.8892 38.7303 71.445 38.6608 71.0094C37.5791 72.5544 36.7163 74.2416 36.0971 76.0231C35.6857 77.2685 34.914 77.8722 33.743 78.227C32.0595 78.7365 30.4209 78.8989 28.8487 78.1065C28.7661 77.9837 28.7037 77.8484 28.664 77.7058C28.5035 72.5163 28.4902 67.3284 29.2876 62.1771C30.2151 56.1999 31.9447 50.4905 35.2485 45.3664C39.3502 39.0098 44.8638 34.3112 51.8902 31.4178C60.9818 27.6706 70.3414 27.0899 79.9132 28.9149C80.0802 28.9464 80.2502 28.9698 80.4285 28.9861C80.5238 28.9836 80.6187 28.973 80.7121 28.9544C80.667 28.6889 80.5874 28.4304 80.4751 28.1855C78.5222 25.1753 76.428 22.2493 73.6732 19.8824C72.8958 19.2564 72.2092 18.5253 71.633 17.7101C71.846 17.4292 71.9824 17.0997 72.2416 16.9271C73.8053 15.8641 75.4587 15.4865 77.2176 16.4625C79.1221 17.5151 80.9354 18.7044 82.4482 20.2856C83.2761 21.1497 84.0956 22.0307 84.8432 22.9641C86.9817 25.708 88.9437 28.585 90.7173 31.5777C91.1652 32.3127 91.576 33.0592 91.3153 34.0339L97.1987 34.4738C97.5325 34.1983 97.4135 33.9037 97.367 33.6411C96.4707 28.7329 98.0592 24.5094 101.065 20.7476C103.406 17.8172 106.466 15.8822 110.054 14.7895C114.952 13.2983 119.834 13.2573 124.665 15.0314C129.38 16.7643 133.091 19.7273 135.599 24.1462C137.042 26.6979 138.241 29.3315 138.667 32.2578C138.784 33.0466 138.851 33.8421 138.866 34.6394C138.88 35.3829 138.78 36.1093 138.724 36.9397L140.383 37.7432C143.453 39.2366 145.881 41.3843 147.399 44.5004C147.915 45.5847 148.248 46.7469 148.386 47.94C148.581 49.3133 148.279 50.7111 147.535 51.8817C144.994 55.9262 141.259 57.9063 136.57 58.1292C132.976 58.2995 130.502 56.5317 128.959 53.3644C128.634 52.6965 128.366 52.0148 128.034 51.2541C127.563 51.5059 127.161 51.6982 126.787 51.9288C126.508 52.1013 126.261 52.3233 125.971 52.5457C126.034 52.7806 126.113 53.0109 126.209 53.2348C128.076 56.7115 129.466 60.4089 130.864 64.0723C133.079 69.8793 135.168 75.7372 137.31 81.5719C137.742 82.7492 138.194 83.9213 138.583 85.1113C138.811 85.8027 138.932 86.5451 139.106 87.2596C139.226 87.7535 139.38 88.2385 139.566 88.7111C139.964 89.6576 140.365 90.6082 140.837 91.5164C141.191 92.1922 141.054 92.7258 140.569 93.2175C139.124 94.6772 137.347 95.3216 135.316 95.2856C134.816 95.2755 134.493 94.9731 134.27 94.527C133.979 93.9232 133.663 93.3328 133.305 92.6083C131.881 93.7666 130.594 94.8617 129.259 95.8914C127.924 96.9211 126.511 97.8999 125.155 98.8825C125.209 99.3423 125.553 99.3233 125.775 99.3862C129.858 100.489 133.196 102.808 136.21 105.687C139.946 109.218 143.158 113.264 145.749 117.703C146.084 118.281 146.745 118.726 146.921 119.327C147.081 119.926 147.306 120.506 147.591 121.057C149.072 123.89 150.168 126.907 150.851 130.03C151.772 133.984 152.491 137.959 152.677 142.02C152.816 144.413 152.677 146.815 152.264 149.176C151.764 151.879 150.703 154.447 149.149 156.714C146.676 160.351 143.204 162.452 138.91 163.253C138.129 163.398 137.28 163.401 136.586 163.729C135.891 164.058 135.348 164.718 134.724 165.216C132.927 166.619 131.059 167.927 129.126 169.136C125.866 171.229 122.674 173.428 119.474 175.616C116.887 177.384 114.358 179.237 111.753 180.982C110.737 181.622 109.967 182.587 109.569 183.719C109.246 184.632 108.805 185.501 108.447 186.403C107.643 188.431 104.213 190.204 101.847 189.792C101.631 189.74 101.452 189.567 101.202 189.424ZM56.9965 98.6036C58.0685 100.583 59.0756 102.357 60.0149 104.18C60.9542 106.003 61.8098 107.871 62.7203 109.709C63.8371 111.954 64.9456 114.206 66.3933 116.266C67.2359 117.491 68.3114 118.538 69.5586 119.347C70.6515 120.097 71.9673 120.451 73.2887 120.351C74.367 120.27 75.439 120.12 76.4985 119.904C77.8333 119.618 79.131 119.161 80.4658 118.885C84.4905 118.055 88.4026 116.749 92.1199 114.997C92.4195 114.857 92.7512 114.727 92.809 114.289C92.2932 114.39 91.7945 114.489 91.2923 114.584C88.0864 115.176 84.794 115.117 81.6117 114.409C80.0402 114.09 78.5575 113.431 77.2677 112.479C72.9662 109.261 71.4411 104.909 72.04 99.699C72.2332 98.0485 72.7821 96.4783 73.4123 94.9455C75.1789 90.6562 77.8827 87.0152 81.1433 83.749C82.2698 82.6183 83.3729 81.4633 84.4923 80.3343C84.7287 80.0875 84.9835 79.859 85.2546 79.6508C88.7017 77.0687 92.4097 74.9857 96.5799 73.7986C99.6104 72.977 102.735 72.5511 105.874 72.5316C108.73 72.481 111.574 72.9079 114.289 73.7944C116.195 74.3977 118.002 75.2762 119.654 76.402C121.774 77.8031 123.279 79.9606 123.861 82.4337C124.42 84.5962 124.452 86.8611 123.956 89.0386C123.381 91.4279 122.453 93.7181 121.203 95.8336C120.925 96.3171 120.659 96.81 120.369 97.3263C120.525 97.3555 120.597 97.3929 120.629 97.3726C120.833 97.277 121.03 97.1691 121.22 97.0494C125.047 94.5043 128.261 91.2917 131.261 87.7828C131.226 87.5683 131.175 87.3569 131.107 87.1505C129.849 84.0284 128.766 80.8463 127.791 77.6203C127.221 75.7092 126.605 73.8108 125.944 71.9253C124.731 68.486 123.456 65.0616 122.222 61.6275C121.079 58.339 119.584 55.1835 117.764 52.2159C115.025 47.8584 111.63 44.2132 107.046 41.6544C101.763 38.7082 96.0106 37.4172 90.1766 36.3005C89.9482 36.2961 89.7203 36.324 89.4996 36.3832C89.2212 36.9165 88.9523 37.4177 88.6969 37.9231C87.2814 40.7301 86.1884 43.6752 85.1539 46.6359C82.5928 53.9819 80.6621 61.4731 79.8392 69.2299C79.3937 73.4266 78.9204 77.6184 78.4194 81.8054C78.2709 83.0466 77.9893 84.2729 77.7301 85.4987C77.509 86.5335 76.8032 87.1934 75.8638 87.579C74.599 88.1156 73.229 88.3589 71.8567 88.2906C70.4608 88.2122 69.5561 87.6357 68.9652 86.3131C67.6271 83.2251 66.5238 80.0406 65.6648 76.7866C65.0099 74.4239 64.5043 72.0199 63.9122 69.6394C63.855 69.4043 63.8842 69.0437 63.4145 69.0983C62.8756 70.6542 62.4401 72.2441 62.1108 73.8574C61.1979 78.6161 60.2779 83.3764 59.3023 88.123C58.5748 91.6389 57.7583 95.1366 56.9947 98.5966L56.9965 98.6036ZM105.461 139.431C109.152 136.889 113.309 135.371 117.586 134.255C118.043 129.443 113.804 111.829 111.325 108.233C111.041 108.374 110.732 108.509 110.435 108.668C107.278 110.376 104.14 112.121 100.96 113.786C97.981 115.345 94.9938 116.892 91.8393 118.078C89.3376 119.04 86.7818 119.855 84.185 120.519C83.5269 120.68 82.879 120.882 82.3054 121.042C82.236 121.183 82.1786 121.331 82.1337 121.482C81.3871 126.484 81.5945 131.488 82.1522 136.488C82.2045 136.959 82.7359 137.464 82.6344 137.845C82.4945 138.327 82.4483 138.832 82.4985 139.332C82.7609 141.78 83.3694 144.157 83.9849 146.532C84.0625 146.703 84.161 146.864 84.2783 147.01C84.8063 146.633 84.9857 146.091 85.2907 145.636C88.2499 141.295 92.3069 138.846 97.5925 138.702C100.207 138.623 102.844 138.561 105.459 139.423L105.461 139.431ZM116.098 105.4C116.739 106.367 117.441 107.329 118.037 108.354C119.758 111.381 121.12 114.599 122.094 117.942C124.006 124.259 124.819 130.759 125.236 137.32C125.465 140.961 125.574 144.607 126.133 148.223C126.452 150.279 127.011 152.257 128.215 153.961C130.238 156.82 132.995 158.817 136.106 160.358C136.157 160.383 136.211 160.4 136.263 160.422C136.783 160.666 137.362 160.754 137.93 160.674C138.498 160.594 139.031 160.351 139.463 159.974C140.632 159.055 141.636 157.944 142.433 156.689C143.755 154.615 144.664 152.306 145.109 149.887C145.785 146.078 145.54 142.278 145.092 138.474C144.672 134.888 143.716 131.424 142.841 127.94C142.628 127.068 142.224 126.245 141.875 125.314C140.944 125.867 140.466 126.611 139.951 127.441C140.488 127.932 140.995 128.376 141.477 128.844C141.996 129.348 142.653 129.758 142.745 130.545C141.285 132.011 140.05 132.197 137.122 131.366C136.844 131.882 136.332 132.305 136.398 132.966C137.479 133.866 138.54 134.728 139.575 135.621C140.041 136.026 140.549 136.442 140.474 137.272C140.221 137.478 139.954 137.805 139.61 137.956C138.233 138.56 136.8 138.889 135.288 138.61C134.854 138.526 134.423 138.434 133.941 138.335C133.328 139.653 132.816 141.015 132.409 142.41C132.29 142.85 132.13 143.277 131.933 143.687C131.799 143.905 131.606 144.081 131.375 144.192C131.145 144.304 130.887 144.347 130.633 144.316C130.379 144.284 130.139 144.181 129.942 144.017C129.745 143.853 129.6 143.636 129.523 143.392C129.452 143.059 129.407 142.721 129.389 142.381C129.277 141.164 129.525 139.995 129.783 138.825C130.041 137.654 130.318 136.513 130.602 135.286C129.814 134.709 129.083 134.162 128.353 133.638C127.623 133.114 126.619 132.783 126.056 131.862C126.185 131.669 126.334 131.491 126.502 131.33C127.087 130.858 127.821 130.611 128.572 130.632C129.755 130.682 130.932 130.804 132.2 130.909C132.726 130.001 133.342 129.052 133.701 128.014C132.953 127.12 132.218 126.32 131.583 125.449C131.185 124.896 130.862 124.292 130.623 123.654C130.354 122.958 130.653 122.437 131.357 122.168C131.703 122.029 132.077 121.973 132.448 122.006C132.82 122.039 133.178 122.159 133.494 122.357C134.126 122.741 134.699 123.214 135.301 123.641C135.603 123.861 135.929 124.065 136.272 124.295L139.5 120.833C139.362 120.455 139.204 120.084 139.025 119.724C136.138 114.615 132.44 110.153 128.16 106.163C127.312 105.4 126.421 104.686 125.493 104.024C124.138 103.043 122.637 102.281 121.046 101.765C119.452 102.858 117.844 103.951 116.267 105.05C116.181 105.098 116.167 105.244 116.103 105.391L116.098 105.4ZM50.5921 184.195C51.4028 182.379 51.978 180.466 52.3035 178.503C53.2111 173.28 53.7191 167.996 53.823 162.696C53.9174 158.993 53.9789 155.299 53.3327 151.612C52.9193 149.195 52.1798 146.845 51.1344 144.628C50.6153 143.547 49.9199 142.56 49.0765 141.708C48.7643 141.375 48.4214 141.073 48.0524 140.804C46.9219 140.016 45.7346 139.875 44.5277 140.644C42.9361 141.654 41.4225 142.78 40.1758 144.194C39.6481 144.798 39.1556 145.403 38.4892 145.672C38.0654 146.273 38.3197 147.083 37.6897 147.44C36.9891 147.835 36.8958 148.495 36.8025 149.175C36.3068 152.622 36.331 156.123 36.874 159.563C37.8383 165.485 39.8185 171.196 42.7272 176.445C44.2123 179.156 46.3052 181.487 48.8418 183.255C49.3418 183.621 49.8227 184.032 50.5975 184.187L50.5921 184.195ZM102.225 183.804C102.454 182.7 102.697 181.655 102.914 180.602C103.221 179.033 103.611 177.484 103.79 175.907C104.579 168.708 104.435 161.437 103.359 154.276C102.891 151.106 101.935 148.062 100.813 145.066C100.408 143.987 99.6525 143.287 98.6932 142.712C98.3362 142.476 97.9211 142.342 97.4935 142.327C97.0659 142.311 96.6422 142.413 96.2688 142.622C94.7252 143.359 93.2879 144.3 91.9954 145.42C91.049 146.278 90.3083 147.275 90.0188 148.551C89.6901 149.993 89.2894 151.425 89.0668 152.883C88.538 156.336 88.6358 159.795 88.977 163.272C89.5102 169.158 91.7839 174.751 95.5082 179.34C96.8275 180.994 98.4886 182.343 100.378 183.296C100.89 183.539 101.376 183.857 102.23 183.796L102.225 183.804ZM83.8317 87.1827C83.7242 87.2405 83.6244 87.3116 83.5347 87.3944C83.3875 87.568 83.2515 87.7507 83.1277 87.9417C81.3704 90.5496 80.0697 93.4376 79.2813 96.4819C79.015 97.5309 78.8415 98.6012 78.7628 99.6805C78.6956 100.693 78.6088 101.727 79.0774 102.721C80.9035 103.063 82.6809 103.134 84.4354 102.629C84.5857 101.754 84.7237 100.97 84.8612 100.185C84.9198 99.7276 85.1249 99.3013 85.4459 98.97C85.7669 98.6387 86.1866 98.4203 86.642 98.3473C88.5427 97.9219 89.1025 98.2985 89.4709 100.026C89.5854 100.496 89.4785 101.08 90.0188 101.387C91.9436 100.856 95.6785 99.2619 96.9376 98.4101C96.868 97.705 96.7793 96.9722 96.7275 96.2379C96.6945 95.7853 96.7002 95.3283 96.7118 94.8748C96.7386 93.962 97.2302 93.3942 98.0733 93.1142C98.3435 93.026 98.6201 92.9587 98.9007 92.9128C99.7758 92.7644 100.44 93.0161 100.904 93.8393C101.201 94.3621 101.329 95.0229 101.953 95.4287C103.18 94.6988 104.33 93.8458 105.384 92.8829C105.251 92.4473 105.149 92.0688 105.024 91.6984C104.733 90.8329 104.406 89.9813 104.144 89.109C103.882 88.2367 104.093 87.8766 104.982 87.5905C105.98 87.2727 106.889 87.3751 107.695 88.0976C108.152 88.5041 108.619 88.8984 109.137 89.3475C109.472 88.9997 109.788 88.6336 110.083 88.2508C111.425 86.2642 112.754 84.2724 114.07 82.2755C114.352 81.8483 114.545 81.3607 114.845 80.9489C115.188 80.5082 115.553 80.0853 115.939 79.6819C114.81 78.1142 113.12 76.9298 110.537 75.9651C107.104 74.6694 103.361 74.4308 99.7913 75.28C100.568 76.5251 100.593 76.5264 100.358 77.9754C100.06 79.8904 99.7512 81.803 99.4144 83.7125C99.1967 84.9456 98.9222 86.1702 98.6659 87.3978C98.3135 89.0796 97.2209 90.0427 95.6324 90.554C93.3008 91.3059 91.0396 91.3037 88.8641 90.0382C88.4204 89.7802 87.9535 89.5603 87.5104 89.3047C86.2837 88.6024 85.0554 87.8831 83.837 87.1739L83.8317 87.1827ZM107.189 36.8119C107.283 36.1741 107.312 35.7189 107.416 35.2801C108.051 32.6707 109.33 30.4596 111.827 29.2939C113.322 28.5632 114.957 28.1609 116.62 28.1141C118.283 28.0673 119.938 28.3769 121.471 29.0223C122.547 29.4293 123.501 30.1045 124.242 30.9837C124.984 31.863 125.488 32.9172 125.707 34.0462C126.302 36.8046 125.764 39.3928 124.02 41.6398C123.221 42.6711 122.248 43.5651 121.362 44.5278L120.65 45.2938C121.837 46.6083 122.8 47.9896 123.944 49.2223C127.334 46.9678 130.662 42.1765 130.845 39.3508C129.465 38.5989 127.803 39.2399 126.293 38.4673C126.493 38.1323 126.599 37.7927 126.826 37.5905C127.672 36.8693 128.696 36.5277 129.778 36.3366C130.387 36.2307 131.024 36.2299 131.601 35.9078C131.789 35.0852 131.668 34.3053 131.55 33.5201C131.073 30.357 129.729 27.5471 128.088 24.8445C125.928 21.292 122.834 18.9032 119.026 17.3407C117.702 16.8024 116.298 16.492 114.871 16.4227C113.724 16.3623 112.581 16.5944 111.549 17.0969C109.376 18.1326 107.495 19.6918 106.073 21.6345C103.892 24.5682 102.387 27.793 102.12 31.503C102.059 32.3569 101.939 33.2052 101.865 34.0549C101.826 34.49 101.829 34.93 101.82 35.373L107.189 36.8119ZM83.7875 173.076C83.6593 172.549 83.5666 172.169 83.4744 171.79C82.8602 169.594 82.26 167.395 82.1109 165.106C81.9887 163.233 81.8911 161.36 81.7859 159.486C81.755 158.981 81.8226 158.481 81.3969 158.052C80.6061 157.278 80.191 156.269 79.7447 155.285C79.1938 154.044 78.631 152.817 78.1159 151.663C77.8667 151.538 77.5897 151.479 77.3112 151.491C77.0327 151.503 76.7618 151.586 76.5243 151.732C76.6427 152.699 76.7715 153.606 76.8616 154.508C76.9225 155.105 76.7684 155.342 76.2337 155.569C75.0195 156.084 73.8104 156.159 72.6538 155.52C71.4489 156.042 70.3009 156.491 68.9917 156.329C68.0143 156.211 67.2264 155.92 66.8653 154.907C66.7393 154.59 66.5819 154.287 66.3957 154.001C66.3451 153.916 66.2187 153.877 66.0469 153.765L64.8871 154.206C65.1294 157.533 65.3613 160.756 65.5981 164.03L66.8824 164.713C65.594 169.565 64.4183 174.4 63.5111 179.377C63.7735 179.345 64.0338 179.297 64.2906 179.234C66.2412 178.605 68.1994 177.996 70.1356 177.328C74.3867 175.86 78.6096 174.297 83.0184 173.343C83.2815 173.265 83.54 173.173 83.7928 173.067L83.7875 173.076ZM108.767 141.384C111.091 144.486 111.703 145.853 112.519 149.778C112.96 151.898 113.444 154.009 113.839 156.139C114.948 162.138 115.135 168.143 113.797 174.14C113.774 174.374 113.775 174.61 113.799 174.844C113.99 174.774 114.175 174.688 114.352 174.588C119.661 170.636 125.344 167.256 130.888 163.662C131.071 163.502 131.235 163.32 131.376 163.12C128.652 162.16 126.418 160.593 124.29 158.855C121.119 156.263 119.408 152.936 118.911 148.891C118.537 145.833 118.28 142.771 118.182 139.692C118.155 138.852 118.044 138.018 117.954 136.974C114.509 137.818 111.613 139.399 108.773 141.375L108.767 141.384ZM117.947 86.2938C116.88 87.669 116.03 88.8818 115.056 89.9853C114.052 91.1262 112.929 92.1613 111.9 93.2011C112.107 94.336 112.889 95.0419 113.449 95.9612C111.46 97.4587 109.442 97.1857 107.409 96.4357C106.691 96.8895 106.002 97.2913 105.354 97.7502C104.672 98.2301 103.807 98.4706 103.312 99.2109C103.471 99.7523 103.625 100.24 103.753 100.734C104.16 102.306 104.293 102.811 102.157 103.381C101.936 103.438 101.71 103.474 101.483 103.488C100.079 103.581 98.857 103.338 98.3161 101.802C98.2949 101.715 98.1362 101.676 97.9556 101.558L90.122 104.347C90.139 105.01 90.1856 105.631 90.159 106.248C90.123 106.949 90.408 107.546 90.7611 108.128C89.7639 109.329 88.4814 109.502 87.1546 109.451C85.8277 109.401 85.3843 108.991 85.0645 107.657C84.8785 106.893 84.6931 106.132 84.5123 105.389C82.5128 105.276 80.9253 105.433 79.9812 105.83C81.0076 108.839 84.7094 112.447 89.3973 112.169C90.1933 112.115 90.983 111.992 91.7576 111.801C94.7549 111.099 97.6678 110.076 100.446 108.75C106.512 105.851 111.372 101.593 114.904 95.8558C116.209 93.7746 117.153 91.4875 117.694 89.0915C117.896 88.2631 118.098 87.4347 117.952 86.285L117.947 86.2938ZM75.3683 138.986C73.9415 138.587 72.5241 138.185 71.1121 137.755C69.9063 137.406 68.6346 137.351 67.4032 137.594C64.9402 138.071 62.5793 138.974 60.4264 140.262C60.0605 140.502 59.7085 140.763 59.3719 141.044C59.443 141.234 59.531 141.417 59.6349 141.592C61.6048 144.222 62.915 147.17 63.8286 150.309C63.9235 150.694 64.0611 151.067 64.2389 151.421C64.3056 151.542 64.6205 151.577 64.8095 151.556C64.8815 151.525 64.9441 151.475 64.9912 151.412C65.0383 151.349 65.0682 151.275 65.0781 151.197C64.9173 150.536 64.7277 149.881 64.5387 149.227C64.2032 148.064 64.3696 147.724 65.5081 147.298C65.8804 147.157 66.2662 147.056 66.6594 146.995C67.9643 146.802 69.1455 146.98 70.0457 148.1C70.283 148.332 70.5387 148.545 70.8104 148.736C70.7747 147.863 70.7315 147.246 70.7259 146.63C70.7124 145.306 71.1386 144.787 72.4363 144.523C72.6601 144.485 72.8857 144.459 73.1122 144.446C73.954 144.365 74.5691 144.713 74.8612 145.494C75.1945 146.341 75.452 147.215 75.7553 148.072C75.8447 148.327 75.9723 148.564 76.1037 148.859L77.0604 148.626C76.7297 147.063 76.3572 145.523 76.0822 143.964C75.8107 142.327 75.6171 140.694 75.3713 138.968L75.3683 138.986ZM139.132 54.9185C139.48 54.5152 139.779 54.1809 140.069 53.8365C141.374 52.2739 141.665 50.5225 141.186 48.5675C140.614 46.217 139.341 44.3211 137.631 42.6783C137.399 42.4533 137.183 42.1475 136.695 42.2988C135.7 43.9425 134.652 45.627 133.204 47.0128C133.056 47.1519 132.964 47.3402 132.945 47.5424C132.926 47.7446 132.981 47.9467 133.1 48.1111C133.874 49.4166 134.628 50.7643 135.464 52.0421C136.3 53.3198 137.435 54.3683 139.135 54.9004L139.132 54.9185ZM115.337 31.0287C115.388 31.0378 115.439 31.0403 115.491 31.0361C115.505 31.0327 115.505 30.9629 115.511 30.9242C115.461 30.9142 115.41 30.9123 115.36 30.9186C115.348 30.9314 115.347 30.9989 115.337 31.0287Z" fill="#54BFFB"/>
<path d="M101.739 57.928C102.383 58.1197 102.863 58.2793 103.349 58.4049C105.284 58.8974 107.23 59.3347 109.15 59.8781C110.464 60.2506 111.753 60.7385 113.022 61.2286C113.763 61.5189 113.902 61.8759 113.712 62.5694C113.497 63.371 113.123 64.1214 112.614 64.7765C112.104 65.4316 111.468 65.9783 110.744 66.3842C110.183 66.6839 109.527 66.7543 108.915 66.5807C107.576 66.2967 106.233 66.0285 104.913 65.6853C103.318 65.2718 101.739 64.7874 100.133 64.3269C99.5377 65.1664 99.5935 66.1214 99.3312 66.977C99.0689 67.8326 98.6723 68.6885 99.0244 69.5414C98.8479 69.8551 98.6096 70.1296 98.324 70.3485C98.0384 70.5674 97.7113 70.7261 97.3626 70.815C96.1567 71.2106 94.9394 71.4672 93.666 71.217C92.3926 70.9668 92.1113 70.6195 92.1701 69.3678C92.1926 68.6846 92.2851 68.0055 92.446 67.3412C92.7695 66.0723 93.175 64.8233 93.5459 63.5653C93.6562 63.1899 93.7583 62.8115 93.8824 62.3704C91.3624 61.2237 88.6216 60.6834 86.4253 59.0969C86.5975 56.849 87.6109 55.7856 89.6547 55.8557C91.3001 55.9157 92.9408 56.1711 94.5819 56.3566C95.1401 56.4199 95.692 56.5395 96.2084 56.6254C96.7904 56.1625 96.9346 55.5174 97.2581 54.9955C98.0456 53.7406 98.7893 52.4591 99.6153 51.2297C100.318 50.1873 101.404 49.8654 102.61 49.918C103.377 49.9503 103.752 50.3868 103.642 51.1606C103.543 51.8377 103.394 52.5066 103.195 53.1615C102.754 54.6931 102.27 56.2103 101.739 57.928Z" fill="#54BFFB"/>
<path d="M66.2447 93.6078C65.1982 93.8751 64.1078 93.9228 63.042 93.7477C61.9717 93.5751 61.3248 92.9532 60.933 91.988C60.8276 91.7531 60.7852 91.4948 60.8102 91.2385C60.8351 90.9823 60.9265 90.7369 61.0752 90.5267C61.4319 89.9415 61.9366 89.4605 62.5383 89.1323C64.019 88.3849 65.6848 88.0831 67.3337 88.2635C68.0199 88.308 68.6732 88.5734 69.196 89.0202C70.24 89.9337 70.3027 91.1932 69.2807 92.1292C68.81 92.5356 68.285 92.8746 67.7209 93.1364C67.2418 93.3317 66.7482 93.4893 66.2447 93.6078Z" fill="#54BFFB"/>
</svg>
