<svg width="60" height="65" viewBox="0 0 60 65" fill="none" xmlns="http://www.w3.org/2000/svg">
<path d="M31.5912 9.57058C31.8703 9.54539 32.0963 9.5398 32.3278 9.50342C34.3696 9.18389 36.4368 9.05645 38.5022 9.12283C40.62 9.19306 42.7291 9.42788 44.8106 9.82519C46.6368 10.1464 48.4299 10.6344 50.1675 11.2831C52.1996 12.0735 54.0856 13.1989 55.7476 14.613C57.3547 15.9382 58.5376 17.7083 59.1487 19.7029C59.3803 20.464 59.6119 21.2279 59.7821 22.003C60.2005 23.9395 60.0134 25.9583 59.2464 27.7842C58.2062 30.4719 56.5317 32.8665 54.3665 34.7629C51.7229 37.0589 48.9345 39.1815 46.0187 41.1177C43.8894 42.5582 41.8402 44.1144 39.8805 45.7795C36.7863 48.365 33.6531 50.9003 30.531 53.4494C29.973 53.9028 29.3955 54.3169 28.7872 54.7786C28.79 54.9511 28.8115 55.1228 28.8514 55.2907C28.9635 55.5902 28.992 55.9146 28.934 56.2291C28.876 56.5437 28.7336 56.8364 28.5222 57.0759C28.4758 57.1515 28.4384 57.2323 28.4106 57.3166C28.5305 57.4481 28.6477 57.5964 28.7789 57.7139C29.8503 58.7045 30.93 59.6866 31.9902 60.6884C32.3233 60.9901 32.6175 61.3323 32.8663 61.707C33.4048 62.566 33.1453 63.4363 32.2665 63.9456C31.3071 64.4637 30.2523 64.7799 29.1667 64.8746C27.7766 65.0414 26.3717 65.0414 24.9816 64.8746C23.9604 64.7375 22.9365 64.6227 21.9627 64.2422C21.4047 64.0211 20.8132 63.8476 20.2468 63.6209C19.3385 63.2461 18.492 62.7357 17.7358 62.1071C17.4112 61.8352 17.1174 61.5284 16.8597 61.1921C15.8667 59.879 15.0243 58.4579 14.3486 56.9556C14.2342 56.715 14.1199 56.4771 14.0222 56.2309C13.8417 55.8193 13.5936 55.441 13.2884 55.1116C12.9038 54.6719 12.5522 54.2043 12.2366 53.7125C11.1856 52.082 10.0864 50.487 8.93873 48.9275C7.71906 47.282 6.68945 45.5031 5.86966 43.6249C4.77316 41.0925 3.67946 38.5573 2.80059 35.9354C2.05088 33.7503 1.41571 31.5273 0.897742 29.2756C0.386553 26.9664 0.0950801 24.6138 0.0272433 22.2493C-0.0118177 20.7886 -0.00623752 19.3279 0.0272433 17.8673C0.0811508 14.8807 0.779814 11.9414 2.07514 9.25161C3.88031 5.44603 6.76526 2.8157 10.7774 1.47255C13.6037 0.544914 16.5831 0.178056 19.5493 0.392443C21.4541 0.505958 23.3387 0.846953 25.1629 1.4082C26.0463 1.68801 26.8967 2.06332 27.6991 2.52748C29.1497 3.33644 30.2633 4.63986 30.8379 6.20151C31.1594 7.07408 31.3785 7.98125 31.4908 8.90463C31.5187 9.1145 31.5606 9.31874 31.5912 9.57058ZM39.5206 15.5811C39.4007 15.6287 39.2974 15.6567 39.2053 15.7042C37.7877 16.43 36.4808 17.3553 35.3244 18.4521C34.1725 19.5911 33.1145 20.8217 32.1604 22.1318C31.3979 23.1522 30.7434 24.2494 30.2074 25.4057C29.8698 26.1277 29.4819 26.8244 29.1332 27.5407C28.5752 28.66 27.6517 29.2476 26.4826 29.4995C24.3817 29.95 22.437 29.4995 20.6235 28.411C19.781 27.8942 19.1124 27.1358 18.704 26.234C18.3449 25.4917 18.085 24.7051 17.9311 23.8946C17.7609 23.0058 17.7665 22.0922 17.9478 21.2056C18.2953 19.7565 18.8718 18.3725 19.6553 17.1062C19.7753 16.9019 19.8925 16.6948 20.0181 16.4794C19.4042 14.0869 19.0722 11.6328 18.2408 9.20399C18.1002 9.35068 17.9696 9.50685 17.8502 9.67134C17.3118 10.5575 16.8818 11.5054 16.5695 12.4947C15.5679 15.4328 15.3391 18.4633 15.5093 21.5414C15.5707 22.6271 15.66 23.7127 15.7493 24.7985C15.9192 26.9697 16.272 29.1227 16.8039 31.2344C17.8232 35.0852 19.1981 38.8324 20.9109 42.4272C21.7355 44.2149 22.7041 45.9322 23.807 47.562C23.952 47.7774 24.1111 47.9817 24.2813 48.2112C24.3869 48.1574 24.4877 48.0946 24.5826 48.0237C26.2985 46.521 28.0534 45.0548 29.6047 43.3815C31.089 41.7865 32.6459 40.2698 34.253 38.8007C35.2156 37.9253 36.1015 36.9686 36.9007 35.941C37.7936 34.7881 38.6892 33.6353 39.5764 32.474C40.2041 31.65 40.735 30.7561 41.1584 29.8101C41.7493 28.474 42.2245 27.0894 42.5785 25.6715C42.6953 25.2078 42.7654 24.7334 42.7878 24.2556C42.8568 22.0413 42.4037 19.842 41.4653 17.8365C41.0479 16.9156 40.3771 16.1331 39.5318 15.5811H39.5206Z" fill="white"/>
</svg>
