<svg width="324" height="304" viewBox="0 0 324 304" fill="none" xmlns="http://www.w3.org/2000/svg">
<path d="M266.358 134.098C266.224 139.956 266.604 145.815 267.495 151.607C268.046 155.469 268.598 159.536 266.518 163.332C265.933 164.397 265.889 165.76 265.602 166.99C265.525 167.195 265.453 167.399 265.376 167.608C265.287 169.302 265.194 170.991 265.105 172.685L264.117 173.237C262.043 173.386 262.065 173.397 262.738 171.372C262.791 170.956 262.771 170.533 262.677 170.125C263.334 169.302 263.025 168.822 262.126 168.557C262.451 166.858 261.276 165.534 260.906 164.005C260.658 162.957 260.156 161.991 260.487 160.877L260.156 159.773C260.156 159.321 260.2 158.868 260.227 158.416L260.459 157.759C260.444 157.389 260.474 157.018 260.547 156.655C261.099 155.05 261.651 153.455 262.203 151.849C262.435 151.165 262.44 150.31 262.865 149.791C264.36 147.959 264.294 145.818 264.151 143.721C263.676 136.896 263.097 130.076 262.556 123.25C262.556 123.062 262.556 122.869 262.556 122.698C262.418 119.542 262.28 116.38 262.131 112.86C261.265 113.081 260.415 113.103 259.803 113.494C255.925 115.899 251.644 117.582 247.167 118.46C243.916 119.134 240.711 120.37 237.234 120.21C235.579 120.132 233.924 120.524 232.23 120.701H218.656C211.355 121.021 204.348 119.299 197.368 117.522C194.215 116.651 191.11 115.616 188.064 114.421C186.078 113.688 184.621 114.03 182.955 115.437C177.001 120.469 171.025 125.485 164.746 130.114C162.163 132.029 160.122 133.828 159.575 137.133C159.068 140.223 158.229 143.263 157.578 146.116C159.018 147.258 160.204 148.064 161.22 149.052C161.901 149.649 162.383 150.442 162.598 151.323C162.813 152.204 162.752 153.129 162.423 153.974C161.733 155.833 161.363 157.522 161.987 159.607C162.66 161.881 161.214 163.939 159.835 165.677C158.71 167.088 158.099 168.839 158.102 170.643C158.132 171.326 158.206 172.006 158.323 172.679C158.273 172.74 158.179 172.812 158.19 172.856C158.243 172.995 158.306 173.129 158.378 173.259C159.404 174.914 160.497 176.492 161.452 178.17C162.406 179.847 163.322 181.74 164.211 183.539C164.966 185.028 165.667 186.551 166.462 188.03C167.461 189.895 167.405 190.237 165.618 191.479C165.066 191.81 164.589 192.254 164.221 192.782C163.852 193.309 163.598 193.909 163.477 194.541C163.118 196.809 162.792 199.083 162.472 201.356C162.396 202.371 162.258 203.381 162.059 204.38C161.33 206.995 160.491 209.583 159.697 212.176C157.744 212.325 157.352 212.105 157.374 210.604C157.423 207.624 157.561 204.645 157.666 201.67C157.71 201.45 157.755 201.229 157.804 201.014C158.047 198.713 158.323 196.417 158.527 194.116C158.698 192.147 158.262 190.392 156.69 189.001C155.801 188.212 155.283 187.18 156.138 186.044C158.075 183.55 157.611 180.896 156.69 178.225C156.39 177.353 155.891 176.563 155.233 175.918C154.968 177.178 154.784 178.454 154.681 179.737C154.631 183.853 154.482 188.014 154.775 192.08C155.148 196.608 154.176 201.146 151.983 205.125C147.299 213.746 144.991 223.458 145.295 233.266C145.417 237.64 145.534 242.015 145.648 246.393L145.847 247.099C146.206 250.829 146.708 254.559 146.862 258.301C146.953 260.943 146.804 263.587 146.415 266.202C145.488 272.702 144.285 279.158 143.375 285.664C142.718 290.299 142.36 294.978 141.846 299.641C141.744 300.802 141.559 301.954 141.295 303.089C141.217 303.393 140.583 303.547 139.816 304C139.816 302.344 139.783 301.119 139.816 299.872C139.981 293.896 140.23 287.915 140.301 281.939C140.301 279.732 139.976 277.525 139.794 275.318C140.605 274.556 139.634 274.551 139.341 274.258C138.955 271.35 138.79 268.387 138.116 265.551C137.277 262.196 137.616 258.654 139.076 255.52C140.188 253.029 140.752 250.329 140.732 247.601C140.732 243.656 140.395 239.716 140.362 235.771C140.324 231.136 140.533 226.506 140.511 221.871C140.511 216.309 142.117 210.963 142.569 205.472C142.818 202.482 142.961 199.485 143.353 196.517C143.691 193.976 144.185 191.459 144.832 188.979C145.881 185.087 147.327 181.314 149.147 177.717C150.127 175.532 150.973 173.29 151.679 171.002C152.356 168.946 152.309 166.721 151.547 164.695C151.094 163.327 150.868 161.875 150.543 160.463L150.294 159.801V157.82C150.383 157.61 150.476 157.406 150.57 157.196C150.703 156.703 150.888 156.226 151.122 155.772C151.56 155.185 151.786 154.467 151.761 153.734C151.735 153.002 151.462 152.3 150.984 151.744C147.839 151.469 145.168 149.946 142.674 148.257C141.659 147.573 141.239 146 140.588 144.808C137.322 138.845 134.061 132.881 130.805 126.914C130.588 126.634 130.344 126.375 130.077 126.141C129.437 128.415 128.857 130.495 128.25 132.658C130.137 133.844 131.903 134.865 132.218 137.072C132.295 137.304 132.372 137.53 132.455 137.762C132.422 138.391 132.389 139.026 132.361 139.655C132.273 139.875 132.185 140.091 132.102 140.311C132.092 140.568 132.036 140.82 131.936 141.056C128.554 146.116 127.577 152.18 125.061 157.61C123.919 160.076 123.814 163.056 123.406 165.826C122.44 172.762 121.585 179.715 120.68 186.656C120.614 186.7 120.492 186.75 120.492 186.789C120.512 186.929 120.545 187.068 120.592 187.202C120.498 188.565 120.398 189.928 120.305 191.297C120.244 191.346 120.139 191.402 120.139 191.451C120.155 191.597 120.185 191.741 120.227 191.882C119.482 200.158 120.227 208.491 118.776 216.712C118.581 218.153 118.608 219.616 118.853 221.049C119.267 224.062 119.83 227.058 120.387 230.358C119.118 231.627 117.297 230.954 115.581 230.821C115.073 230.734 114.583 230.559 114.136 230.303C111.217 228.94 110.952 228.013 112.304 225.099C114.075 221.303 115.852 217.496 115.614 213.115C115.581 212.563 115.968 212.011 116.166 211.498C116.216 211.283 116.271 211.073 116.321 210.858C116.407 210.438 116.471 210.015 116.514 209.589C116.895 203.111 117.198 196.622 117.656 190.149C118.175 182.821 118.727 175.488 119.46 168.182C119.769 165.147 119.284 162.267 118.765 159.354C118.528 158.007 118.307 156.655 118.081 155.303C118.114 155.226 118.197 155.127 118.175 155.072C118.103 154.93 118.018 154.795 117.921 154.669C117.948 152.396 117.993 150.128 118.004 147.854C118.004 144.306 118.004 140.753 118.004 137.205C118.037 137.017 118.064 136.83 118.092 136.653C118.798 134.054 120.575 132.636 123.168 132.195C124.013 130.164 123.433 128.189 123.047 126.318C122.225 122.34 121.171 118.411 120.111 114.488C119.787 113.512 119.31 112.594 118.699 111.767C116.795 108.915 116.768 108.931 116.492 105.847L114.069 105.653C113.887 105.504 113.711 105.234 113.518 105.234C110.411 105.234 107.31 105.234 104.203 105.234C100.197 104.793 96.2371 104.005 92.3675 102.878C85.2715 100.858 79.0804 97.2497 73.2701 92.8354C71.8022 91.8257 70.386 90.7428 69.0268 89.5909C67.8625 88.4873 66.9576 87.1354 65.9092 85.9104C62.3788 81.8209 59.8576 76.9599 58.5483 71.7184C58.2007 70.3445 58.3111 68.8546 58.1897 67.1385C57.6711 66.861 57.1127 66.6656 56.5343 66.5592C54.8366 66.4673 53.1777 66.0159 51.6675 65.2349C50.3366 64.6571 48.9362 64.2546 47.5015 64.0375C47.0435 63.9382 46.5028 64.2858 45.9951 64.4293C46.1 64.6335 46.2048 64.8376 46.3151 65.0418C46.2931 67.2489 46.2747 69.4561 46.26 71.6632C46.26 71.8619 46.3096 72.055 46.3372 72.2481C47.2973 73.7453 48.2593 75.2407 49.2231 76.7342L49.4383 77.4294C49.3776 78.4171 49.3114 79.3993 49.2452 80.3815C49.19 80.5912 49.1348 80.7953 49.0741 81.005C49.0741 82.0369 49.1293 83.0687 49.0244 84.0896C48.9831 84.7483 48.7945 85.3894 48.4727 85.9657C47.0788 88.0883 46.0493 90.4287 45.4268 92.8906C45.0295 94.5128 45.0019 94.5018 43.3797 95.6109C43.4243 94.6608 43.5349 93.715 43.7107 92.7803C44.4832 89.8392 44.5715 86.9865 42.5409 84.5034C41.2773 82.9584 42.0388 81.1927 41.7243 79.5373C41.6525 79.3055 41.5808 79.0738 41.5146 78.842L41.4815 75.89C41.5201 75.6693 41.5588 75.454 41.5919 75.2333C41.576 75.1881 41.5761 75.1387 41.5921 75.0935C41.6082 75.0484 41.6392 75.0101 41.6801 74.985C41.8898 74.7422 42.0939 74.4939 42.2981 74.2456L42.3423 74.2015C43.1093 73.9918 43.9976 73.9422 43.9535 72.7834C43.9093 71.6246 44.0583 70.5486 43.7052 69.5775C42.7199 66.8642 40.7502 64.6207 38.1873 63.2926C37.5583 62.945 37.1554 62.189 36.5319 61.7972C33.773 59.866 31.014 57.9347 28.1944 56.0862C24.7788 53.8294 21.1812 51.8209 17.9422 49.3433C15.8123 47.688 14.0796 45.5194 12.3249 43.4226C8.57275 38.9035 5.15166 34.1526 3.14866 28.5243C2.11681 25.6274 1.07397 22.7305 0.218692 19.7785C-0.101346 18.6749 0.042076 17.4113 0.0365581 16.2194C-0.00206717 12.3073 -0.195191 8.42816 0.935978 4.54356C1.82988 1.45906 4.51711 0.129274 7.64576 0.714171C9.49425 1.05628 11.0337 1.87844 11.3648 3.95317C11.6959 6.0279 13.3347 7.05974 14.4824 8.42818C16.9379 11.3637 19.6748 14.0564 22.2903 16.8595C26.1528 20.9813 30.9092 23.481 36.1843 25.3902C38.7115 26.2951 41.3491 26.4551 43.8487 27.3049C44.3572 27.3757 44.8742 27.3589 45.3771 27.2552C48.2409 27.2552 51.0991 27.338 53.9629 27.3214C54.6121 27.2479 55.2519 27.1073 55.8722 26.9021C60.0759 26.8032 64.2467 26.135 68.2709 24.9157C73.969 23.3191 79.6708 21.7171 85.3763 20.1095C88.6264 19.1936 91.9427 19.3646 95.1927 19.8336C97.8089 20.1623 100.367 20.8493 102.796 21.8753C105.147 22.9292 107.211 24.6342 109.341 26.1406C110.248 26.8767 111.106 27.6731 111.906 28.5243C115.366 22.5484 119.631 17.6431 126.805 16.4898L130.551 16.3905H131.478L137.245 16.4512C144.771 17.2126 151.006 20.2861 155.741 26.3558C159.46 31.0889 162.703 36.1771 165.424 41.5466C166.02 41.2709 166.576 40.9184 167.08 40.4982C171.207 35.9128 176.46 33.0159 181.978 30.599C183.384 30.0585 184.841 29.6593 186.326 29.4072C187.628 29.1258 188.958 28.9989 190.277 28.8057C191.287 28.8057 192.308 28.8057 193.317 28.8719C194.719 28.9823 196.115 29.1699 197.517 29.3189C208.26 30.6377 216.068 35.7031 219.323 46.6451C219.815 46.394 220.281 46.0946 220.714 45.7512C222.595 43.8917 224.996 42.8543 227.335 41.839C231.276 40.1451 235.64 39.6947 239.844 40.5478C242.502 40.9665 245.129 41.5638 247.707 42.3356C252.122 43.8089 256.376 45.6795 260.768 47.1969C264.23 48.4084 267.751 49.4435 271.318 50.298C273.614 50.8498 275.981 51.0152 278.16 52.0361C278.497 52.1906 278.999 51.9974 279.424 51.9643L285.731 51.5726C291.569 51.0208 296.988 49.0619 302.191 46.5237C305.375 44.9732 308.41 43.1081 310.711 40.2554C312.3 38.2965 314.077 36.4866 315.748 34.5885C316.4 33.8491 317.067 33.2973 318.149 33.4849C319.379 33.7111 320.637 33.7939 321.84 34.1029C322.21 34.1967 322.442 34.8202 322.734 35.2065L323.126 36.0949L323.043 41.2265C322.955 41.4086 322.872 41.5962 322.784 41.7783C322.409 45.0504 322.072 48.3335 320.378 51.2801C320.269 51.5115 320.213 51.764 320.213 52.0196C320.008 55.2641 318.557 58.0892 317.426 61.0468C316.253 64.0713 314.786 66.9729 313.045 69.7099C310.926 73.1255 308.779 76.5907 306.169 79.6421C302.525 83.7536 298.193 87.2003 293.368 89.8282C290.377 91.4836 286.929 92.3443 283.739 93.6907C282.735 94.1886 281.821 94.8506 281.035 95.6495C279.985 96.6027 279.004 97.6298 278.1 98.723C277.582 99.3688 277.179 100.098 276.908 100.88C275.893 103.706 275.048 106.603 273.945 109.395C272.681 112.595 270.998 115.635 269.895 118.88C268.719 122.318 267.974 125.904 267.136 129.441C266.821 130.738 266.716 132.084 266.512 133.409L266.358 134.098ZM162.5 111.37C162.5 111.558 162.445 111.74 162.423 111.922V114.973C162.362 115.028 162.252 115.117 162.263 115.139C162.335 115.27 162.418 115.396 162.511 115.514L163.846 118.935C164.508 118.433 165.066 118.058 165.573 117.616C172.559 111.491 179.186 105.002 184.98 97.7519C187.772 94.2425 190.15 90.3965 192.655 86.6609C193.91 84.8602 195.048 82.9802 196.06 81.0326C197.494 78.1468 198.819 75.2002 199.989 72.204C202.411 65.9246 204.37 59.4797 204.817 52.7368C205.269 45.8229 203.029 39.8305 197.908 35.1955C194.724 34.732 192.324 36.3763 190.15 37.8496C187.639 39.5546 185.482 41.8721 183.424 44.1455C177.189 51.0318 173.37 59.2866 170.909 68.1097C169.541 73.0151 168.658 77.9812 166.236 82.6052C163.289 88.228 163.107 94.4963 163.515 100.709C163.78 104.329 163.223 107.844 162.505 111.37H162.5ZM157.744 78.4668L156.899 77.8654C154.928 77.4168 153.09 76.5136 151.53 75.2278C150.752 74.5822 150.504 74.0745 150.951 73.0813C152.937 68.7001 153.395 64.0265 153.434 59.2866C153.5 50.6787 152.667 42.2308 148.722 34.3898C147.707 32.3758 146.631 30.3783 145.411 28.4691C144.374 26.8138 143.132 25.2909 141.94 23.7403C141.443 23.0452 140.777 22.4883 140.004 22.1224C139.232 21.7565 138.379 21.5936 137.526 21.649C134.767 21.7263 132.626 23.3044 130.943 24.9598C128.703 27.1669 127.279 30.1245 126.407 33.2863C125.48 36.6742 125.243 40.145 125.061 43.5827C124.791 48.6371 124.769 53.7135 124.984 58.7679C125.094 61.411 126.01 64.0099 126.452 66.6475C127.963 75.6362 130.722 84.3047 133.377 92.9789C133.443 93.1996 133.669 93.3817 133.928 93.6852C135.75 93.311 137.548 92.83 139.314 92.245C141.162 91.5221 143 91.8532 144.832 91.8422C145.284 91.8422 145.737 92.4271 146.426 92.9127C143.667 96.2234 139.843 97.1394 136.146 98.8499C136.18 99.8376 135.915 101.057 136.296 102.078C139.761 111.304 143.176 120.557 148.159 129.116C148.479 129.667 148.887 130.181 149.263 130.771L153.677 127.394C153.683 127.015 153.658 126.637 153.6 126.263C153.089 124.49 152.991 122.623 153.312 120.806C153.634 118.989 154.366 117.269 155.454 115.779C156.557 114.19 157.148 112.253 157.97 110.476L158.422 108.821C158.488 108.691 158.517 108.546 158.505 108.401C158.582 108.175 158.654 107.943 158.731 107.717C158.822 106.786 158.85 105.849 158.814 104.914C158.527 102.155 157.975 99.3962 157.837 96.6096C157.583 91.5994 157.556 86.5781 157.435 81.5623C157.49 81.3416 157.55 81.1264 157.606 80.9057C157.688 80.0946 157.721 79.311 157.749 78.4668H157.744ZM108.546 42.7936C108.292 41.9824 107.994 41.1879 107.79 40.3658C106.251 34.3568 102.94 29.4348 98.4096 25.324C97.6316 24.6232 96.5777 24.2204 95.6507 23.7017C95.0975 23.3661 94.463 23.1886 93.816 23.1886C93.169 23.1886 92.5344 23.3661 91.9812 23.7017C91.3522 23.8948 90.7287 24.11 90.0942 24.2535C84.9901 25.6219 80.0405 27.4704 74.8261 28.5795C70.616 29.4734 66.3837 29.8321 62.168 30.4611H49.6259C42.2153 30.6653 35.2794 28.6016 28.6579 25.6054C21.8212 22.5319 17.0372 16.9809 12.2421 11.3802C12.2541 13.5971 12.4275 15.8101 12.7609 18.0017C13.5775 23.1775 15.6357 27.9725 18.047 32.5303C23.7801 43.3785 32.0735 51.6829 43.4569 56.5994C51.044 59.8715 58.7911 62.669 66.9687 64.1754C72.4865 65.1686 77.8665 66.6254 83.5223 66.6199C85.0342 66.6199 86.5847 67.3703 88.0525 67.9442C88.5546 68.1428 88.8636 68.8546 89.283 69.3567C86.3861 71.1997 78.3686 71.0949 69.1648 69.2077C69.2877 69.9636 69.4931 70.7038 69.7772 71.4149C71.6037 74.7919 73.1983 78.3564 75.4331 81.4465C80.0792 87.8748 86.2592 92.6312 93.2449 96.3448C96.5396 98.1516 100.236 99.1003 103.994 99.1037C108.176 99.1037 112.226 98.3367 116.266 97.4484C116.69 97.3546 117.027 96.8966 117.43 96.5766C113.838 87.8141 111.597 78.853 109.793 69.7761C108.473 63.4823 107.945 57.0483 108.22 50.6235L108.386 49.9503C108.504 47.7432 108.616 45.5544 108.723 43.384C108.612 43.1744 108.546 42.9867 108.546 42.7936ZM227.611 115.525C242.206 114.096 254.936 109.124 264.217 96.3614H259.593L256.282 95.9695C252.16 96.124 248.353 94.8219 244.546 93.481C240.738 92.1402 236.539 91.7208 233.041 89.1164C234.431 87.7093 235.849 88.0845 237.085 88.3604C239.877 88.9784 242.603 89.8999 245.395 90.5399C247.652 91.0476 249.953 91.3235 252.237 91.6987H256.475H258.396L261.706 91.2904C263.191 91.0366 264.691 90.8656 266.154 90.5179C273.43 88.8502 280.25 85.6045 286.134 81.0105C294.863 74.1794 301.032 65.2514 306.605 55.8489C306.982 55.1016 307.315 54.3334 307.604 53.548C306.858 53.7135 306.121 53.918 305.397 54.1605C302.351 55.391 299.327 56.627 295.972 56.7705C294.615 56.8312 293.28 57.3222 291.939 57.6644L281.67 57.7747C276.562 57.328 271.511 56.3798 266.59 54.944C262.628 53.8404 258.682 52.6265 254.825 51.2139C250.472 49.6192 246.234 47.7101 241.919 46.0161C241.079 45.687 240.181 45.5328 239.28 45.5632C238.378 45.5935 237.493 45.8077 236.677 46.1926C234.166 47.241 232.081 48.9516 229.73 50.1986C228.68 50.8557 227.717 51.6437 226.866 52.5437C224.909 54.4763 223.259 56.6962 221.972 59.1266C221.271 60.3736 220.603 61.6758 218.965 62.0455C218.707 62.1303 218.473 62.2744 218.282 62.466C218.09 62.6577 217.946 62.8917 217.861 63.1491C217.16 67.1661 215.698 70.9404 214.252 74.7367C213.554 76.7826 212.679 78.7636 211.637 80.6574C209.358 84.4427 206.742 88.0183 204.464 91.8036C202.432 95.0792 200.128 98.1783 197.577 101.068C195.696 103.275 193.422 105.129 191.375 107.187C190.647 107.921 190.056 108.793 189.218 109.831C190.052 110.216 190.909 110.549 191.783 110.829C196.887 112.071 202.08 113.036 207.079 114.581C209.601 115.365 212.045 115.442 214.556 115.531L217.867 115.917H223.881L227.611 115.525ZM155.272 142.496L155.901 142.309C155.586 140.245 157.004 138.126 155.459 135.991L152.347 136.956L155.272 142.496Z" fill="#54BFFB"/>
<path d="M96.5 254.196C94.8446 253.809 94.0886 252.778 93.9783 251.095C93.8679 249.412 93.5975 247.696 93.4265 246.002L93.3382 245.312C93.2333 243.05 92.9409 240.776 93.0844 238.536C93.2002 236.814 93.9617 235.148 94.2652 233.426C94.6294 231.368 95.126 229.343 95.5288 227.301C96.1171 224.242 95.7611 221.077 94.508 218.225C93.7741 216.492 93.7796 214.715 93.7245 212.922C93.592 208.298 93.5313 203.674 93.3492 199.055C93.2444 196.407 92.963 193.764 92.7478 190.944L90.502 189.973C89.9502 193.284 89.3985 196.357 88.9184 199.353L85.0559 199.795C85.26 199.878 85.1 199.839 84.9676 199.756C83.108 198.619 83.0197 196.854 83.1025 194.922C83.3343 189.096 83.4832 183.263 83.6543 177.431C83.6968 176.845 83.6352 176.257 83.4722 175.693C81.2651 169.375 83.0583 166.064 88.3831 163.669C88.6093 162.422 88.8356 161.076 89.0949 159.74C90.4689 152.617 91.4511 145.449 91.3849 138.176C91.3849 135.787 91.429 133.293 90.7944 131.003C90.0274 128.244 89.3432 125.485 88.8025 122.726C88.7562 122.442 88.6501 122.17 88.4913 121.93C88.3325 121.689 88.1245 121.485 87.881 121.33C86.2257 120.729 85.6076 119.239 84.7634 117.942C83.7923 116.458 83.9357 115.735 85.4145 114.847C86.1702 114.466 86.952 114.14 87.7541 113.87H92.036C93.8182 114.665 96.0751 114.654 97.118 116.662C97.0518 117.705 94.7397 117.766 96.1744 119.283C96.2461 119.355 95.9702 119.94 95.7275 120.105C94.5908 120.878 94.6239 122.042 94.3976 123.234C93.4154 128.691 93.5976 134.204 93.4044 139.699C93.4044 140.041 93.3161 140.378 93.272 140.715L93.0126 141.305L92.2843 151.375C92.2236 151.624 92.1684 151.872 92.1077 152.12L91.4456 162.93C92.9244 163.906 94.5742 163.184 96.1303 163.399C96.6503 163.66 97.2094 163.835 97.7856 163.917C102.299 163.763 105.014 167.416 105.869 171.94C106.512 174.898 106.123 177.987 104.766 180.692C104.503 181.118 104.366 181.609 104.369 182.11C104.821 185.68 102.923 188.119 100.506 190.337C100.258 190.563 99.9873 190.779 99.9542 190.795C99.6342 193.83 99.4024 196.639 99.0161 199.414C98.3153 204.115 98.5802 208.794 98.9665 213.49C99.452 219.439 100.887 225.337 100.07 231.363L99.8548 232.03C99.8548 234.587 99.8732 237.144 99.91 239.7C99.91 239.777 99.8162 239.877 99.8383 239.932C99.9091 240.077 99.9922 240.215 100.087 240.346C100.175 242.88 100.261 245.413 100.346 247.944L100.545 248.656C100.594 250.079 100.683 251.497 100.677 252.921C100.597 253.361 100.448 253.786 100.236 254.179L96.5 254.196Z" fill="#54BFFB"/>
<path d="M224.3 240.809L224.267 245.224C224.206 245.466 224.14 245.704 224.08 245.946C223.896 249.191 223.712 252.439 223.528 255.691L223.428 256.292C223.208 258.5 223.026 260.707 222.75 262.914C222.27 266.776 221.74 270.639 221.205 274.501C221.112 274.924 220.986 275.339 220.83 275.743C219.676 275.947 218.622 276.013 217.668 275.291C217.574 275.053 217.475 274.822 217.381 274.584C217.657 269.226 217.933 263.869 218.192 258.511C218.269 256.728 218.192 254.935 218.192 253.147V252.595C218.909 246.614 219.45 240.627 219.097 234.591L218.755 233.989C218.799 231.523 218.755 229.051 218.904 226.584C218.902 225.62 219.145 224.67 219.61 223.825C221.089 221.618 221.497 219.185 221.867 216.652C222.154 214.693 222.849 212.789 223.368 210.869L224.245 210.908C224.245 212.778 224.245 214.649 224.339 216.514C224.41 219.057 224.646 221.594 225.045 224.107C225.727 227.522 225.742 231.037 225.089 234.458C224.731 236.367 224.571 238.321 224.322 240.23C224.256 240.285 224.14 240.346 224.146 240.395C224.183 240.538 224.235 240.677 224.3 240.809Z" fill="#54BFFB"/>
<path d="M223.87 207.779C223.782 204.233 223.695 200.685 223.61 197.135C223.539 196.583 223.467 195.987 223.39 195.413C223.114 187.688 222.777 179.963 222.59 172.282C222.501 168.69 222.777 165.109 222.766 161.5C222.755 157.892 223.461 154.327 221.889 150.901C221.863 150.817 221.853 150.729 221.861 150.641C221.707 147.849 221.554 145.055 221.403 142.26C222.474 141.018 224.339 140.819 225.183 139.158C225.636 138.265 227.639 138.706 228.339 139.644C229.076 140.748 229.899 141.793 230.8 142.767C231.76 143.694 231.805 144.566 231.446 145.747C229.945 150.674 228.262 155.563 227.147 160.579C226.27 164.535 226.127 168.652 225.658 172.718L225.509 173.342C225.393 175.979 225.227 178.622 225.172 181.26C225.133 183.048 225.299 184.841 225.271 186.629C225.2 192.263 225.111 197.896 224.946 203.525C224.826 204.954 224.621 206.374 224.333 207.779C224.18 207.752 224.023 207.752 223.87 207.779Z" fill="#54BFFB"/>
<path d="M205.181 165.446C205.413 163.172 205.643 160.901 205.871 158.631C205.915 158.206 205.782 157.649 206.003 157.367C207.658 155.243 207.007 152.826 207.046 150.47C207.09 147.711 207.35 145.007 207.416 142.276C207.476 139.832 207.416 137.387 207.372 134.943C207.334 134.445 207.141 133.972 206.82 133.591C205.633 132.14 205.363 130.418 205.225 128.652C205.087 126.887 205.92 125.954 207.636 125.838C211.063 125.606 212.878 127.648 211.378 130.677C209.645 134.176 209.639 137.906 208.999 141.553C208.58 143.954 208.619 146.437 208.414 148.881C208.321 149.985 208.017 151.088 208.034 152.192C208.067 153.88 208.299 155.563 208.442 157.246C208.536 157.445 208.63 157.638 208.718 157.831C208.718 159.652 208.718 161.467 208.718 163.288L208.552 164.022C208.922 168.337 207.636 172.464 207.09 176.713H204.723C204.199 173.088 204.784 169.606 204.927 166.119C205.032 165.898 205.109 165.672 205.181 165.446Z" fill="#54BFFB"/>
<path d="M72.912 0.521626C73.988 0.725788 75.086 0.869267 76.1455 1.1562C76.9674 1.38307 77.7601 1.7053 78.5072 2.11631C79.4121 2.6074 80.5156 3.30816 79.9804 4.44484C79.6272 5.20079 78.5568 5.65883 77.7732 6.14992C77.3594 6.39823 76.6697 6.27131 76.3496 6.56376C74.6336 8.026 72.5919 7.72249 70.5944 7.83836C69.0746 7.93363 67.5661 8.16258 66.0864 8.52257C63.8351 9.07436 62.4004 8.89227 59.9229 7.419C61.0264 5.69189 63.2336 5.91263 64.6738 4.33451V1.41552L69.7061 0.460938L72.912 0.521626Z" fill="#54BFFB"/>
<path d="M98.0012 268.526C98.3985 266.153 99.1047 266.55 100.76 266.572C102.173 266.572 102.548 267.074 102.758 268.868C102.802 269.282 102.758 269.706 102.802 270.126C102.884 270.319 102.967 270.518 103.056 270.716V277.851L102.747 278.254C102.081 278.345 101.41 278.393 100.738 278.397C99.0827 278.309 98.6688 277.989 98.4536 276.3C98.1501 273.95 98.0287 271.571 97.8301 269.21L98.0012 268.526Z" fill="#54BFFB"/>
<path d="M218.656 120.696H232.23C231.424 120.927 230.598 121.088 229.764 121.176C226.79 121.237 223.815 121.231 220.841 121.176C220.099 121.091 219.366 120.93 218.656 120.696Z" fill="#54BFFB"/>
<path d="M55.9882 26.8912C55.368 27.0965 54.7282 27.237 54.079 27.3106C51.2153 27.3106 48.357 27.272 45.4932 27.2444C45.7691 27.0954 46.045 26.814 46.3264 26.814C49.5488 26.8305 52.7658 26.8912 55.9882 26.8912Z" fill="#54BFFB"/>
<path d="M104.313 105.246C107.42 105.246 110.521 105.246 113.628 105.246C113.81 105.246 113.986 105.516 114.179 105.665L104.313 105.246Z" fill="#54BFFB"/>
<path d="M197.627 29.3524C196.226 29.2034 194.83 29.0158 193.428 28.9054C192.418 28.8282 191.397 28.8558 190.388 28.8392C192.639 28.7289 194.89 28.6075 197.142 28.5523C197.296 28.5468 197.467 29.0985 197.627 29.3524Z" fill="#54BFFB"/>
<path d="M285.841 51.6058L279.534 51.9975C280.209 51.8116 280.897 51.6788 281.592 51.6003C283.005 51.5451 284.423 51.5948 285.841 51.6058Z" fill="#54BFFB"/>
<path d="M137.343 16.4844L131.577 16.4237C133.442 15.7395 135.493 15.7611 137.343 16.4844Z" fill="#54BFFB"/>
<path d="M223.87 207.779C224.023 207.751 224.18 207.751 224.334 207.779C224.334 208.827 224.295 209.881 224.273 210.935L223.396 210.897C223.396 210.389 223.395 209.876 223.434 209.363C223.495 209.313 223.611 209.263 223.611 209.214C223.606 209.072 223.587 208.932 223.556 208.794L223.87 207.779Z" fill="#54BFFB"/>
<path d="M96.1085 163.415C94.5525 163.2 92.9026 163.923 91.4238 162.946L96.1085 163.415Z" fill="#54BFFB"/>
<path d="M91.9919 113.887H87.71C88.3736 113.551 89.107 113.375 89.8509 113.375C90.5948 113.375 91.3282 113.551 91.9919 113.887Z" fill="#54BFFB"/>
<path d="M96.501 254.195H100.27C99.7203 254.589 99.0613 254.801 98.3853 254.801C97.7093 254.801 97.0503 254.589 96.501 254.195Z" fill="#54BFFB"/>
<path d="M130.651 16.4075L126.904 16.5068C128.135 15.8557 129.382 15.6074 130.651 16.4075Z" fill="#54BFFB"/>
<path d="M262.126 168.569C263.031 168.834 263.34 169.314 262.677 170.136C261.684 169.904 262.071 169.176 262.126 168.569Z" fill="#54BFFB"/>
<path d="M223.39 195.414C223.467 195.965 223.539 196.561 223.61 197.135C222.501 196.694 222.617 196.092 223.39 195.414Z" fill="#54BFFB"/>
<path d="M72.9112 0.521276L69.6777 0.46611C70.7648 -0.24018 71.8407 -0.0801748 72.9112 0.521276Z" fill="#54BFFB"/>
<path d="M44.0195 72.7725C44.0912 73.9312 43.1752 73.9809 42.4082 74.1905L44.0195 72.7725Z" fill="#54BFFB"/>
<path d="M139.407 274.259C139.7 274.551 140.671 274.557 139.86 275.318L139.407 274.259Z" fill="#54BFFB"/>
<path d="M264.151 173.248L265.139 172.696C265.134 173.496 264.615 173.347 264.151 173.248Z" fill="#54BFFB"/>
<path d="M217.397 274.645C217.491 274.882 217.591 275.114 217.684 275.351C217.591 275.092 217.491 274.86 217.397 274.645Z" fill="#54BFFB"/>
<path d="M103.028 270.716C102.94 270.518 102.857 270.319 102.774 270.126C102.868 270.319 102.951 270.518 103.028 270.716Z" fill="#54BFFB"/>
<path d="M218.22 252.623V253.175L217.828 252.783L218.22 252.623Z" fill="#54BFFB"/>
<path d="M224.08 245.952C224.141 245.709 224.207 245.472 224.268 245.229C224.201 245.488 224.141 245.726 224.08 245.952Z" fill="#54BFFB"/>
<path d="M224.301 240.809C224.245 240.679 224.203 240.544 224.174 240.406C224.174 240.357 224.284 240.296 224.35 240.241L224.301 240.809Z" fill="#54BFFB"/>
<path d="M100.098 240.362C100.004 240.231 99.9205 240.093 99.8496 239.948C99.8496 239.893 99.8938 239.794 99.9213 239.716C99.982 239.932 100.043 240.147 100.098 240.362Z" fill="#54BFFB"/>
<path d="M223.555 208.778C223.587 208.916 223.605 209.056 223.61 209.197C223.61 209.247 223.494 209.297 223.434 209.346C223.472 209.159 223.511 208.982 223.555 208.778Z" fill="#54BFFB"/>
<path d="M157.849 201.025C157.799 201.241 157.755 201.461 157.711 201.682C157.755 201.461 157.799 201.257 157.849 201.025Z" fill="#54BFFB"/>
<path d="M120.337 191.876C120.295 191.736 120.265 191.592 120.249 191.446C120.249 191.396 120.354 191.341 120.415 191.292L120.337 191.876Z" fill="#54BFFB"/>
<path d="M120.685 187.192C120.639 187.057 120.606 186.919 120.586 186.778C120.586 186.739 120.707 186.69 120.774 186.646L120.685 187.192Z" fill="#54BFFB"/>
<path d="M158.395 173.27C158.322 173.141 158.259 173.006 158.207 172.868C158.207 172.823 158.29 172.752 158.339 172.691C158.356 172.884 158.373 173.077 158.395 173.27Z" fill="#54BFFB"/>
<path d="M265.381 167.597C265.458 167.388 265.53 167.184 265.607 166.979C265.53 167.195 265.458 167.399 265.381 167.597Z" fill="#54BFFB"/>
<path d="M150.648 157.196C150.554 157.406 150.46 157.61 150.372 157.82C150.482 157.61 150.554 157.406 150.648 157.196Z" fill="#54BFFB"/>
<path d="M117.992 154.658C118.089 154.784 118.174 154.919 118.246 155.061C118.246 155.116 118.185 155.215 118.152 155.293C118.052 155.163 117.963 155.024 117.887 154.879C117.865 154.829 117.953 154.735 117.992 154.658Z" fill="#54BFFB"/>
<path d="M92.0859 152.148C92.1466 151.899 92.2018 151.651 92.2625 151.403C92.2018 151.64 92.1466 151.888 92.0859 152.148Z" fill="#54BFFB"/>
<path d="M118.191 136.631C118.191 136.819 118.136 137.007 118.103 137.183C118.136 137.007 118.163 136.819 118.191 136.631Z" fill="#54BFFB"/>
<path d="M322.894 41.8174C322.982 41.6353 323.065 41.4477 323.153 41.2656L322.894 41.8174Z" fill="#54BFFB"/>
<path d="M262.528 122.688C262.528 122.875 262.528 123.068 262.528 123.239L262.12 123.068L262.528 122.688Z" fill="#54BFFB"/>
<path d="M46.4308 72.2378C46.4308 72.0446 46.3811 71.8515 46.3535 71.6528C46.4057 71.7762 46.4481 71.9036 46.4804 72.0336C46.497 72.0998 46.4473 72.1715 46.4308 72.2378Z" fill="#54BFFB"/>
<path d="M41.6582 75.2227C41.6251 75.4434 41.5865 75.6586 41.5479 75.8793C41.5865 75.6586 41.6251 75.4489 41.6582 75.2227Z" fill="#54BFFB"/>
<path d="M41.5811 78.8311C41.6473 79.0628 41.719 79.2946 41.7907 79.5263C41.719 79.3111 41.6473 79.0628 41.5811 78.8311Z" fill="#54BFFB"/>
<path d="M116.393 210.858C116.343 211.073 116.288 211.283 116.238 211.498C116.271 211.283 116.343 211.073 116.393 210.858Z" fill="#54BFFB"/>
<path d="M155.244 142.497L152.319 136.979L155.431 136.013C156.96 138.149 155.558 140.267 155.873 142.331L155.244 142.497Z" fill="#54BFFB"/>
<path d="M62.1128 30.4723C61.3062 30.7026 60.4808 30.8613 59.6463 30.9469C57.0198 31.0094 54.3896 31.0094 51.7557 30.9469C51.0148 30.8609 50.2846 30.7001 49.5762 30.4668L62.1128 30.4723Z" fill="#54BFFB"/>
<path d="M291.906 57.7031C291.784 57.819 291.674 58.0287 291.541 58.0452C288.231 58.3984 284.92 58.5971 281.637 57.8135L291.906 57.7031Z" fill="#54BFFB"/>
<path d="M252.215 91.6992C253.633 90.8881 255.045 91.1474 256.453 91.6992H252.215Z" fill="#54BFFB"/>
<path d="M95.5962 23.702H91.9268C92.4799 23.3664 93.1145 23.189 93.7614 23.189C94.4084 23.189 95.043 23.3664 95.5962 23.702Z" fill="#54BFFB"/>
<path d="M108.657 43.3677C108.612 43.1746 108.568 42.987 108.519 42.8159C108.546 42.987 108.612 43.1746 108.657 43.3677Z" fill="#54BFFB"/>
<path d="M162.445 114.974C162.445 115.156 162.5 115.332 162.533 115.525C162.441 115.407 162.358 115.282 162.285 115.15C162.285 115.15 162.384 115.029 162.445 114.974Z" fill="#54BFFB"/>
<path d="M162.505 111.371L162.428 111.922C162.45 111.74 162.477 111.558 162.505 111.371Z" fill="#54BFFB"/>
</svg>
