<svg width="223" height="209" viewBox="0 0 223 209" fill="none" xmlns="http://www.w3.org/2000/svg">
<path d="M183.132 92.1926C183.04 96.2201 183.302 100.248 183.914 104.23C184.293 106.885 184.672 109.681 183.242 112.291C182.84 113.023 182.81 113.96 182.612 114.806C182.559 114.946 182.51 115.087 182.457 115.231C182.396 116.396 182.332 117.556 182.271 118.721L181.592 119.1C180.166 119.203 180.181 119.21 180.644 117.818C180.68 117.532 180.666 117.242 180.602 116.961C181.053 116.396 180.841 116.065 180.223 115.883C180.446 114.715 179.638 113.805 179.384 112.754C179.213 112.033 178.868 111.369 179.096 110.603L178.868 109.844C178.868 109.533 178.899 109.222 178.918 108.911L179.077 108.459C179.067 108.205 179.087 107.95 179.138 107.701C179.517 106.597 179.896 105.5 180.276 104.396C180.435 103.926 180.439 103.338 180.731 102.981C181.759 101.722 181.713 100.25 181.615 98.8086C181.289 94.1159 180.89 89.4271 180.518 84.7345C180.518 84.6055 180.518 84.4727 180.518 84.3551C180.424 82.1852 180.329 80.0115 180.226 77.5912C179.631 77.743 179.047 77.7581 178.625 78.0275C175.96 79.6808 173.016 80.8375 169.938 81.4417C167.704 81.9045 165.5 82.7542 163.11 82.6442C161.972 82.5911 160.834 82.8605 159.669 82.9819H150.337C145.318 83.2019 140.5 82.0183 135.701 80.7968C133.534 80.1976 131.399 79.4859 129.305 78.6648C127.94 78.1603 126.938 78.3954 125.793 79.3628C121.699 82.8225 117.591 86.2709 113.274 89.4537C111.498 90.77 110.095 92.0068 109.719 94.2791C109.37 96.4035 108.794 98.4937 108.346 100.455C109.336 101.24 110.152 101.794 110.85 102.473C111.318 102.884 111.649 103.429 111.797 104.035C111.945 104.64 111.903 105.276 111.677 105.857C111.203 107.135 110.948 108.296 111.377 109.73C111.84 111.293 110.846 112.708 109.898 113.903C109.124 114.873 108.704 116.077 108.706 117.317C108.727 117.787 108.778 118.254 108.858 118.717C108.824 118.759 108.759 118.808 108.767 118.839C108.803 118.934 108.846 119.027 108.896 119.116C109.602 120.254 110.353 121.339 111.009 122.492C111.665 123.645 112.295 124.946 112.906 126.183C113.426 127.207 113.907 128.254 114.454 129.271C115.14 130.553 115.102 130.788 113.873 131.642C113.494 131.87 113.166 132.175 112.913 132.538C112.659 132.9 112.485 133.313 112.401 133.747C112.155 135.306 111.931 136.869 111.711 138.432C111.659 139.13 111.564 139.825 111.426 140.511C110.926 142.309 110.349 144.089 109.803 145.871C108.46 145.974 108.19 145.822 108.206 144.79C108.24 142.742 108.335 140.693 108.407 138.649C108.437 138.497 108.467 138.345 108.502 138.197C108.668 136.615 108.858 135.037 108.998 133.455C109.116 132.101 108.816 130.895 107.735 129.939C107.124 129.396 106.768 128.687 107.356 127.905C108.687 126.191 108.369 124.366 107.735 122.53C107.529 121.93 107.186 121.387 106.734 120.944C106.552 121.81 106.425 122.687 106.354 123.569C106.32 126.399 106.218 129.259 106.419 132.055C106.675 135.168 106.007 138.288 104.499 141.023C101.279 146.951 99.6922 153.628 99.9015 160.37C99.985 163.377 100.066 166.386 100.144 169.395L100.281 169.881C100.527 172.445 100.873 175.01 100.979 177.582C101.042 179.398 100.939 181.216 100.672 183.014C100.034 187.483 99.2073 191.921 98.5814 196.394C98.1299 199.581 97.8834 202.798 97.5306 206.003C97.4599 206.801 97.3331 207.594 97.1512 208.374C97.0981 208.583 96.6619 208.689 96.1346 209C96.1346 207.862 96.1118 207.02 96.1346 206.162C96.2484 202.054 96.4191 197.942 96.4684 193.833C96.4684 192.316 96.2446 190.799 96.1194 189.281C96.677 188.758 96.0094 188.754 95.8083 188.553C95.5428 186.554 95.4289 184.516 94.9661 182.567C94.3891 180.26 94.6221 177.825 95.6262 175.67C96.39 173.957 96.7781 172.101 96.7643 170.226C96.7643 167.514 96.5329 164.805 96.5101 162.093C96.4836 158.906 96.6277 155.723 96.6125 152.537C96.6125 148.713 97.7165 145.037 98.0275 141.262C98.1982 139.206 98.2968 137.146 98.5662 135.105C98.7985 133.359 99.1381 131.628 99.5829 129.923C100.304 127.248 101.298 124.653 102.549 122.181C103.223 120.679 103.805 119.137 104.291 117.564C104.756 116.151 104.724 114.621 104.2 113.228C103.889 112.287 103.733 111.289 103.509 110.318L103.339 109.863V108.501C103.399 108.357 103.464 108.217 103.528 108.072C103.619 107.734 103.747 107.406 103.908 107.094C104.209 106.69 104.364 106.196 104.347 105.692C104.329 105.189 104.141 104.706 103.813 104.324C101.65 104.135 99.8143 103.088 98.0996 101.927C97.4016 101.456 97.1133 100.375 96.6656 99.5559C94.4198 95.4563 92.1778 91.3555 89.9396 87.2534C89.7902 87.0607 89.6225 86.8828 89.4389 86.7223C88.9989 88.2853 88.6005 89.7154 88.1832 91.2025C89.4806 92.0181 90.6946 92.7199 90.9108 94.2374C90.9639 94.3967 91.017 94.5522 91.0739 94.7116C91.0512 95.144 91.0284 95.5803 91.0095 96.0127C90.9488 96.1645 90.888 96.3124 90.8311 96.4642C90.8247 96.6404 90.7861 96.8139 90.7173 96.9763C88.3919 100.455 87.7204 104.624 85.9906 108.357C85.2053 110.053 85.1332 112.101 84.8525 114.006C84.1886 118.774 83.6006 123.554 82.9785 128.326C82.933 128.357 82.8495 128.391 82.8495 128.417C82.8633 128.514 82.8861 128.609 82.9178 128.702C82.8533 129.639 82.785 130.576 82.7205 131.517C82.6788 131.551 82.6067 131.589 82.6067 131.623C82.6178 131.723 82.6381 131.822 82.6674 131.919C82.1553 137.609 82.6674 143.337 81.6697 148.99C81.5358 149.981 81.5538 150.986 81.7228 151.972C82.0073 154.043 82.3943 156.103 82.7774 158.371C81.9049 159.244 80.653 158.781 79.4732 158.69C79.1236 158.63 78.7872 158.509 78.4793 158.333C76.4725 157.396 76.2905 156.759 77.2199 154.756C78.4376 152.146 79.6591 149.528 79.496 146.516C79.4733 146.137 79.7388 145.758 79.8754 145.405C79.9095 145.257 79.9474 145.113 79.9816 144.965C80.0409 144.676 80.0852 144.385 80.1143 144.092C80.3761 139.639 80.5847 135.177 80.8996 130.728C81.2562 125.69 81.6356 120.648 82.1401 115.625C82.3526 113.539 82.0187 111.559 81.6621 109.556C81.499 108.63 81.3473 107.701 81.1917 106.771C81.2145 106.718 81.2714 106.65 81.2562 106.612C81.2066 106.514 81.1482 106.422 81.0817 106.335C81.1007 104.772 81.131 103.213 81.1386 101.65C81.1386 99.2107 81.1386 96.7677 81.1386 94.3284C81.1614 94.1994 81.1804 94.0704 81.1993 93.9491C81.6849 92.1623 82.9064 91.1873 84.6894 90.8838C85.2698 89.4878 84.8715 88.1297 84.6059 86.8437C84.0407 84.1085 83.3161 81.4075 82.5877 78.7103C82.3645 78.0397 82.0368 77.4084 81.6166 76.8401C80.3078 74.8788 80.2889 74.8902 80.0992 72.7696L78.4338 72.6368C78.3086 72.5344 78.1872 72.3485 78.0544 72.3485C75.9187 72.3485 73.7867 72.3485 71.6509 72.3485C68.8967 72.0453 66.1741 71.5033 63.5138 70.7287C58.6352 69.3402 54.3788 66.8592 50.3842 63.8244C49.375 63.1302 48.4014 62.3857 47.467 61.5938C46.6665 60.8351 46.0444 59.9056 45.3236 59.0635C42.8965 56.2519 41.1631 52.91 40.263 49.3064C40.024 48.3618 40.0999 47.3376 40.0164 46.1578C39.6599 45.967 39.276 45.8326 38.8784 45.7595C37.7112 45.6963 36.5707 45.386 35.5325 44.849C34.6174 44.4518 33.6546 44.175 32.6683 44.0258C32.3534 43.9575 31.9817 44.1965 31.6327 44.2952C31.7048 44.4355 31.7768 44.5759 31.8527 44.7162C31.8375 46.2337 31.8249 47.7511 31.8148 49.2685C31.8148 49.4051 31.8489 49.5378 31.8679 49.6706C32.528 50.6999 33.1893 51.728 33.8519 52.7548L33.9999 53.2328C33.9581 53.9118 33.9126 54.5871 33.8671 55.2623C33.8292 55.4065 33.7912 55.5468 33.7495 55.691C33.7495 56.4004 33.7874 57.1098 33.7153 57.8116C33.6869 58.2645 33.5573 58.7053 33.336 59.1014C32.3777 60.5607 31.67 62.1698 31.2419 63.8623C30.9688 64.9776 30.9498 64.9701 29.8345 65.7326C29.8653 65.0794 29.9413 64.4291 30.0621 63.7865C30.5932 61.7645 30.6539 59.8032 29.2579 58.0961C28.3892 57.0339 28.9127 55.82 28.6965 54.6819C28.6472 54.5226 28.5978 54.3633 28.5523 54.2039L28.5295 52.1744C28.5561 52.0227 28.5827 51.8747 28.6054 51.7229C28.5945 51.6918 28.5946 51.6579 28.6056 51.6268C28.6167 51.5958 28.638 51.5695 28.6661 51.5522C28.8102 51.3853 28.9506 51.2146 29.091 51.0439L29.1213 51.0135C29.6486 50.8694 30.2594 50.8353 30.229 50.0386C30.1987 49.242 30.3011 48.5022 30.0583 47.8345C29.381 45.9692 28.0268 44.4268 26.2648 43.5137C25.8323 43.2747 25.5554 42.755 25.1267 42.4856C23.2299 41.1579 21.3332 39.8302 19.3947 38.5593C17.0464 37.0077 14.5731 35.6269 12.3462 33.9235C10.8819 32.7855 9.69073 31.2946 8.48438 29.8531C5.90476 26.7461 3.55275 23.4799 2.17569 19.6105C1.4663 17.6188 0.749339 15.6272 0.161337 13.5977C-0.0586893 12.839 0.0399136 11.9703 0.03612 11.1509C0.00956514 8.46122 -0.123208 5.79433 0.654472 3.12367C1.26903 1.00307 3.1165 0.0888453 5.26745 0.490962C6.53829 0.726163 7.59669 1.2914 7.82431 2.71778C8.05192 4.14416 9.17861 4.85355 9.96767 5.79435C11.6558 7.81252 13.5374 9.66374 15.3356 11.5909C17.9911 14.4247 21.2611 16.1432 24.8877 17.4557C26.6252 18.0779 28.4385 18.1879 30.157 18.7721C30.5066 18.8208 30.862 18.8093 31.2078 18.738C33.1767 18.738 35.1417 18.7949 37.1106 18.7835C37.5568 18.7329 37.9967 18.6363 38.4232 18.4952C41.3132 18.4272 44.1807 17.9678 46.9473 17.1295C50.8648 16.0319 54.7848 14.9305 58.7073 13.8253C60.9417 13.1956 63.2216 13.3132 65.4561 13.6356C67.2547 13.8616 69.0136 14.3339 70.6835 15.0392C72.2996 15.7638 73.7184 16.936 75.1827 17.9717C75.8068 18.4777 76.3961 19.0252 76.9467 19.6105C79.3253 15.502 82.2577 12.1296 87.1893 11.3367L89.7652 11.2684H90.4025L94.3667 11.3102C99.5412 11.8337 103.828 13.9467 107.083 18.1196C109.64 21.3736 111.87 24.8718 113.74 28.5633C114.15 28.3737 114.532 28.1314 114.878 27.8425C117.716 24.6901 121.328 22.6984 125.121 21.0368C126.088 20.6652 127.089 20.3908 128.11 20.2175C129.006 20.024 129.92 19.9367 130.827 19.8039C131.521 19.8039 132.223 19.8039 132.917 19.8495C133.88 19.9253 134.84 20.0543 135.804 20.1568C143.19 21.0634 148.558 24.5459 150.796 32.0685C151.134 31.8959 151.454 31.69 151.752 31.454C153.046 30.1756 154.696 29.4623 156.304 28.7643C159.014 27.5998 162.014 27.2901 164.904 27.8766C166.732 28.1645 168.538 28.5751 170.31 29.1057C173.345 30.1186 176.27 31.4047 179.289 32.4479C181.67 33.2808 184.09 33.9924 186.543 34.5799C188.121 34.9592 189.748 35.073 191.247 35.7748C191.478 35.881 191.823 35.7482 192.115 35.7255L196.451 35.4562C200.465 35.0768 204.19 33.7301 207.768 31.985C209.956 30.9191 212.043 29.6368 213.625 27.6756C214.717 26.3289 215.939 25.0846 217.088 23.7796C217.536 23.2712 217.995 22.8919 218.739 23.0209C219.585 23.1764 220.449 23.2333 221.276 23.4457C221.531 23.5102 221.69 23.9389 221.891 24.2045L222.16 24.8153L222.103 28.3432C222.043 28.4684 221.986 28.5974 221.925 28.7226C221.667 30.9722 221.436 33.2293 220.271 35.2551C220.196 35.4142 220.158 35.5877 220.157 35.7635C220.017 37.9941 219.019 39.9364 218.242 41.9697C217.435 44.049 216.427 46.0439 215.23 47.9256C213.773 50.2738 212.297 52.6561 210.503 54.754C207.997 57.5806 205.019 59.9502 201.702 61.7569C199.646 62.895 197.275 63.4868 195.082 64.4124C194.392 64.7547 193.763 65.2098 193.223 65.7591C192.501 66.4144 191.826 67.1205 191.205 67.8721C190.849 68.3161 190.572 68.8178 190.386 69.3554C189.688 71.2977 189.107 73.2893 188.348 75.2089C187.48 77.4091 186.323 79.4994 185.564 81.73C184.756 84.0934 184.244 86.5592 183.667 88.9908C183.451 89.8823 183.379 90.808 183.238 91.7184L183.132 92.1926ZM111.73 76.5669C111.73 76.6959 111.692 76.8211 111.677 76.9463V79.0441C111.635 79.0821 111.559 79.1428 111.567 79.158C111.617 79.2485 111.674 79.3347 111.737 79.4159L112.655 81.7679C113.111 81.4227 113.494 81.1648 113.843 80.8613C118.646 76.6504 123.202 72.1892 127.185 67.2045C129.104 64.7918 130.739 62.1476 132.462 59.5794C133.325 58.3414 134.106 57.0489 134.802 55.71C135.789 53.7259 136.699 51.7002 137.503 49.6403C139.169 45.3232 140.515 40.8923 140.823 36.2566C141.134 31.5033 139.594 27.3835 136.073 24.1969C133.884 23.8782 132.234 25.0087 130.739 26.0216C129.013 27.1938 127.53 28.7871 126.115 30.35C121.828 35.0844 119.203 40.7595 117.511 46.8254C116.57 50.1979 115.963 53.6121 114.298 56.7911C112.272 60.6568 112.147 64.9663 112.428 69.2378C112.61 71.7264 112.227 74.1429 111.734 76.5669H111.73ZM108.46 53.946L107.879 53.5325C106.524 53.2241 105.26 52.6031 104.188 51.7191C103.653 51.2753 103.483 50.9263 103.79 50.2434C105.156 47.2314 105.47 44.0182 105.497 40.7595C105.543 34.8416 104.97 29.0337 102.257 23.643C101.559 22.2584 100.82 20.8851 99.9812 19.5725C99.268 18.4345 98.4145 17.3875 97.5951 16.3215C97.2532 15.8436 96.7951 15.4607 96.264 15.2092C95.733 14.9576 95.1466 14.8456 94.5602 14.8837C92.6634 14.9368 91.1915 16.0218 90.0345 17.1598C88.4943 18.6773 87.5156 20.7106 86.9162 22.8843C86.2789 25.2135 86.1158 27.5997 85.9906 29.9631C85.8047 33.438 85.7895 36.9281 85.9375 40.403C86.0133 42.2201 86.643 44.0069 86.9465 45.8202C87.986 51.9999 89.8828 57.9596 91.7075 63.923C91.753 64.0748 91.9085 64.2 92.0868 64.4086C93.3393 64.1513 94.5756 63.8207 95.7893 63.4185C97.0602 62.9215 98.3234 63.1491 99.5829 63.1415C99.894 63.1415 100.205 63.5437 100.679 63.8775C98.7825 66.1536 96.1535 66.7834 93.6118 67.9594C93.6346 68.6384 93.4525 69.4768 93.7143 70.1786C96.0966 76.5214 98.4448 82.8832 101.87 88.767C102.09 89.1464 102.371 89.4992 102.629 89.9051L105.664 87.5835C105.668 87.3232 105.651 87.063 105.611 86.8058C105.26 85.5866 105.192 84.3035 105.413 83.0542C105.634 81.805 106.138 80.6228 106.885 79.598C107.644 78.5054 108.05 77.1739 108.615 75.9524L108.926 74.8143C108.972 74.7254 108.991 74.6255 108.983 74.526C109.036 74.3705 109.086 74.2111 109.139 74.0556C109.201 73.4153 109.22 72.7714 109.196 72.1285C108.998 70.2317 108.619 68.3349 108.524 66.4192C108.35 62.9746 108.331 59.5225 108.247 56.0741C108.285 55.9224 108.327 55.7745 108.365 55.6227C108.422 55.0651 108.445 54.5264 108.464 53.946H108.46ZM74.6364 29.4206C74.4619 28.8629 74.2571 28.3167 74.1167 27.7515C73.0583 23.6203 70.7822 20.2364 67.6677 17.4102C67.1328 16.9284 66.4082 16.6515 65.7709 16.2949C65.3906 16.0642 64.9544 15.9422 64.5096 15.9422C64.0648 15.9422 63.6285 16.0642 63.2482 16.2949C62.8157 16.4277 62.3871 16.5756 61.9508 16.6742C58.4418 17.6151 55.0389 18.8859 51.454 19.6484C48.5595 20.263 45.6499 20.5095 42.7516 20.942H34.1288C29.0341 21.0824 24.2656 19.6636 19.7133 17.6037C15.0131 15.4907 11.7241 11.6744 8.42747 7.82389C8.43568 9.34796 8.55488 10.8694 8.78409 12.3762C9.34553 15.9345 10.7605 19.2311 12.4183 22.3646C16.3598 29.8227 22.0615 35.532 29.8877 38.9121C35.1038 41.1617 40.4299 43.085 46.052 44.1206C49.8456 44.8035 53.5443 45.805 57.4327 45.8012C58.4721 45.8012 59.5381 46.3171 60.5472 46.7117C60.8924 46.8482 61.1048 47.3376 61.3931 47.6828C59.4015 48.9498 53.8895 48.8778 47.5618 47.5804C47.6463 48.1 47.7875 48.6089 47.9829 49.0978C49.2386 51.4194 50.3349 53.8701 51.8713 55.9945C55.0655 60.414 59.3143 63.684 64.1169 66.2371C66.3821 67.4793 68.9234 68.1315 71.5068 68.1339C74.3823 68.1339 77.1667 67.6066 79.9436 66.9958C80.2357 66.9313 80.4671 66.6165 80.7441 66.3964C78.2745 60.3723 76.7343 54.2115 75.4938 47.9711C74.5863 43.6441 74.2231 39.2207 74.4126 34.8037L74.5264 34.3409C74.6073 32.8235 74.6845 31.3187 74.7578 29.8265C74.6819 29.6824 74.6364 29.5534 74.6364 29.4206ZM156.494 79.4235C166.528 78.441 175.28 75.023 181.66 66.2485H178.481L176.205 65.9791C173.371 66.0853 170.754 65.1901 168.136 64.2683C165.519 63.3464 162.632 63.0581 160.227 61.2675C161.183 60.3002 162.158 60.5581 163.007 60.7478C164.927 61.1727 166.801 61.8062 168.72 62.2463C170.272 62.5953 171.854 62.7849 173.424 63.0429H176.338H177.658L179.934 62.7622C180.955 62.5877 181.987 62.4701 182.992 62.2311C187.994 61.0845 192.683 58.8531 196.728 55.6948C202.73 50.9984 206.971 44.8604 210.802 38.3962C211.061 37.8824 211.29 37.3542 211.489 36.8143C210.976 36.9281 210.47 37.0686 209.972 37.2354C207.878 38.0813 205.799 38.9311 203.492 39.0297C202.559 39.0714 201.641 39.4091 200.719 39.6443L193.659 39.7201C190.148 39.413 186.675 38.7612 183.292 37.774C180.568 37.0153 177.855 36.1807 175.204 35.2096C172.211 34.1132 169.297 32.8007 166.331 31.6361C165.753 31.4098 165.136 31.3038 164.516 31.3247C163.896 31.3456 163.287 31.4928 162.727 31.7574C161.001 32.4782 159.567 33.6542 157.951 34.5116C157.229 34.9633 156.567 35.5051 155.982 36.1238C154.636 37.4525 153.502 38.9786 152.617 40.6496C152.135 41.5069 151.676 42.4022 150.549 42.6563C150.372 42.7146 150.211 42.8137 150.08 42.9454C149.948 43.0772 149.849 43.238 149.791 43.415C149.309 46.1767 148.304 48.7715 147.31 51.3815C146.83 52.788 146.228 54.15 145.511 55.452C143.945 58.0544 142.147 60.5126 140.58 63.115C139.183 65.367 137.599 67.4976 135.845 69.4844C134.552 71.0018 132.989 72.2764 131.582 73.6914C131.081 74.196 130.675 74.7954 130.098 75.5086C130.672 75.7733 131.261 76.0025 131.862 76.1952C135.371 77.0487 138.941 77.7126 142.378 78.7748C144.112 79.3135 145.792 79.3666 147.518 79.4273L149.794 79.6928H153.929L156.494 79.4235ZM106.76 97.9664L107.193 97.8375C106.977 96.4187 107.951 94.9619 106.889 93.4938L104.75 94.1577L106.76 97.9664Z" fill="#54BFFB"/>
<path d="M66.355 174.76C65.2169 174.495 64.6972 173.785 64.6213 172.628C64.5454 171.471 64.3595 170.291 64.2419 169.127L64.1812 168.652C64.1092 167.097 63.9081 165.534 64.0067 163.994C64.0864 162.81 64.6099 161.665 64.8186 160.481C65.0689 159.066 65.4104 157.674 65.6873 156.27C66.0918 154.167 65.847 151.991 64.9855 150.03C64.481 148.839 64.4847 147.617 64.4468 146.384C64.3558 143.205 64.314 140.026 64.1888 136.851C64.1167 135.03 63.9233 133.213 63.7753 131.275L62.2314 130.607C61.852 132.883 61.4727 134.996 61.1426 137.056L58.4871 137.359C58.6275 137.416 58.5175 137.39 58.4264 137.333C57.148 136.551 57.0873 135.337 57.1442 134.01C57.3035 130.004 57.406 125.994 57.5236 121.984C57.5528 121.582 57.5104 121.177 57.3984 120.789C55.881 116.446 57.1138 114.169 60.7746 112.523C60.9302 111.666 61.0857 110.74 61.264 109.822C62.2086 104.925 62.8839 99.9967 62.8383 94.9968C62.8383 93.3542 62.8687 91.6395 62.4324 90.0651C61.9051 88.1684 61.4347 86.2716 61.0629 84.3748C61.0311 84.1792 60.9582 83.9925 60.849 83.827C60.7398 83.6616 60.5968 83.5212 60.4294 83.415C59.2914 83.0015 58.8665 81.9773 58.2861 81.0858C57.6184 80.0653 57.717 79.5684 58.7337 78.9576C59.2533 78.696 59.7908 78.4716 60.3422 78.2861H63.286C64.5113 78.8324 66.0629 78.8248 66.7799 80.2056C66.7343 80.9226 65.1448 80.9644 66.1311 82.0076C66.1804 82.0569 65.9908 82.4591 65.8239 82.5729C65.0424 83.104 65.0651 83.9044 64.9096 84.7238C64.2344 88.4756 64.3596 92.2654 64.2268 96.0438C64.2268 96.279 64.1661 96.5104 64.1357 96.7418L63.9574 97.1477L63.4567 104.071C63.415 104.242 63.377 104.412 63.3353 104.583L62.8801 112.015C63.8967 112.686 65.031 112.189 66.1008 112.337C66.4583 112.517 66.8427 112.637 67.2389 112.694C70.342 112.587 72.2084 115.099 72.7964 118.21C73.2385 120.243 72.9707 122.366 72.0377 124.226C71.8573 124.519 71.7627 124.857 71.7646 125.201C72.0757 127.656 70.7707 129.332 69.1091 130.857C68.9384 131.013 68.7525 131.161 68.7298 131.172C68.5097 133.259 68.3504 135.19 68.0848 137.098C67.603 140.33 67.7851 143.547 68.0507 146.775C68.3845 150.865 69.3708 154.92 68.8094 159.062L68.6614 159.521C68.6614 161.279 68.6741 163.037 68.6994 164.794C68.6994 164.848 68.6349 164.916 68.6501 164.954C68.6988 165.053 68.7559 165.148 68.8208 165.238C68.8815 166.981 68.9409 168.722 68.9991 170.462L69.1356 170.951C69.1698 171.93 69.2305 172.905 69.2267 173.884C69.1718 174.186 69.0693 174.478 68.9232 174.749L66.355 174.76Z" fill="#54BFFB"/>
<path d="M154.218 165.557L154.195 168.591C154.153 168.758 154.108 168.921 154.066 169.088C153.94 171.319 153.813 173.552 153.687 175.788L153.618 176.201C153.467 177.719 153.341 179.236 153.152 180.753C152.822 183.409 152.458 186.064 152.09 188.72C152.026 189.011 151.939 189.296 151.832 189.573C151.039 189.714 150.314 189.759 149.658 189.262C149.593 189.099 149.525 188.94 149.461 188.777C149.65 185.093 149.84 181.41 150.018 177.726C150.071 176.501 150.018 175.268 150.018 174.039V173.66C150.511 169.547 150.883 165.431 150.64 161.281L150.405 160.868C150.436 159.172 150.405 157.472 150.508 155.777C150.507 155.114 150.674 154.461 150.993 153.88C152.01 152.362 152.291 150.69 152.545 148.948C152.742 147.602 153.22 146.293 153.577 144.973L154.18 144.999C154.18 146.285 154.18 147.571 154.244 148.853C154.293 150.602 154.455 152.346 154.73 154.073C155.199 156.421 155.209 158.838 154.76 161.19C154.514 162.503 154.404 163.846 154.233 165.158C154.187 165.196 154.108 165.238 154.111 165.272C154.137 165.37 154.173 165.466 154.218 165.557Z" fill="#54BFFB"/>
<path d="M153.922 142.848C153.861 140.41 153.802 137.971 153.743 135.53C153.694 135.151 153.645 134.741 153.592 134.347C153.402 129.036 153.171 123.725 153.042 118.444C152.981 115.975 153.171 113.513 153.163 111.032C153.155 108.551 153.641 106.1 152.56 103.744C152.542 103.687 152.536 103.626 152.541 103.566C152.435 101.646 152.33 99.7255 152.226 97.8034C152.962 96.9499 154.244 96.8133 154.825 95.6715C155.136 95.0569 156.513 95.3604 156.995 96.0053C157.501 96.7644 158.067 97.4824 158.687 98.1525C159.347 98.7898 159.377 99.3892 159.13 100.201C158.098 103.589 156.941 106.95 156.175 110.398C155.572 113.118 155.473 115.948 155.151 118.744L155.048 119.173C154.969 120.986 154.855 122.803 154.817 124.616C154.791 125.845 154.904 127.078 154.885 128.307C154.836 132.181 154.775 136.054 154.662 139.923C154.579 140.906 154.439 141.882 154.24 142.848C154.135 142.829 154.027 142.829 153.922 142.848Z" fill="#54BFFB"/>
<path d="M141.073 113.743C141.232 112.181 141.39 110.619 141.547 109.058C141.577 108.766 141.486 108.383 141.638 108.19C142.776 106.729 142.329 105.068 142.355 103.448C142.386 101.551 142.564 99.6921 142.609 97.8143C142.651 96.1338 142.609 94.4532 142.579 92.7726C142.553 92.4307 142.42 92.1056 142.2 91.8432C141.384 90.8455 141.198 89.662 141.103 88.448C141.008 87.2341 141.581 86.5929 142.761 86.5133C145.117 86.3539 146.365 87.7576 145.333 89.8402C144.142 92.2454 144.138 94.8098 143.698 97.3174C143.41 98.9676 143.436 100.675 143.296 102.355C143.231 103.114 143.023 103.873 143.034 104.631C143.057 105.792 143.216 106.949 143.315 108.106C143.379 108.243 143.444 108.376 143.505 108.508C143.505 109.76 143.505 111.008 143.505 112.26L143.391 112.765C143.645 115.731 142.761 118.569 142.386 121.49H140.758C140.398 118.998 140.8 116.604 140.898 114.206C140.971 114.055 141.024 113.899 141.073 113.743Z" fill="#54BFFB"/>
<path d="M50.1378 0.359106C50.8776 0.499468 51.6325 0.59811 52.3608 0.795375C52.9259 0.951353 53.4709 1.17288 53.9845 1.45545C54.6066 1.79308 55.3653 2.27485 54.9973 3.05632C54.7546 3.57604 54.0186 3.89094 53.4799 4.22856C53.1954 4.39927 52.7212 4.31202 52.5012 4.51308C51.3214 5.51837 49.9178 5.3097 48.5445 5.38937C47.4996 5.45487 46.4625 5.61227 45.4452 5.85977C43.8974 6.23912 42.9111 6.11393 41.2078 5.10105C41.9665 3.91367 43.4839 4.06543 44.474 2.98047V0.973661L47.9337 0.317383L50.1378 0.359106Z" fill="#54BFFB"/>
<path d="M67.3869 184.611C67.66 182.98 68.1456 183.253 69.2837 183.268C70.2548 183.268 70.5128 183.614 70.657 184.846C70.6873 185.131 70.6569 185.423 70.6873 185.711C70.7442 185.844 70.8011 185.981 70.8618 186.117V191.022L70.6494 191.299C70.1917 191.362 69.7304 191.395 69.2685 191.398C68.1304 191.337 67.8459 191.117 67.698 189.956C67.4893 188.34 67.4059 186.705 67.2693 185.082L67.3869 184.611Z" fill="#54BFFB"/>
<path d="M150.337 82.9775H159.669C159.114 83.1367 158.547 83.2471 157.973 83.3076C155.929 83.3493 153.884 83.3455 151.839 83.3076C151.328 83.249 150.825 83.1384 150.337 82.9775Z" fill="#54BFFB"/>
<path d="M38.503 18.4877C38.0765 18.6288 37.6367 18.7254 37.1904 18.776C35.2215 18.776 33.2565 18.7494 31.2876 18.7305C31.4773 18.6281 31.667 18.4346 31.8604 18.4346C34.0759 18.446 36.2875 18.4877 38.503 18.4877Z" fill="#54BFFB"/>
<path d="M71.7267 72.3555C73.8625 72.3555 75.9944 72.3555 78.1302 72.3555C78.2554 72.3555 78.3768 72.5414 78.5096 72.6438L71.7267 72.3555Z" fill="#54BFFB"/>
<path d="M135.88 20.18C134.916 20.0775 133.956 19.9486 132.993 19.8727C132.298 19.8196 131.597 19.8386 130.902 19.8272C132.45 19.7513 133.998 19.6678 135.546 19.6299C135.652 19.6261 135.77 20.0055 135.88 20.18Z" fill="#54BFFB"/>
<path d="M196.527 35.4794L192.191 35.7487C192.655 35.6209 193.128 35.5296 193.606 35.4756C194.577 35.4376 195.552 35.4718 196.527 35.4794Z" fill="#54BFFB"/>
<path d="M94.435 11.3323L90.4707 11.2905C91.7529 10.8202 93.1629 10.835 94.435 11.3323Z" fill="#54BFFB"/>
<path d="M153.922 142.849C154.027 142.83 154.135 142.83 154.24 142.849C154.24 143.57 154.214 144.295 154.199 145.019L153.596 144.993C153.596 144.643 153.596 144.291 153.622 143.938C153.664 143.904 153.744 143.87 153.744 143.835C153.74 143.738 153.727 143.642 153.706 143.547L153.922 142.849Z" fill="#54BFFB"/>
<path d="M66.0858 112.348C65.0161 112.2 63.8818 112.697 62.8651 112.025L66.0858 112.348Z" fill="#54BFFB"/>
<path d="M63.2557 78.2977H60.3119C60.7682 78.0667 61.2724 77.9463 61.7838 77.9463C62.2952 77.9463 62.7994 78.0667 63.2557 78.2977Z" fill="#54BFFB"/>
<path d="M66.3552 174.76H68.9462C68.5685 175.031 68.1154 175.176 67.6507 175.176C67.1859 175.176 66.7329 175.031 66.3552 174.76Z" fill="#54BFFB"/>
<path d="M89.8334 11.2808L87.2576 11.3491C88.1035 10.9015 88.9609 10.7307 89.8334 11.2808Z" fill="#54BFFB"/>
<path d="M180.223 115.891C180.845 116.073 181.057 116.403 180.602 116.968C179.919 116.809 180.185 116.308 180.223 115.891Z" fill="#54BFFB"/>
<path d="M153.592 134.347C153.645 134.726 153.694 135.136 153.744 135.53C152.981 135.227 153.061 134.813 153.592 134.347Z" fill="#54BFFB"/>
<path d="M50.1377 0.358378L47.9147 0.320451C48.662 -0.165124 49.4017 -0.0551203 50.1377 0.358378Z" fill="#54BFFB"/>
<path d="M30.2747 50.0312C30.324 50.8279 29.6943 50.862 29.167 51.0062L30.2747 50.0312Z" fill="#54BFFB"/>
<path d="M95.8539 188.554C96.0549 188.755 96.7226 188.759 96.1649 189.282L95.8539 188.554Z" fill="#54BFFB"/>
<path d="M181.615 119.108L182.294 118.729C182.29 119.279 181.934 119.176 181.615 119.108Z" fill="#54BFFB"/>
<path d="M149.472 188.818C149.537 188.981 149.605 189.141 149.669 189.304C149.605 189.126 149.537 188.966 149.472 188.818Z" fill="#54BFFB"/>
<path d="M70.8428 186.118C70.7821 185.981 70.7252 185.845 70.6683 185.712C70.7328 185.845 70.7897 185.981 70.8428 186.118Z" fill="#54BFFB"/>
<path d="M150.037 173.679V174.058L149.768 173.789L150.037 173.679Z" fill="#54BFFB"/>
<path d="M154.066 169.092C154.108 168.925 154.153 168.762 154.195 168.595C154.15 168.773 154.108 168.936 154.066 169.092Z" fill="#54BFFB"/>
<path d="M154.218 165.557C154.18 165.468 154.15 165.375 154.131 165.28C154.131 165.246 154.206 165.204 154.252 165.166L154.218 165.557Z" fill="#54BFFB"/>
<path d="M68.8283 165.25C68.7634 165.16 68.7063 165.065 68.6576 164.965C68.6576 164.927 68.6879 164.859 68.7069 164.806C68.7486 164.954 68.7903 165.102 68.8283 165.25Z" fill="#54BFFB"/>
<path d="M153.705 143.534C153.727 143.629 153.74 143.725 153.743 143.822C153.743 143.857 153.664 143.891 153.622 143.925C153.649 143.796 153.675 143.675 153.705 143.534Z" fill="#54BFFB"/>
<path d="M108.532 138.205C108.498 138.353 108.467 138.505 108.437 138.657C108.467 138.505 108.498 138.364 108.532 138.205Z" fill="#54BFFB"/>
<path d="M82.7431 131.915C82.7138 131.818 82.6935 131.719 82.6824 131.619C82.6824 131.585 82.7545 131.547 82.7962 131.513L82.7431 131.915Z" fill="#54BFFB"/>
<path d="M82.9822 128.694C82.9506 128.601 82.9277 128.506 82.9139 128.409C82.9139 128.383 82.9974 128.349 83.043 128.318L82.9822 128.694Z" fill="#54BFFB"/>
<path d="M108.908 119.123C108.858 119.034 108.815 118.941 108.779 118.846C108.779 118.816 108.835 118.766 108.87 118.725C108.881 118.857 108.892 118.99 108.908 119.123Z" fill="#54BFFB"/>
<path d="M182.461 115.223C182.514 115.079 182.563 114.938 182.616 114.798C182.563 114.946 182.514 115.086 182.461 115.223Z" fill="#54BFFB"/>
<path d="M103.581 108.073C103.517 108.217 103.452 108.358 103.392 108.502C103.468 108.358 103.517 108.217 103.581 108.073Z" fill="#54BFFB"/>
<path d="M81.131 106.328C81.1975 106.415 81.2559 106.508 81.3055 106.605C81.3055 106.643 81.2638 106.711 81.241 106.764C81.172 106.675 81.111 106.58 81.0589 106.48C81.0437 106.446 81.1044 106.381 81.131 106.328Z" fill="#54BFFB"/>
<path d="M63.3204 104.601C63.3622 104.43 63.4001 104.26 63.4418 104.089C63.4001 104.252 63.3622 104.423 63.3204 104.601Z" fill="#54BFFB"/>
<path d="M81.2675 93.9336C81.2675 94.0626 81.2295 94.1916 81.2068 94.3129C81.2295 94.1916 81.2485 94.0626 81.2675 93.9336Z" fill="#54BFFB"/>
<path d="M222.001 28.7495C222.061 28.6243 222.118 28.4953 222.179 28.3701L222.001 28.7495Z" fill="#54BFFB"/>
<path d="M180.499 84.3477C180.499 84.4766 180.499 84.6094 180.499 84.727L180.219 84.6094L180.499 84.3477Z" fill="#54BFFB"/>
<path d="M31.9323 49.6639C31.9323 49.5311 31.8981 49.3983 31.8792 49.2617C31.915 49.3466 31.9442 49.4341 31.9664 49.5235C31.9778 49.569 31.9436 49.6183 31.9323 49.6639Z" fill="#54BFFB"/>
<path d="M28.6509 51.7158C28.6281 51.8676 28.6015 52.0155 28.575 52.1673C28.6015 52.0155 28.6281 51.8714 28.6509 51.7158Z" fill="#54BFFB"/>
<path d="M28.5979 54.1963C28.6434 54.3556 28.6927 54.515 28.7421 54.6743C28.6927 54.5263 28.6434 54.3556 28.5979 54.1963Z" fill="#54BFFB"/>
<path d="M80.0308 144.966C79.9966 145.114 79.9587 145.258 79.9246 145.406C79.9473 145.258 79.9966 145.114 80.0308 144.966Z" fill="#54BFFB"/>
<path d="M106.741 97.9662L104.731 94.1727L106.87 93.5088C107.921 94.9769 106.957 96.4336 107.174 97.8524L106.741 97.9662Z" fill="#54BFFB"/>
<path d="M42.7138 20.9491C42.1592 21.1074 41.5918 21.2166 41.0181 21.2754C39.2124 21.3183 37.4041 21.3183 35.5933 21.2754C35.0839 21.2163 34.5819 21.1057 34.0948 20.9453L42.7138 20.9491Z" fill="#54BFFB"/>
<path d="M200.696 39.6709C200.613 39.7506 200.537 39.8947 200.446 39.9061C198.17 40.1489 195.894 40.2855 193.636 39.7468L200.696 39.6709Z" fill="#54BFFB"/>
<path d="M173.409 63.044C174.384 62.4863 175.355 62.6646 176.322 63.044H173.409Z" fill="#54BFFB"/>
<path d="M65.7331 16.2951H63.2103C63.5906 16.0644 64.0269 15.9424 64.4717 15.9424C64.9165 15.9424 65.3528 16.0644 65.7331 16.2951Z" fill="#54BFFB"/>
<path d="M74.7123 29.8159C74.6819 29.6831 74.6516 29.5541 74.6174 29.4365C74.6364 29.5541 74.6819 29.6831 74.7123 29.8159Z" fill="#54BFFB"/>
<path d="M111.692 79.0439C111.692 79.1691 111.73 79.2905 111.753 79.4233C111.689 79.3421 111.632 79.2558 111.582 79.1653C111.582 79.1653 111.65 79.0819 111.692 79.0439Z" fill="#54BFFB"/>
<path d="M111.734 76.5664L111.681 76.9458C111.696 76.8206 111.715 76.6954 111.734 76.5664Z" fill="#54BFFB"/>
</svg>
