<svg width="90" height="97" viewBox="0 0 90 97" fill="none" xmlns="http://www.w3.org/2000/svg">
<path d="M47.3869 13.8564C47.8054 13.8186 48.1444 13.8102 48.4917 13.7556C51.5545 13.2763 54.6552 13.0852 57.7534 13.1847C60.9299 13.2901 64.0936 13.6423 67.2159 14.2383C69.9552 14.72 72.6448 15.4521 75.2512 16.4252C78.2993 17.6107 81.1284 19.2988 83.6214 21.4199C86.0321 23.4078 87.8063 26.063 88.7231 29.0549C89.0704 30.1965 89.4178 31.3424 89.6731 32.505C90.3008 35.4097 90.0201 38.4379 88.8696 41.1768C87.3092 45.2083 84.7976 48.8002 81.5498 51.6449C77.5844 55.0888 73.4018 58.2727 69.028 61.177C65.834 63.3377 62.7604 65.6721 59.8208 68.1697C55.1795 72.048 50.4796 75.8509 45.7965 79.6747C44.9595 80.3546 44.0932 80.9758 43.1808 81.6684C43.185 81.9272 43.2173 82.1848 43.2771 82.4365C43.4452 82.8858 43.488 83.3724 43.401 83.8442C43.314 84.316 43.1004 84.7552 42.7833 85.1144C42.7138 85.2278 42.6576 85.349 42.6158 85.4754C42.7958 85.6727 42.9716 85.8951 43.1683 86.0714C44.7754 87.5572 46.395 89.0304 47.9854 90.5331C48.4849 90.9857 48.9263 91.499 49.2994 92.061C50.1072 93.3495 49.718 94.6549 48.3997 95.4188C46.9606 96.1961 45.3784 96.6703 43.75 96.8124C41.6649 97.0625 39.5575 97.0625 37.4724 96.8124C35.9407 96.6067 34.4047 96.4346 32.9441 95.8638C32.1071 95.5322 31.2198 95.2719 30.3703 94.9319C29.0078 94.3696 27.7379 93.6041 26.6037 92.6612C26.1168 92.2533 25.6761 91.793 25.2895 91.2886C23.8 89.319 22.5365 87.1873 21.523 84.9339C21.3514 84.5729 21.1798 84.2161 21.0333 83.8468C20.7625 83.2294 20.3904 82.6619 19.9326 82.1678C19.3557 81.5084 18.8283 80.8069 18.3549 80.0692C16.7785 77.6235 15.1296 75.231 13.4081 72.8917C11.5786 70.4235 10.0342 67.7552 8.80448 64.9378C7.15974 61.1392 5.51918 57.3364 4.20088 53.4036C3.07632 50.1259 2.12357 46.7914 1.34661 43.4139C0.579829 39.9501 0.14262 36.4212 0.0408649 32.8745C-0.0177265 30.6835 -0.00935628 28.4924 0.0408649 26.3014C0.121726 21.8215 1.16972 17.4126 3.11271 13.3779C5.82047 7.66954 10.1479 3.72403 16.1661 1.70931C20.4056 0.31786 24.8747 -0.232428 29.324 0.0891526C32.1812 0.259425 35.008 0.770917 37.7444 1.61278C39.0694 2.03251 40.345 2.59546 41.5487 3.29171C43.7246 4.50516 45.3949 6.46028 46.2569 8.80276C46.7391 10.1116 47.0677 11.4724 47.2362 12.8574C47.2781 13.1722 47.3408 13.4786 47.3869 13.8564ZM59.2809 22.8722C59.101 22.9436 58.9461 22.9855 58.808 23.0569C56.6816 24.1455 54.7212 25.5335 52.9865 27.1787C51.2588 28.8872 49.6717 30.7331 48.2406 32.6982C47.0969 34.2288 46.1151 35.8746 45.3111 37.6091C44.8047 38.692 44.2229 39.7371 43.6998 40.8116C42.8628 42.4905 41.4775 43.3719 39.7239 43.7497C36.5726 44.4255 33.6555 43.7497 30.9352 42.117C29.6715 41.3417 28.6685 40.2042 28.0559 38.8515C27.5173 37.738 27.1275 36.5581 26.8967 35.3424C26.6413 34.0092 26.6498 32.6388 26.9217 31.3089C27.4429 29.1353 28.3076 27.0593 29.483 25.1597C29.663 24.8533 29.8388 24.5427 30.0271 24.2195C29.1064 20.6308 28.6083 16.9498 27.3612 13.3065C27.1502 13.5265 26.9545 13.7608 26.7753 14.0075C25.9676 15.3367 25.3227 16.7586 24.8543 18.2425C23.3519 22.6497 23.0087 27.1955 23.264 31.8125C23.356 33.4411 23.49 35.0696 23.6239 36.6982C23.8788 39.9551 24.408 43.1846 25.2059 46.352C26.7347 52.1283 28.7971 57.749 31.3663 63.1413C32.6033 65.8228 34.0561 68.3988 35.7104 70.8435C35.9281 71.1667 36.1666 71.4731 36.4219 71.8173C36.5803 71.7366 36.7315 71.6425 36.8739 71.536C39.4477 69.282 42.0802 67.0827 44.4071 64.5727C46.6336 62.1802 48.9689 59.9052 51.3795 57.7016C52.8235 56.3885 54.1522 54.9533 55.3511 53.412C56.6904 51.6827 58.0338 49.9534 59.3646 48.2115C60.3062 46.9755 61.1025 45.6347 61.7376 44.2156C62.624 42.2115 63.3367 40.1345 63.8678 38.0078C64.043 37.3121 64.1481 36.6006 64.1817 35.8839C64.2852 32.5625 63.6055 29.2635 62.1979 26.2553C61.5718 24.8738 60.5656 23.7002 59.2976 22.8722H59.2809Z" fill="white"/>
</svg>
