<svg width="173" height="108" viewBox="0 0 173 108" fill="none" xmlns="http://www.w3.org/2000/svg">
<path d="M115.079 32.7312C114.851 32.6691 114.615 32.6441 114.378 32.6571C109.946 33.7109 105.696 35.3351 101.289 36.7764C101.193 39.4456 101.163 42.0843 100.984 44.7144C100.806 47.2704 100.475 49.8177 100.192 52.5305L102.539 52.5C106.332 52.3728 110.124 52.7878 113.799 53.7323C114.81 54.0511 115.8 54.4306 116.765 54.8688C117.046 54.9739 117.31 55.1207 117.548 55.3042C117.984 55.6874 118.546 56.0488 118.419 56.7803C118.323 57.2506 117.818 57.464 116.865 57.342C114.688 57.0634 112.51 56.715 110.333 56.4494C107.779 56.097 105.196 55.9963 102.622 56.1489C101.577 56.2317 100.545 56.4276 99.5736 56.5626C99.4239 56.8052 99.2985 57.0619 99.199 57.329C98.3282 61.8837 96.6561 66.2206 95.4412 70.6795C95.4412 70.7361 95.4891 70.8145 95.5937 71.067C97.6925 71.5025 99.948 71.5025 102.173 71.8595C104.398 72.2166 106.676 72.517 108.914 72.9046C111.152 73.2921 113.377 73.7755 115.698 74.2109C115.926 73.916 116.124 73.5978 116.286 73.2616C118.013 68.6425 119.414 63.9078 120.479 59.0925C121.093 56.1794 121.223 53.2315 121.35 50.2749C121.38 49.4519 121.424 48.629 121.463 47.7711C123.771 46.9656 124.946 48.3503 126.022 49.9004C126.366 49.7045 126.632 49.5782 126.893 49.4171C131.918 46.0163 136.973 42.6635 141.95 39.193C143.627 38.0217 145.164 38.074 146.831 38.9927C148.017 39.6673 149.069 40.5527 149.936 41.6053C150.238 41.9494 150.468 42.3506 150.613 42.7851C150.757 43.2197 150.813 43.6788 150.777 44.1352C150.558 46.1002 150.033 48.0189 149.222 49.8221C149.116 50.0701 148.918 50.2673 148.669 50.3721C148.421 50.4769 148.141 50.4811 147.89 50.3838C146.397 50.0565 145.047 49.2618 144.036 48.1151C143.64 47.6797 143.287 47.1702 142.852 46.6129C142.36 46.8393 141.872 47.0178 141.428 47.2747C138.275 49.0949 135.136 50.9455 131.979 52.7569C130.472 53.6278 128.931 54.4116 127.307 55.2911C127.626 58.909 127.453 62.5534 126.793 66.1248C126.179 69.6388 124.659 72.8871 123.862 76.4839C124.685 76.7712 125.391 77.0151 126.092 77.272C128.87 78.2822 131.67 79.2445 134.417 80.3418C136.036 80.9859 137.601 81.7576 139.098 82.6497C140.171 83.3595 141.172 84.1734 142.085 85.0794C142.445 85.4585 142.73 85.9016 142.926 86.3857C142.986 86.5048 143.012 86.6381 143.002 86.7711C142.991 86.904 142.945 87.0317 142.867 87.1402C142.79 87.2487 142.684 87.3339 142.562 87.3867C142.439 87.4394 142.304 87.4577 142.172 87.4395C141.355 87.3044 140.556 87.0765 139.791 86.7602C134.787 84.5699 129.657 82.6797 124.428 81.0995C123.936 80.9471 123.422 80.8731 122.874 80.7511C121.781 82.4145 121.337 84.2825 120.544 85.9764C119.752 87.6702 118.946 89.4163 118.097 91.1145C117.248 92.8127 116.077 94.2758 115.393 96.2091C116.133 96.3049 116.699 96.4008 117.296 96.4443C123.061 96.8854 128.674 98.5068 133.786 101.208C135.798 102.266 137.822 103.302 139.808 104.408C140.458 104.793 141.054 105.261 141.58 105.802C141.807 106.028 141.828 106.459 141.989 106.921C141.528 107.056 141.056 107.149 140.579 107.2C139.177 107.2 137.927 106.651 136.66 106.063C133.99 104.8 131.317 103.533 128.622 102.318C124.032 100.25 119.168 99.6578 114.191 99.7057C113.852 99.6771 113.512 99.7231 113.193 99.8405C112.874 99.9579 112.584 100.144 112.345 100.385C112.128 100.602 111.858 100.759 111.561 100.84C111.265 100.921 110.953 100.923 110.655 100.847C109.462 100.629 108.278 100.373 107.102 100.08C106.677 99.9693 106.282 99.7664 105.944 99.4857C105.606 99.205 105.334 98.8535 105.147 98.456C105.308 97.1758 105.896 95.9435 106.488 94.7243C108.417 90.7706 110.407 86.8386 112.31 82.8804C112.833 81.7962 113.255 80.6641 113.782 79.4274C113.322 79.1478 112.847 78.8949 112.358 78.6698C108.291 77.0674 103.984 76.5927 99.6954 76.1007C98.2606 75.9896 96.8195 75.9896 95.3847 76.1007C94.6536 76.164 93.9267 76.2687 93.2075 76.4142C92.6806 77.3896 92.2016 78.2474 91.7531 79.1182C91.6072 79.4293 91.3685 79.6876 91.0699 79.8576C90.7713 80.0276 90.4273 80.1009 90.0854 80.0675C88.9821 80.0537 87.8932 79.8149 86.8854 79.3657C85.8776 78.9165 84.9721 78.2662 84.2244 77.4549C83.9413 77.1976 83.7449 76.8589 83.6622 76.4853C83.5796 76.1118 83.6147 75.7219 83.7628 75.3691C84.3419 73.8887 84.908 72.3995 85.535 70.9364C87.9703 65.2911 89.9236 59.4499 91.3742 53.4754C91.3907 53.3307 91.3907 53.1846 91.3742 53.0399C91.0607 52.6611 90.6993 52.8266 90.3597 52.979C88.8843 53.5814 87.3213 53.9416 85.731 54.0458C80.7714 54.5901 75.8945 54.0458 71.0394 53.0922C69.7026 52.8353 68.3701 52.5392 67.0289 52.2823C66.5935 52.1995 66.1363 52.1821 65.5049 52.1168C65.5661 52.6499 65.6576 53.1791 65.7792 53.7018C67.8824 60.8952 71.1569 67.5487 75.1586 73.8538C77.7112 77.8056 80.5784 81.5451 83.7324 85.0358C86.5017 88.1579 89.2842 91.2626 92.0448 94.389C92.5325 94.942 93.1596 95.421 93.3511 96.379C93.0929 96.6129 92.7989 96.804 92.4803 96.945C91.4958 97.2444 90.4546 97.307 89.4414 97.1277C88.4281 96.9484 87.4716 96.5322 86.6498 95.9131C86.2835 95.6467 85.9358 95.3558 85.6091 95.0422C81.529 91.0841 77.3924 87.1782 73.7129 82.8499C68.7031 77.0326 64.6587 70.4494 61.7341 63.3511C61.5199 62.8712 61.28 62.4031 61.0156 61.949C60.9938 61.9098 60.885 61.9141 60.8022 61.8967C60.2971 62.0578 60.2841 62.5716 60.1099 62.9592C58.6294 66.283 57.1547 69.6112 55.6858 72.9438C55.5639 73.2181 55.4202 73.488 55.2939 73.7624C55.1595 74.0788 54.9233 74.3415 54.6229 74.5087C54.3224 74.6758 53.9748 74.7381 53.6349 74.6855C52.7636 74.6428 51.9142 74.3978 51.1539 73.97C50.3936 73.5423 49.7433 72.9435 49.2544 72.2209C49.0977 71.3152 49.5462 70.5706 49.8466 69.8086C52.2328 63.7386 54.6335 57.673 57.0488 51.6117C57.1837 51.2677 57.2969 50.915 57.4493 50.4796C56.6873 49.809 55.7598 49.7567 54.902 49.5826C52.9905 49.2037 51.6755 48.0629 50.6435 46.5998C50.6464 46.4757 50.675 46.3536 50.7275 46.2411C50.7801 46.1287 50.8554 46.0283 50.9487 45.9465C51.042 45.8646 51.1513 45.803 51.2697 45.7656C51.388 45.7281 51.5128 45.7156 51.6363 45.7289C52.6921 45.7395 53.7457 45.8268 54.7888 45.9902C56.1256 46.2253 57.4406 46.5868 58.8819 46.922C59.7528 45.8291 60.2144 44.5446 60.763 43.3166C61.3117 42.0887 61.8821 40.8259 62.4177 39.5719C62.9533 38.3178 63.515 37.0681 63.9809 35.7836C64.4468 34.499 65.3394 33.4409 65.4527 31.8646L58.7731 31.5337C57.8587 32.7268 57.9719 34.3074 57.1881 35.5571C55.9035 35.5571 55.3854 34.5643 54.7105 33.8154C54.1444 33.184 54.2184 32.3828 54.3795 31.6382C54.7801 29.7876 55.2504 27.9544 55.6858 26.1081C55.8687 25.3156 56.3129 24.5623 56.1213 23.5521C54.8585 23.5521 53.7307 23.9353 52.5028 24.2532C51.8496 25.4506 51.6668 26.8136 51.3402 28.1199C49.925 33.7805 48.5403 39.4412 47.1382 45.128C46.2107 48.8815 45.3442 52.6568 44.3166 56.3841C43.0669 60.917 41.7039 65.4238 40.328 69.9131C39.7096 71.9205 39.1653 72.1469 37.1014 71.5721C36.3696 71.3907 35.6704 71.0969 35.0287 70.7013C33.6919 69.8304 32.9299 68.7244 33.4001 66.8868C34.5889 62.2625 35.4336 57.5467 36.7138 52.9529C39.1218 44.3268 42.0001 35.8489 45.0873 27.4406C45.2397 27.0051 45.3834 26.5958 45.6011 25.9819C45.123 25.9398 44.6422 25.9398 44.1642 25.9819C41.4863 26.5175 38.8127 27.0618 36.1478 27.6452C34.3581 28.0371 32.8471 27.6452 31.6584 26.2214C31.5626 26.1051 31.4888 25.9723 31.4407 25.8295C31.4149 25.6755 31.4033 25.5196 31.4059 25.3636C31.9763 24.5623 32.9125 24.3838 33.7703 24.153C37.0666 23.2822 40.3758 22.4505 43.6852 21.6231C44.4164 21.4226 45.1616 21.277 45.9146 21.1877C47.2601 21.0658 48.0396 20.4039 48.6274 19.1629C49.5723 17.1643 51.5144 17.0641 52.9208 18.8233C53.0774 19.0515 53.213 19.2934 53.3258 19.5461C55.8861 19.2805 58.3594 19.0149 60.8414 18.7841C61.1875 18.8255 61.5252 18.9195 61.8429 19.0628C61.7862 19.5028 61.7033 19.939 61.5947 20.3691C61.1593 21.8147 60.6193 23.243 60.1795 24.693C59.8312 25.8425 59.4262 26.9921 59.4872 28.3202L67.2902 28.294C68.6706 26.0864 69.4935 23.6087 71.035 21.4925C71.4933 21.4355 71.957 21.4355 72.4153 21.4925C73.6433 21.8017 74.2006 22.555 74.0874 23.809C73.9818 24.6349 73.8262 25.4535 73.6215 26.2605C73.4429 27.0748 73.2296 27.8804 73.0511 28.6946C73.0505 28.8775 73.0769 29.0594 73.1294 29.2346C74.1658 29.7745 75.3676 29.9574 76.5302 30.2492C80.8015 31.3335 84.877 33.0789 88.6092 35.4221C90.4408 36.5821 92.0742 38.0288 93.4469 39.7068C93.6429 39.7068 93.7169 39.7068 93.7691 39.7068C93.8214 39.7068 93.9128 39.6023 93.9215 39.5414C94.1959 37.3642 94.5094 35.187 94.7097 33.0098C94.8243 31.7256 94.8432 30.4346 94.7663 29.1475C94.6749 27.5669 94.4441 25.9949 94.2568 24.275C94.6838 24.1673 95.1228 24.1146 95.5631 24.1182C96.4679 24.2984 97.2681 24.821 97.7969 25.5769C98.9757 27.0689 99.8367 28.7864 100.327 30.6236C100.536 31.3508 100.701 32.091 100.923 32.9532C101.285 32.9116 101.641 32.8313 101.986 32.7137C105.835 30.8892 109.902 29.6395 113.891 28.1852C116.634 27.188 119.116 27.7759 121.502 29.1823C122.217 29.5528 122.799 30.1357 123.169 30.8508C123.538 31.5659 123.677 32.378 123.566 33.1753C123.482 34.1574 123.337 35.1332 123.131 36.0971C122.734 37.7866 122.321 39.4674 122.408 41.257C120.897 42.1061 119.534 41.466 118.184 41.0915C117.682 40.9182 117.205 40.6765 116.769 40.3731C114.971 39.2932 114.017 37.8258 114.566 35.6312C114.792 34.708 114.905 33.737 115.079 32.7312ZM66.1886 48.3808C68.7948 48.9571 71.4343 49.3716 74.0918 49.6217C75.9757 49.7975 77.8728 49.777 79.7525 49.5608C81.2625 49.3856 82.7191 48.8961 84.0284 48.1238C84.9019 47.6557 85.6422 46.9735 86.1799 46.141C86.7176 45.3086 87.0351 44.3532 87.1026 43.3645C87.4205 40.0247 86.2317 37.4774 83.2664 35.7531C80.2264 34.0261 76.8452 32.9858 73.3602 32.705C72.87 32.679 72.3787 32.679 71.8884 32.705C69.942 37.7909 68.0522 42.7201 66.1668 47.6884C66.1453 47.9192 66.1526 48.1518 66.1886 48.3808Z" fill="#54BFFB"/>
<path d="M43.7507 2.62492C43.1885 4.2724 42.4017 5.83439 41.4124 7.26668C38.6517 11.6211 35.9476 16.0059 33.2131 20.3733C32.7851 21.0894 32.3199 21.7827 31.8197 22.4504C30.9488 23.5825 29.8472 23.7262 28.6497 22.8858C28.2529 22.5493 27.8858 22.1792 27.5524 21.7798C27.6569 20.4735 28.2099 19.3805 28.7412 18.2963C30.5482 14.6212 32.3988 10.9723 34.232 7.31023C34.718 6.48654 35.0762 5.59389 35.2945 4.66276C34.9078 4.64347 34.5201 4.65951 34.1362 4.71067C29.7738 5.73391 25.5534 7.28842 21.5695 9.33937C19.9415 10.1601 18.4434 11.2165 17.1237 12.4745C15.1032 14.4775 15.1512 15.897 17.2979 17.8086C17.7333 18.2136 18.2166 18.6011 18.7 18.9669C22.4752 21.8059 25.667 25.2372 28.8935 28.6728C29.329 29.1082 29.6817 29.5915 30.0779 30.0488C33.6006 34.1549 35.0768 38.9926 35.1203 44.3224C35.1682 50.462 31.2536 54.3374 26.2679 55.4609C20.9911 56.7278 15.4538 56.3587 10.3918 54.4027C6.57301 53.0087 3.38095 50.291 1.39569 46.7434C0.400114 45.0286 -0.0805729 43.0634 0.0110253 41.0827C0.220035 37.3162 4.26087 32.5786 9.40338 33.763C10.8949 34.0378 12.3374 34.5323 13.6838 35.2304C15.26 36.1362 16.8842 36.9722 18.4126 37.9389C19.0768 38.4293 19.6639 39.0164 20.1543 39.6806C20.2173 39.7749 20.2562 39.8832 20.2675 39.996C20.2788 40.1089 20.2622 40.2227 20.2192 40.3277C20.1762 40.4326 20.1081 40.5253 20.0208 40.5978C19.9336 40.6702 19.8299 40.7201 19.7189 40.7431C19.127 40.8303 18.5255 40.8303 17.9336 40.7431C16.221 40.3844 14.5943 39.6968 13.1438 38.7183C12.8133 38.4639 12.4055 38.3307 11.9886 38.341C11.5716 38.3513 11.1709 38.5045 10.8534 38.7749C8.05791 40.7039 7.03898 43.7607 8.17983 46.9698C8.33863 47.3959 8.52033 47.8131 8.72413 48.2195C9.81707 50.5622 11.4848 51.9687 14.2498 51.6464C15.7521 51.4679 17.2979 51.4723 18.7609 51.211C20.9899 50.8186 23.0098 49.655 24.4674 47.9236C25.9249 46.1922 26.7272 44.0034 26.7338 41.7402C26.847 36.6369 25.5886 32.0213 22.1443 28.0762C19.122 24.6786 15.8673 21.4951 12.4035 18.5489C11.659 17.9001 10.9405 17.2425 10.2569 16.5197C9.83883 16.0804 9.46945 15.5971 9.1552 15.0784C8.06226 13.2583 8.17112 11.6428 9.59064 10.0709C10.3172 9.29801 11.1162 8.59664 11.9768 7.97645C13.7499 6.66833 15.6885 5.60092 17.742 4.80211C23.6988 2.42027 29.8254 0.787383 36.2829 0.630626C36.8119 0.611961 37.3381 0.544905 37.8548 0.430315C40.2671 -0.0791462 42.1265 0.843984 43.7507 2.62492Z" fill="#54BFFB"/>
<path d="M172.997 57.102C173.007 57.2689 172.991 57.4364 172.949 57.5984C169.741 63.717 166.867 70.0052 164.341 76.4354C162.237 75.8563 161.258 74.354 160.592 72.6427C160.404 72.1638 160.639 71.4366 160.866 70.901C161.623 69.0809 162.455 67.2912 163.283 65.4972C164.01 63.9166 164.78 62.349 165.512 60.764C165.608 60.4671 165.671 60.1604 165.699 59.8496C164.476 59.5709 163.37 59.7451 162.316 59.8496C162.18 60.0881 162.064 60.3371 161.967 60.5942C161.184 63.3679 160.343 66.1286 159.647 68.9241C158.393 73.9229 157.217 78.9392 156.028 83.9641C155.553 85.9541 155.218 87.9832 154.665 89.9514C153.794 93.0865 152.849 96.2173 151.783 99.2959C151.021 101.499 150.237 101.691 148.203 100.602C147.142 100.001 146.267 99.12 145.673 98.0548C145.324 97.5463 145.188 96.9209 145.295 96.3131C145.512 95.1984 145.73 94.0837 145.926 92.9646C146.644 88.767 147.811 84.6913 148.948 80.5938C150.781 74.01 152.971 67.5307 155.449 61.182C155.568 60.828 155.667 60.4674 155.745 60.1022C154.117 59.719 146.923 59.7582 144.742 60.1718C144.454 61.6871 144.611 63.2634 144.581 64.8266C144.55 66.3899 144.907 67.9966 144.332 69.4031C144.076 69.6168 143.761 69.7472 143.429 69.7768C143.096 69.8063 142.763 69.7337 142.473 69.5686C140.853 68.8414 139.691 67.6265 139.329 65.9022C138.631 62.8701 138.232 59.7767 138.14 56.6666C138.14 55.2644 138.428 54.9248 139.773 54.6853C140.446 54.5816 141.126 54.5234 141.807 54.5111C143.927 54.4458 146.052 54.411 148.173 54.3587C154.082 54.202 159.991 54.0539 165.895 53.8798C167.148 53.8275 168.399 54.0419 169.563 54.5088C170.727 54.9757 171.779 55.6844 172.649 56.5882C172.782 56.7476 172.898 56.9197 172.997 57.102Z" fill="#54BFFB"/>
</svg>
