<svg width="289" height="257" viewBox="0 0 289 257" fill="none" xmlns="http://www.w3.org/2000/svg">
<path d="M145.085 179.782C144.265 179.683 143.447 179.529 142.629 179.494C142.101 179.44 141.567 179.51 141.07 179.696C140.187 180.122 139.328 180.594 138.495 181.111C138.225 181.261 137.977 181.446 137.756 181.661C135.724 183.779 133.692 185.898 131.69 188.045C131.295 188.522 130.932 189.025 130.606 189.552L130.278 189.849C128.324 192.966 126.375 196.093 124.4 199.208C123.695 200.309 122.96 201.355 122.239 202.426L121.967 202.706L117.016 210.927L116.881 211.361C115.202 214.098 113.531 216.836 111.816 219.638C112.121 219.862 112.389 220.133 112.61 220.44C112.762 220.716 112.833 221.227 112.676 221.418C110.874 223.62 110.385 226.377 109.431 228.931C109.284 229.32 109.085 229.684 108.912 230.061L108.791 230.461C107.823 231.989 106.935 233.577 105.866 235.029C104.927 236.311 104.536 237.769 104.04 239.214C103.874 239.698 103.714 240.193 103.54 240.687L103.41 241.106C102.615 242.519 101.402 242.314 100.147 241.949L97.1792 240.122C96.6646 239.565 96.1799 238.981 95.7269 238.373C95.2934 237.727 95.0343 237.005 95.5233 236.239L95.6266 235.855L99.9667 228.69L100.29 228.408C101.486 226.925 102.66 225.429 103.891 223.973C104.249 223.528 104.707 223.174 105.227 222.938C107.165 222.161 108.306 220.591 109.421 218.963C111.644 215.738 113.865 212.51 116.083 209.279L116.445 208.746C118.611 205.978 119.929 202.739 121.535 199.656C122.589 197.63 123.746 195.658 124.902 193.687C125.838 191.968 126.513 190.119 126.903 188.2C127.39 186.191 127.761 184.147 128.085 182.103C128.465 179.72 129.041 177.433 130.662 175.376C130.294 175.195 129.915 175.038 129.526 174.907C126.571 174.153 123.618 173.425 120.671 172.674C120.274 172.571 119.908 172.347 119.509 172.265C119.135 172.148 118.736 172.14 118.358 172.243C116.741 173.007 115.152 173.821 113.582 174.67C113.148 174.931 112.77 175.275 112.468 175.682C110.761 177.831 109.193 180.101 107.366 182.139C105.335 184.401 103.82 186.995 102.001 189.382C101.006 190.682 99.9666 191.948 98.8715 193.315L96.8255 191.82C97.2384 191.142 97.5413 190.608 97.8837 190.099C99.683 187.565 101.202 184.842 102.413 181.979C102.788 180.959 103.052 179.9 103.2 178.823C103.856 174.374 105.048 170.021 106.75 165.858C107.748 163.633 108.954 161.508 110.353 159.51C116.861 149.675 122.966 139.562 129.011 129.457C132.241 124.061 135.408 118.634 138.585 113.215C141.445 108.33 144.295 103.437 147.134 98.538C147.26 97.873 146.797 98.0681 146.45 98.0559L140.442 96.3807C139.869 97.8541 139.335 99.2412 138.782 100.619C137.76 103.191 136.771 105.777 135.665 108.317C135.224 109.132 134.708 109.905 134.123 110.624C134.083 110.646 134 110.626 133.983 110.655C133.945 110.739 133.914 110.826 133.891 110.916C132.355 113.436 129.982 115.028 127.565 116.565C126.996 116.924 126.491 116.671 125.906 116.167C126.174 114.534 126.441 112.815 126.753 111.118C126.927 110.112 127.15 109.112 127.348 108.113C127.649 106.444 128.286 104.854 129.219 103.438C130.057 102.198 130.6 100.636 131.697 99.7251C132.971 98.6585 133.665 97.2292 134.761 96.0771C134.903 95.915 135.025 95.736 135.123 95.5442L135.259 95.1948L134.657 95.1719C133.524 94.8974 132.399 94.566 131.253 94.3639C130.27 94.1838 129.267 94.1456 128.049 94.0156C127.779 94.5244 127.38 95.182 127.093 95.8507C126.24 97.8351 125.096 99.6817 123.7 101.33C121.546 103.823 119.643 106.532 117.633 109.155C117.524 109.254 117.418 109.359 117.306 109.466C114.786 112.481 112.756 115.843 110.647 119.143C109.071 121.585 107.781 124.201 106.804 126.938C106.36 128.204 105.651 129.405 105.393 130.699C104.277 136.368 101.145 140.976 97.7435 145.38C96.0835 147.543 94.0006 149.401 92.1206 151.39C88.3278 155.368 84.8089 159.599 81.588 164.053C79.2262 167.394 77.0838 170.895 74.9043 174.365C72.6376 177.975 70.4522 181.625 68.2167 185.243C67.1366 186.995 67.1288 186.993 65.4043 185.773L64.75 184.666C67.4582 179.727 70.1953 174.805 72.8695 169.852C73.9935 167.774 74.9891 165.629 76.0452 163.523C76.0854 163.501 76.1458 163.468 76.1609 163.46C76.1759 163.377 76.1847 163.293 76.1871 163.209C76.7453 162.104 77.2139 160.943 77.867 159.903C80.1774 156.23 82.5746 152.608 84.8955 148.943C85.7497 147.589 86.4721 146.151 87.2868 144.774C87.8655 143.801 88.4887 142.849 89.0935 141.888L89.4059 141.599C91.5218 138.871 93.59 136.104 95.7748 133.431C97.4348 131.399 99.3065 129.526 100.964 127.501C102.133 126.054 103.059 124.438 104.094 122.901L104.116 122.489C104.863 120.952 105.576 119.401 106.36 117.884C107.52 115.622 108.623 113.327 109.947 111.159C112.314 107.15 114.399 102.98 116.187 98.6806C116.856 97.2257 117.439 95.7331 117.934 94.2103C118.296 93.0097 118.247 91.6811 119.144 90.8346C118.749 89.7815 118.415 88.9237 118.117 88.0595C118.013 87.7633 117.991 87.4448 118.052 87.137C118.114 86.8293 118.256 86.5436 118.465 86.3096C119.239 85.3344 120.016 84.3642 120.773 83.3588C121.53 82.3534 122.122 81.4057 122.868 80.4856C123.613 79.5654 124.595 78.6129 125.402 77.6261C126.467 76.3339 127.436 74.9633 128.505 73.6683C129.259 72.7633 130.092 71.9193 130.922 71.0703C132.43 69.5255 133.952 67.9973 135.488 66.4856C136.417 65.5358 137.396 64.6354 138.419 63.788C139.651 62.8233 140.522 61.3947 141.773 60.4652C143.708 59.0288 145.041 56.9865 147.04 55.6067C148.141 54.8577 148.984 53.7334 149.97 52.7987C151.26 51.5723 152.515 50.3524 153.842 49.1913C155.308 47.9144 156.844 46.7298 158.335 45.4519C161.42 42.8073 164.462 40.1208 167.545 37.4841C168.586 36.5909 169.736 35.822 170.796 34.9513C172.672 33.3964 174.508 31.7918 176.384 30.237C178.059 28.839 179.76 27.4784 181.446 26.1005C183.414 24.4865 185.38 22.8691 187.345 21.2484C189.321 19.6126 191.296 17.9641 193.28 16.3306C194.327 15.4603 195.391 14.6074 196.444 13.7472L196.627 13.437L201.156 6.36492L201.664 5.88287C202.891 4.02958 204.906 3.58414 206.856 3.41599C208.065 3.31516 209.335 4.01841 210.601 4.40337L213.362 6.05568C214.197 6.90686 215.071 7.73593 215.84 8.62304C216.237 9.07205 216.53 9.60281 216.699 10.1777C216.868 10.7526 216.908 11.3576 216.817 11.9498C216.643 13.4269 216.368 14.8904 215.995 16.3302C214.565 21.4379 212.974 26.5031 211.595 31.6088C209.499 39.4264 207.433 47.2608 205.537 55.1451C203.977 61.5469 202.798 68.0355 202.005 74.5767C201.64 77.691 201.043 80.7758 200.598 83.8625C200.085 87.4705 199.581 91.0809 199.187 94.7023C198.671 99.3533 198.205 104.01 197.839 108.671C197.602 111.636 197.566 114.622 197.461 117.601C197.409 119.044 197.245 119.317 195.856 119.137C194.337 118.94 192.835 118.632 191.361 118.215C190.065 117.846 188.823 117.265 187.402 116.717C186.103 119.002 184.75 121.258 183.528 123.586C181.868 126.751 180.319 129.973 178.714 133.166C177.509 135.574 176.295 137.972 175.071 140.361C175.043 140.5 175.007 140.638 174.971 140.775L173.659 142.891C173.25 142.887 173.151 143.052 173.365 143.406C172.531 145.664 171.328 147.768 169.806 149.632C169.765 149.654 169.68 149.629 169.663 149.658C169.624 149.742 169.593 149.829 169.57 149.918L165.863 155.184C165.754 155.283 165.647 155.374 165.535 155.469C164.49 156.94 163.442 158.406 162.424 159.843C161.051 159.524 160.878 159.245 161.494 158.232C162.39 156.777 163.307 155.324 164.302 153.939C166.339 151.251 168.083 148.352 169.504 145.292C170.944 141.954 172.381 138.61 173.793 135.222C174.129 134.229 174.412 133.22 174.639 132.197C175.231 130.129 175.788 128.055 176.476 126.007C176.97 124.426 177.717 122.975 178.204 121.417C178.959 119.038 180.17 116.82 180.97 114.449C181.099 114.064 181.196 113.67 181.319 113.19L180.106 112.449L176.685 110.655L175.133 109.857C173.99 112.758 172.903 115.595 171.759 118.41C171.001 120.261 170.141 122.069 169.373 123.912C168.288 126.53 167.23 129.161 166.199 131.805C162.927 140.151 159.638 148.467 155.874 156.573C154.703 159.089 153.766 161.699 152.642 164.242C151.028 167.859 149.946 171.669 148.36 175.291C148.052 176.004 147.724 176.708 147.434 177.43C147.278 177.919 147.023 178.369 146.685 178.754C146.346 179.14 145.932 179.451 145.469 179.669L145.085 179.782Z" fill="#FAE35B"/>
<path d="M123.892 124.157C125.457 125.444 125.735 126.51 124.941 128.367C124.805 128.638 124.575 128.85 124.294 128.965C122.666 129.577 121.019 130.155 119.369 130.728C119.123 130.807 118.86 130.818 118.608 130.76C116.635 130.292 114.47 127.638 114.222 125.423C115.016 124.986 115.786 124.504 116.578 124.063C117.655 123.471 118.953 123.498 119.993 122.697C120.342 122.427 121.159 122.77 121.762 122.832L123.892 124.157Z" fill="#FAE35B"/>
<path d="M60.6116 195.963C61.6853 196.297 61.459 197.017 61.315 197.541C61.0604 198.81 60.6828 200.05 60.1873 201.245C58.5566 204.761 56.8185 208.224 55.0676 211.687C54.7759 212.159 54.3755 212.554 53.9 212.839C53.772 212.892 53.6324 212.91 53.4954 212.891C53.3584 212.872 53.2288 212.817 53.1201 212.731C53.0488 212.608 53.0102 212.469 53.0078 212.327C53.0055 212.185 53.0395 212.045 53.1066 211.92C54.7849 210.028 55.3743 207.609 56.3329 205.373C57.4964 202.724 58.56 200.083 59.6983 197.447C59.9676 196.932 60.2728 196.436 60.6116 195.963Z" fill="#FAE35B"/>
<path d="M97.1825 240.141L100.151 241.967C98.9596 241.772 97.8933 241.116 97.1825 240.141Z" fill="#FAE35B"/>
<path d="M213.239 6.24789L210.478 4.59558C211.025 4.67297 211.551 4.85904 212.025 5.14279C212.5 5.42655 212.912 5.80229 213.239 6.24789Z" fill="#FAE35B"/>
<path d="M123.891 124.156L121.777 122.823C122.217 122.832 122.647 122.961 123.02 123.196C123.392 123.431 123.694 123.763 123.891 124.156Z" fill="#FAE35B"/>
<path d="M64.6972 184.773L65.3515 185.881C64.8027 185.704 64.3897 185.453 64.6972 184.773Z" fill="#FAE35B"/>
<path d="M173.374 143.447C173.175 143.085 173.259 142.927 173.668 142.932L173.374 143.447Z" fill="#FAE35B"/>
<path d="M146.431 98.0799C146.772 98.0821 147.24 97.8969 147.114 98.5619L146.431 98.0799Z" fill="#FAE35B"/>
<path d="M196.538 13.5844L196.355 13.8946L196.147 13.5174L196.538 13.5844Z" fill="#FAE35B"/>
<path d="M134.623 95.2297L135.224 95.2526L135.089 95.602L134.623 95.2297Z" fill="#FAE35B"/>
<path d="M100.293 228.425L99.97 228.708C100.074 228.611 100.181 228.52 100.293 228.425Z" fill="#FAE35B"/>
<path d="M76.1348 163.317C76.1323 163.401 76.1236 163.484 76.1085 163.567C76.1085 163.567 76.0331 163.608 75.9928 163.631C75.9985 163.547 76.0099 163.464 76.0269 163.383C76.0269 163.383 76.0996 163.336 76.1348 163.317Z" fill="#FAE35B"/>
<path d="M133.871 110.939C133.894 110.85 133.925 110.762 133.963 110.679C133.963 110.679 134.044 110.634 134.103 110.648C134.025 110.743 133.946 110.839 133.871 110.939Z" fill="#FAE35B"/>
<path d="M174.99 140.811C175.026 140.673 175.062 140.536 175.09 140.396C175.052 140.541 175.026 140.673 174.99 140.811Z" fill="#FAE35B"/>
<path d="M117.25 109.53C117.362 109.423 117.468 109.319 117.577 109.219C117.468 109.319 117.357 109.426 117.25 109.53Z" fill="#FAE35B"/>
<path d="M169.589 149.954C169.612 149.864 169.643 149.777 169.682 149.693C169.707 149.679 169.762 149.649 169.825 149.667L169.589 149.954Z" fill="#FAE35B"/>
</svg>
