<svg width="210" height="269" viewBox="0 0 210 269" fill="none" xmlns="http://www.w3.org/2000/svg">
<path d="M66.9749 46.6657C66.0037 46.4052 64.9457 46.3076 64.0884 45.8355C63.0507 45.2215 62.0968 44.4756 61.2508 43.6164C60.7842 43.1769 61.1585 42.6018 61.5112 42.184C61.9187 41.6594 62.3766 41.176 62.8785 40.7408C63.4506 40.2733 64.0911 39.8964 64.7775 39.6231C65.4882 39.4334 66.2146 39.3081 66.9478 39.2487C67.1919 38.8743 67.4089 38.4891 67.6802 38.1636C67.9404 37.7933 68.2833 37.4887 68.6817 37.274C69.0801 37.0593 69.523 36.9403 69.9753 36.9265C71.9069 36.8614 73.8113 36.9265 75.6235 37.6698C75.8858 37.8017 76.1775 37.8644 76.4709 37.8521C76.7643 37.8397 77.0497 37.7527 77.3 37.5993C77.9186 37.2303 78.5805 36.9373 79.2261 36.5141C77.6898 36.4846 76.1901 36.0403 74.8856 35.2282C74.7128 35.1611 74.5242 35.1461 74.343 35.1849C73.3338 35.2644 72.321 35.3549 71.3046 35.4562C69.8668 35.5918 68.8142 34.7834 67.8539 33.9153C67.0129 33.1502 67.2299 32.0217 67.3113 31.0396C67.3384 30.7521 67.9841 30.3506 68.3964 30.2963C70.103 30.0387 71.8439 30.1264 73.5159 30.5542C75.1879 30.982 76.757 31.7411 78.1301 32.7867C78.4992 33.0883 78.9015 33.3469 79.3292 33.5572C80.2408 33.9478 81.098 34.3656 81.4995 35.5755C82.8343 34.7671 84.0388 33.9478 85.2975 33.275C87.343 32.1899 89.4319 31.1916 91.5154 30.1824C93.002 29.4662 94.5429 28.8531 96.0079 28.0935C99.5129 26.2867 103.24 24.9954 106.859 23.5196C110.364 22.1035 113.972 20.9315 117.559 19.7216C121.243 18.4574 124.943 17.2204 128.66 16.0538C132.241 14.9253 135.836 13.8564 139.446 12.8472C143.244 11.8001 147.042 10.8506 150.84 9.88481C154.421 8.97329 158.002 8.03462 161.61 7.21534C165.837 6.25499 170.101 5.44113 174.339 4.50249C177.138 3.88938 179.9 3.1135 182.705 2.53295C184.772 2.10975 186.878 1.87649 188.972 1.5618H191.099C192.819 2.27257 194.354 1.50753 195.982 1.07347C197.251 0.731653 198.575 0.601415 199.872 0.373535H203.193C203.673 0.45271 204.146 0.568811 204.609 0.720788C205.012 0.8374 205.358 1.09791 205.582 1.45291C205.806 1.80792 205.892 2.23277 205.824 2.64694C206.226 2.85854 206.578 3.01589 206.909 3.18951C209.08 4.50796 209.655 5.94036 208.808 8.36022C207.859 11.0731 206.795 13.737 205.84 16.4445C205.39 17.7087 204.837 18.9675 204.88 20.3619L204.744 20.7362C204.788 23.9211 204.701 27.1168 204.923 30.2909C205.113 33.0797 204.533 35.7546 204.245 38.4729C204.126 39.634 203.93 40.7842 203.8 41.9453C203.67 43.1064 203.562 44.376 203.442 45.6076C202.959 45.8843 202.569 45.8735 202.509 45.2387C202.471 44.6515 202.471 44.0625 202.509 43.4754C202.704 38.3209 202.959 33.1665 203.051 28.023C203.107 25.5681 203.002 23.1122 202.737 20.6711C202.547 18.9674 201.907 17.3234 201.538 15.636C201.25 14.3122 201.18 12.9232 200.784 11.6319C200.48 10.6335 200.898 9.40733 199.807 8.50666C198.179 10.1886 196.291 11.5993 195.412 13.9324C195.011 14.9795 194.419 15.9507 193.947 16.9762C193.805 17.3265 193.698 17.69 193.627 18.0613C192.998 20.823 192.471 23.6118 191.712 26.3355C191.239 27.9789 190.592 29.5669 189.78 31.0722C188.663 33.1937 187.252 35.1577 186.156 37.29C185.302 38.91 184.632 40.6208 184.159 42.3902C183.188 46.2208 182.342 50.0838 181.577 53.9632C180.98 57.0179 181.202 60.1214 181.457 63.1869C181.593 64.7821 181.739 66.3718 181.886 67.9941C181.007 68.3142 180.133 68.6452 179.26 67.6468C178.956 66.0191 178.614 64.2178 178.289 62.4273C178.093 61.3422 178.007 60.2028 177.746 59.1231C177.019 56.2963 176.829 53.3881 176.384 50.5233C176.037 48.2663 176.319 45.9169 176.319 43.611V42.184C176.112 42.444 175.92 42.7158 175.744 42.9979C172.168 49.9699 168.577 56.9256 165.044 63.9139C162.478 68.9978 160.004 74.1306 157.449 79.2253C156.997 80.1514 156.467 81.0373 155.864 81.8731C155.675 82.1217 155.557 82.4178 155.524 82.7289C155.492 83.0399 155.546 83.3539 155.68 83.6364C156.251 85.3039 156.781 86.984 157.269 88.6769C157.557 89.6535 157.671 90.6844 158.002 91.6448C158.859 94.1731 158.469 96.6744 157.926 99.1702C157.503 101.123 156.841 103.039 156.602 105.008C156.292 106.997 156.24 109.018 156.445 111.02C157.188 116.625 156.683 122.191 156.211 127.764C155.967 130.656 155.522 133.542 154.274 136.184C153.26 138.355 152.918 140.671 152.234 142.912C151.969 143.791 152.375 144.898 152.555 145.886C152.652 146.428 152.961 146.971 153.064 147.513C153.411 149.093 153.671 150.69 153.84 152.299C154.123 156.097 154.28 159.933 154.486 163.752C154.53 163.945 154.53 164.145 154.486 164.338C153.813 165.82 153.971 167.393 153.976 168.945C154.064 171.301 153.85 173.658 153.341 175.96C153.13 176.779 152.902 177.588 152.685 178.418C151.6 182.585 152.495 186.73 152.598 190.897C152.647 192.807 152.907 194.695 153.027 196.616C153.124 198.244 153.146 199.822 153.2 201.428L153.162 202.031C153.987 205.727 154.219 209.531 153.851 213.3C153.673 215.643 153.946 217.999 154.654 220.239C155.061 221.596 155.544 222.952 155.43 224.412C155.43 224.71 155.723 225.09 155.973 225.345C156.279 225.585 156.601 225.802 156.938 225.996C157.239 226.157 157.482 226.409 157.632 226.716C157.782 227.022 157.832 227.369 157.774 227.705C157.739 228.336 157.739 228.968 157.774 229.599C157.794 229.979 157.699 230.357 157.503 230.684C156.673 231.693 155.875 232.811 154.47 233.066C152.652 233.397 150.824 233.608 149.044 232.735C147.867 232.132 146.613 231.677 145.42 231.107C143.651 230.255 143.336 229.1 144.405 227.423C144.681 226.904 145.049 226.439 145.49 226.05C146.423 225.367 146.657 224.423 146.744 223.392C146.925 221.156 147.442 218.961 148.279 216.881C148.95 215.028 149.126 213.033 148.789 211.092C148.485 208.764 148.29 206.42 148.073 204.082C147.916 202.421 147.802 200.761 147.671 199.101C147.671 199.063 147.742 199.014 147.731 198.981C147.699 198.905 147.66 198.83 147.617 198.759C147.536 197.788 147.454 196.822 147.378 195.856C147.378 195.813 147.449 195.769 147.443 195.737C147.41 195.659 147.37 195.585 147.324 195.514C147.237 193.887 147.113 192.292 147.064 190.675C146.971 187.533 146.977 184.392 146.836 181.25C146.782 180.057 146.353 178.879 146.255 177.675C146.071 175.532 146.022 173.372 145.881 171.218C145.778 169.666 145.881 168.06 145.035 166.644C144.696 165.942 144.269 165.286 143.765 164.691C143.177 164.128 142.749 163.419 142.524 162.636C142.299 161.854 142.286 161.026 142.484 160.236C142.913 157.92 143.336 155.603 143.792 153.297C144.177 151.338 144.546 149.374 145.045 147.443C145.333 146.406 145.738 145.405 146.25 144.459C146.534 143.949 146.639 143.359 146.548 142.782C146.239 140.818 145.908 138.854 145.664 136.879C145.583 135.901 145.554 134.919 145.577 133.938C145.497 131.2 145.059 128.484 144.275 125.859C143.987 124.845 144.112 123.721 143.955 122.663C143.566 120.352 143 118.074 142.262 115.849C141.462 113.32 141.083 110.677 141.139 108.025C141.221 106.686 141.38 105.352 141.616 104.032C141.616 103.983 141.654 103.934 141.66 103.891C141.855 100.858 143.173 98.0796 143.673 95.1117C144.055 93.1334 143.818 91.0854 142.994 89.2466C142.208 87.4778 141.85 85.5191 141.274 83.5333C138.887 82.8008 137.173 80.9941 135.632 78.992C134.585 77.6301 133.586 76.2303 132.512 74.7762C132.314 75.0074 132.133 75.2521 131.969 75.5087C127.96 82.969 122.925 89.7566 118.112 96.6689C114.439 101.959 110.663 107.184 107.049 112.512C105.389 114.97 104.032 117.628 102.481 120.162C101.634 121.54 100.674 122.837 100.386 124.503C100.239 125.023 100.031 125.523 99.7678 125.995C99.1601 127.346 98.4982 128.675 97.9448 130.048C96.6496 133.367 94.9629 136.52 92.9206 139.44C92.7795 139.641 92.6602 139.852 92.492 140.123C92.8827 141.257 93.7725 142.294 93.5771 143.601L93.7236 143.954C93.8104 144.383 93.9136 144.817 93.9895 145.251C94.4073 147.622 93.1051 148.788 90.7341 148.159C90.5984 148.121 90.4519 148.105 90.1535 148.05C89.7582 148.562 89.4079 149.106 89.1064 149.678C89.013 150.046 89.0675 150.435 89.2582 150.763C89.6167 151.598 90.0584 152.394 90.5767 153.14C90.9323 153.604 91.1712 154.147 91.2731 154.723C91.3751 155.299 91.3372 155.891 91.1627 156.449C90.7449 158.077 90.1915 159.705 89.6218 161.278C89.2094 162.418 89.1552 162.401 90.2295 162.966C91.9331 163.872 92.4377 164.968 91.8572 166.764C91.5791 167.963 90.8431 169.007 89.8062 169.672C88.6777 170.334 88.5963 171.001 89.1552 172.206C89.8388 173.665 90.6635 175.103 90.4953 176.785C90.3817 178.28 90.1439 179.762 89.7846 181.218C89.0859 183.57 88.8067 186.028 88.9599 188.477C89.1878 191.19 88.2437 193.8 87.7174 196.437C87.5275 197.397 87.3701 198.363 87.1748 199.323L87.0825 199.692C86.8329 202.568 86.54 205.443 86.3609 208.324C86.3741 209.143 86.476 209.958 86.6648 210.755C87.05 213.218 87.3213 215.703 87.8747 218.129C88.1677 219.415 88.911 220.603 89.5024 221.802C90.0938 223.001 90.8046 224.01 91.3851 225.15C92.0579 226.479 91.9277 227.938 91.8409 229.349C91.6808 232.922 91.2345 236.476 90.5062 239.978C90.2609 241.429 90.1573 242.901 90.1969 244.373C90.0884 247.545 89.9075 250.715 89.6543 253.884C89.3342 257.78 89.7086 261.73 89.7792 265.652C89.318 265.989 89.3722 266.309 89.8171 266.613C89.8497 266.786 89.8768 266.96 89.9094 267.155C89.9419 267.351 89.8605 267.562 89.8388 267.763C87.5763 268.555 86.2144 267.79 85.7315 265.457C85.7315 265.365 85.7315 265.262 85.7315 265.164C84.9611 259.245 84.2395 253.314 83.3877 247.406C83.0662 244.928 82.5455 242.48 81.8305 240.087C80.5663 236.05 79.8447 231.905 78.9657 227.786C78.7487 226.783 78.5099 225.779 78.3526 224.764C78.1193 222.806 78.3517 220.821 79.0308 218.97C80.0827 215.639 80.3355 212.107 79.7687 208.661C78.9874 203.81 79.1285 198.943 79.2261 194.066C79.2261 193.236 79.2261 192.4 79.2261 191.564C79.2261 191.141 79.2913 190.68 78.7867 190.414C78.6288 190.304 78.5198 190.137 78.4828 189.948C78.1735 188.477 77.7721 187.039 77.3651 185.607C76.6381 183.003 76.3234 180.279 75.8296 177.604C75.7103 176.931 75.5638 176.264 75.4281 175.597L75.3196 175.211L75.2708 174.126L75.3848 173.725C75.0972 172.569 75.8568 171.603 75.9707 170.513C76.0681 169.946 76.2133 169.389 76.4048 168.847C76.4482 168.722 76.4916 168.603 76.5296 168.478C76.618 167.557 76.6578 166.631 76.6489 165.706C76.5589 163.131 76.8033 160.556 77.3759 158.044C77.4239 157.708 77.4529 157.369 77.4628 157.03L77.3326 156.634C77.3326 155.37 77.1861 154.095 77.2783 152.836C77.4252 150.487 76.8577 148.149 75.6506 146.13C75.5464 145.881 75.376 145.665 75.1579 145.506C74.9398 145.348 74.6824 145.252 74.4135 145.229C73.7028 145.175 72.9975 144.941 72.2813 144.914C70.7132 144.849 69.4056 144.003 67.9407 143.59C65.9386 143.048 64.5605 141.458 62.7917 140.53C62.3876 140.339 62.0645 140.01 61.8802 139.603C61.5601 138.599 60.7462 138.371 59.9215 138.062C58.3209 137.459 56.742 136.797 55.1523 136.173C54.7128 136 54.257 135.864 53.5951 135.631L52.6999 145.397C52.6619 145.533 52.6293 145.668 52.5914 145.804C52.4774 150.21 52.3201 154.615 52.2604 159.021C52.2604 160.828 52.4015 162.635 52.4666 164.447C52.4937 165.272 52.4666 166.102 52.4666 166.97H51.3326L51.0505 166.677C50.8335 164.138 50.7358 161.582 50.3777 159.081C49.9912 155.787 49.81 152.473 49.8351 149.157C49.8588 147.65 49.7371 146.143 49.4716 144.659C49.1515 143.151 48.8802 141.567 47.8439 140.281C47.7094 140.032 47.6004 139.77 47.5183 139.499C47.1548 138.767 46.9432 137.872 46.3681 137.329C45.0225 136.168 45.0876 134.719 45.1798 133.222C45.1798 132.956 45.4837 132.679 45.7224 132.332L43.0855 131.279L42.6623 131.079C42.6623 131.176 42.6135 131.28 42.5863 131.377C42.5863 132.338 42.5863 133.292 42.5863 134.253L42.7112 134.633C42.9174 135.365 43.1181 136.103 43.3297 136.835C43.9645 139.006 43.4436 141.176 43.2483 143.346C43.0421 145.636 42.1632 147.687 41.4958 149.814L41.3656 150.215C41.3656 150.687 41.3656 151.165 41.3656 151.637C41.409 151.767 41.4578 151.892 41.5066 152.017C41.7182 152.852 41.881 153.699 42.1578 154.512C42.5078 155.636 42.5078 156.84 42.1578 157.963C41.2571 161.295 40.454 164.653 39.4123 167.93C38.6039 170.469 37.904 173.03 37.1118 175.57C36.6085 177.263 36.3993 179.03 36.4933 180.794C36.6398 184.761 36.7483 188.732 36.8893 192.699C37.063 197.448 37.2438 202.195 37.4319 206.941C37.4133 207.182 37.4543 207.424 37.5513 207.646C38.3001 208.731 38.1862 209.963 38.2404 211.173L37.9799 211.759C36.1406 212.339 35.8097 212.166 35.3648 210.272C35.2309 209.966 35.1397 209.643 35.0935 209.312C35.2725 205.405 33.8564 201.819 32.8852 198.146C32.6039 196.803 32.2544 195.476 31.8381 194.169C31.187 192.443 31.1001 190.593 30.5359 188.857C29.9716 187.121 29.4508 185.303 28.8702 183.54C27.5463 179.563 27.7362 175.553 28.409 171.489C28.8268 168.983 29.0004 166.427 29.174 163.893C29.3856 160.779 28.6748 157.752 28.1431 154.713C27.8501 153.042 27.3076 151.398 27.1502 149.716C26.9061 147.09 26.9332 144.431 26.7705 141.795C26.6077 139.158 26.3689 136.613 26.1736 134.025C26.1248 133.439 26.1194 132.848 26.0923 132.262L25.9023 131.979C25.2729 131.811 24.8497 132.229 24.3451 132.479C23.5855 132.848 22.9128 133.499 21.8005 133.368C22.4028 131.779 22.636 130.113 24.2963 129.082C23.9436 128.616 23.629 128.192 23.3089 127.775C22.5981 127.232 21.8873 127.454 21.1765 127.775C19.0876 128.143 16.9934 128.502 14.9099 128.892C14.2371 129.017 13.6728 129.039 13.4666 128.057C15.4253 127.227 17.7095 127.14 19.4349 125.707L20.3681 125.165H15.6261L13.8899 124.834C13.2767 124.291 12.6636 124.481 12.0505 124.834C10.4516 124.852 8.88339 125.276 7.49293 126.065C6.10937 126.792 4.78006 127.579 3.40736 128.36C2.62395 128.873 1.68161 129.085 0.754181 128.957C0.480537 128.868 0.225116 128.73 0 128.55C1.79048 127.378 3.52128 126.331 5.15442 125.148C6.29347 124.304 7.56636 123.656 8.91989 123.233C9.57372 123.102 10.1545 122.73 10.5476 122.191C11.0902 121.432 12.0614 121.215 12.9674 121.009L17.1561 120.938L21.2037 121.573C21.3176 121.03 21.4424 120.396 21.5835 119.712C20.0426 118.355 18.3986 117.227 16.3043 116.874C15.8486 116.743 15.4604 116.442 15.2191 116.033C16.071 116.136 16.9933 116.066 17.7475 116.386C18.8001 116.842 19.7062 116.581 20.6611 116.283C21.8222 116.283 22.9779 116.337 24.1336 116.343C24.6382 116.343 25.2567 116.511 25.3815 115.724C25.7661 114.915 26.249 114.157 26.8193 113.467C27.9967 111.915 29.4833 110.602 30.4653 108.898C30.5701 108.733 30.696 108.581 30.8397 108.448C31.7133 107.482 32.5597 106.484 33.4821 105.562C36.3523 102.681 39.2496 99.8267 42.1632 96.9619C42.4128 96.7123 42.6026 96.4194 42.8576 96.1589C43.4002 95.6164 43.9862 95.0738 44.5885 94.5909C44.876 94.3522 45.3372 94.2708 45.5597 93.9886C46.9595 92.171 48.9996 91.0642 50.5622 89.4147C51.6473 88.3296 53.0363 87.532 54.2625 86.5717C56.4816 84.83 58.6464 83.0179 60.8981 81.3142C62.3847 80.1857 63.9854 79.2145 65.5046 78.1293C68.0058 76.3551 70.4744 74.5375 72.9703 72.7524C73.5128 72.3618 74.1314 72.0688 74.6902 71.6999C77.4031 69.9094 80.0671 68.0809 82.7854 66.323C85.2107 64.7441 87.6685 63.252 90.1263 61.6948C93.0454 59.8284 95.9428 57.8968 98.8672 56.0575C99.9523 55.3522 101.162 54.7554 102.302 54.0989C102.584 53.9307 102.844 53.7082 103.333 53.3392C102.616 53.1656 102.133 53.068 101.661 52.9215C100.631 52.6122 99.6105 52.2487 98.5742 51.9557C97.8526 51.7496 97.0984 51.6302 96.3659 51.4565C93.8429 50.8597 91.2006 50.5559 88.8459 49.5576C87.012 48.7817 85.113 49.1289 83.3496 48.4724C82.8374 48.2482 82.3075 48.0667 81.7654 47.9298C80.0617 47.5989 78.3526 47.3167 76.6381 47.0346C75.3648 46.784 74.0788 46.6029 72.7858 46.492C71.8325 46.5075 70.8818 46.5982 69.9428 46.7633L66.9749 46.6657ZM129.495 64.0279C130.685 64.0876 131.815 64.5662 132.686 65.3789C133.771 66.3664 134.78 67.4515 135.849 68.4661C138.052 70.555 140.271 72.6331 142.517 74.7491C142.636 74.4887 142.891 74.0329 143.06 73.55C144.735 68.7123 146.658 63.964 148.822 59.3238C149.364 58.2387 149.522 57.045 149.907 55.911C150.547 53.9198 151.03 51.8797 152.224 50.0893C152.696 49.3839 152.842 48.4616 153.157 47.664C153.564 46.3435 154.201 45.1055 155.039 44.0071C156.038 42.8514 157.107 41.7282 157.644 40.2416C157.847 39.5667 158.118 38.9141 158.452 38.2938C159.662 36.3134 160.34 34.0563 162.017 32.3255C163.073 31.2714 164.197 30.2873 165.381 29.3794C165.96 28.9688 166.473 28.4709 166.9 27.9035C168.528 25.462 170.155 22.9716 171.865 20.5951C173.682 18.1047 175.581 15.6632 177.567 13.3085C179.271 11.2901 181.153 9.42903 182.938 7.48662C183.156 7.194 183.348 6.88367 183.514 6.55885C182.969 6.56188 182.426 6.59809 181.886 6.66734C178.158 7.41609 174.426 8.14856 170.72 8.97326C167.73 9.6352 164.752 10.4165 161.8 11.1435C159.662 11.6861 157.514 12.1365 155.387 12.6845C152.077 13.5363 148.778 14.437 145.474 15.3159C142.653 16.0647 139.799 16.7104 137.01 17.5839C133.299 18.745 129.642 20.0797 125.963 21.3493C124.205 21.957 122.436 22.5213 120.716 23.2104C117.385 24.5451 114.081 25.9612 110.76 27.3285C109.133 28.0067 107.424 28.5818 105.807 29.3305C101.238 31.452 96.6969 33.6277 92.1502 35.7925C88.2401 37.659 84.3318 39.5363 80.4252 41.4244C79.6548 41.7934 78.944 42.2871 78.0053 42.8351C78.4801 43.0506 78.9697 43.2319 79.4703 43.3777C81.1631 43.7195 82.8614 44.0179 84.5596 44.338C87.0663 44.8101 89.5892 45.2333 92.0797 45.7813C94.0329 46.2045 95.9373 46.8664 97.8851 47.2679C101.988 48.1417 106.017 49.3335 109.936 50.8326C110.662 51.1264 111.338 51.5329 111.938 52.0371C112.093 52.1413 112.223 52.2795 112.317 52.4413C112.411 52.6032 112.467 52.7844 112.481 52.9711C112.495 53.1579 112.465 53.3453 112.396 53.5191C112.326 53.6929 112.218 53.8485 112.079 53.9741C111.525 54.4941 110.924 54.9609 110.283 55.3685C108.037 56.7954 105.758 58.1736 103.512 59.6005C101.651 60.7779 99.8221 62.0095 97.9665 63.1923C96.2954 64.2775 94.6026 65.2921 92.926 66.3447C91.0867 67.5004 89.2203 68.6235 87.4189 69.8388C86.0299 70.7775 84.7495 71.8843 83.3659 72.8393C81.1957 74.3259 78.9874 75.6986 76.8551 77.1798C75.0375 78.4603 73.2959 79.8547 71.5325 81.2111C69.0204 83.1372 66.5083 85.0579 64.0179 87.0003C63.0575 87.7491 62.1677 88.5792 61.2128 89.3334C60.2579 90.0876 59.3681 90.6572 58.5 91.3843C57.4799 92.2361 56.5087 93.1585 55.5375 94.0971C55.0763 94.5312 54.6803 95.0303 54.2082 95.4481C53.3401 96.224 52.396 96.9185 51.555 97.727C49.9273 99.295 48.3376 100.901 46.7696 102.529C45.3879 103.976 44.0314 105.44 42.7003 106.924C41.3689 108.311 40.1343 109.789 39.0054 111.345C38.0993 112.702 36.6941 113.641 36.1135 115.274C35.6089 116.695 35.4787 116.679 36.9111 117.162C39.0814 117.894 41.2516 118.665 43.4219 119.332C46.4603 120.303 49.515 121.22 52.5696 122.148C53.8664 122.544 55.1794 122.864 56.4653 123.282C57.5505 123.629 58.5814 124.123 59.6665 124.454C61.6903 125.062 63.7466 125.582 65.7812 126.174C67.6205 126.716 69.4381 127.302 71.272 127.84C71.9231 128.03 72.623 128.279 73.1819 127.612C73.8278 126.888 74.6241 126.314 75.515 125.93C75.7664 125.797 75.9752 125.596 76.1172 125.349C77.3383 123.248 78.2519 120.982 78.8301 118.621C79.1882 117.146 79.747 115.762 81.0003 114.823C82.1143 113.927 82.9979 112.777 83.5776 111.47C84.7061 109.132 85.9323 106.831 86.9469 104.417C88.1297 101.623 90.4302 99.7019 92.1556 97.3634C92.3658 97.1614 92.5947 96.9797 92.8392 96.8208C93.4539 96.3474 94.0241 95.8189 94.5429 95.242C100.804 87.1034 107.787 79.5942 114.878 72.1881C115.85 71.179 117.108 70.4356 118.058 69.4102C119.29 68.0809 120.798 67.1097 122.149 65.9431C123.307 64.942 124.726 64.2909 126.24 64.0659L129.495 64.0279Z" fill="#FBEA54"/>
<path d="M204.099 53.4425C204.327 53.5348 204.56 53.6053 204.783 53.7084C206.296 54.4137 206.589 55.2873 205.526 56.5569C204.121 58.2334 203.399 60.2301 202.591 62.1996C201.506 64.8311 200.486 67.4843 199.265 70.0506C198.078 72.5978 197.198 75.277 196.644 78.0318C196.009 81.0756 195.299 84.0977 194.599 87.1253C194.48 87.5 194.327 87.8631 194.143 88.2104L192.96 88.0965C192.9 87.912 192.803 87.7655 192.83 87.6516C193.21 85.9262 193.644 84.2117 193.986 82.4809C194.186 81.4609 194.072 80.3486 194.409 79.3882C194.745 78.4279 194.582 77.4459 195.092 76.5126C195.689 75.4275 195.342 74.0439 195.917 72.8828C196.378 71.955 196.72 70.9675 197.138 70.0126C197.642 68.8461 198.223 67.723 198.657 66.5293C198.865 65.7831 198.98 65.0141 198.999 64.2397C199.145 62.5794 199.319 60.9137 199.352 59.248C199.283 58.5374 199.128 57.8377 198.89 57.1646C198.89 57.0669 198.852 56.9747 198.831 56.877C198.353 54.7067 198.798 54.0123 200.936 53.5294C201.267 53.4534 201.614 53.4263 201.956 53.3774L204.099 53.4425Z" fill="#FBEA54"/>
<path d="M126.538 101.107L128.166 101.471C128.502 101.517 128.833 101.595 129.154 101.704C129.897 102.03 130.819 102.247 130.89 103.256C130.919 103.746 130.81 104.234 130.575 104.665C130.34 105.096 129.988 105.452 129.561 105.692C128.941 106.046 128.302 106.363 127.645 106.642L128.568 107.407L128.741 107.694C128.741 108.269 128.741 108.844 128.741 109.42L128.546 110.011C128.532 110.108 128.504 110.203 128.465 110.293C127.51 111.829 127.184 113.408 127.889 115.176C128.133 115.899 128.263 116.655 128.275 117.417C128.262 117.577 128.214 117.731 128.134 117.87C128.054 118.009 127.945 118.129 127.813 118.22C127.65 118.301 127.472 118.349 127.291 118.36C127.109 118.372 126.926 118.347 126.754 118.288C126.582 118.228 126.423 118.135 126.288 118.013C126.152 117.892 126.041 117.744 125.963 117.58C125.533 116.305 125.232 114.991 125.063 113.657C124.97 112.632 125.29 111.574 125.448 110.369C125.39 110.265 125.295 110.185 125.182 110.147C123.977 109.805 123.511 108.877 123.272 107.781C123.217 107.341 123.037 106.926 122.755 106.584C122.473 106.242 122.099 105.987 121.677 105.849C121.45 105.757 121.237 105.635 121.042 105.486C119.729 104.629 119.691 103.435 120.944 102.415C121.782 101.753 122.783 101.329 123.842 101.189H124.129L124.71 101.129L126.538 101.107Z" fill="#FBEA54"/>
<path d="M64.6251 175.472C64.522 173.844 64.4786 172.216 64.305 170.621C64.088 168.592 63.8547 166.552 63.4641 164.55C63.0409 162.38 62.2541 160.209 61.9503 158.001C61.8409 156.762 61.2857 155.606 60.3877 154.746C60.031 154.348 59.7431 153.893 59.5359 153.4C59.0313 152.44 59.2103 151.81 60.1598 151.376C60.6543 151.197 61.1623 151.057 61.679 150.958H64.0609C65.0142 151.151 65.9518 151.413 66.8659 151.745C67.886 152.185 68.179 152.858 67.555 153.753C66.0846 155.863 66.1497 158.289 65.8513 160.649C65.184 165.977 65.5095 171.327 65.6451 176.671C65.6777 177.794 65.6451 178.923 65.6451 180.105C65.0049 180.328 64.9507 179.812 64.8856 179.308C64.8856 179.27 64.9616 179.221 64.9507 179.194C64.9126 179.117 64.8691 179.042 64.8205 178.971C64.7662 178.19 64.7065 177.409 64.6523 176.627L64.6251 175.472Z" fill="#FBEA54"/>
<path d="M135.637 99.9731C134.362 99.8754 134.189 99.832 134.01 98.7739C133.88 98.112 133.614 97.8462 132.876 97.8842L133.37 97.1462C133.028 96.7512 132.776 96.2865 132.632 95.7844C132.295 94.5077 131.486 93.4064 130.369 92.7026C130.006 92.4585 129.582 92.3011 129.235 92.0353C129.012 91.8503 128.832 91.6193 128.706 91.3581C128.581 91.0969 128.514 90.8116 128.509 90.5219C128.504 90.2322 128.563 89.9448 128.679 89.6797C128.796 89.4146 128.969 89.178 129.186 88.986C130.304 88.0365 131.65 87.9009 133.028 87.9009L136.826 87.9443C137.119 88.0704 137.43 88.151 137.748 88.183C138.926 88.1589 140.082 88.5104 141.047 89.1868C142.322 89.9789 142.327 91.2539 141.047 92.1329C140.61 92.441 140.142 92.7046 139.652 92.9197C138.752 93.3212 138.084 94.0536 137.113 94.4063C136.289 94.7101 135.93 95.7356 135.936 96.7176L135.779 97.0974C135.811 97.857 135.838 98.6167 135.865 99.3763C135.773 99.577 135.735 99.7723 135.637 99.9731Z" fill="#FBEA54"/>
<path d="M56.1184 189.682C56.1184 194.825 56.1184 199.991 56.1184 205.102C56.1184 206.225 56.2161 207.348 56.2703 208.466H55.7766C55.5849 205.21 55.404 201.967 55.234 198.737C55.3751 198.287 55.489 197.837 54.9736 197.522C54.7552 195.565 54.296 193.642 53.6063 191.798C53.2102 190.837 53.3079 189.687 53.0637 188.656C52.3964 185.998 51.6585 183.355 50.9586 180.708C50.8609 180.333 50.8229 179.937 50.7578 179.552L51.1539 179.112C51.2223 179.053 51.3044 179.012 51.3926 178.993L52.2444 178.7H52.2824L54.9139 178.657H54.9627L55.2503 178.917C55.6419 178.917 56.0331 178.939 56.4222 178.982C57.3229 179.134 57.8817 179.883 57.5074 180.653C56.2757 183.171 56.2866 185.851 56.33 188.548C56.3163 188.791 56.2891 189.034 56.2486 189.275C56.1889 189.432 56.1564 189.546 56.1184 189.682Z" fill="#FBEA54"/>
<path d="M65.2008 54.8747C64.0614 55.2653 62.9112 55.6234 61.7826 56.0412C59.0997 57.1177 56.651 58.7042 54.5719 60.7128C54.2745 61.0335 53.8814 61.2496 53.4512 61.3288C53.021 61.408 52.5767 61.346 52.1846 61.1522C53.1666 59.123 55.2175 58.3254 56.8018 57.045C58.3862 55.7645 60.1224 54.5057 61.8749 53.171C61.7371 53.0211 61.5904 52.8798 61.4354 52.7478C60.4859 51.9936 60.5781 51.0712 61.6199 50.4256C63.1282 49.4924 64.7939 49.4653 66.4379 49.6443C67.7745 49.8134 69.0905 50.1169 70.3661 50.5504C71.1423 50.8325 71.8597 51.2556 72.4821 51.7983C73.1495 52.3409 72.9813 53.0679 72.2434 53.5671C71.5366 54.0517 70.7453 54.3995 69.9104 54.5925C68.6516 54.5925 67.3982 54.5925 66.1449 54.5925C65.8196 54.6464 65.5023 54.7412 65.2008 54.8747Z" fill="#FBEA54"/>
<path d="M6.27153 92.9685C6.19557 94.824 6.11959 96.6742 6.04906 98.5298L5.98938 98.8716C5.84832 101.53 5.71266 104.189 5.56616 106.847C5.52727 107.037 5.45957 107.22 5.36541 107.39L4.28027 107.352C4.35623 104.61 4.4304 101.87 4.50275 99.132C4.50275 98.9367 4.50277 98.7414 4.5299 98.5461C4.57331 96.072 4.70352 93.587 4.9314 91.1454C5.18641 88.362 5.83747 85.5569 7.42178 83.1262C7.79029 82.5654 8.24219 82.0641 8.76191 81.6396C10.8562 79.9576 13.1025 78.4656 15.913 78.5361C17.512 78.5047 19.0888 78.9138 20.4706 79.7189C20.7178 79.9434 20.9283 80.2052 21.0945 80.4948C20.8594 80.8228 20.5421 81.0833 20.1745 81.2499C19.8069 81.4166 19.4019 81.4836 19.0002 81.4443C17.8011 81.3303 16.5966 81.3032 15.403 81.1458C14.3941 81.0347 13.3732 81.1299 12.4022 81.4256C11.4312 81.7213 10.5306 82.2113 9.75486 82.8658C8.79261 83.6862 7.94413 84.6315 7.23189 85.6763C6.56995 86.5499 6.48316 87.6187 6.49943 88.7201C6.49943 90.0332 6.39089 91.3462 6.33121 92.6592C6.29865 92.6918 6.24438 92.7189 6.24438 92.746C6.24598 92.8208 6.25509 92.8954 6.27153 92.9685Z" fill="#FBEA54"/>
<path d="M131.329 175.195C131.204 176.053 131.079 176.91 130.96 177.74C129.414 177.816 129.332 177.794 129.457 176.492C129.57 174.848 129.403 173.197 128.963 171.609C128.643 170.404 128.725 169.091 128.605 167.811C128.448 166.102 127.688 164.556 127.032 163.036C126.829 162.704 126.574 162.405 126.278 162.152C125.533 162.029 124.781 161.951 124.026 161.919C122.887 161.919 121.747 162.06 120.613 162.141C119.9 161.901 119.209 161.601 118.546 161.246C118.21 161.04 118.063 160.524 117.803 160.096C118.846 159.556 119.993 159.245 121.167 159.184H123.918C125.117 159.662 126.462 159.407 127.661 160.063C128.426 160.481 128.925 160.806 128.974 161.75C128.997 162.479 129.198 163.19 129.56 163.823C130.564 165.364 130.727 167.078 130.906 168.831C131.112 170.822 131.22 172.83 131.367 174.799C131.356 174.978 131.345 175.087 131.329 175.195Z" fill="#FBEA54"/>
<path d="M177.393 155.744C177.393 156.287 177.393 156.878 177.393 157.442L176.943 157.751C176.194 157.876 175.494 157.496 175.532 156.856C175.646 155.028 174.887 153.476 174.339 151.843C174.154 151.3 173.997 150.758 173.796 150.215C173.659 149.749 173.372 149.34 172.98 149.052C172.588 148.764 172.112 148.612 171.626 148.62C170.492 148.533 169.542 147.763 168.582 146.992C168.795 146.629 169.095 146.325 169.455 146.106C169.815 145.887 170.223 145.761 170.644 145.739C172.11 145.585 173.592 145.756 174.984 146.238C176.129 146.613 176.118 146.781 175.858 148.083C175.789 148.647 175.843 149.218 176.015 149.759C176.487 151.631 177.279 153.433 177.252 155.413L177.393 155.744Z" fill="#FBEA54"/>
<path d="M6.24534 140.096C7.665 138.276 9.3345 136.665 11.2044 135.311L11.492 135.056H11.5245L12.4035 134.426C12.3113 133.884 12.2408 133.482 12.1757 133.092L13.0709 132.006L13.136 131.952L13.6135 131.621C14.813 130.728 16.2078 130.133 17.6828 129.885C18.3718 129.728 19.1748 130.091 19.9073 130.211C20.3196 130.677 20.0972 131.068 19.7879 131.404C18.7733 132.489 17.5417 133.477 16.0821 133.607C14.0204 133.792 12.6911 134.904 11.6385 136.439C10.5046 138.067 8.92568 139.255 7.43904 140.476L6.1748 140.595V140.492C6.18566 140.329 6.21279 140.21 6.24534 140.096Z" fill="#FBEA54"/>
<path d="M44.133 46.9858C46.7265 46.2859 49.3199 45.5588 51.9243 44.8915C53.6605 44.452 55.413 44.0179 57.1818 43.7467C57.952 43.7002 58.7234 43.8186 59.4443 44.0939C59.548 44.1109 59.6445 44.1577 59.7221 44.2285C59.7998 44.2993 59.8552 44.3911 59.8816 44.4928C59.9081 44.5945 59.9044 44.7017 59.871 44.8014C59.8377 44.9011 59.7762 44.9889 59.6939 45.0542C59.3044 45.4879 58.8635 45.8724 58.3809 46.1991C56.3517 47.5935 54.0837 47.7563 51.6747 47.4741C51.6747 47.1377 51.6367 46.8176 51.6041 46.2804C50.405 46.5409 49.2277 46.823 48.0395 47.0509C47.1876 47.2299 46.3304 47.3819 45.4731 47.5447H43.6338L44.133 46.9858Z" fill="#FBEA54"/>
<path d="M33.6118 73.1429C33.6118 72.7848 33.4382 72.3724 33.5575 72.0577C33.9432 71.0848 34.404 70.1434 34.9356 69.2418C35.5216 68.2923 35.5813 67.039 36.6447 66.3716C36.7804 66.2848 36.84 66.0352 36.8888 65.829C37.0679 65.1617 37.2307 64.4889 37.4314 63.7293C37.2524 63.5991 36.9811 63.4146 36.6935 63.2193C36.7221 63.0688 36.7753 62.9239 36.8509 62.7907C38.2724 61.2172 39.9923 60.539 42.1084 61.049C42.1853 61.1636 42.2356 61.294 42.2554 61.4305C42.2753 61.5671 42.2642 61.7064 42.2231 61.8381C42.182 61.9699 42.1118 62.0907 42.0178 62.1917C41.9237 62.2927 41.8082 62.3713 41.6798 62.4217C39.9164 63.2138 39.0971 64.9067 37.9903 66.2794C36.3059 68.4158 34.8391 70.715 33.6118 73.1429Z" fill="#FBEA54"/>
<path d="M172.478 99.6532C171.642 99.4524 170.85 99.1758 170.492 98.1991C171.019 97.8014 171.628 97.5259 172.274 97.3926C172.921 97.2594 173.589 97.2717 174.23 97.4287C175.699 97.758 177.223 97.745 178.685 97.3907C179.457 97.2734 180.241 97.2516 181.018 97.3256H184.632H186.802C186.455 97.7651 186.259 97.9821 186.096 98.2046C184.923 97.8438 183.668 97.8438 182.494 98.2046C180.437 98.5247 178.387 98.8231 176.341 99.1704C175.935 99.302 175.546 99.4843 175.185 99.7129C174.764 99.513 174.305 99.4043 173.838 99.394C173.371 99.3838 172.908 99.472 172.478 99.6532Z" fill="#FBEA54"/>
<path d="M20.8839 143.14C20.52 143.478 20.1239 143.78 19.7011 144.041C17.5037 145.083 16.1906 146.982 14.9156 148.924C14.4707 149.597 14.0258 150.107 13.0166 149.732L15.9519 145.555C16.0387 145.435 16.1906 145.327 16.2069 145.202C16.4077 143.759 17.5308 143.298 18.6431 142.728C19.4189 142.343 19.9941 142.446 20.8839 143.14Z" fill="#FBEA54"/>
<path d="M61.9451 35.4179C60.86 35.6078 60.1492 35.0543 59.4385 34.2133C60.4314 33.4266 61.5382 33.8119 62.5365 33.6328H64.7068C65.0306 33.7318 65.3478 33.8515 65.6563 33.9909C66.3399 34.3599 66.3237 34.5335 65.5803 35.1846L61.9451 35.4179Z" fill="#FBEA54"/>
<path d="M52.147 63.6262C52.516 64.7113 51.7401 64.912 51.1704 65.2539C49.9551 65.9592 48.3762 65.7042 47.7088 64.6787C47.4864 64.3423 47.405 64.0656 47.9042 63.7618C48.5356 63.3643 49.2615 63.1422 50.0072 63.1184C50.7529 63.0945 51.4915 63.2698 52.147 63.6262Z" fill="#FBEA54"/>
<path d="M178.451 77.0872C178.976 77.0391 179.503 77.0174 180.03 77.0221C180.931 77.0655 180.98 77.2229 181.115 78.1724C181.292 78.9575 181.517 79.7312 181.788 80.4892C181.083 80.6031 180.16 80.9775 179.504 79.9466C179.342 79.7177 179.206 79.4722 179.097 79.2141C178.902 78.5956 178.722 77.9662 178.451 77.0872Z" fill="#FBEA54"/>
<path d="M55.9768 215.828L55.8574 211.157H56.3565V219.002H56.1233C56.0853 218.064 56.0419 217.12 56.0039 216.181C55.9768 216.067 55.9768 215.948 55.9768 215.828Z" fill="#FBEA54"/>
<path d="M134.52 105.887V101.845C135.279 102.762 135.268 104.84 134.52 105.887Z" fill="#FBEA54"/>
<path d="M194.75 90.147C194.208 91.2321 193.605 91.8235 192.688 92.0405C193.13 91.1851 193.86 90.5141 194.75 90.147Z" fill="#FBEA54"/>
<path d="M120.613 162.162C121.747 162.081 122.887 161.951 124.026 161.94C124.781 161.972 125.533 162.05 126.278 162.173L120.613 162.162Z" fill="#FBEA54"/>
<path d="M15.6855 125.083H20.4276L19.4944 125.626C19.2372 125.491 18.9636 125.391 18.6805 125.327C17.6876 125.219 16.6839 125.159 15.6855 125.083Z" fill="#FBEA54"/>
<path d="M57.2744 39.3678C57.4697 38.5214 57.5077 37.8432 58.3596 37.4634C58.4247 38.3315 58.2999 38.9609 57.2744 39.3678Z" fill="#FBEA54"/>
<path d="M56.3351 211.151H55.8359L55.7871 208.482H56.2809C56.2971 209.361 56.3134 210.256 56.3351 211.151Z" fill="#FBEA54"/>
<path d="M56.2266 225.866C56.2266 226.539 56.2266 227.211 56.1344 227.879C56.0864 228.494 55.901 229.091 55.5918 229.626L55.8196 225.909L56.2266 225.866Z" fill="#FBEA54"/>
<path d="M190.024 94.9325C190.806 94.417 190.865 93.1963 192.195 92.7622C191.527 93.8365 190.996 94.5961 190.024 94.9325Z" fill="#FBEA54"/>
<path d="M25.403 115.637C25.2782 116.424 24.6597 116.256 24.1551 116.256C22.9994 116.256 21.8437 116.218 20.6826 116.196C21.6701 116.109 22.6576 116.05 23.6397 115.941C24.2311 115.876 24.817 115.757 25.403 115.637Z" fill="#FBEA54"/>
<path d="M65.2002 54.8744C65.5017 54.7409 65.8189 54.6461 66.1443 54.5923C67.3976 54.5923 68.651 54.5923 69.9097 54.5923C69.1556 54.6954 68.4068 54.8473 67.6526 54.8907C66.8985 54.9341 66.0412 54.8853 65.2002 54.8744Z" fill="#FBEA54"/>
<path d="M17.1935 120.851L13.0049 120.922C14.3517 120.419 15.8305 120.394 17.1935 120.851Z" fill="#FBEA54"/>
<path d="M12.1755 133.064C12.2406 133.455 12.3111 133.84 12.4034 134.399L11.5244 135.029C11.5244 134.562 12.067 134.112 11.5244 133.64C11.7577 133.45 11.9694 133.26 12.1755 133.064Z" fill="#FBEA54"/>
<path d="M136.772 87.9445L132.974 87.9011C134.206 87.4749 135.549 87.4903 136.772 87.9445Z" fill="#FBEA54"/>
<path d="M56.0526 224.103L56.1502 223.224H56.3402V225.562L55.8682 225.611L56.0146 224.434L56.0526 224.103Z" fill="#FBEA54"/>
<path d="M61.9453 35.4181L65.5751 35.1631C64.376 35.7382 63.139 35.3964 61.9453 35.4181Z" fill="#FBEA54"/>
<path d="M184.631 97.309H181.018C182.185 96.8885 183.463 96.8885 184.631 97.309Z" fill="#FBEA54"/>
<path d="M182.493 98.1827C183.667 97.8219 184.922 97.8219 186.096 98.1827H182.493Z" fill="#FBEA54"/>
<path d="M44.1324 46.9859L43.6332 47.5285H45.4725L43.4867 47.9083C43.2154 47.0402 43.4976 46.8503 44.1324 46.9859Z" fill="#FBEA54"/>
<path d="M203.214 0.33553H199.894C200.419 0.114084 200.984 0 201.554 0C202.124 0 202.689 0.114084 203.214 0.33553Z" fill="#FBEA54"/>
<path d="M66.9756 46.6655H69.938C69.4729 46.8772 68.9678 46.9868 68.4568 46.9868C67.9458 46.9868 67.4407 46.8772 66.9756 46.6655Z" fill="#FBEA54"/>
<path d="M54.8922 178.695L52.2607 178.738C53.1343 178.358 54.0078 178.152 54.8922 178.695Z" fill="#FBEA54"/>
<path d="M123.918 159.222H121.167C121.599 159.027 122.068 158.927 122.542 158.927C123.017 158.927 123.485 159.027 123.918 159.222Z" fill="#FBEA54"/>
<path d="M172.478 99.653C172.904 99.4616 173.366 99.3628 173.834 99.3628C174.302 99.3628 174.764 99.4616 175.19 99.653H172.478Z" fill="#FBEA54"/>
<path d="M64.0616 150.98H61.6797C62.0491 150.794 62.457 150.697 62.8706 150.697C63.2842 150.697 63.6922 150.794 64.0616 150.98Z" fill="#FBEA54"/>
<path d="M191.115 1.52918H188.988C189.309 1.33474 189.677 1.23193 190.052 1.23193C190.427 1.23193 190.794 1.33474 191.115 1.52918Z" fill="#FBEA54"/>
<path d="M13.0808 131.958L12.1856 133.043C12.1042 132.364 12.6738 132.229 13.0808 131.958Z" fill="#FBEA54"/>
<path d="M204.099 53.442L201.929 53.3878C202.258 53.1897 202.637 53.0897 203.022 53.0993C203.406 53.1089 203.78 53.2278 204.099 53.442Z" fill="#FBEA54"/>
<path d="M21.252 127.693C21.9627 127.378 22.6735 127.151 23.3843 127.693H21.252Z" fill="#FBEA54"/>
<path d="M64.6576 33.6115H62.4873C62.8155 33.4161 63.1905 33.313 63.5724 33.313C63.9544 33.313 64.3293 33.4161 64.6576 33.6115Z" fill="#FBEA54"/>
<path d="M12.1104 124.747C12.7235 124.4 13.3366 124.204 13.9497 124.747H12.1104Z" fill="#FBEA54"/>
<path d="M54.9619 197.543C55.4774 197.858 55.3634 198.308 55.2223 198.759L54.9619 197.543Z" fill="#FBEA54"/>
<path d="M89.958 267.72C89.958 267.519 90.0068 267.313 90.0285 267.112L90.3378 267.72H89.958Z" fill="#FBEA54"/>
<path d="M89.9368 266.591C89.4919 266.287 89.4377 265.967 89.8988 265.63C89.9097 265.95 89.9259 266.271 89.9368 266.591Z" fill="#FBEA54"/>
<path d="M6.18555 140.547L7.44978 140.427C7.29754 140.61 7.07909 140.725 6.84223 140.748C6.60538 140.77 6.36931 140.698 6.18555 140.547Z" fill="#FBEA54"/>
<path d="M4.51348 98.5352C4.51348 98.7305 4.51346 98.9258 4.48633 99.1211C4.49718 98.9366 4.50263 98.7305 4.51348 98.5352Z" fill="#FBEA54"/>
<path d="M4.26465 107.341L5.34979 107.379C4.91031 107.813 4.59019 107.802 4.26465 107.341Z" fill="#FBEA54"/>
<path d="M55.8678 225.616L56.3399 225.567L56.2259 225.866L55.8027 225.909L55.8678 225.616Z" fill="#FBEA54"/>
<path d="M135.638 99.9728C135.708 99.772 135.773 99.5767 135.838 99.376C136.061 99.669 136.121 99.9131 135.638 99.9728Z" fill="#FBEA54"/>
<path d="M153.189 202.025C153.189 201.824 153.189 201.624 153.227 201.423C153.217 201.607 153.206 201.808 153.189 202.025Z" fill="#FBEA54"/>
<path d="M42.6406 131.301C42.6406 131.203 42.6895 131.1 42.7166 131.002L43.1397 131.203L42.6406 131.301Z" fill="#FBEA54"/>
<path d="M135.734 97.0975L135.892 96.7178C135.859 96.8426 135.805 96.9728 135.734 97.0975Z" fill="#FBEA54"/>
<path d="M6.2719 92.9685C6.2496 92.8942 6.23508 92.8178 6.22852 92.7406C6.22852 92.7406 6.28272 92.6864 6.31528 92.6538C6.299 92.7569 6.28817 92.86 6.2719 92.9685Z" fill="#FBEA54"/>
<path d="M52.6396 145.717C52.6776 145.581 52.7102 145.446 52.7482 145.31C52.7211 145.446 52.6776 145.598 52.6396 145.717Z" fill="#FBEA54"/>
<path d="M76.5945 168.386C76.5565 168.511 76.5131 168.63 76.4697 168.755C76.4969 168.635 76.5403 168.516 76.5945 168.386Z" fill="#FBEA54"/>
<path d="M131.329 175.195C131.329 175.086 131.329 174.978 131.367 174.864C131.356 174.978 131.345 175.086 131.329 175.195Z" fill="#FBEA54"/>
<path d="M75.3682 175.13C75.4061 175.26 75.4387 175.39 75.4767 175.515L75.3682 175.13Z" fill="#FBEA54"/>
<path d="M64.8264 178.993C64.875 179.064 64.9185 179.138 64.9566 179.216C64.9566 179.216 64.9132 179.292 64.8915 179.33C64.84 179.259 64.7946 179.185 64.7559 179.107C64.7559 179.107 64.7993 179.031 64.8264 178.993Z" fill="#FBEA54"/>
<path d="M56.1182 189.681C56.1561 189.557 56.1887 189.432 56.2267 189.307C56.1887 189.432 56.1561 189.546 56.1182 189.681Z" fill="#FBEA54"/>
<path d="M147.373 195.515C147.419 195.585 147.459 195.66 147.492 195.737C147.492 195.77 147.449 195.813 147.427 195.856C147.383 195.784 147.347 195.708 147.318 195.629C147.318 195.629 147.356 195.553 147.373 195.515Z" fill="#FBEA54"/>
<path d="M147.671 198.77C147.714 198.841 147.752 198.916 147.785 198.992C147.785 199.025 147.747 199.074 147.725 199.112C147.679 199.039 147.639 198.963 147.606 198.884C147.589 198.841 147.638 198.797 147.671 198.77Z" fill="#FBEA54"/>
<path d="M56.0536 224.102C56.0536 224.216 56.0265 224.325 56.0156 224.439C55.9895 224.361 55.9731 224.281 55.9668 224.2C55.9776 224.167 56.0211 224.135 56.0536 224.102Z" fill="#FBEA54"/>
<path d="M126.191 64.0114C126.713 63.7874 127.275 63.6719 127.843 63.6719C128.412 63.6719 128.974 63.7874 129.496 64.0114H126.191Z" fill="#FBEA54"/>
<path d="M53.3942 116.842C51.7665 116.744 50.1389 116.88 48.6034 116.478C46.661 115.936 44.6318 115.496 42.9661 114.232C41.8484 113.385 41.8158 112.718 43.0583 112.013C44.1064 111.406 45.2406 110.961 46.4222 110.694C47.1925 110.551 47.8942 110.159 48.4189 109.577C49.7536 108.079 51.0377 106.536 52.2712 104.949C52.8546 104.158 53.3597 103.314 53.7795 102.426C56.438 97.1844 60.3392 93.05 65.027 89.5775C69.5665 86.2172 74.2326 83.045 79.0253 80.0608C86.7352 75.2699 94.3583 70.3326 102.019 65.4603C103.056 64.8038 104.087 64.1418 105.139 63.5179C105.502 63.2512 105.94 63.1074 106.39 63.1074C106.84 63.1074 107.278 63.2512 107.64 63.5179C107.174 63.9356 106.821 64.31 106.414 64.603C96.627 71.6222 87.6568 79.7153 79.671 88.7311C77.4084 91.3246 75.0374 93.815 72.726 96.3597C70.6549 98.6651 68.3265 100.726 65.7865 102.502C62.8012 104.583 60.0215 106.945 57.4853 109.555C56.6009 110.461 55.6894 111.345 54.8538 112.176C55.0328 113.917 56.2916 114.205 57.5666 114.422C59.5308 114.747 61.5057 115.013 63.4644 115.371C66.1772 115.86 68.3475 117.33 70.4418 119.001C70.4961 119.039 70.4418 119.18 70.4961 119.392L68.456 120.097H66.0687C63.6623 119.781 61.4117 118.732 59.6229 117.091C59.4602 117.01 59.2974 116.847 59.1346 116.847C57.2302 116.842 55.3095 116.842 53.3942 116.842Z" fill="#FBEA54"/>
<path d="M166.943 13.319C167.486 13.4655 168.332 13.4059 168.354 14.1004C168.354 14.529 167.812 15.0987 167.361 15.408C161.594 19.4176 155.669 23.1775 148.914 25.2827C145.626 26.31 142.307 27.2378 138.958 28.0661C135.046 29.0373 131.09 29.8349 127.162 30.7464C125.236 31.1967 123.304 31.6471 121.422 32.2602C120.326 32.6721 119.275 33.1957 118.286 33.8228C116.712 34.7234 115.253 35.8411 113.614 36.5844C111.699 37.4526 109.653 38.0223 107.646 38.7059C106.74 39.0206 105.828 39.3245 104.933 39.6066C104.494 39.7368 104.032 39.8019 103.582 39.8995L100.918 40.1871C99.5127 40.2414 98.4818 39.5306 97.4727 38.5594C98.4439 37.0022 99.936 36.2046 101.45 35.4396C101.613 35.3528 101.895 35.4396 101.992 35.3311C103.549 33.7902 105.649 33.6546 107.586 33.0523C110.12 32.271 112.773 32.2168 115.318 31.6091C117.103 31.1859 118.828 30.5239 120.57 29.9325C121.481 29.6233 122.377 29.2652 123.283 28.9017C125.919 27.8348 128.435 26.4946 130.792 24.9029C131.335 24.6085 131.897 24.3493 132.474 24.127C134.715 22.9985 136.918 21.7994 139.185 20.736C141.09 19.8407 143.065 19.1083 145.018 18.289C146.971 17.4697 148.724 16.4931 150.677 16.059C153.829 15.3537 156.846 14.1221 160.08 13.7097C161.366 13.5021 162.663 13.3644 163.965 13.2974L166.943 13.319Z" fill="#FBEA54"/>
<path d="M118.617 44.2401L117.483 43.6596C117.407 42.1133 117.483 41.9993 118.839 41.6032C119.227 41.4603 119.604 41.2899 119.968 41.0933C120.842 41.6901 121.807 41.1747 122.724 41.3157C123.384 41.4336 124.031 41.6153 124.656 41.8583C125.589 42.3141 125.638 43.1713 124.716 43.5782C123.775 43.9046 122.807 44.1443 121.824 44.2944L118.617 44.2401Z" fill="#FBEA54"/>
<path d="M69.4756 107.043C70.8157 105.751 72.0528 104.737 73.9192 105.556C73.9652 105.577 74.0151 105.588 74.0657 105.589C74.6625 105.589 75.2973 105.534 75.4764 106.299C75.5903 106.81 74.8199 107.802 74.1254 108.047C73.3405 108.374 72.4744 108.453 71.6432 108.273C70.812 108.094 70.0556 107.665 69.4756 107.043Z" fill="#FBEA54"/>
<path d="M141.215 40.1223C139.701 40.6106 139.044 40.3556 137.742 38.7604C138.285 37.838 139.256 37.7729 140.157 37.7729C141.638 37.7729 143.114 37.9086 144.28 39.3084L143.369 39.851L141.215 40.1223Z" fill="#FBEA54"/>
<path d="M122.713 51.6625C122.013 51.2881 121.085 51.185 120.955 50.0945C122.36 48.8683 123.874 49.2915 125.344 49.7961C126.028 50.0294 126.099 50.458 125.686 51.0766C125.501 51.3 125.292 51.502 125.062 51.6788L122.713 51.6625Z" fill="#FBEA54"/>
<path d="M53.3945 116.842C55.3098 116.842 57.2305 116.842 59.1458 116.842C59.3085 116.842 59.4713 117.005 59.6341 117.086L53.3945 116.842Z" fill="#FBEA54"/>
<path d="M118.617 44.2402L121.824 44.2783C120.75 44.5821 119.675 44.9076 118.617 44.2402Z" fill="#FBEA54"/>
<path d="M100.88 40.187L103.544 39.8994C102.746 40.8435 101.813 40.5342 100.88 40.187Z" fill="#FBEA54"/>
<path d="M166.943 13.3196H163.927C164.893 12.9234 165.977 12.9234 166.943 13.3196Z" fill="#FBEA54"/>
<path d="M122.713 41.3157C121.796 41.1747 120.831 41.6901 119.957 41.0933L122.713 41.3157Z" fill="#FBEA54"/>
<path d="M122.713 51.6626H125.062C124.71 51.8831 124.303 52 123.888 52C123.472 52 123.065 51.8831 122.713 51.6626Z" fill="#FBEA54"/>
<path d="M66.0801 120.097H68.4674C68.1023 120.3 67.6914 120.406 67.2737 120.406C66.856 120.406 66.4452 120.3 66.0801 120.097Z" fill="#FBEA54"/>
</svg>
