<svg width="131" height="169" viewBox="0 0 131 169" fill="none" xmlns="http://www.w3.org/2000/svg">
<path d="M41.943 29.4143C41.3348 29.2512 40.6722 29.19 40.1353 28.8944C39.4855 28.5098 38.8881 28.0427 38.3583 27.5047C38.0661 27.2295 38.3005 26.8693 38.5214 26.6076C38.7766 26.2791 39.0634 25.9764 39.3776 25.7038C39.7359 25.4111 40.137 25.175 40.5669 25.0039C41.012 24.8851 41.4668 24.8066 41.926 24.7694C42.0789 24.5349 42.2148 24.2937 42.3847 24.0898C42.5477 23.8579 42.7624 23.6672 43.0119 23.5327C43.2614 23.3983 43.5388 23.3237 43.822 23.3151C45.0317 23.2743 46.2243 23.3151 47.3592 23.7806C47.5235 23.8632 47.7061 23.9025 47.8899 23.8948C48.0736 23.887 48.2523 23.8325 48.4091 23.7364C48.7965 23.5054 49.211 23.3219 49.6153 23.0569C48.6532 23.0384 47.714 22.7601 46.8971 22.2516C46.7889 22.2096 46.6708 22.2001 46.5573 22.2244C45.9253 22.2742 45.291 22.3309 44.6545 22.3943C43.7541 22.4792 43.0949 21.973 42.4935 21.4293C41.9668 20.9502 42.1027 20.2435 42.1537 19.6285C42.1707 19.4484 42.575 19.1969 42.8333 19.163C43.902 19.0016 44.9922 19.0566 46.0393 19.3245C47.0864 19.5924 48.069 20.0678 48.929 20.7225C49.1601 20.9115 49.412 21.0734 49.6799 21.2051C50.2508 21.4497 50.7876 21.7113 51.0391 22.469C51.8749 21.9628 52.6292 21.4497 53.4175 21.0284C54.6985 20.3488 56.0067 19.7236 57.3115 19.0916C58.2425 18.6431 59.2075 18.2591 60.1249 17.7834C62.3199 16.652 64.6542 15.8433 66.9206 14.919C69.1156 14.0322 71.3751 13.2983 73.6211 12.5406C75.9283 11.7489 78.2456 10.9741 80.5731 10.2436C82.8157 9.53686 85.0673 8.86747 87.328 8.23547C89.7065 7.57969 92.085 6.98508 94.4635 6.38026C96.7061 5.80942 98.9486 5.22158 101.208 4.70851C103.855 4.10709 106.526 3.59741 109.18 3.00958C110.933 2.62563 112.662 2.13973 114.419 1.77616C115.714 1.51113 117.032 1.36505 118.344 1.16798H119.676C120.753 1.6131 121.714 1.13399 122.734 0.862163C123.529 0.648099 124.358 0.566538 125.17 0.423828H127.249C127.55 0.473412 127.847 0.546119 128.136 0.641295C128.389 0.714323 128.606 0.877468 128.746 1.09979C128.886 1.32211 128.94 1.58817 128.897 1.84755C129.149 1.98006 129.37 2.0786 129.577 2.18733C130.936 3.01301 131.296 3.91005 130.766 5.42549C130.171 7.12441 129.505 8.79272 128.907 10.4882C128.625 11.2799 128.279 12.0683 128.306 12.9415L128.221 13.1759C128.248 15.1705 128.194 17.1718 128.333 19.1595C128.452 20.906 128.089 22.5812 127.908 24.2835C127.834 25.0107 127.711 25.731 127.63 26.4581C127.548 27.1853 127.48 27.9803 127.406 28.7517C127.103 28.9249 126.859 28.9182 126.821 28.5206C126.797 28.1529 126.797 27.784 126.821 27.4163C126.943 24.1884 127.103 20.9604 127.161 17.7393C127.196 16.2019 127.13 14.6639 126.964 13.1352C126.845 12.0683 126.444 11.0387 126.213 9.98197C126.033 9.15289 125.989 8.28304 125.741 7.47436C125.55 6.84915 125.812 6.08124 125.129 5.51719C124.11 6.57053 122.927 7.45397 122.377 8.91504C122.125 9.57082 121.755 10.179 121.459 10.8212C121.37 11.0406 121.303 11.2683 121.259 11.5008C120.865 13.2303 120.535 14.9768 120.059 16.6825C119.763 17.7117 119.358 18.7062 118.85 19.6489C118.15 20.9774 117.266 22.2074 116.58 23.5428C116.045 24.5573 115.626 25.6286 115.33 26.7368C114.721 29.1356 114.191 31.5549 113.712 33.9843C113.339 35.8973 113.478 37.8409 113.638 39.7607C113.722 40.7596 113.814 41.7552 113.906 42.7712C113.356 42.9716 112.808 43.1789 112.261 42.5537C112.071 41.5343 111.857 40.4063 111.653 39.285C111.531 38.6054 111.477 37.8919 111.313 37.2157C110.858 35.4454 110.739 33.6242 110.461 31.8301C110.243 30.4166 110.42 28.9454 110.42 27.5013V26.6076C110.29 26.7704 110.17 26.9406 110.06 27.1173C107.82 31.4835 105.571 35.8396 103.359 40.216C101.752 43.3998 100.202 46.6142 98.6021 49.8047C98.3192 50.3847 97.9873 50.9395 97.6099 51.4629C97.4911 51.6186 97.4175 51.804 97.3972 51.9988C97.3768 52.1936 97.4104 52.3902 97.4944 52.5672C97.8523 53.6115 98.1841 54.6636 98.4899 55.7238C98.67 56.3354 98.7414 56.981 98.9487 57.5824C99.4855 59.1658 99.2409 60.7322 98.9011 62.2952C98.6361 63.5184 98.2215 64.7178 98.072 65.9513C97.8781 67.1968 97.845 68.4621 97.9735 69.7161C98.439 73.2261 98.123 76.7123 97.8274 80.2018C97.6745 82.0129 97.3959 83.8205 96.6143 85.4753C95.979 86.8344 95.7649 88.2853 95.3368 89.6886C95.1703 90.2391 95.4251 90.9322 95.5372 91.5506C95.5984 91.8904 95.792 92.2302 95.8566 92.57C96.0739 93.5592 96.2361 94.5597 96.3425 95.5669C96.5192 97.9454 96.6177 100.348 96.7469 102.74C96.7743 102.861 96.7743 102.986 96.7469 103.107C96.3255 104.034 96.4241 105.02 96.4274 105.991C96.4824 107.467 96.3488 108.943 96.0299 110.385C95.8974 110.898 95.7547 111.404 95.6188 111.924C94.9392 114.534 95.4998 117.13 95.5644 119.739C95.595 120.935 95.7581 122.118 95.8328 123.32C95.894 124.34 95.9076 125.329 95.9415 126.334L95.9178 126.712C96.4342 129.026 96.5799 131.408 96.3493 133.769C96.2379 135.236 96.4086 136.711 96.8522 138.115C97.107 138.964 97.4094 139.814 97.3381 140.728C97.3381 140.915 97.5216 141.152 97.6779 141.312C97.8695 141.462 98.0716 141.599 98.2827 141.72C98.4711 141.821 98.6231 141.978 98.717 142.171C98.8109 142.363 98.842 142.579 98.8059 142.79C98.7839 143.185 98.7839 143.581 98.8059 143.976C98.8184 144.214 98.7592 144.451 98.636 144.656C98.1162 145.288 97.6167 145.987 96.7367 146.147C95.5984 146.354 94.4533 146.487 93.3388 145.94C92.6015 145.563 91.8166 145.277 91.069 144.921C89.9613 144.387 89.7643 143.663 90.4336 142.613C90.6066 142.288 90.8368 141.997 91.1132 141.754C91.6976 141.326 91.8438 140.734 91.8981 140.089C92.0116 138.689 92.3358 137.314 92.8597 136.011C93.2799 134.851 93.39 133.602 93.1791 132.386C92.9889 130.928 92.8665 129.46 92.7306 127.996C92.6321 126.956 92.5607 125.916 92.4792 124.877C92.4792 124.853 92.5233 124.822 92.5165 124.802C92.4962 124.754 92.4723 124.707 92.4452 124.663C92.3942 124.054 92.3432 123.45 92.2957 122.845C92.2957 122.818 92.3398 122.79 92.3364 122.77C92.3155 122.722 92.2905 122.675 92.2617 122.631C92.2073 121.611 92.1292 120.612 92.0986 119.6C92.0408 117.632 92.0442 115.665 91.9559 113.698C91.9219 112.95 91.6535 112.213 91.5923 111.459C91.4768 110.116 91.4462 108.764 91.3578 107.415C91.2933 106.443 91.3579 105.438 90.8278 104.551C90.6155 104.111 90.3484 103.7 90.0327 103.328C89.6647 102.975 89.3967 102.531 89.2558 102.041C89.115 101.551 89.1064 101.032 89.2308 100.538C89.4992 99.0871 89.7643 97.6362 90.0497 96.1921C90.2909 94.9655 90.522 93.7355 90.8346 92.5258C91.0151 91.8765 91.2681 91.2496 91.5889 90.657C91.7671 90.3379 91.8329 89.9681 91.7758 89.6071C91.5821 88.3771 91.3749 87.147 91.222 85.9102C91.1715 85.2977 91.1533 84.683 91.1676 84.0686C91.1175 82.3538 90.8434 80.6529 90.3521 79.0092C90.172 78.3738 90.2502 77.6704 90.1516 77.0079C89.908 75.5603 89.5535 74.1335 89.0915 72.7402C88.5908 71.1564 88.3532 69.5012 88.3881 67.8405C88.4396 67.0018 88.5395 66.1668 88.6871 65.3397C88.6871 65.3091 88.711 65.2785 88.7144 65.2513C88.8367 63.3519 89.6623 61.6122 89.9749 59.7536C90.2144 58.5147 90.0661 57.2321 89.5502 56.0805C89.0575 54.9728 88.8333 53.7462 88.4731 52.5026C86.978 52.0439 85.9043 50.9124 84.9394 49.6586C84.2836 48.8057 83.6584 47.9291 82.9856 47.0185C82.8618 47.1633 82.7482 47.3165 82.6458 47.4772C80.1348 52.1492 76.9816 56.3999 73.9677 60.7288C71.6674 64.0417 69.3025 67.3138 67.0395 70.6505C65.9998 72.1897 65.1503 73.8547 64.1785 75.4415C63.6484 76.3045 63.047 77.1166 62.8669 78.1597C62.7746 78.4852 62.6446 78.7988 62.4796 79.0941C62.099 79.9402 61.6845 80.7727 61.3379 81.6323C60.5268 83.711 59.4705 85.6856 58.1915 87.514C58.1031 87.6397 58.0284 87.7722 57.9231 87.9421C58.1677 88.6523 58.725 89.3012 58.6027 90.1201L58.6944 90.341C58.7487 90.6094 58.8133 90.8813 58.8609 91.1531C59.1225 92.6379 58.3071 93.3685 56.8222 92.9743C56.7372 92.9505 56.6455 92.9404 56.4586 92.9064C56.2111 93.2267 55.9917 93.5677 55.8028 93.9257C55.7444 94.156 55.7785 94.4 55.8979 94.6053C56.1224 95.1279 56.3991 95.6265 56.7236 96.0936C56.9463 96.3844 57.0959 96.7245 57.1598 97.0852C57.2236 97.4459 57.1999 97.8166 57.0906 98.1662C56.829 99.1856 56.4824 100.205 56.1256 101.19C55.8674 101.904 55.8334 101.894 56.5062 102.247C57.5731 102.814 57.8891 103.501 57.5255 104.626C57.3514 105.377 56.8905 106.031 56.2411 106.447C55.5344 106.861 55.4834 107.279 55.8334 108.034C56.2615 108.948 56.778 109.848 56.6727 110.901C56.6015 111.837 56.4526 112.766 56.2276 113.677C55.79 115.151 55.6152 116.69 55.7111 118.224C55.8538 119.923 55.2626 121.557 54.933 123.208C54.814 123.81 54.7155 124.415 54.5932 125.016L54.5354 125.247C54.3791 127.048 54.1956 128.849 54.0835 130.653C54.0918 131.166 54.1556 131.676 54.2738 132.175C54.5151 133.718 54.6849 135.274 55.0315 136.793C55.215 137.598 55.6805 138.342 56.0509 139.093C56.4212 139.844 56.8663 140.476 57.2299 141.19C57.6512 142.022 57.5697 142.936 57.5153 143.82C57.4151 146.057 57.1356 148.283 56.6795 150.476C56.5258 151.385 56.461 152.307 56.4858 153.228C56.4178 155.215 56.3045 157.2 56.146 159.185C55.9455 161.624 56.18 164.098 56.2242 166.555C55.9354 166.765 55.9693 166.966 56.2479 167.156C56.2683 167.265 56.2853 167.374 56.3057 167.496C56.3261 167.618 56.2751 167.751 56.2615 167.876C54.8446 168.372 53.9918 167.893 53.6893 166.432C53.6893 166.375 53.6893 166.31 53.6893 166.249C53.2069 162.542 52.755 158.828 52.2215 155.128C52.0202 153.576 51.6941 152.043 51.2463 150.544C50.4546 148.016 50.0027 145.42 49.4522 142.841C49.3163 142.212 49.1668 141.584 49.0683 140.949C48.9222 139.722 49.0677 138.479 49.493 137.32C50.1518 135.234 50.3101 133.022 49.9551 130.864C49.4658 127.826 49.5542 124.778 49.6153 121.723C49.6153 121.204 49.6153 120.68 49.6153 120.157C49.6153 119.892 49.6561 119.603 49.3401 119.437C49.2412 119.368 49.173 119.263 49.1498 119.145C48.9562 118.224 48.7047 117.323 48.4499 116.426C47.9946 114.795 47.7975 113.09 47.4883 111.414C47.4135 110.993 47.3218 110.575 47.2368 110.157L47.1689 109.916L47.1383 109.236L47.2097 108.985C47.0296 108.261 47.5053 107.656 47.5766 106.973C47.6376 106.619 47.7286 106.27 47.8485 105.93C47.8757 105.852 47.9028 105.777 47.9266 105.699C47.982 105.122 48.0069 104.543 48.0014 103.963C47.945 102.351 48.098 100.738 48.4567 99.1652C48.4867 98.9546 48.5049 98.7424 48.511 98.5298L48.4295 98.2818C48.4295 97.4901 48.3378 96.6916 48.3955 95.9033C48.4875 94.4325 48.1321 92.9684 47.3762 91.7035C47.3109 91.5477 47.2042 91.4127 47.0676 91.3133C46.931 91.2138 46.7698 91.1537 46.6014 91.1395C46.1563 91.1055 45.7146 90.9594 45.2661 90.9424C44.2841 90.9016 43.4653 90.3716 42.5478 90.1134C41.294 89.7736 40.431 88.778 39.3233 88.197C39.0702 88.077 38.8679 87.8711 38.7524 87.6159C38.552 86.9873 38.0423 86.8446 37.5258 86.6509C36.5235 86.2738 35.5347 85.8592 34.5391 85.4685C34.2639 85.3598 33.9785 85.2748 33.5639 85.1287L33.0033 91.2448C32.9795 91.3298 32.9591 91.4147 32.9353 91.4997C32.864 94.2587 32.7654 97.0178 32.7281 99.7768C32.7281 100.908 32.8164 102.04 32.8572 103.175C32.8742 103.691 32.8572 104.211 32.8572 104.755H32.147L31.9704 104.571C31.8344 102.981 31.7733 101.381 31.549 99.8142C31.307 97.7517 31.1935 95.6762 31.2092 93.5996C31.2241 92.6555 31.1478 91.7122 30.9816 90.7827C30.7811 89.8381 30.6112 88.8459 29.9622 88.0406C29.878 87.8848 29.8097 87.7209 29.7584 87.5514C29.5307 87.0927 29.3982 86.532 29.038 86.1922C28.1953 85.4651 28.2361 84.5579 28.2939 83.62C28.2939 83.4536 28.4841 83.2803 28.6336 83.0628L26.9823 82.4036L26.7173 82.2779C26.7173 82.3391 26.6867 82.4037 26.6697 82.4648C26.6697 83.0662 26.6697 83.6642 26.6697 84.2656L26.7479 84.5035C26.877 84.9622 27.0027 85.4243 27.1352 85.883C27.5327 87.2422 27.2066 88.6013 27.0842 89.9604C26.9551 91.3943 26.4047 92.6787 25.9868 94.0107L25.9052 94.2621C25.9052 94.5577 25.9052 94.8567 25.9052 95.1524C25.9323 95.2339 25.9629 95.312 25.9935 95.3902C26.126 95.9135 26.228 96.4436 26.4013 96.9532C26.6205 97.6569 26.6205 98.4106 26.4013 99.1143C25.8372 101.201 25.3343 103.304 24.6819 105.356C24.1757 106.946 23.7374 108.55 23.2413 110.14C22.926 111.201 22.795 112.308 22.8539 113.412C22.9456 115.896 23.0136 118.383 23.1019 120.867C23.2107 123.842 23.3239 126.815 23.4417 129.787C23.43 129.938 23.4557 130.089 23.5165 130.228C23.9854 130.908 23.9141 131.679 23.948 132.437L23.7849 132.804C22.633 133.167 22.4258 133.059 22.1472 131.873C22.0634 131.681 22.0062 131.479 21.9773 131.271C22.0894 128.825 21.2025 126.579 20.5943 124.279C20.4182 123.438 20.1993 122.607 19.9386 121.788C19.5308 120.708 19.4765 119.549 19.1231 118.462C18.7697 117.374 18.4435 116.236 18.08 115.132C17.2509 112.641 17.3698 110.13 17.7911 107.585C18.0527 106.015 18.1615 104.415 18.2702 102.828C18.4027 100.878 17.9576 98.9817 17.6246 97.0789C17.4411 96.0324 17.1014 95.0028 17.0028 93.9495C16.8499 92.3049 16.8669 90.64 16.765 88.9887C16.6631 87.3373 16.5135 85.7437 16.3912 84.123C16.3606 83.756 16.3573 83.3856 16.3403 83.0187L16.2213 82.842C15.8272 82.7366 15.5621 82.9982 15.2461 83.1545C14.7704 83.3856 14.3491 83.7933 13.6526 83.7118C14.0297 82.7162 14.1758 81.6731 15.2156 81.0275C14.9947 80.7353 14.7976 80.4703 14.5972 80.2086C14.1521 79.8689 13.7069 80.0082 13.2618 80.2086C11.9536 80.4397 10.6421 80.6639 9.33731 80.9086C8.91598 80.9867 8.56259 81.0003 8.43347 80.3853C9.6601 79.8655 11.0906 79.8111 12.1711 78.914L12.7555 78.5743H9.78581L8.69852 78.367C8.31456 78.0272 7.9306 78.1461 7.54664 78.367C6.5453 78.3784 5.56322 78.6438 4.69244 79.1383C3.82599 79.5936 2.99351 80.0863 2.13386 80.5756C1.64325 80.8966 1.05311 81.0293 0.472305 80.9493C0.300936 80.8932 0.140979 80.8069 0 80.6945C1.12129 79.9606 2.2052 79.3048 3.22795 78.5641C3.94128 78.0351 4.73843 77.6296 5.58608 77.3646C5.99554 77.2824 6.35928 77.0496 6.60543 76.7122C6.94522 76.2365 7.55342 76.1007 8.12086 75.9715L10.744 75.9274L13.2788 76.3249C13.3502 75.9851 13.4283 75.5876 13.5166 75.1594C12.5516 74.31 11.5221 73.6032 10.2105 73.3824C9.92518 73.2998 9.6821 73.1114 9.53097 72.8557C10.0644 72.9203 10.6421 72.8761 11.1144 73.0766C11.7736 73.362 12.341 73.1989 12.939 73.012C13.6662 73.012 14.3899 73.046 15.1136 73.0494C15.4296 73.0494 15.817 73.1547 15.8951 72.662C16.136 72.1556 16.4384 71.6809 16.7956 71.2485C17.5329 70.2767 18.4639 69.4544 19.0789 68.3875C19.1445 68.2838 19.2233 68.189 19.3134 68.1055C19.8604 67.5007 20.3905 66.8755 20.9681 66.2978C22.7656 64.4936 24.58 62.7063 26.4047 60.9123C26.561 60.756 26.6799 60.5725 26.8396 60.4094C27.1794 60.0696 27.5463 59.7298 27.9235 59.4274C28.1036 59.2779 28.3924 59.2269 28.5317 59.0503C29.4084 57.912 30.686 57.2188 31.6645 56.1859C32.3441 55.5063 33.2139 55.0068 33.9818 54.4054C35.3716 53.3147 36.7273 52.1798 38.1374 51.1129C39.0684 50.4061 40.0708 49.7979 41.0222 49.1184C42.5886 48.0073 44.1346 46.869 45.6976 45.7511C46.0374 45.5064 46.4248 45.323 46.7747 45.0919C48.4737 43.9706 50.142 42.8255 51.8443 41.7246C53.3632 40.7359 54.9024 39.8015 56.4416 38.8263C58.2696 37.6574 60.0841 36.4478 61.9156 35.2959C62.5951 34.8542 63.3528 34.4804 64.0664 34.0693C64.2431 33.964 64.4062 33.8246 64.712 33.5936C64.2635 33.4849 63.961 33.4237 63.6654 33.3319C63.0198 33.1383 62.381 32.9106 61.7321 32.7272C61.2801 32.598 60.8078 32.5233 60.3491 32.4145C58.7691 32.0408 57.1144 31.8505 55.6397 31.2253C54.4912 30.7394 53.302 30.9569 52.1977 30.5457C51.8769 30.4053 51.5451 30.2917 51.2055 30.2059C50.1386 29.9987 49.0683 29.822 47.9946 29.6453C47.1972 29.4884 46.3918 29.3749 45.5821 29.3055C44.9851 29.3152 44.3897 29.372 43.8016 29.4754L41.943 29.4143ZM81.0964 40.2874C81.8413 40.3247 82.5491 40.6244 83.0943 41.1334C83.7739 41.7518 84.4059 42.4314 85.0752 43.0668C86.4548 44.3749 87.8445 45.6764 89.2512 47.0015C89.326 46.8384 89.4857 46.553 89.591 46.2506C90.6404 43.221 91.8448 40.2474 93.1995 37.3414C93.5393 36.6619 93.6378 35.9143 93.8791 35.2042C94.28 33.9572 94.5824 32.6796 95.33 31.5583C95.6256 31.1166 95.7173 30.5389 95.9144 30.0395C96.1692 29.2125 96.5684 28.4372 97.0934 27.7493C97.7186 27.0256 98.388 26.3222 98.7244 25.3912C98.8516 24.9685 99.0212 24.5599 99.2307 24.1714C99.9884 22.9312 100.413 21.5177 101.463 20.4337C102.124 19.7736 102.828 19.1573 103.57 18.5887C103.933 18.3316 104.254 18.0198 104.521 17.6645C105.54 16.1355 106.56 14.5759 107.63 13.0876C108.768 11.528 109.958 9.99898 111.201 8.52432C112.268 7.26032 113.447 6.09483 114.565 4.8784C114.701 4.69514 114.822 4.5008 114.925 4.29738C114.584 4.29928 114.244 4.32196 113.906 4.36532C111.572 4.83422 109.234 5.29293 106.913 5.8094C105.041 6.22394 103.176 6.71323 101.327 7.16854C99.9884 7.50833 98.6428 7.79038 97.3109 8.13356C95.2382 8.66702 93.1723 9.23105 91.103 9.78151C89.3361 10.2504 87.5489 10.6548 85.8024 11.2018C83.4783 11.929 81.1881 12.7648 78.8844 13.5599C77.7835 13.9405 76.6758 14.2939 75.5986 14.7254C73.5124 15.5613 71.4431 16.4481 69.3636 17.3043C68.3443 17.7291 67.2739 18.0892 66.2614 18.5581C63.4004 19.8867 60.5564 21.2492 57.709 22.605C55.2603 23.7738 52.8127 24.9495 50.3663 26.1319C49.8838 26.363 49.4386 26.6722 48.8508 27.0154C49.1482 27.1503 49.4548 27.2639 49.7683 27.3551C50.8284 27.5692 51.8919 27.7561 52.9554 27.9566C54.5252 28.2522 56.1052 28.5172 57.6649 28.8604C58.8881 29.1254 60.0807 29.54 61.3005 29.7914C63.8702 30.3386 66.3933 31.085 68.8471 32.0238C69.3021 32.2078 69.7253 32.4624 70.101 32.7781C70.1984 32.8434 70.2797 32.9299 70.3387 33.0313C70.3976 33.1326 70.4327 33.2461 70.4412 33.3631C70.4497 33.48 70.4315 33.5974 70.3878 33.7062C70.3442 33.815 70.2763 33.9125 70.1893 33.9911C69.8426 34.3168 69.466 34.6091 69.0646 34.8644C67.6579 35.758 66.2308 36.6211 64.8241 37.5147C63.6586 38.252 62.5136 39.0234 61.3515 39.7641C60.305 40.4437 59.2448 41.0791 58.1949 41.7383C57.043 42.462 55.8742 43.1653 54.7461 43.9264C53.8762 44.5143 53.0743 45.2074 52.2079 45.8055C50.8488 46.7365 49.4658 47.5961 48.1305 48.5237C46.9922 49.3256 45.9015 50.1989 44.7972 51.0483C43.224 52.2545 41.6508 53.4574 40.0912 54.6738C39.4897 55.1427 38.9325 55.6626 38.3345 56.1349C37.7365 56.6072 37.1792 56.964 36.6356 57.4193C35.9968 57.9527 35.3885 58.5304 34.7803 59.1182C34.4915 59.39 34.2435 59.7026 33.9479 59.9643C33.4042 60.4501 32.813 60.8851 32.2863 61.3914C31.267 62.3734 30.2714 63.3791 29.2894 64.3985C28.4241 65.3046 27.5747 66.222 26.7411 67.1507C25.9072 68.0197 25.1341 68.945 24.4271 69.92C23.8597 70.7694 22.9796 71.3572 22.6161 72.38C22.3001 73.2702 22.2185 73.26 23.1155 73.5624C24.4747 74.0211 25.8338 74.5036 27.193 74.9216C29.0958 75.5298 31.0087 76.104 32.9217 76.6851C33.7338 76.9331 34.5561 77.1336 35.3614 77.3952C36.041 77.6127 36.6866 77.9219 37.3661 78.1292C38.6335 78.5097 39.9213 78.8359 41.1955 79.2063C42.3473 79.546 43.4856 79.913 44.6341 80.2494C45.0418 80.3683 45.4802 80.5246 45.8301 80.1067C46.2347 79.6534 46.7333 79.2939 47.2912 79.0534C47.4487 78.9702 47.5794 78.8441 47.6684 78.6898C48.4331 77.3738 49.0052 75.9549 49.3673 74.4765C49.5916 73.5523 49.9415 72.6858 50.7264 72.098C51.424 71.5366 51.9774 70.8166 52.3404 69.9981C53.0472 68.5336 53.8151 67.0929 54.4505 65.5809C55.1912 63.831 56.6319 62.6282 57.7124 61.1637C57.8441 61.0372 57.9874 60.9234 58.1405 60.8239C58.5255 60.5274 58.8826 60.1964 59.2074 59.8351C63.1286 54.7384 67.5016 50.0358 71.9426 45.3977C72.5508 44.7657 73.3391 44.3002 73.9337 43.658C74.705 42.8255 75.6496 42.2173 76.4957 41.4868C77.2208 40.8598 78.1094 40.452 79.0577 40.3111L81.0964 40.2874Z" fill="#FBEA54"/>
<path d="M127.817 33.658C127.96 33.7157 128.106 33.7599 128.245 33.8245C129.193 34.2662 129.376 34.8132 128.71 35.6083C127.83 36.6583 127.379 37.9087 126.872 39.1421C126.193 40.79 125.554 42.4516 124.789 44.0588C124.046 45.6539 123.495 47.3318 123.148 49.057C122.751 50.9632 122.306 52.8558 121.867 54.7518C121.793 54.9864 121.697 55.2138 121.582 55.4313L120.841 55.36C120.804 55.2445 120.743 55.1527 120.76 55.0813C120.997 54.0008 121.269 52.9271 121.483 51.8432C121.609 51.2044 121.538 50.5079 121.748 49.9064C121.959 49.305 121.857 48.69 122.176 48.1056C122.55 47.426 122.333 46.5596 122.693 45.8324C122.982 45.2514 123.196 44.633 123.457 44.035C123.773 43.3044 124.137 42.6011 124.409 41.8536C124.539 41.3862 124.611 40.9046 124.623 40.4197C124.715 39.3799 124.823 38.3368 124.844 37.2936C124.801 36.8486 124.704 36.4104 124.555 35.9889C124.555 35.9277 124.531 35.8699 124.518 35.8088C124.219 34.4496 124.497 34.0147 125.836 33.7123C126.043 33.6648 126.261 33.6478 126.475 33.6172L127.817 33.658Z" fill="#FBEA54"/>
<path d="M79.2444 63.5078L80.2638 63.7355C80.4741 63.7645 80.6811 63.8134 80.8822 63.8816C81.3477 64.0854 81.9253 64.2213 81.9695 64.8533C81.9878 65.1601 81.9195 65.4659 81.7723 65.7357C81.6251 66.0055 81.4049 66.2284 81.137 66.379C80.7493 66.6008 80.3488 66.7993 79.9376 66.9736L80.5152 67.4527L80.6239 67.6328C80.6239 67.993 80.6239 68.3531 80.6239 68.7133L80.5016 69.0837C80.4927 69.1446 80.4755 69.2041 80.4506 69.2604C79.8526 70.222 79.6488 71.2107 80.0905 72.3184C80.2431 72.7709 80.3245 73.2443 80.3317 73.7218C80.3237 73.8217 80.2936 73.9186 80.2437 74.0055C80.1937 74.0925 80.1252 74.1673 80.0429 74.2246C79.9407 74.2754 79.8294 74.3052 79.7155 74.3125C79.6016 74.3198 79.4874 74.3043 79.3795 74.267C79.2717 74.2297 79.1723 74.1713 79.0873 74.0951C79.0023 74.019 78.9332 73.9267 78.8842 73.8237C78.615 73.0256 78.426 72.2026 78.3202 71.367C78.2624 70.7248 78.4629 70.0622 78.5615 69.3079C78.5251 69.2425 78.4658 69.1929 78.395 69.1686C77.6406 68.9546 77.3484 68.3735 77.1989 67.6872C77.1643 67.4116 77.0519 67.1515 76.8751 66.9373C76.6982 66.7231 76.464 66.5637 76.1999 66.4775C76.0578 66.4197 75.9242 66.3431 75.8024 66.2499C74.9801 65.713 74.9563 64.9655 75.7412 64.3267C76.2659 63.912 76.8927 63.6467 77.5557 63.5588H77.7358L78.0994 63.5214L79.2444 63.5078Z" fill="#FBEA54"/>
<path d="M40.4716 110.079C40.4071 109.06 40.3799 108.04 40.2712 107.041C40.1352 105.771 39.9892 104.493 39.7445 103.239C39.4795 101.88 38.9868 100.521 38.7965 99.1379C38.728 98.3623 38.3803 97.6378 37.8179 97.0992C37.5945 96.8499 37.4143 96.5651 37.2845 96.2566C36.9685 95.6552 37.0806 95.261 37.6752 94.9892C37.9849 94.8769 38.3031 94.7895 38.6266 94.7275H40.1183C40.7153 94.8478 41.3024 95.0125 41.8749 95.2202C42.5137 95.4954 42.6972 95.9168 42.3065 96.4774C41.3856 97.7992 41.4264 99.318 41.2395 100.796C40.8216 104.133 41.0255 107.483 41.1104 110.83C41.1308 111.533 41.1104 112.24 41.1104 112.981C40.7095 113.12 40.6755 112.797 40.6347 112.481C40.6347 112.457 40.6823 112.427 40.6755 112.41C40.6516 112.362 40.6244 112.315 40.594 112.271C40.56 111.781 40.5226 111.292 40.4886 110.803L40.4716 110.079Z" fill="#FBEA54"/>
<path d="M84.9428 62.7975C84.1443 62.7363 84.0356 62.7091 83.9235 62.0466C83.8419 61.632 83.6754 61.4656 83.2133 61.4893L83.5226 61.0272C83.3085 60.7798 83.1508 60.4888 83.0604 60.1743C82.8495 59.3748 82.3432 58.6851 81.6435 58.2444C81.4159 58.0915 81.1509 57.993 80.9334 57.8265C80.7937 57.7107 80.6807 57.566 80.6022 57.4024C80.5237 57.2388 80.4816 57.0601 80.4787 56.8787C80.4758 56.6973 80.5122 56.5173 80.5854 56.3513C80.6586 56.1853 80.7669 56.0371 80.9028 55.9169C81.6028 55.3223 82.4454 55.2373 83.3085 55.2373L85.687 55.2645C85.8708 55.3435 86.0655 55.3939 86.2646 55.414C87.0025 55.3989 87.7261 55.619 88.3305 56.0426C89.129 56.5387 89.1324 57.3371 88.3305 57.8876C88.0566 58.0806 87.764 58.2457 87.4572 58.3803C86.8932 58.6318 86.4753 59.0905 85.8671 59.3113C85.3506 59.5016 85.1263 60.1438 85.1297 60.7588L85.0312 60.9966C85.0516 61.4723 85.0686 61.9481 85.0856 62.4238C85.0278 62.5495 85.004 62.6718 84.9428 62.7975Z" fill="#FBEA54"/>
<path d="M35.1438 118.978C35.1438 122.199 35.1438 125.434 35.1438 128.634C35.1438 129.338 35.205 130.041 35.239 130.741H34.9297C34.8097 128.702 34.6964 126.671 34.59 124.649C34.6783 124.367 34.7497 124.085 34.4269 123.888C34.2901 122.662 34.0025 121.458 33.5706 120.303C33.3226 119.701 33.3837 118.981 33.2308 118.335C32.8129 116.671 32.3508 115.016 31.9125 113.358C31.8513 113.123 31.8275 112.875 31.7867 112.634L32.0348 112.359C32.0776 112.322 32.129 112.296 32.1843 112.284L32.7177 112.1H32.7415L34.3895 112.073H34.4201L34.6002 112.236C34.8454 112.236 35.0904 112.25 35.3341 112.277C35.8981 112.372 36.2481 112.841 36.0136 113.324C35.2423 114.9 35.2492 116.579 35.2763 118.268C35.2677 118.42 35.2507 118.572 35.2254 118.723C35.188 118.821 35.1676 118.893 35.1438 118.978Z" fill="#FBEA54"/>
<path d="M40.8317 34.5544C40.1182 34.7991 39.3978 35.0233 38.6911 35.2849C37.0109 35.9591 35.4774 36.9526 34.1754 38.2105C33.9891 38.4114 33.7429 38.5467 33.4735 38.5963C33.2041 38.6459 32.9259 38.6071 32.6803 38.4857C33.2953 37.2149 34.5797 36.7155 35.5719 35.9136C36.564 35.1117 37.6513 34.3234 38.7488 33.4875C38.6626 33.3936 38.5707 33.3051 38.4736 33.2225C37.879 32.7502 37.9368 32.1725 38.5892 31.7682C39.5338 31.1837 40.5769 31.1668 41.6064 31.2789C42.4435 31.3848 43.2676 31.5749 44.0665 31.8463C44.5525 32.023 45.0018 32.288 45.3916 32.6278C45.8096 32.9676 45.7042 33.4229 45.2421 33.7355C44.7995 34.039 44.3039 34.2568 43.7811 34.3777C42.9928 34.3777 42.2078 34.3777 41.4229 34.3777C41.2192 34.4114 41.0206 34.4708 40.8317 34.5544Z" fill="#FBEA54"/>
<path d="M3.92781 58.4109C3.88024 59.5729 3.83266 60.7316 3.78849 61.8936L3.75112 62.1077C3.66277 63.7727 3.57782 65.4376 3.48607 67.1025C3.46171 67.2215 3.41932 67.3361 3.36036 67.4423L2.68079 67.4185C2.72836 65.7015 2.7748 63.9856 2.82011 62.2708C2.82011 62.1485 2.82013 62.0262 2.83712 61.9039C2.8643 60.3544 2.94584 58.7982 3.08855 57.2692C3.24825 55.5261 3.65598 53.7694 4.64815 52.2472C4.87893 51.896 5.16193 51.582 5.48741 51.3162C6.79898 50.2628 8.2057 49.3284 9.96579 49.3726C10.9671 49.3529 11.9546 49.6092 12.82 50.1133C12.9748 50.2539 13.1066 50.4179 13.2107 50.5992C13.0635 50.8047 12.8648 50.9678 12.6345 51.0721C12.4043 51.1765 12.1507 51.2185 11.8991 51.1938C11.1482 51.1225 10.3939 51.1055 9.64637 51.0069C9.01456 50.9374 8.3752 50.997 7.76714 51.1821C7.15908 51.3673 6.59504 51.6742 6.10924 52.0841C5.50663 52.5979 4.97527 53.1898 4.52924 53.8442C4.1147 54.3912 4.06034 55.0606 4.07053 55.7504C4.07053 56.5726 4.00256 57.3949 3.96518 58.2172C3.94479 58.2376 3.9108 58.2545 3.9108 58.2715C3.91181 58.3184 3.91752 58.3651 3.92781 58.4109Z" fill="#FBEA54"/>
<path d="M82.2449 109.905C82.1667 110.442 82.0886 110.979 82.0138 111.499C81.0454 111.546 80.9945 111.533 81.0727 110.717C81.1434 109.688 81.0388 108.653 80.7634 107.659C80.563 106.905 80.6139 106.082 80.5392 105.28C80.4406 104.21 79.9649 103.242 79.5538 102.29C79.4266 102.082 79.2671 101.895 79.0815 101.737C78.6148 101.659 78.144 101.611 77.6714 101.59C76.9579 101.59 76.2443 101.679 75.5341 101.73C75.0878 101.579 74.6547 101.392 74.2396 101.169C74.0289 101.04 73.9371 100.717 73.774 100.449C74.4277 100.111 75.1459 99.9162 75.8807 99.8779H77.6034C78.3543 100.177 79.197 100.017 79.9479 100.428C80.427 100.69 80.7397 100.894 80.7702 101.485C80.7845 101.941 80.9105 102.387 81.1372 102.783C81.7658 103.748 81.8677 104.822 81.9799 105.919C82.109 107.166 82.1769 108.423 82.2687 109.657C82.2619 109.769 82.2551 109.837 82.2449 109.905Z" fill="#FBEA54"/>
<path d="M111.093 97.7238C111.093 98.0636 111.093 98.434 111.093 98.7873L110.811 98.981C110.342 99.0592 109.903 98.8213 109.927 98.4204C109.998 97.2753 109.523 96.3035 109.18 95.2808C109.064 94.941 108.966 94.6012 108.84 94.2614C108.754 93.9692 108.574 93.7133 108.329 93.5329C108.083 93.3524 107.785 93.2574 107.481 93.2624C106.77 93.2081 106.176 92.7256 105.574 92.2431C105.708 92.0156 105.896 91.8249 106.121 91.6879C106.346 91.5509 106.602 91.472 106.866 91.4582C107.784 91.3619 108.712 91.4686 109.584 91.7708C110.301 92.0053 110.294 92.1106 110.131 92.926C110.088 93.279 110.122 93.6372 110.229 93.976C110.525 95.1483 111.021 96.2763 111.004 97.5165L111.093 97.7238Z" fill="#FBEA54"/>
<path d="M3.91087 87.9249C4.79993 86.7848 5.84546 85.7759 7.01651 84.928L7.1966 84.7683H7.21697L7.76742 84.3742C7.70965 84.0344 7.66551 83.7829 7.62474 83.5383L8.18539 82.8587L8.22616 82.8248L8.52517 82.6175C9.27639 82.0581 10.1499 81.6854 11.0736 81.5302C11.5051 81.4317 12.008 81.6593 12.4667 81.7341C12.7249 82.0263 12.5856 82.2709 12.3919 82.4816C11.7565 83.1611 10.9852 83.7796 10.0712 83.8611C8.77999 83.9766 7.94753 84.6732 7.28835 85.6348C6.5782 86.6541 5.58943 87.3983 4.65842 88.1628L3.8667 88.2375V88.173C3.87349 88.071 3.89049 87.9963 3.91087 87.9249Z" fill="#FBEA54"/>
<path d="M27.6381 29.6138C29.2622 29.1754 30.8864 28.7201 32.5174 28.3022C33.6047 28.027 34.7022 27.7552 35.8098 27.5853C36.2922 27.5562 36.7753 27.6303 37.2268 27.8027C37.2917 27.8134 37.3521 27.8427 37.4008 27.887C37.4494 27.9314 37.4841 27.9889 37.5006 28.0526C37.5172 28.1162 37.5149 28.1834 37.494 28.2458C37.4731 28.3082 37.4346 28.3632 37.3831 28.4041C37.1392 28.6757 36.8631 28.9165 36.5608 29.1211C35.29 29.9943 33.8697 30.0963 32.361 29.9196C32.361 29.7089 32.3372 29.5084 32.3169 29.172C31.5659 29.3351 30.8286 29.5118 30.0845 29.6545C29.551 29.7667 29.0142 29.8618 28.4773 29.9638H27.3254L27.6381 29.6138Z" fill="#FBEA54"/>
<path d="M21.0495 45.9949C21.0495 45.7706 20.9407 45.5124 21.0155 45.3153C21.257 44.706 21.5456 44.1164 21.8785 43.5519C22.2455 42.9572 22.2829 42.1723 22.9489 41.7544C23.0338 41.7 23.0712 41.5437 23.1017 41.4146C23.2139 40.9967 23.3158 40.5753 23.4415 40.0996C23.3294 40.0181 23.1595 39.9026 22.9794 39.7803C22.9973 39.686 23.0306 39.5953 23.078 39.5118C23.9682 38.5264 25.0453 38.1017 26.3705 38.4211C26.4186 38.4929 26.4501 38.5745 26.4625 38.66C26.475 38.7456 26.4681 38.8328 26.4423 38.9153C26.4165 38.9978 26.3726 39.0734 26.3137 39.1367C26.2548 39.1999 26.1825 39.2492 26.1021 39.2807C24.9978 39.7768 24.4847 40.837 23.7915 41.6966C22.7367 43.0345 21.8181 44.4744 21.0495 45.9949Z" fill="#FBEA54"/>
<path d="M108.014 62.5968C107.491 62.4711 106.995 62.2978 106.771 61.6862C107.101 61.4371 107.482 61.2646 107.887 61.1811C108.292 61.0977 108.71 61.1054 109.112 61.2037C110.031 61.4099 110.986 61.4018 111.901 61.1799C112.385 61.1065 112.876 61.0928 113.362 61.1392H115.625H116.985C116.767 61.4144 116.645 61.5503 116.543 61.6896C115.808 61.4637 115.022 61.4637 114.287 61.6896C112.999 61.8901 111.714 62.077 110.433 62.2944C110.179 62.3769 109.936 62.491 109.71 62.6342C109.446 62.509 109.158 62.441 108.866 62.4345C108.574 62.4281 108.284 62.4834 108.014 62.5968Z" fill="#FBEA54"/>
<path d="M13.0784 89.8308C12.8505 90.0426 12.6024 90.2315 12.3377 90.3949C10.9615 91.0473 10.1392 92.2365 9.34074 93.453C9.06211 93.8743 8.78349 94.1937 8.15149 93.9592L9.98974 91.3429C10.0441 91.2681 10.1392 91.2002 10.1494 91.122C10.2751 90.2182 10.9785 89.9294 11.6751 89.5726C12.1609 89.3314 12.5211 89.3959 13.0784 89.8308Z" fill="#FBEA54"/>
<path d="M38.7932 22.3699C38.1136 22.4888 37.6685 22.1422 37.2234 21.6155C37.8452 21.1228 38.5383 21.3641 39.1635 21.252H40.5227C40.7255 21.314 40.9241 21.3889 41.1173 21.4762C41.5454 21.7073 41.5352 21.816 41.0697 22.2237L38.7932 22.3699Z" fill="#FBEA54"/>
<path d="M32.6567 40.0352C32.8878 40.7147 32.4019 40.8405 32.0452 41.0545C31.284 41.4962 30.2953 41.3365 29.8773 40.6943C29.738 40.4837 29.687 40.3104 29.9996 40.1201C30.3951 39.8712 30.8497 39.7321 31.3167 39.7172C31.7837 39.7022 32.2462 39.812 32.6567 40.0352Z" fill="#FBEA54"/>
<path d="M111.755 48.465C112.084 48.4349 112.414 48.4213 112.744 48.4242C113.308 48.4514 113.339 48.5499 113.424 49.1446C113.535 49.6363 113.675 50.1208 113.845 50.5955C113.403 50.6668 112.826 50.9013 112.414 50.2557C112.313 50.1123 112.228 49.9586 112.16 49.797C112.037 49.4096 111.925 49.0155 111.755 48.465Z" fill="#FBEA54"/>
<path d="M35.0556 135.351L34.9808 132.426H35.2934V137.339H35.1473C35.1235 136.751 35.0964 136.16 35.0726 135.572C35.0556 135.501 35.0556 135.426 35.0556 135.351Z" fill="#FBEA54"/>
<path d="M84.2427 66.5011V63.9697C84.7184 64.544 84.7116 65.8454 84.2427 66.5011Z" fill="#FBEA54"/>
<path d="M121.962 56.6445C121.622 57.3241 121.245 57.6945 120.671 57.8304C120.947 57.2947 121.405 56.8744 121.962 56.6445Z" fill="#FBEA54"/>
<path d="M75.5341 101.744C76.2442 101.693 76.9578 101.611 77.6713 101.604C78.1439 101.625 78.6147 101.673 79.0814 101.751L75.5341 101.744Z" fill="#FBEA54"/>
<path d="M9.82324 78.5225H12.793L12.2085 78.8622C12.0474 78.7782 11.8761 78.7154 11.6989 78.6754C11.0771 78.6074 10.4484 78.57 9.82324 78.5225Z" fill="#FBEA54"/>
<path d="M35.8678 24.844C35.9901 24.314 36.0139 23.8892 36.5474 23.6514C36.5881 24.195 36.51 24.5892 35.8678 24.844Z" fill="#FBEA54"/>
<path d="M35.28 132.423H34.9673L34.9368 130.751H35.246C35.2562 131.301 35.2664 131.862 35.28 132.423Z" fill="#FBEA54"/>
<path d="M35.2117 141.638C35.2117 142.059 35.2118 142.48 35.154 142.898C35.124 143.284 35.0079 143.658 34.8142 143.992L34.9569 141.665L35.2117 141.638Z" fill="#FBEA54"/>
<path d="M119.003 59.6414C119.492 59.3186 119.53 58.5541 120.362 58.2822C119.944 58.955 119.611 59.4307 119.003 59.6414Z" fill="#FBEA54"/>
<path d="M15.9088 72.6064C15.8306 73.0991 15.4433 72.9938 15.1273 72.9938C14.4035 72.9938 13.6798 72.97 12.9526 72.9564C13.571 72.9021 14.1895 72.8647 14.8045 72.7967C15.1749 72.7559 15.5418 72.6812 15.9088 72.6064Z" fill="#FBEA54"/>
<path d="M40.8319 34.5546C41.0207 34.471 41.2194 34.4116 41.4231 34.3779C42.208 34.3779 42.993 34.3779 43.7813 34.3779C43.309 34.4425 42.84 34.5376 42.3677 34.5648C41.8954 34.592 41.3586 34.5614 40.8319 34.5546Z" fill="#FBEA54"/>
<path d="M10.7677 75.8719L8.14453 75.9161C8.98801 75.6012 9.91406 75.5856 10.7677 75.8719Z" fill="#FBEA54"/>
<path d="M7.62481 83.5205C7.66558 83.7652 7.70973 84.0064 7.76749 84.3564L7.21704 84.7505C7.21704 84.4583 7.55683 84.1763 7.21704 83.8807C7.36315 83.7617 7.49569 83.6428 7.62481 83.5205Z" fill="#FBEA54"/>
<path d="M85.6529 55.2645L83.2744 55.2374C84.0464 54.9705 84.8872 54.98 85.6529 55.2645Z" fill="#FBEA54"/>
<path d="M35.1031 140.534L35.1642 139.983H35.2832V141.448L34.9875 141.478L35.0793 140.741L35.1031 140.534Z" fill="#FBEA54"/>
<path d="M38.7932 22.3697L41.0664 22.21C40.3154 22.5701 39.5407 22.3561 38.7932 22.3697Z" fill="#FBEA54"/>
<path d="M115.625 61.1291H113.362C114.094 60.8658 114.894 60.8658 115.625 61.1291Z" fill="#FBEA54"/>
<path d="M114.286 61.6763C115.021 61.4503 115.807 61.4503 116.543 61.6763H114.286Z" fill="#FBEA54"/>
<path d="M27.638 29.6147L27.3254 29.9545H28.4773L27.2336 30.1923C27.0637 29.6486 27.2405 29.5297 27.638 29.6147Z" fill="#FBEA54"/>
<path d="M127.263 0.399579H125.183C125.512 0.260898 125.866 0.189453 126.223 0.189453C126.58 0.189453 126.934 0.260898 127.263 0.399579Z" fill="#FBEA54"/>
<path d="M41.9431 29.4141H43.7983C43.5071 29.5466 43.1907 29.6152 42.8707 29.6152C42.5507 29.6152 42.2344 29.5466 41.9431 29.4141Z" fill="#FBEA54"/>
<path d="M34.3761 112.097L32.7281 112.124C33.2752 111.886 33.8222 111.757 34.3761 112.097Z" fill="#FBEA54"/>
<path d="M77.6034 99.9016H75.8807C76.1516 99.7798 76.4451 99.7168 76.7421 99.7168C77.0391 99.7168 77.3326 99.7798 77.6034 99.9016Z" fill="#FBEA54"/>
<path d="M108.014 62.5977C108.281 62.4779 108.571 62.416 108.863 62.416C109.156 62.416 109.446 62.4779 109.713 62.5977H108.014Z" fill="#FBEA54"/>
<path d="M40.1182 94.7407H38.6266C38.8579 94.6242 39.1134 94.5635 39.3724 94.5635C39.6314 94.5635 39.8869 94.6242 40.1182 94.7407Z" fill="#FBEA54"/>
<path d="M119.686 1.14709H118.354C118.555 1.02532 118.785 0.960938 119.02 0.960938C119.255 0.960938 119.485 1.02532 119.686 1.14709Z" fill="#FBEA54"/>
<path d="M8.19211 82.8281L7.6315 83.5077C7.58053 83.083 7.93727 82.998 8.19211 82.8281Z" fill="#FBEA54"/>
<path d="M127.817 33.6574L126.458 33.6235C126.664 33.4994 126.901 33.4368 127.142 33.4428C127.383 33.4488 127.617 33.5232 127.817 33.6574Z" fill="#FBEA54"/>
<path d="M13.3093 80.1569C13.7544 79.9598 14.1996 79.8171 14.6447 80.1569H13.3093Z" fill="#FBEA54"/>
<path d="M40.4921 21.2387H39.1329C39.3385 21.1163 39.5733 21.0518 39.8125 21.0518C40.0517 21.0518 40.2865 21.1163 40.4921 21.2387Z" fill="#FBEA54"/>
<path d="M7.58411 78.312C7.96806 78.0946 8.35202 77.9722 8.73598 78.312H7.58411Z" fill="#FBEA54"/>
<path d="M34.4202 123.901C34.743 124.098 34.6716 124.38 34.5833 124.662L34.4202 123.901Z" fill="#FBEA54"/>
<path d="M56.3362 167.849C56.3362 167.724 56.3668 167.594 56.3804 167.469L56.574 167.849H56.3362Z" fill="#FBEA54"/>
<path d="M56.3229 167.142C56.0443 166.952 56.0103 166.752 56.2991 166.541C56.3059 166.741 56.3161 166.942 56.3229 167.142Z" fill="#FBEA54"/>
<path d="M3.87366 88.2066L4.66538 88.1318C4.57005 88.2463 4.43324 88.3185 4.28491 88.3325C4.13658 88.3465 3.98874 88.3012 3.87366 88.2066Z" fill="#FBEA54"/>
<path d="M2.82682 61.8975C2.82682 62.0198 2.8268 62.1421 2.80981 62.2644C2.81661 62.1489 2.82002 62.0198 2.82682 61.8975Z" fill="#FBEA54"/>
<path d="M2.67078 67.4111L3.35035 67.4349C3.07512 67.7068 2.87465 67.6999 2.67078 67.4111Z" fill="#FBEA54"/>
<path d="M34.9874 141.482L35.283 141.451L35.2117 141.638L34.9467 141.665L34.9874 141.482Z" fill="#FBEA54"/>
<path d="M84.9429 62.7976C84.987 62.6719 85.0278 62.5495 85.0686 62.4238C85.2079 62.6073 85.2453 62.7602 84.9429 62.7976Z" fill="#FBEA54"/>
<path d="M95.9347 126.707C95.9347 126.582 95.9347 126.456 95.9585 126.33C95.9517 126.446 95.9449 126.571 95.9347 126.707Z" fill="#FBEA54"/>
<path d="M26.7036 82.4164C26.7036 82.3552 26.7342 82.2907 26.7512 82.2295L27.0162 82.3552L26.7036 82.4164Z" fill="#FBEA54"/>
<path d="M85.0038 60.9966L85.1023 60.7588C85.0819 60.8369 85.048 60.9185 85.0038 60.9966Z" fill="#FBEA54"/>
<path d="M3.92805 58.4109C3.91408 58.3644 3.90499 58.3166 3.90088 58.2682C3.90088 58.2682 3.93483 58.2343 3.95521 58.2139C3.94502 58.2784 3.93824 58.343 3.92805 58.4109Z" fill="#FBEA54"/>
<path d="M32.9657 91.4453C32.9895 91.3603 33.0099 91.2754 33.0337 91.1904C33.0167 91.2754 32.9895 91.3705 32.9657 91.4453Z" fill="#FBEA54"/>
<path d="M47.9675 105.641C47.9438 105.719 47.9166 105.794 47.8894 105.872C47.9064 105.797 47.9336 105.722 47.9675 105.641Z" fill="#FBEA54"/>
<path d="M82.2448 109.906C82.2448 109.838 82.2447 109.77 82.2685 109.698C82.2617 109.77 82.2549 109.838 82.2448 109.906Z" fill="#FBEA54"/>
<path d="M47.1995 109.864C47.2232 109.946 47.2436 110.027 47.2674 110.105L47.1995 109.864Z" fill="#FBEA54"/>
<path d="M40.5974 112.284C40.6278 112.329 40.6551 112.375 40.6789 112.423C40.6789 112.423 40.6518 112.471 40.6382 112.495C40.6059 112.451 40.5775 112.404 40.5532 112.356C40.5532 112.356 40.5804 112.308 40.5974 112.284Z" fill="#FBEA54"/>
<path d="M35.1438 118.978C35.1676 118.899 35.188 118.821 35.2117 118.743C35.188 118.821 35.1676 118.893 35.1438 118.978Z" fill="#FBEA54"/>
<path d="M92.2921 122.631C92.321 122.675 92.346 122.722 92.3669 122.77C92.3669 122.791 92.3398 122.818 92.3262 122.845C92.2987 122.8 92.2759 122.752 92.2582 122.702C92.2582 122.702 92.282 122.655 92.2921 122.631Z" fill="#FBEA54"/>
<path d="M92.4792 124.669C92.5063 124.714 92.5302 124.76 92.5505 124.808C92.5505 124.829 92.5268 124.859 92.5132 124.883C92.4843 124.838 92.4593 124.79 92.4384 124.74C92.4282 124.713 92.4588 124.686 92.4792 124.669Z" fill="#FBEA54"/>
<path d="M35.1032 140.533C35.1032 140.605 35.0862 140.673 35.0794 140.744C35.063 140.696 35.0528 140.645 35.0488 140.594C35.0556 140.574 35.0828 140.554 35.1032 140.533Z" fill="#FBEA54"/>
<path d="M79.0271 40.2761C79.354 40.1358 79.706 40.0635 80.0617 40.0635C80.4175 40.0635 80.7695 40.1358 81.0964 40.2761H79.0271Z" fill="#FBEA54"/>
<path d="M33.4382 73.361C32.4189 73.2999 31.3995 73.3848 30.4379 73.1334C29.2215 72.7936 27.9507 72.5183 26.9076 71.7266C26.2076 71.1966 26.1872 70.7787 26.9653 70.3369C27.6217 69.9566 28.332 69.6783 29.072 69.5113C29.5544 69.4217 29.9938 69.1757 30.3224 68.8113C31.1583 67.8735 31.9624 66.9074 32.7349 65.9129C33.1003 65.4182 33.4166 64.889 33.6795 64.333C35.3444 61.0507 37.7875 58.4615 40.7232 56.2869C43.5661 54.1825 46.4882 52.1958 49.4896 50.327C54.318 47.3267 59.0919 44.2347 63.8897 41.1835C64.5387 40.7723 65.1843 40.3577 65.8435 39.967C66.0705 39.8 66.3449 39.71 66.6267 39.71C66.9085 39.71 67.1829 39.8 67.4099 39.967C67.1177 40.2286 66.8968 40.4631 66.6419 40.6466C60.5127 45.0423 54.8951 50.1106 49.894 55.7568C48.4771 57.3809 46.9922 58.9406 45.5447 60.5342C44.2477 61.9779 42.7896 63.2684 41.1989 64.3805C39.3293 65.684 37.5885 67.1632 36.0002 68.7977C35.4464 69.3651 34.8755 69.919 34.3523 70.4389C34.4644 71.5296 35.2527 71.7097 36.0512 71.8456C37.2812 72.0495 38.518 72.216 39.7446 72.4402C41.4436 72.746 42.8027 73.6668 44.1143 74.7134C44.1482 74.7371 44.1143 74.8255 44.1482 74.958L42.8706 75.3997H41.3756C39.8686 75.2019 38.4591 74.5446 37.3389 73.5173C37.237 73.4663 37.1351 73.3644 37.0331 73.3644C35.8405 73.361 34.6377 73.361 33.4382 73.361Z" fill="#FBEA54"/>
<path d="M104.548 8.53114C104.888 8.62288 105.418 8.58553 105.432 9.02045C105.432 9.28888 105.092 9.64567 104.81 9.83934C101.198 12.3504 97.4878 14.705 93.2575 16.0234C91.1984 16.6667 89.12 17.2478 87.0224 17.7665C84.5725 18.3747 82.0955 18.8742 79.6355 19.445C78.4292 19.727 77.2196 20.0091 76.0406 20.393C75.3541 20.651 74.696 20.9789 74.0766 21.3716C73.0912 21.9357 72.1772 22.6356 71.1511 23.1011C69.9516 23.6448 68.6706 24.0015 67.4134 24.4297C66.846 24.6267 66.2752 24.817 65.7145 24.9937C65.4393 25.0753 65.1505 25.116 64.8685 25.1772L63.2001 25.3573C62.3201 25.3913 61.6745 24.9461 61.0425 24.3379C61.6507 23.3627 62.5851 22.8633 63.5331 22.3842C63.6351 22.3298 63.8118 22.3842 63.8729 22.3162C64.8481 21.3512 66.163 21.2663 67.3761 20.8891C68.9629 20.3998 70.6244 20.3659 72.218 19.9853C73.3359 19.7203 74.4164 19.3057 75.5071 18.9353C76.078 18.7417 76.6386 18.5174 77.2061 18.2898C78.8568 17.6216 80.4329 16.7823 81.9087 15.7856C82.249 15.6012 82.6008 15.4388 82.962 15.2997C84.3653 14.5929 85.7448 13.842 87.1651 13.176C88.3578 12.6154 89.5946 12.1567 90.8178 11.6436C92.041 11.1305 93.1385 10.5189 94.3618 10.2471C96.3359 9.80535 98.2251 9.03405 100.25 8.77582C101.056 8.64577 101.868 8.55956 102.683 8.51758L104.548 8.53114Z" fill="#FBEA54"/>
<path d="M74.2838 27.8955L73.5737 27.532C73.5261 26.5636 73.5737 26.4922 74.4231 26.2442C74.666 26.1547 74.9022 26.048 75.1299 25.9248C75.6769 26.2986 76.2818 25.9758 76.856 26.0641C77.2693 26.1379 77.6744 26.2517 78.0656 26.4039C78.65 26.6893 78.6806 27.2262 78.103 27.481C77.5142 27.6854 76.908 27.8355 76.2919 27.9295L74.2838 27.8955Z" fill="#FBEA54"/>
<path d="M43.5094 67.2251C44.3487 66.4164 45.1234 65.781 46.2922 66.2941C46.321 66.3073 46.3523 66.3142 46.384 66.3145C46.7577 66.3145 47.1553 66.2805 47.2674 66.7596C47.3387 67.079 46.8563 67.7008 46.4213 67.8537C45.9298 68.0586 45.3874 68.1081 44.8669 67.9958C44.3464 67.8834 43.8727 67.6145 43.5094 67.2251Z" fill="#FBEA54"/>
<path d="M88.4357 25.316C87.4877 25.6218 87.0766 25.4621 86.2611 24.4631C86.6009 23.8855 87.2091 23.8447 87.7732 23.8447C88.7008 23.8447 89.625 23.9297 90.3555 24.8063L89.7847 25.1461L88.4357 25.316Z" fill="#FBEA54"/>
<path d="M76.8489 32.5429C76.4106 32.3085 75.8296 32.2439 75.748 31.561C76.6281 30.7931 77.5761 31.0581 78.4969 31.3741C78.925 31.5202 78.9692 31.7886 78.711 32.176C78.5952 32.3159 78.4642 32.4425 78.3202 32.5532L76.8489 32.5429Z" fill="#FBEA54"/>
<path d="M33.4382 73.3613C34.6377 73.3613 35.8405 73.3613 37.0399 73.3613C37.1419 73.3613 37.2438 73.4632 37.3458 73.5142L33.4382 73.3613Z" fill="#FBEA54"/>
<path d="M74.2837 27.8945L76.2918 27.9183C75.6191 28.1086 74.9463 28.3125 74.2837 27.8945Z" fill="#FBEA54"/>
<path d="M63.176 25.3569L64.8444 25.1768C64.3449 25.768 63.7605 25.5743 63.176 25.3569Z" fill="#FBEA54"/>
<path d="M104.548 8.5308H102.659C103.264 8.2827 103.943 8.2827 104.548 8.5308Z" fill="#FBEA54"/>
<path d="M76.849 26.0641C76.2748 25.9758 75.67 26.2986 75.1229 25.9248L76.849 26.0641Z" fill="#FBEA54"/>
<path d="M76.8491 32.543H78.3204C78.0998 32.681 77.8449 32.7543 77.5848 32.7543C77.3246 32.7543 77.0696 32.681 76.8491 32.543Z" fill="#FBEA54"/>
<path d="M41.3824 75.4004H42.8775C42.6488 75.5274 42.3915 75.5941 42.13 75.5941C41.8684 75.5941 41.6111 75.5274 41.3824 75.4004Z" fill="#FBEA54"/>
</svg>
