<svg width="180" height="161" viewBox="0 0 180 161" fill="none" xmlns="http://www.w3.org/2000/svg">
<path d="M90.3803 112.559C89.8692 112.498 89.36 112.402 88.8505 112.38C88.5215 112.347 88.1891 112.39 87.8795 112.506C87.3298 112.771 86.7944 113.065 86.2756 113.387C86.1078 113.481 85.9531 113.596 85.8154 113.73C84.5501 115.049 83.2847 116.368 82.0377 117.706C81.7914 118.003 81.5657 118.316 81.3622 118.644L81.1583 118.83C79.941 120.771 78.7273 122.718 77.4972 124.658C77.0583 125.344 76.6005 125.995 76.1513 126.662L75.9821 126.837L72.8982 131.957L72.8143 132.227C71.7686 133.932 70.7279 135.637 69.6598 137.382C69.8498 137.522 70.0166 137.69 70.1542 137.882C70.2489 138.054 70.2933 138.372 70.1955 138.491C69.0729 139.862 68.7684 141.579 68.1743 143.17C68.0829 143.412 67.9589 143.639 67.8513 143.874L67.7762 144.123C67.1732 145.074 66.6197 146.064 65.9541 146.968C65.3692 147.766 65.1261 148.675 64.8171 149.574C64.7136 149.876 64.6136 150.184 64.5056 150.492L64.4245 150.753C63.9291 151.632 63.174 151.505 62.3925 151.278L60.5439 150.14C60.2235 149.793 59.9216 149.429 59.6394 149.051C59.3695 148.648 59.208 148.199 59.5127 147.721L59.577 147.482L62.28 143.02L62.4812 142.844C63.226 141.921 63.9577 140.989 64.7239 140.082C64.9472 139.805 65.2323 139.584 65.5563 139.437C66.7629 138.954 67.4736 137.976 68.1686 136.962C69.5527 134.954 70.9358 132.943 72.3176 130.93L72.5431 130.598C73.8919 128.874 74.7127 126.857 75.7132 124.937C76.3697 123.675 77.0899 122.448 77.8101 121.22C78.393 120.149 78.8131 118.997 79.0564 117.803C79.3598 116.551 79.5904 115.278 79.7921 114.005C80.0289 112.521 80.3879 111.096 81.3972 109.816C81.1682 109.702 80.932 109.605 80.69 109.523C78.8497 109.054 77.0101 108.601 75.1747 108.133C74.9275 108.069 74.6997 107.929 74.4514 107.878C74.2185 107.805 73.9697 107.8 73.7342 107.864C72.7272 108.34 71.7375 108.847 70.7598 109.376C70.4897 109.538 70.2539 109.753 70.066 110.006C69.003 111.344 68.026 112.758 66.8883 114.027C65.6233 115.436 64.6797 117.052 63.5473 118.539C62.9276 119.348 62.2799 120.136 61.5979 120.988L60.3236 120.057C60.5808 119.634 60.7694 119.302 60.9827 118.985C62.1033 117.407 63.0492 115.711 63.8035 113.928C64.0373 113.292 64.2016 112.633 64.2935 111.962C64.7024 109.191 65.4448 106.48 66.5045 103.888C67.1261 102.502 67.8777 101.178 68.749 99.9341C72.8017 93.8084 76.6045 87.5101 80.3691 81.2164C82.3806 77.8558 84.3531 74.476 86.3321 71.1006C88.1134 68.0582 89.8881 65.0113 91.6563 61.9598C91.7346 61.5457 91.4466 61.6672 91.2303 61.6596L87.4882 60.6163C87.1318 61.5339 86.799 62.3978 86.4548 63.2558C85.8179 64.8578 85.2022 66.4686 84.5133 68.0502C84.2386 68.558 83.9172 69.0391 83.5532 69.4872C83.5282 69.501 83.4765 69.4886 83.466 69.5066C83.4419 69.5588 83.4226 69.6131 83.4083 69.6688C82.4518 71.2384 80.9738 72.23 79.4688 73.1874C79.1144 73.4107 78.7995 73.2533 78.4354 72.9395C78.6023 71.922 78.7688 70.8518 78.9629 69.7949C79.0714 69.1684 79.2103 68.5455 79.3334 67.9233C79.5211 66.8839 79.9174 65.8934 80.4985 65.0114C81.0205 64.2393 81.3586 63.2664 82.0421 62.6992C82.8354 62.0349 83.2679 61.1447 83.9503 60.4272C84.0388 60.3262 84.1145 60.2147 84.1758 60.0953L84.2602 59.8777L83.8853 59.8634C83.1796 59.6925 82.4789 59.4861 81.7654 59.3602C81.1531 59.248 80.5283 59.2242 79.7701 59.1433C79.6017 59.4602 79.3536 59.8697 79.1746 60.2862C78.643 61.5221 77.9307 62.6722 77.0611 63.6987C75.72 65.2513 74.5345 66.9385 73.283 68.5724C73.215 68.6342 73.1487 68.6992 73.0793 68.7658C71.5093 70.644 70.2452 72.7374 68.9316 74.7928C67.9502 76.314 67.147 77.9431 66.5381 79.6479C66.2616 80.4361 65.8203 81.1843 65.6596 81.9904C64.9648 85.5206 63.0142 88.391 60.8954 91.1334C59.8615 92.4805 58.5643 93.6378 57.3934 94.8766C55.0312 97.3543 52.8396 99.9892 50.8336 102.763C49.3626 104.844 48.0283 107.025 46.6709 109.186C45.2592 111.434 43.8981 113.707 42.5058 115.961C41.8331 117.052 41.8282 117.051 40.7542 116.291L40.3467 115.601C42.0334 112.525 43.7381 109.46 45.4036 106.375C46.1037 105.081 46.7237 103.745 47.3815 102.433C47.4065 102.419 47.4441 102.399 47.4535 102.394C47.4629 102.342 47.4683 102.29 47.4699 102.238C47.8175 101.549 48.1093 100.826 48.5161 100.178C49.9551 97.8911 51.448 95.6352 52.8935 93.3523C53.4255 92.5095 53.8755 91.6138 54.3829 90.7559C54.7433 90.15 55.1314 89.5574 55.5081 88.9589L55.7026 88.7786C57.0205 87.0798 58.3085 85.3566 59.6692 83.6913C60.7031 82.4258 61.8688 81.2592 62.9013 79.9986C63.6294 79.0969 64.2062 78.0908 64.8505 77.1331L64.8645 76.8766C65.3297 75.9196 65.7737 74.9537 66.2617 74.0086C66.9845 72.6 67.6713 71.1704 68.4955 69.8203C69.97 67.3232 71.2686 64.7263 72.382 62.0486C72.7986 61.1426 73.1621 60.2129 73.4705 59.2645C73.6958 58.5167 73.6653 57.6893 74.2239 57.1621C73.9777 56.5062 73.7698 55.972 73.5842 55.4337C73.5197 55.2492 73.5058 55.0509 73.5439 54.8592C73.5821 54.6676 73.6709 54.4896 73.8011 54.3439C74.283 53.7365 74.7666 53.1323 75.2382 52.5061C75.7099 51.8799 76.0789 51.2897 76.5429 50.7166C77.007 50.1435 77.6191 49.5503 78.1215 48.9357C78.7845 48.1309 79.3881 47.2773 80.0543 46.4708C80.5235 45.9071 81.0422 45.3814 81.5592 44.8527C82.4987 43.8906 83.4466 42.9388 84.403 41.9973C84.9818 41.4058 85.5911 40.8449 86.2286 40.3172C86.9955 39.7163 87.5385 38.8266 88.3175 38.2477C89.5225 37.3531 90.353 36.0811 91.5978 35.2218C92.2836 34.7553 92.8083 34.0551 93.4224 33.473C94.2262 32.7091 95.0077 31.9493 95.8339 31.2262C96.7469 30.4309 97.7036 29.6931 98.6326 28.8973C100.554 27.2502 102.449 25.577 104.368 23.9348C105.017 23.3786 105.733 22.8997 106.393 22.3574C107.562 21.389 108.705 20.3896 109.874 19.4213C110.917 18.5506 111.976 17.7032 113.026 16.845C114.252 15.8398 115.476 14.8325 116.7 13.8231C117.931 12.8043 119.161 11.7776 120.396 10.7602C121.049 10.2182 121.711 9.687 122.367 9.15125L122.481 8.95807L125.302 4.55349L125.618 4.25327C126.383 3.09902 127.637 2.8216 128.852 2.71687C129.605 2.65407 130.396 3.09206 131.184 3.33182L132.904 4.36089C133.424 4.89102 133.968 5.40738 134.447 5.95988C134.694 6.23952 134.877 6.57008 134.982 6.92815C135.087 7.28621 135.112 7.66299 135.056 8.03183C134.947 8.95174 134.776 9.86323 134.544 10.76C133.653 13.9411 132.662 17.0957 131.803 20.2756C130.498 25.1445 129.211 30.0239 128.031 34.9343C127.059 38.9214 126.324 42.9626 125.83 47.0365C125.603 48.9761 125.231 50.8974 124.954 52.8198C124.635 55.0669 124.321 57.3155 124.076 59.5709C123.754 62.4676 123.464 65.3679 123.236 68.2706C123.088 70.1175 123.066 71.9772 123 73.8322C122.968 74.7309 122.866 74.9012 122.001 74.7892C121.055 74.6664 120.119 74.4744 119.202 74.2148C118.394 73.9853 117.621 73.6234 116.735 73.2819C115.927 74.705 115.084 76.1102 114.323 77.5602C113.289 79.5312 112.324 81.5378 111.325 83.5266C110.574 85.0264 109.818 86.5199 109.056 88.0074C109.038 88.0944 109.016 88.1801 108.994 88.2657L108.176 89.5836C107.922 89.5807 107.86 89.6838 107.994 89.9042C107.474 91.3104 106.725 92.6206 105.776 93.7815C105.751 93.7953 105.698 93.7797 105.688 93.7978C105.663 93.85 105.644 93.9043 105.63 93.96L103.321 97.2393C103.253 97.3011 103.186 97.3581 103.116 97.4168C102.466 98.3331 101.813 99.2462 101.179 100.141C100.324 99.9423 100.216 99.7689 100.6 99.1381C101.158 98.2319 101.729 97.3267 102.348 96.4644C103.618 94.7901 104.704 92.9846 105.588 91.0789C106.485 88.9997 107.38 86.9174 108.26 84.8069C108.469 84.1889 108.645 83.5599 108.786 82.9228C109.156 81.6352 109.502 80.3436 109.931 79.068C110.238 78.0835 110.704 77.1792 111.007 76.2092C111.477 74.7272 112.232 73.3462 112.73 71.8696C112.81 71.6297 112.871 71.3842 112.947 71.0853L112.192 70.6235L110.061 69.5065L109.094 69.0097C108.382 70.8161 107.705 72.5828 106.993 74.3366C106.521 75.489 105.985 76.6152 105.507 77.7631C104.831 79.3933 104.172 81.0319 103.53 82.6789C101.492 87.8769 99.444 93.0562 97.0996 98.1046C96.3701 99.6718 95.7869 101.297 95.0869 102.881C94.0818 105.134 93.4076 107.507 92.4201 109.762C92.2278 110.206 92.0241 110.645 91.8432 111.095C91.7459 111.399 91.587 111.68 91.3764 111.919C91.1658 112.159 90.908 112.353 90.6191 112.489L90.3803 112.559Z" fill="#FAE35B"/>
<path d="M77.1808 77.9152C78.1557 78.7172 78.3286 79.3808 77.8344 80.5373C77.7494 80.706 77.6062 80.8383 77.4313 80.9097C76.4176 81.2914 75.3917 81.6511 74.3642 82.0077C74.2108 82.0574 74.0469 82.0643 73.8899 82.0277C72.6612 81.7363 71.3125 80.0833 71.1582 78.704C71.6532 78.432 72.1326 78.1319 72.6259 77.8568C73.2962 77.4885 74.1047 77.5051 74.7524 77.0064C74.9698 76.838 75.4788 77.0518 75.8546 77.09L77.1808 77.9152Z" fill="#FAE35B"/>
<path d="M37.7691 122.637C38.4378 122.845 38.2969 123.293 38.2072 123.62C38.0487 124.41 37.8134 125.183 37.5049 125.927C36.4892 128.116 35.4067 130.273 34.3163 132.43C34.1346 132.724 33.8852 132.97 33.5891 133.148C33.5094 133.181 33.4224 133.192 33.3371 133.18C33.2517 133.168 33.171 133.134 33.1033 133.08C33.059 133.004 33.0349 132.917 33.0334 132.829C33.0319 132.74 33.0531 132.653 33.0949 132.575C34.1402 131.397 34.5073 129.89 35.1043 128.498C35.8289 126.848 36.4914 125.203 37.2003 123.562C37.368 123.241 37.5581 122.932 37.7691 122.637Z" fill="#FAE35B"/>
<path d="M60.5459 150.152L62.3945 151.289C61.6528 151.168 60.9887 150.759 60.5459 150.152Z" fill="#FAE35B"/>
<path d="M132.827 4.48053L131.107 3.45146C131.448 3.49965 131.776 3.61554 132.071 3.79227C132.366 3.96899 132.623 4.20301 132.827 4.48053Z" fill="#FAE35B"/>
<path d="M77.1808 77.9152L75.864 77.0849C76.1383 77.0904 76.4058 77.1707 76.6378 77.317C76.8698 77.4633 77.0575 77.6701 77.1808 77.9152Z" fill="#FAE35B"/>
<path d="M40.314 115.668L40.7215 116.358C40.3797 116.248 40.1225 116.092 40.314 115.668Z" fill="#FAE35B"/>
<path d="M107.999 89.9298C107.875 89.7043 107.928 89.6063 108.182 89.6092L107.999 89.9298Z" fill="#FAE35B"/>
<path d="M91.2182 61.6746C91.431 61.676 91.7225 61.5607 91.6442 61.9748L91.2182 61.6746Z" fill="#FAE35B"/>
<path d="M122.426 9.05023L122.312 9.2434L122.183 9.00846L122.426 9.05023Z" fill="#FAE35B"/>
<path d="M83.8642 59.8995L84.2391 59.9138L84.1547 60.1314L83.8642 59.8995Z" fill="#FAE35B"/>
<path d="M62.4833 142.855L62.2821 143.031C62.347 142.971 62.4136 142.914 62.4833 142.855Z" fill="#FAE35B"/>
<path d="M47.4371 102.305C47.4356 102.357 47.4302 102.409 47.4208 102.46C47.4208 102.46 47.3738 102.486 47.3487 102.5C47.3523 102.448 47.3593 102.397 47.3699 102.346C47.3699 102.346 47.4152 102.317 47.4371 102.305Z" fill="#FAE35B"/>
<path d="M83.396 69.6835C83.4103 69.6278 83.4297 69.5735 83.4538 69.5213C83.4538 69.5213 83.5039 69.4938 83.541 69.5019C83.4921 69.5614 83.4432 69.6209 83.396 69.6835Z" fill="#FAE35B"/>
<path d="M109.006 88.2881C109.028 88.2025 109.05 88.1168 109.068 88.0298C109.044 88.1203 109.028 88.2025 109.006 88.2881Z" fill="#FAE35B"/>
<path d="M73.0442 68.8058C73.1135 68.7391 73.1798 68.6741 73.2478 68.6123C73.1798 68.6741 73.1104 68.7408 73.0442 68.8058Z" fill="#FAE35B"/>
<path d="M105.642 93.9823C105.656 93.9266 105.676 93.8723 105.7 93.8201C105.715 93.8115 105.75 93.7926 105.789 93.8039L105.642 93.9823Z" fill="#FAE35B"/>
</svg>
