<svg width="256" height="159" viewBox="0 0 256 159" fill="none" xmlns="http://www.w3.org/2000/svg">
<path d="M170.291 48.0036C169.953 47.9117 169.603 47.8747 169.253 47.894C162.694 49.4533 156.405 51.8567 149.884 53.9895C149.743 57.9394 149.697 61.8441 149.433 65.736C149.169 69.5183 148.679 73.2877 148.261 77.302L151.734 77.2569C157.346 77.0687 162.957 77.6827 168.396 79.0804C169.892 79.5521 171.357 80.1137 172.784 80.7621C173.201 80.9177 173.592 81.1349 173.944 81.4065C174.589 81.9735 175.42 82.5083 175.233 83.5908C175.091 84.2867 174.344 84.6024 172.933 84.422C169.711 84.0096 166.489 83.4941 163.267 83.1011C159.487 82.5796 155.665 82.4307 151.856 82.6565C150.31 82.7789 148.782 83.0689 147.346 83.2686C147.124 83.6276 146.939 84.0074 146.791 84.4027C145.503 91.1425 143.028 97.5602 141.231 104.158C141.231 104.242 141.302 104.358 141.456 104.732C144.562 105.376 147.9 105.376 151.192 105.905C154.485 106.433 157.855 106.877 161.167 107.451C164.479 108.024 167.771 108.74 171.206 109.384C171.544 108.948 171.836 108.477 172.076 107.979C174.632 101.144 176.705 94.1379 178.281 87.0123C179.189 82.7016 179.382 78.3394 179.569 73.9643C179.614 72.7464 179.679 71.5286 179.737 70.2593C183.152 69.0672 184.892 71.1163 186.483 73.4101C186.992 73.1202 187.385 72.9333 187.772 72.6949C195.208 67.6626 202.688 62.7011 210.053 57.5657C212.534 55.8324 214.809 55.9097 217.276 57.2692C219.03 58.2675 220.587 59.5776 221.871 61.1353C222.318 61.6444 222.658 62.2381 222.872 62.8811C223.086 63.5241 223.168 64.2035 223.114 64.879C222.79 67.7867 222.014 70.6259 220.814 73.2942C220.657 73.6612 220.364 73.9531 219.996 74.1081C219.628 74.2632 219.215 74.2694 218.842 74.1253C216.633 73.641 214.635 72.4651 213.14 70.7683C212.553 70.1239 212.031 69.3701 211.387 68.5453C210.659 68.8804 209.937 69.1446 209.28 69.5247C204.615 72.2181 199.969 74.9566 195.298 77.637C193.068 78.9257 190.787 80.0856 188.384 81.3871C188.856 86.7407 188.6 92.1336 187.624 97.4185C186.715 102.618 184.466 107.425 183.287 112.747C184.505 113.173 185.549 113.534 186.586 113.914C190.697 115.409 194.84 116.833 198.906 118.456C201.302 119.409 203.618 120.551 205.833 121.871C207.421 122.922 208.901 124.126 210.253 125.467C210.785 126.028 211.207 126.684 211.497 127.4C211.585 127.576 211.624 127.773 211.609 127.97C211.594 128.167 211.525 128.356 211.411 128.516C211.296 128.677 211.139 128.803 210.958 128.881C210.777 128.959 210.577 128.986 210.382 128.959C209.173 128.759 207.99 128.422 206.857 127.954C199.453 124.713 191.862 121.916 184.125 119.578C183.397 119.352 182.636 119.242 181.824 119.062C180.207 121.523 179.55 124.288 178.377 126.794C177.205 129.301 176.013 131.885 174.756 134.397C173.5 136.91 171.766 139.075 170.755 141.936C171.85 142.078 172.688 142.22 173.57 142.284C182.101 142.937 190.407 145.336 197.972 149.333C200.949 150.899 203.945 152.433 206.883 154.069C207.845 154.638 208.726 155.331 209.506 156.131C209.841 156.466 209.873 157.104 210.111 157.787C209.429 157.987 208.73 158.125 208.024 158.2C205.949 158.2 204.1 157.388 202.225 156.518C198.275 154.649 194.318 152.774 190.33 150.977C183.538 147.916 176.341 147.04 168.976 147.11C168.475 147.068 167.971 147.136 167.499 147.31C167.027 147.484 166.598 147.759 166.244 148.116C165.923 148.437 165.523 148.669 165.085 148.788C164.646 148.908 164.184 148.912 163.744 148.799C161.979 148.476 160.226 148.098 158.486 147.665C157.857 147.501 157.272 147.2 156.772 146.785C156.272 146.37 155.87 145.849 155.593 145.261C155.832 143.367 156.702 141.543 157.578 139.739C160.432 133.888 163.377 128.07 166.193 122.213C166.966 120.608 167.591 118.933 168.371 117.103C167.69 116.69 166.987 116.315 166.264 115.982C160.245 113.611 153.873 112.909 147.526 112.18C145.403 112.016 143.27 112.016 141.147 112.18C140.065 112.274 138.99 112.429 137.925 112.644C137.146 114.088 136.437 115.357 135.773 116.646C135.557 117.106 135.204 117.488 134.762 117.74C134.32 117.991 133.811 118.1 133.305 118.05C131.673 118.03 130.061 117.677 128.57 117.012C127.079 116.347 125.739 115.385 124.632 114.184C124.214 113.804 123.923 113.302 123.801 112.75C123.678 112.197 123.73 111.62 123.949 111.098C124.806 108.907 125.644 106.703 126.572 104.538C130.175 96.1848 133.066 87.5412 135.213 78.7002C135.237 78.4861 135.237 78.27 135.213 78.0559C134.749 77.4953 134.214 77.7401 133.711 77.9657C131.528 78.8571 129.215 79.3902 126.862 79.5443C119.523 80.3498 112.306 79.5443 105.122 78.1332C103.143 77.753 101.172 77.3149 99.1871 76.9347C98.5427 76.8123 97.8662 76.7865 96.9319 76.6898C97.0224 77.4787 97.1579 78.2618 97.3378 79.0353C100.45 89.6799 105.296 99.5255 111.217 108.856C114.994 114.703 119.237 120.237 123.904 125.402C128.002 130.022 132.12 134.617 136.205 139.243C136.926 140.061 137.854 140.77 138.138 142.188C137.756 142.534 137.321 142.817 136.849 143.025C135.392 143.468 133.852 143.561 132.352 143.296C130.853 143.03 129.438 142.414 128.221 141.498C127.679 141.104 127.165 140.674 126.681 140.209C120.644 134.352 114.523 128.573 109.078 122.168C101.664 113.56 95.6797 103.818 91.3519 93.314C91.0349 92.6039 90.68 91.9112 90.2887 91.2392C90.2565 91.1812 90.0954 91.1876 89.973 91.1619C89.2255 91.4003 89.2062 92.1606 88.9485 92.7341C86.7577 97.6526 84.5755 102.578 82.4019 107.509C82.2215 107.915 82.0089 108.314 81.822 108.72C81.623 109.189 81.2736 109.577 80.829 109.825C80.3843 110.072 79.8699 110.164 79.3671 110.086C78.0777 110.023 76.8207 109.661 75.6957 109.028C74.5706 108.395 73.6083 107.509 72.8849 106.439C72.653 105.099 73.3166 103.997 73.7612 102.87C77.2922 93.8874 80.8448 84.9117 84.4187 75.9424C84.6185 75.4334 84.786 74.9115 85.0115 74.2671C83.8839 73.2748 82.5114 73.1975 81.2421 72.9398C78.4134 72.3792 76.4675 70.691 74.9404 68.526C74.9447 68.3423 74.987 68.1616 75.0648 67.9952C75.1425 67.8288 75.254 67.6803 75.3921 67.5592C75.5301 67.438 75.6919 67.3469 75.867 67.2915C76.0421 67.2361 76.2268 67.2176 76.4095 67.2373C77.9718 67.2529 79.5309 67.3821 81.0745 67.6239C83.0527 67.9718 84.9986 68.5067 87.1314 69.0028C88.4201 67.3855 89.1031 65.4847 89.915 63.6676C90.7269 61.8506 91.5709 59.982 92.3635 58.1262C93.156 56.2705 93.9872 54.4212 94.6767 52.5204C95.3661 50.6196 96.687 49.0538 96.8546 46.7213L86.9703 46.2316C85.6172 47.9971 85.7847 50.3361 84.6249 52.1854C82.7241 52.1854 81.9573 50.7163 80.9586 49.608C80.1209 48.6737 80.2305 47.4881 80.4689 46.3862C81.0617 43.6478 81.7576 40.9351 82.4019 38.203C82.6725 37.0303 83.3298 35.9156 83.0463 34.4207C81.1777 34.4207 79.5088 34.9878 77.6917 35.4581C76.7252 37.2301 76.4546 39.2469 75.9714 41.1799C73.8772 49.5564 71.8282 57.9329 69.7534 66.3481C68.3809 71.9023 67.0987 77.4889 65.5781 83.0045C63.7288 89.7121 61.712 96.3811 59.6758 103.024C58.7608 105.995 57.9554 106.33 54.9012 105.479C53.8184 105.211 52.7838 104.776 51.8341 104.191C49.856 102.902 48.7284 101.265 49.4242 98.5461C51.1833 91.7031 52.4333 84.7249 54.3277 77.927C57.8909 65.1625 62.1501 52.6171 66.7186 40.1747C66.9441 39.5304 67.1567 38.9247 67.4788 38.0162C66.7714 37.9539 66.06 37.9539 65.3525 38.0162C61.3898 38.8087 57.4335 39.6142 53.4901 40.4776C50.8418 41.0575 48.6059 40.4776 46.8469 38.3706C46.705 38.1985 46.5959 38.002 46.5247 37.7907C46.4866 37.5629 46.4694 37.3321 46.4732 37.1012C47.3173 35.9156 48.7026 35.6514 49.972 35.3099C54.8497 34.0212 59.7467 32.7905 64.6437 31.5663C65.7258 31.2695 66.8285 31.0541 67.9428 30.9219C69.9338 30.7415 71.0872 29.7621 71.9571 27.9257C73.3553 24.9682 76.2291 24.82 78.3103 27.4231C78.5421 27.7608 78.7426 28.1188 78.9095 28.4927C82.6983 28.0997 86.3582 27.7066 90.031 27.3651C90.5431 27.4264 91.0428 27.5655 91.513 27.7775C91.429 28.4286 91.3063 29.0741 91.1457 29.7106C90.5013 31.8498 89.7023 33.9632 89.0515 36.1089C88.5361 37.81 87.9368 39.5111 88.0271 41.4763L99.5738 41.4377C101.616 38.1708 102.834 34.5045 105.115 31.373C105.793 31.2887 106.479 31.2887 107.158 31.373C108.975 31.8305 109.8 32.9452 109.632 34.8009C109.476 36.0229 109.245 37.2344 108.943 38.4286C108.678 39.6335 108.363 40.8255 108.098 42.0305C108.098 42.301 108.137 42.5703 108.214 42.8294C109.748 43.6284 111.526 43.8991 113.247 44.3308C119.567 45.9354 125.598 48.5182 131.121 51.9856C133.831 53.7021 136.248 55.8428 138.28 58.326C138.57 58.326 138.679 58.326 138.756 58.326C138.834 58.326 138.969 58.1713 138.982 58.0811C139.388 54.8594 139.852 51.6377 140.148 48.4159C140.318 46.5155 140.346 44.6051 140.232 42.7006C140.097 40.3616 139.755 38.0355 139.478 35.4904C140.11 35.3311 140.76 35.2531 141.411 35.2584C142.75 35.525 143.934 36.2983 144.717 37.4169C146.461 39.6248 147.735 42.1662 148.46 44.8849C148.77 45.961 149.014 47.0564 149.343 48.3322C149.878 48.2706 150.405 48.1518 150.915 47.9778C156.611 45.278 162.63 43.4287 168.532 41.2766C172.591 39.801 176.264 40.6709 179.795 42.7521C180.852 43.3004 181.714 44.1629 182.261 45.2211C182.808 46.2793 183.013 47.481 182.849 48.6608C182.725 50.114 182.51 51.5581 182.205 52.9843C181.618 55.4844 181.006 57.9716 181.135 60.6199C178.899 61.8763 176.882 60.9291 174.885 60.375C174.141 60.1185 173.437 59.7608 172.791 59.3118C170.13 57.7139 168.719 55.5424 169.53 52.2949C169.865 50.9289 170.033 49.492 170.291 48.0036ZM97.9435 71.1614C101.8 72.0142 105.706 72.6275 109.638 72.9977C112.426 73.2578 115.233 73.2275 118.015 72.9075C120.249 72.6483 122.405 71.924 124.342 70.7812C125.635 70.0885 126.73 69.0789 127.526 67.8471C128.322 66.6152 128.792 65.2015 128.892 63.7385C129.362 58.7964 127.603 55.0269 123.215 52.4753C118.716 49.9199 113.713 48.3803 108.556 47.9649C107.83 47.9264 107.103 47.9264 106.378 47.9649C103.498 55.4909 100.701 62.7849 97.9113 70.1368C97.8795 70.4784 97.8904 70.8225 97.9435 71.1614Z" fill="#54BFFB"/>
<path d="M64.7409 3.45364C63.909 5.89153 62.7447 8.20292 61.2807 10.3224C57.1956 16.7658 53.1942 23.2544 49.1477 29.7172C48.5143 30.7769 47.826 31.8028 47.0858 32.7907C45.7971 34.466 44.1669 34.6787 42.395 33.4351C41.8078 32.9371 41.2646 32.3895 40.7712 31.7984C40.9259 29.8654 41.7442 28.2481 42.5303 26.6437C45.2043 21.2054 47.9428 15.8058 50.6555 10.3868C51.3746 9.16794 51.9047 7.84703 52.2277 6.46918C51.6554 6.44063 51.0817 6.46436 50.5137 6.54007C44.0584 8.05423 37.8131 10.3545 31.9179 13.3895C29.5088 14.6039 27.2919 16.1672 25.3391 18.0288C22.3493 20.9927 22.4202 23.0933 25.5968 25.922C26.2412 26.5212 26.9564 27.0947 27.6716 27.636C33.2581 31.8371 37.9812 36.9145 42.7558 41.9984C43.4001 42.6428 43.922 43.358 44.5084 44.0346C49.7211 50.1108 51.9055 57.2694 51.97 65.1562C52.0408 74.2415 46.2481 79.9762 38.8703 81.6386C31.062 83.5134 22.868 82.9673 15.3775 80.0728C9.72653 78.01 5.00303 73.9884 2.06529 68.7388C0.592076 66.2013 -0.119229 63.2933 0.0163149 60.3623C0.325601 54.7887 6.3051 47.7782 13.9148 49.5308C16.1219 49.9374 18.2565 50.6692 20.2488 51.7023C22.5813 53.0425 24.9847 54.2797 27.2464 55.7101C28.2293 56.4358 29.0981 57.3046 29.8238 58.2875C29.917 58.427 29.9744 58.5873 29.9912 58.7543C30.0079 58.9212 29.9834 59.0897 29.9197 59.245C29.8561 59.4002 29.7553 59.5375 29.6262 59.6447C29.4971 59.7519 29.3437 59.8257 29.1794 59.8597C28.3036 59.9887 27.4134 59.9887 26.5376 59.8597C24.0033 59.329 21.5962 58.3115 19.4497 56.8635C18.9607 56.4871 18.3573 56.29 17.7403 56.3052C17.1234 56.3205 16.5304 56.5471 16.0606 56.9473C11.9239 59.8017 10.4161 64.325 12.1043 69.0739C12.3392 69.7043 12.6081 70.3217 12.9097 70.9231C14.527 74.3897 16.9948 76.471 21.0864 75.9942C23.3094 75.73 25.5968 75.7364 27.7618 75.3498C31.0601 74.7692 34.0492 73.0472 36.2061 70.4852C38.3629 67.9232 39.5501 64.6843 39.5598 61.3353C39.7274 53.7835 37.8652 46.9535 32.7684 41.1157C28.2962 36.088 23.4799 31.3772 18.3544 27.0174C17.2526 26.0573 16.1894 25.0843 15.1778 24.0147C14.5592 23.3646 14.0126 22.6495 13.5476 21.8819C11.9303 19.1886 12.0914 16.7981 14.1919 14.472C15.2671 13.3283 16.4495 12.2904 17.7229 11.3727C20.3467 9.43695 23.2154 7.85743 26.2541 6.67537C35.0687 3.1508 44.1347 0.734509 53.6903 0.502545C54.4731 0.474926 55.2517 0.375698 56.0164 0.206131C59.5861 -0.547754 62.3375 0.818265 64.7409 3.45364Z" fill="#54BFFB"/>
<path d="M255.996 84.0676C256.011 84.3147 255.987 84.5625 255.925 84.8022C251.177 93.8562 246.925 103.161 243.186 112.677C240.074 111.82 238.624 109.597 237.639 107.064C237.361 106.356 237.709 105.28 238.044 104.487C239.166 101.794 240.396 99.1453 241.621 96.4906C242.697 94.1517 243.837 91.832 244.92 89.4866C245.062 89.0472 245.155 88.5934 245.197 88.1334C243.386 87.7211 241.749 87.9788 240.19 88.1334C239.989 88.4864 239.817 88.8548 239.675 89.2353C238.515 93.3398 237.271 97.4249 236.24 101.562C234.385 108.959 232.645 116.382 230.886 123.817C230.183 126.762 229.687 129.765 228.869 132.677C227.58 137.316 226.182 141.949 224.603 146.505C223.476 149.765 222.316 150.049 219.307 148.438C217.737 147.549 216.442 146.245 215.563 144.668C215.046 143.916 214.845 142.99 215.003 142.091C215.325 140.441 215.647 138.792 215.937 137.136C217 130.924 218.727 124.893 220.409 118.83C223.121 109.088 226.362 99.4997 230.029 90.1051C230.205 89.5812 230.351 89.0477 230.467 88.5072C228.057 87.9402 217.413 87.9981 214.184 88.6103C213.759 90.8526 213.991 93.1851 213.946 95.4983C213.901 97.8115 214.429 100.189 213.579 102.27C213.2 102.587 212.733 102.78 212.241 102.823C211.75 102.867 211.256 102.76 210.827 102.515C208.43 101.439 206.71 99.6415 206.175 97.0899C205.141 92.6031 204.552 88.0255 204.416 83.4233C204.416 81.3485 204.841 80.8459 206.832 80.4915C207.828 80.338 208.834 80.2519 209.841 80.2338C212.979 80.1371 216.124 80.0856 219.262 80.0082C228.006 79.7763 236.749 79.5572 245.487 79.2995C247.341 79.2221 249.191 79.5394 250.914 80.2303C252.637 80.9212 254.193 81.97 255.48 83.3073C255.677 83.5432 255.85 83.7978 255.996 84.0676Z" fill="#54BFFB"/>
</svg>
